999
dxfrw 0.5.11
0
SECTION
2
HEADER
9
$ACADVER
1
AC1021
9
$HANDSEED
5
20000
9
$DWGCODEPAGE
3
ANSI_1252
9
$INSBASE
10
0
20
0
30
0
9
$EXTMIN
10
-4.625
20
-100
30
0
9
$EXTMAX
10
117.908913061
20
23.125
30
0
9
$LIMMIN
10
0
20
0
9
$LIMMAX
10
420
20
297
9
$ORTHOMODE
70
0
9
$LTSCALE
40
1
9
$TEXTSTYLE
7
STANDARD
9
$CLAYER
8
0
9
$DIMASZ
40
2.5
9
$DIMLFAC
40
1
9
$DIMSCALE
40
1
9
$DIMEXO
40
0.625
9
$DIMEXE
40
1.25
9
$DIMTXT
40
2.5
9
$DIMTSZ
40
0
9
$DIMAUNIT
70
0
9
$DIMADEC
70
2
9
$DIMLUNIT
70
2
9
$DIMSTYLE
2
STANDARD
9
$DIMGAP
40
0.625
9
$DIMTIH
70
0
9
$LUNITS
70
2
9
$LUPREC
70
2
9
$AUNITS
70
0
9
$AUPREC
70
2
9
$SPLINESEGS
70
8
9
$GRIDMODE
70
1
9
$SNAPSTYLE
70
0
9
$GRIDUNIT
10
0
20
0
9
$PINSBASE
10
0
20
0
30
0
9
$PLIMMIN
10
0
20
0
9
$PLIMMAX
10
215.9
20
279.4
9
$INSUNITS
70
4
9
$PSVPSCALE
40
1
0
ENDSEC
0
SECTION
2
CLASSES
0
ENDSEC
0
SECTION
2
TABLES
0
TABLE
2
VPORT
5
8
330
0
100
AcDbSymbolTable
70
1
0
VPORT
5
31
330
2
100
AcDbSymbolTableRecord
100
AcDbViewportTableRecord
2
*ACTIVE
70
0
10
0
20
0
11
1
21
1
12
95.5
22
12.1
13
0
23
0
14
10
24
10
15
10
25
10
16
0
26
0
36
1
17
0
27
0
37
0
40
167.4
41
1.86618876941
42
50
43
0
44
0
50
0
51
0
71
0
72
100
73
1
74
3
75
0
76
1
77
0
78
0
281
0
65
1
110
0
120
0
130
0
111
1
121
0
131
0
112
0
122
1
132
0
79
0
146
0
348
10020
60
7
61
5
292
1
282
1
141
0
142
0
63
250
421
3358443
0
ENDTAB
0
TABLE
2
LTYPE
5
5
330
0
100
AcDbSymbolTable
70
4
0
LTYPE
5
14
330
5
100
AcDbSymbolTableRecord
100
AcDbLinetypeTableRecord
2
ByBlock
70
0
3

72
65
73
0
40
0
0
LTYPE
5
15
330
5
100
AcDbSymbolTableRecord
100
AcDbLinetypeTableRecord
2
ByLayer
70
0
3

72
65
73
0
40
0
0
LTYPE
5
16
330
5
100
AcDbSymbolTableRecord
100
AcDbLinetypeTableRecord
2
Continuous
70
0
3
Solid line
72
65
73
0
40
0
0
LTYPE
5
32
330
5
100
AcDbSymbolTableRecord
100
AcDbLinetypeTableRecord
2
DOT
70
0
3
Dot . . . . . . . . . . . . . . . . . . . . . .
72
65
73
2
40
6.35
49
0
74
0
49
-6.35
74
0
0
LTYPE
5
33
330
5
100
AcDbSymbolTableRecord
100
AcDbLinetypeTableRecord
2
DOT2
70
0
3
Dot (.5x) .....................................
72
65
73
2
40
3.175
49
0
74
0
49
-3.175
74
0
0
LTYPE
5
34
330
5
100
AcDbSymbolTableRecord
100
AcDbLinetypeTableRecord
2
DOTX2
70
0
3
Dot (2x) .  .  .  .  .  .  .  .  .  .  .  .  .
72
65
73
2
40
12.7
49
0
74
0
49
-12.7
74
0
0
LTYPE
5
35
330
5
100
AcDbSymbolTableRecord
100
AcDbLinetypeTableRecord
2
DASHED
70
0
3
Dot . . . . . . . . . . . . . . . . . . . . . .
72
65
73
2
40
19.05
49
12.7
74
0
49
-6.35
74
0
0
LTYPE
5
36
330
5
100
AcDbSymbolTableRecord
100
AcDbLinetypeTableRecord
2
DASHED2
70
0
3
Dashed (.5x) _ _ _ _ _ _ _ _ _ _ _ _ _ _ _ _ _
72
65
73
2
40
9.525
49
6.35
74
0
49
-3.175
74
0
0
LTYPE
5
37
330
5
100
AcDbSymbolTableRecord
100
AcDbLinetypeTableRecord
2
DASHEDX2
70
0
3
Dashed (2x) ____  ____  ____  ____  ____  ___
72
65
73
2
40
38.1
49
25.4
74
0
49
-12.7
74
0
0
LTYPE
5
38
330
5
100
AcDbSymbolTableRecord
100
AcDbLinetypeTableRecord
2
DASHDOT
70
0
3
Dash dot __ . __ . __ . __ . __ . __ . __ . __
72
65
73
4
40
25.4
49
12.7
74
0
49
-6.35
74
0
49
0
74
0
49
-6.35
74
0
0
LTYPE
5
39
330
5
100
AcDbSymbolTableRecord
100
AcDbLinetypeTableRecord
2
DASHDOT2
70
0
3
Dash dot (.5x) _._._._._._._._._._._._._._._.
72
65
73
4
40
12.7
49
6.35
74
0
49
-3.175
74
0
49
0
74
0
49
-3.175
74
0
0
LTYPE
5
3A
330
5
100
AcDbSymbolTableRecord
100
AcDbLinetypeTableRecord
2
DASHDOTX2
70
0
3
Dash dot (2x) ____  .  ____  .  ____  .  ___
72
65
73
4
40
50.8
49
25.4
74
0
49
-12.7
74
0
49
0
74
0
49
-12.7
74
0
0
LTYPE
5
3B
330
5
100
AcDbSymbolTableRecord
100
AcDbLinetypeTableRecord
2
DIVIDE
70
0
3
Divide ____ . . ____ . . ____ . . ____ . . ____
72
65
73
6
40
31.75
49
12.7
74
0
49
-6.35
74
0
49
0
74
0
49
-6.35
74
0
49
0
74
0
49
-6.35
74
0
0
LTYPE
5
3C
330
5
100
AcDbSymbolTableRecord
100
AcDbLinetypeTableRecord
2
DIVIDE2
70
0
3
Divide (.5x) __..__..__..__..__..__..__..__.._
72
65
73
6
40
15.875
49
6.35
74
0
49
-3.175
74
0
49
0
74
0
49
-3.175
74
0
49
0
74
0
49
-3.175
74
0
0
LTYPE
5
3D
330
5
100
AcDbSymbolTableRecord
100
AcDbLinetypeTableRecord
2
DIVIDEX2
70
0
3
Divide (2x) ________  .  .  ________  .  .  _
72
65
73
6
40
63.5
49
25.4
74
0
49
-12.7
74
0
49
0
74
0
49
-12.7
74
0
49
0
74
0
49
-12.7
74
0
0
LTYPE
5
3E
330
5
100
AcDbSymbolTableRecord
100
AcDbLinetypeTableRecord
2
BORDER
70
0
3
Border __ __ . __ __ . __ __ . __ __ . __ __ .
72
65
73
6
40
44.45
49
12.7
74
0
49
-6.35
74
0
49
12.7
74
0
49
-6.35
74
0
49
0
74
0
49
-6.35
74
0
0
LTYPE
5
3F
330
5
100
AcDbSymbolTableRecord
100
AcDbLinetypeTableRecord
2
BORDER2
70
0
3
Border (.5x) __.__.__.__.__.__.__.__.__.__.__.
72
65
73
6
40
22.225
49
6.35
74
0
49
-3.175
74
0
49
6.35
74
0
49
-3.175
74
0
49
0
74
0
49
-3.175
74
0
0
LTYPE
5
40
330
5
100
AcDbSymbolTableRecord
100
AcDbLinetypeTableRecord
2
BORDERX2
70
0
3
Border (2x) ____  ____  .  ____  ____  .  ___
72
65
73
6
40
88.9
49
25.4
74
0
49
-12.7
74
0
49
25.4
74
0
49
-12.7
74
0
49
0
74
0
49
-12.7
74
0
0
LTYPE
5
41
330
5
100
AcDbSymbolTableRecord
100
AcDbLinetypeTableRecord
2
CENTER
70
0
3
Center ____ _ ____ _ ____ _ ____ _ ____ _ ____
72
65
73
4
40
50.8
49
31.75
74
0
49
-6.35
74
0
49
6.35
74
0
49
-6.35
74
0
0
LTYPE
5
42
330
5
100
AcDbSymbolTableRecord
100
AcDbLinetypeTableRecord
2
CENTER2
70
0
3
Center (.5x) ___ _ ___ _ ___ _ ___ _ ___ _ ___
72
65
73
4
40
28.575
49
19.05
74
0
49
-3.175
74
0
49
3.175
74
0
49
-3.175
74
0
0
LTYPE
5
43
330
5
100
AcDbSymbolTableRecord
100
AcDbLinetypeTableRecord
2
CENTERX2
70
0
3
Center (2x) ________  __  ________  __  _____
72
65
73
4
40
101.6
49
63.5
74
0
49
-12.7
74
0
49
12.7
74
0
49
-12.7
74
0
0
ENDTAB
0
TABLE
2
LAYER
5
2
330
0
100
AcDbSymbolTable
70
1
0
LAYER
5
10
330
2
100
AcDbSymbolTableRecord
100
AcDbLayerTableRecord
2
0
70
0
62
7
6
CONTINUOUS
370
0
390
F
0
ENDTAB
0
TABLE
2
STYLE
5
3
330
0
100
AcDbSymbolTable
70
3
0
STYLE
5
44
330
2
100
AcDbSymbolTableRecord
100
AcDbTextStyleTableRecord
2
Standard
70
0
40
0
41
1
50
0
71
0
42
1
3
txt
4

0
ENDTAB
0
TABLE
2
VIEW
5
6
330
0
100
AcDbSymbolTable
70
0
0
ENDTAB
0
TABLE
2
UCS
5
7
330
0
100
AcDbSymbolTable
70
0
0
ENDTAB
0
TABLE
2
APPID
5
9
330
0
100
AcDbSymbolTable
70
1
0
APPID
5
12
330
9
100
AcDbSymbolTableRecord
100
AcDbRegAppTableRecord
2
ACAD
70
0
0
ENDTAB
0
TABLE
2
DIMSTYLE
5
A
330
0
100
AcDbSymbolTable
70
1
100
AcDbDimStyleTable
71
1
0
DIMSTYLE
105
45
330
A
100
AcDbSymbolTableRecord
100
AcDbDimStyleTableRecord
2
Standard
70
0
40
1
41
2.5
42
0.625
43
0.38
44
1.25
45
0
46
0
47
0
48
0
140
2.5
141
0.09
142
0
143
25.4
144
1
145
0
146
1
147
0.625
148
0
71
0
72
0
73
0
74
1
75
0
76
0
77
0
78
0
79
0
170
0
171
2
172
0
173
0
174
0
175
0
176
0
177
0
178
0
179
0
271
4
272
4
273
2
274
2
275
0
276
0
277
2
278
46
279
0
280
0
281
0
282
0
283
1
284
0
285
0
286
0
288
0
289
3
340
Standard
341

371
-2
372
-2
0
ENDTAB
0
TABLE
2
BLOCK_RECORD
5
1
330
0
100
AcDbSymbolTable
70
2
0
BLOCK_RECORD
5
1F
330
1
100
AcDbSymbolTableRecord
100
AcDbBlockTableRecord
2
*Model_Space
70
0
280
1
281
0
0
BLOCK_RECORD
5
1E
330
1
100
AcDbSymbolTableRecord
100
AcDbBlockTableRecord
2
*Paper_Space
70
0
280
1
281
0
0
BLOCK_RECORD
5
46
330
1
100
AcDbSymbolTableRecord
100
AcDbBlockTableRecord
2
*D23
70
0
280
1
281
0
0
BLOCK_RECORD
5
49
330
1
100
AcDbSymbolTableRecord
100
AcDbBlockTableRecord
2
*D7
70
0
280
1
281
0
0
BLOCK_RECORD
5
4C
330
1
100
AcDbSymbolTableRecord
100
AcDbBlockTableRecord
2
*D13
70
0
280
1
281
0
0
BLOCK_RECORD
5
4F
330
1
100
AcDbSymbolTableRecord
100
AcDbBlockTableRecord
2
*D17
70
0
280
1
281
0
0
BLOCK_RECORD
5
52
330
1
100
AcDbSymbolTableRecord
100
AcDbBlockTableRecord
2
*D1
70
0
280
1
281
0
0
BLOCK_RECORD
5
55
330
1
100
AcDbSymbolTableRecord
100
AcDbBlockTableRecord
2
*D16
70
0
280
1
281
0
0
BLOCK_RECORD
5
58
330
1
100
AcDbSymbolTableRecord
100
AcDbBlockTableRecord
2
*D19
70
0
280
1
281
0
0
BLOCK_RECORD
5
5B
330
1
100
AcDbSymbolTableRecord
100
AcDbBlockTableRecord
2
*D5
70
0
280
1
281
0
0
BLOCK_RECORD
5
5E
330
1
100
AcDbSymbolTableRecord
100
AcDbBlockTableRecord
2
*D3
70
0
280
1
281
0
0
BLOCK_RECORD
5
61
330
1
100
AcDbSymbolTableRecord
100
AcDbBlockTableRecord
2
*D18
70
0
280
1
281
0
0
BLOCK_RECORD
5
64
330
1
100
AcDbSymbolTableRecord
100
AcDbBlockTableRecord
2
*D14
70
0
280
1
281
0
0
BLOCK_RECORD
5
67
330
1
100
AcDbSymbolTableRecord
100
AcDbBlockTableRecord
2
*D11
70
0
280
1
281
0
0
BLOCK_RECORD
5
6A
330
1
100
AcDbSymbolTableRecord
100
AcDbBlockTableRecord
2
*D4
70
0
280
1
281
0
0
BLOCK_RECORD
5
6D
330
1
100
AcDbSymbolTableRecord
100
AcDbBlockTableRecord
2
*D8
70
0
280
1
281
0
0
BLOCK_RECORD
5
70
330
1
100
AcDbSymbolTableRecord
100
AcDbBlockTableRecord
2
*D15
70
0
280
1
281
0
0
BLOCK_RECORD
5
73
330
1
100
AcDbSymbolTableRecord
100
AcDbBlockTableRecord
2
*D6
70
0
280
1
281
0
0
BLOCK_RECORD
5
76
330
1
100
AcDbSymbolTableRecord
100
AcDbBlockTableRecord
2
*D10
70
0
280
1
281
0
0
BLOCK_RECORD
5
79
330
1
100
AcDbSymbolTableRecord
100
AcDbBlockTableRecord
2
*D20
70
0
280
1
281
0
0
BLOCK_RECORD
5
7C
330
1
100
AcDbSymbolTableRecord
100
AcDbBlockTableRecord
2
*D25
70
0
280
1
281
0
0
BLOCK_RECORD
5
7F
330
1
100
AcDbSymbolTableRecord
100
AcDbBlockTableRecord
2
*D22
70
0
280
1
281
0
0
BLOCK_RECORD
5
82
330
1
100
AcDbSymbolTableRecord
100
AcDbBlockTableRecord
2
*D12
70
0
280
1
281
0
0
BLOCK_RECORD
5
85
330
1
100
AcDbSymbolTableRecord
100
AcDbBlockTableRecord
2
*D24
70
0
280
1
281
0
0
BLOCK_RECORD
5
88
330
1
100
AcDbSymbolTableRecord
100
AcDbBlockTableRecord
2
*D2
70
0
280
1
281
0
0
BLOCK_RECORD
5
8B
330
1
100
AcDbSymbolTableRecord
100
AcDbBlockTableRecord
2
*D21
70
0
280
1
281
0
0
BLOCK_RECORD
5
8E
330
1
100
AcDbSymbolTableRecord
100
AcDbBlockTableRecord
2
*D9
70
0
280
1
281
0
0
ENDTAB
0
ENDSEC
0
SECTION
2
BLOCKS
0
BLOCK
5
20
330
1F
100
AcDbEntity
8
0
100
AcDbBlockBegin
2
*Model_Space
70
0
10
0
20
0
30
0
3
*Model_Space
1

0
ENDBLK
5
21
330
1F
100
AcDbEntity
8
0
100
AcDbBlockEnd
0
BLOCK
5
1C
330
1B
100
AcDbEntity
8
0
100
AcDbBlockBegin
2
*Paper_Space
70
0
10
0
20
0
30
0
3
*Paper_Space
1

0
ENDBLK
5
1D
330
1F
100
AcDbEntity
8
0
100
AcDbBlockEnd
0
BLOCK
5
47
330
46
100
AcDbEntity
8
0
100
AcDbBlockBegin
2
*D23
70
1
10
0
20
0
3
*D23
1

0
LINE
5
91
100
AcDbEntity
8
0
6
CONTINUOUS
62
7
370
0
100
AcDbLine
10
32.01938
20
-35.0089935046
11
41.2235563206
21
-19.0668924754
0
LINE
5
92
100
AcDbEntity
8
0
6
CONTINUOUS
62
7
370
0
100
AcDbLine
10
39.51938
20
-39.3391205235
11
48.7235563206
21
-23.3970194943
0
LINE
5
93
100
AcDbEntity
8
0
6
CONTINUOUS
62
7
370
0
100
AcDbLine
10
40.5985563206
20
-20.1494242302
11
48.0985563206
21
-24.4795512491
0
SOLID
5
94
100
AcDbEntity
8
0
6
CONTINUOUS
62
7
370
0
100
AcDbTrace
10
40.5985563206
20
-20.1494242302
30
0
11
42.971762159
21
-21.0389111413
31
0
12
42.5554775012
22
-21.759937319
32
0
13
42.5554775012
23
-21.759937319
33
0
0
SOLID
5
95
100
AcDbEntity
8
0
6
CONTINUOUS
62
7
370
0
100
AcDbTrace
10
48.0985563206
20
-24.4795512491
30
0
11
45.7253504823
21
-23.5900643379
31
0
12
46.14163514
22
-22.8690381602
32
0
13
46.14163514
23
-22.8690381602
33
0
0
MTEXT
5
96
100
AcDbEntity
8
0
6
CONTINUOUS
62
7
370
0
100
AcDbMText
10
46
20
-20
30
0
40
2.5
41
5.83333333333
71
5
72
1
1
8.66
7
standard
210
0
220
0
230
1
50
330
73
2
44
1
0
ENDBLK
5
48
330
46
100
AcDbEntity
8
0
100
AcDbBlockEnd
0
BLOCK
5
4A
330
49
100
AcDbEntity
8
0
100
AcDbBlockBegin
2
*D7
70
1
10
0
20
0
3
*D7
1

0
LINE
5
97
100
AcDbEntity
8
0
6
CONTINUOUS
62
7
370
0
100
AcDbLine
10
37
20
-5
11
54
21
-5
0
SOLID
5
98
100
AcDbEntity
8
0
6
CONTINUOUS
62
7
370
0
100
AcDbTrace
10
37
20
-5
30
0
11
39.5
21
-4.58371534223
31
0
12
39.5
22
-5.41628465777
32
0
13
39.5
23
-5.41628465777
33
0
0
SOLID
5
99
100
AcDbEntity
8
0
6
CONTINUOUS
62
7
370
0
100
AcDbTrace
10
54
20
-5
30
0
11
51.5
21
-5.41628465777
31
0
12
51.5
22
-4.58371534223
32
0
13
51.5
23
-4.58371534223
33
0
0
MTEXT
5
9A
100
AcDbEntity
8
0
6
CONTINUOUS
62
7
370
0
100
AcDbMText
10
45.5
20
-3.125
30
0
40
2.5
41
2.5
71
5
72
1
1
17
7
standard
210
0
220
0
230
1
50
0
73
2
44
1
0
LINE
5
9B
100
AcDbEntity
8
0
6
CONTINUOUS
62
7
370
0
100
AcDbLine
10
37
20
-0.625
11
37
21
-6.25
0
LINE
5
9C
100
AcDbEntity
8
0
6
CONTINUOUS
62
7
370
0
100
AcDbLine
10
54
20
-0.625
11
54
21
-6.25
0
ENDBLK
5
4B
330
49
100
AcDbEntity
8
0
100
AcDbBlockEnd
0
BLOCK
5
4D
330
4C
100
AcDbEntity
8
0
100
AcDbBlockBegin
2
*D13
70
1
10
0
20
0
3
*D13
1

0
LINE
5
9D
100
AcDbEntity
8
0
6
CONTINUOUS
62
7
370
0
100
AcDbLine
10
31.0068619869
20
-74.2799743916
11
38.4789943169
21
-87.2220872282
0
LINE
5
9E
100
AcDbEntity
8
0
6
CONTINUOUS
62
7
370
0
100
AcDbLine
10
34.3244709928
20
-72.364551939
11
41.7966033228
21
-85.3066647756
0
LINE
5
9F
100
AcDbEntity
8
0
6
CONTINUOUS
62
7
370
0
100
AcDbLine
10
33.523867298
20
-88.6395554734
11
45.5017303418
21
-81.7241330209
0
SOLID
5
A0
100
AcDbEntity
8
0
6
CONTINUOUS
62
7
370
0
100
AcDbTrace
10
37.8539943169
20
-86.1395554734
30
0
11
35.8970731363
21
-87.7500685623
31
0
12
35.4807884786
22
-87.0290423846
32
0
13
35.4807884786
23
-87.0290423846
33
0
0
SOLID
5
A1
100
AcDbEntity
8
0
6
CONTINUOUS
62
7
370
0
100
AcDbTrace
10
41.1716033228
20
-84.2241330208
30
0
11
43.1285245034
21
-82.613619932
31
0
12
43.5448091612
22
-83.3346461097
32
0
13
43.5448091612
23
-83.3346461097
33
0
0
MTEXT
5
A2
100
AcDbEntity
8
0
6
CONTINUOUS
62
7
370
0
100
AcDbMText
10
43.301276628
20
-80.8295020554
30
0
40
2.5
41
5.83333333333
71
5
72
1
1
3.83
7
standard
210
0
220
0
230
1
50
29.9999999997
73
2
44
1
0
ENDBLK
5
4E
330
4C
100
AcDbEntity
8
0
100
AcDbBlockEnd
0
BLOCK
5
50
330
4F
100
AcDbEntity
8
0
100
AcDbBlockBegin
2
*D17
70
1
10
0
20
0
3
*D17
1

0
LINE
5
A3
100
AcDbEntity
8
0
6
CONTINUOUS
62
7
370
0
100
AcDbLine
10
32.01938
20
-63.8253838534
11
36.8629620962
21
-55.4360535721
0
LINE
5
A4
100
AcDbEntity
8
0
6
CONTINUOUS
62
7
370
0
100
AcDbLine
10
39.51938
20
-68.1555108723
11
44.3629620962
21
-59.766180591
0
LINE
5
A5
100
AcDbEntity
8
0
6
CONTINUOUS
62
7
370
0
100
AcDbLine
10
36.2379620962
20
-56.5185853268
11
43.7379620962
21
-60.8487123457
0
SOLID
5
A6
100
AcDbEntity
8
0
6
CONTINUOUS
62
7
370
0
100
AcDbTrace
10
36.2379620962
20
-56.5185853268
30
0
11
38.6111679346
21
-57.408072238
31
0
12
38.1948832768
22
-58.1290984157
32
0
13
38.1948832768
23
-58.1290984157
33
0
0
SOLID
5
A7
100
AcDbEntity
8
0
6
CONTINUOUS
62
7
370
0
100
AcDbTrace
10
43.7379620962
20
-60.8487123457
30
0
11
41.3647562579
21
-59.9592254346
31
0
12
41.7810409157
22
-59.2381992569
32
0
13
41.7810409157
23
-59.2381992569
33
0
0
MTEXT
5
A8
100
AcDbEntity
8
0
6
CONTINUOUS
62
7
370
0
100
AcDbMText
10
40.9254620962
20
-57.0598512042
30
0
40
2.5
41
5.83333333333
71
5
72
1
1
8.66
7
standard
210
0
220
0
230
1
50
330
73
2
44
1
0
ENDBLK
5
51
330
4F
100
AcDbEntity
8
0
100
AcDbBlockEnd
0
BLOCK
5
53
330
52
100
AcDbEntity
8
0
100
AcDbBlockBegin
2
*D1
70
1
10
0
20
0
3
*D1
1

0
LINE
5
A9
100
AcDbEntity
8
0
6
CONTINUOUS
62
7
370
0
100
AcDbLine
10
0
20
20
11
91
21
20
0
SOLID
5
AA
100
AcDbEntity
8
0
6
CONTINUOUS
62
7
370
0
100
AcDbTrace
10
0
20
20
30
0
11
2.5
21
20.4162846578
31
0
12
2.5
22
19.5837153422
32
0
13
2.5
23
19.5837153422
33
0
0
SOLID
5
AB
100
AcDbEntity
8
0
6
CONTINUOUS
62
7
370
0
100
AcDbTrace
10
91
20
20
30
0
11
88.5
21
19.5837153422
31
0
12
88.5
22
20.4162846578
32
0
13
88.5
23
20.4162846578
33
0
0
MTEXT
5
AC
100
AcDbEntity
8
0
6
CONTINUOUS
62
7
370
0
100
AcDbMText
10
45.5
20
21.875
30
0
40
2.5
41
2.5
71
5
72
1
1
91
7
standard
210
0
220
0
230
1
50
0
73
2
44
1
0
LINE
5
AD
100
AcDbEntity
8
0
6
CONTINUOUS
62
7
370
0
100
AcDbLine
10
3.82702124734e-17
20
12.625
11
7.65404249467e-17
21
21.25
0
LINE
5
AE
100
AcDbEntity
8
0
6
CONTINUOUS
62
7
370
0
100
AcDbLine
10
91
20
12.625
11
91
21
21.25
0
ENDBLK
5
54
330
52
100
AcDbEntity
8
0
100
AcDbBlockEnd
0
BLOCK
5
56
330
55
100
AcDbEntity
8
0
100
AcDbBlockBegin
2
*D16
70
1
10
0
20
0
3
*D16
1

0
LINE
5
AF
100
AcDbEntity
8
0
6
CONTINUOUS
62
7
370
0
100
AcDbLine
10
34.6369709928
20
-67.4295454436
11
60.25
21
-67.4295454436
0
LINE
5
B0
100
AcDbEntity
8
0
6
CONTINUOUS
62
7
370
0
100
AcDbLine
10
34.6369709928
20
-66.8521951744
11
60.25
21
-66.8521951744
0
LINE
5
B1
100
AcDbEntity
8
0
6
CONTINUOUS
62
7
370
0
100
AcDbLine
10
59
20
-72.4295454436
11
59
21
-61.8521951744
0
SOLID
5
B2
100
AcDbEntity
8
0
6
CONTINUOUS
62
7
370
0
100
AcDbTrace
10
59
20
-67.4295454436
30
0
11
59.4162846578
21
-69.9295454436
31
0
12
58.5837153422
22
-69.9295454436
32
0
13
58.5837153422
23
-69.9295454436
33
0
0
SOLID
5
B3
100
AcDbEntity
8
0
6
CONTINUOUS
62
7
370
0
100
AcDbTrace
10
59
20
-66.8521951744
30
0
11
58.5837153422
21
-64.3521951744
31
0
12
59.4162846578
22
-64.3521951744
32
0
13
59.4162846578
23
-64.3521951744
33
0
0
MTEXT
5
B4
100
AcDbEntity
8
0
6
CONTINUOUS
62
7
370
0
100
AcDbMText
10
57.125
20
-63.3105285077
30
0
40
2.5
41
5.83333333333
71
5
72
1
1
0.58
7
standard
210
0
220
0
230
1
50
90
73
2
44
1
0
ENDBLK
5
57
330
55
100
AcDbEntity
8
0
100
AcDbBlockEnd
0
BLOCK
5
59
330
58
100
AcDbEntity
8
0
100
AcDbBlockBegin
2
*D19
70
1
10
0
20
0
3
*D19
1

0
LINE
5
B5
100
AcDbEntity
8
0
6
CONTINUOUS
62
7
370
0
100
AcDbLine
10
34.6369709928
20
-38.0358048256
11
68.45688
21
-38.0358048256
0
LINE
5
B6
100
AcDbEntity
8
0
6
CONTINUOUS
62
7
370
0
100
AcDbLine
10
34.6369709928
20
-44.944
11
68.45688
21
-44.944
0
LINE
5
B7
100
AcDbEntity
8
0
6
CONTINUOUS
62
7
370
0
100
AcDbLine
10
67.20688
20
-38.0358048256
11
67.20688
21
-44.944
0
SOLID
5
B8
100
AcDbEntity
8
0
6
CONTINUOUS
62
7
370
0
100
AcDbTrace
10
67.20688
20
-38.0358048256
30
0
11
67.6231646578
21
-40.5358048256
31
0
12
66.7905953422
22
-40.5358048256
32
0
13
66.7905953422
23
-40.5358048256
33
0
0
SOLID
5
B9
100
AcDbEntity
8
0
6
CONTINUOUS
62
7
370
0
100
AcDbTrace
10
67.20688
20
-44.944
30
0
11
66.7905953422
21
-42.444
31
0
12
67.6231646578
22
-42.444
32
0
13
67.6231646578
23
-42.444
33
0
0
MTEXT
5
BA
100
AcDbEntity
8
0
6
CONTINUOUS
62
7
370
0
100
AcDbMText
10
65
20
-34
30
0
40
2.5
41
5.27777777778
71
5
72
1
1
6.91
7
standard
210
0
220
0
230
1
50
90
73
2
44
1
0
ENDBLK
5
5A
330
58
100
AcDbEntity
8
0
100
AcDbBlockEnd
0
BLOCK
5
5C
330
5B
100
AcDbEntity
8
0
100
AcDbBlockBegin
2
*D5
70
1
10
0
20
0
3
*D5
1

0
LINE
5
BB
100
AcDbEntity
8
0
6
CONTINUOUS
62
7
370
0
100
AcDbLine
10
1
20
-5
11
18
21
-5
0
SOLID
5
BC
100
AcDbEntity
8
0
6
CONTINUOUS
62
7
370
0
100
AcDbTrace
10
1
20
-5
30
0
11
3.5
21
-4.58371534223
31
0
12
3.5
22
-5.41628465777
32
0
13
3.5
23
-5.41628465777
33
0
0
SOLID
5
BD
100
AcDbEntity
8
0
6
CONTINUOUS
62
7
370
0
100
AcDbTrace
10
18
20
-5
30
0
11
15.5
21
-5.41628465777
31
0
12
15.5
22
-4.58371534223
32
0
13
15.5
23
-4.58371534223
33
0
0
MTEXT
5
BE
100
AcDbEntity
8
0
6
CONTINUOUS
62
7
370
0
100
AcDbMText
10
9.5
20
-3.125
30
0
40
2.5
41
2.5
71
5
72
1
1
17
7
standard
210
0
220
0
230
1
50
0
73
2
44
1
0
LINE
5
BF
100
AcDbEntity
8
0
6
CONTINUOUS
62
7
370
0
100
AcDbLine
10
1
20
-0.625
11
1
21
-6.25
0
LINE
5
C0
100
AcDbEntity
8
0
6
CONTINUOUS
62
7
370
0
100
AcDbLine
10
18
20
-0.625
11
18
21
-6.25
0
ENDBLK
5
5D
330
5B
100
AcDbEntity
8
0
100
AcDbBlockEnd
0
BLOCK
5
5F
330
5E
100
AcDbEntity
8
0
100
AcDbBlockBegin
2
*D3
70
1
10
0
20
0
3
*D3
1

0
LINE
5
C1
100
AcDbEntity
8
0
6
CONTINUOUS
62
7
370
0
100
AcDbLine
10
112
20
12
11
112
21
-2.22885717445e-14
0
SOLID
5
C2
100
AcDbEntity
8
0
6
CONTINUOUS
62
7
370
0
100
AcDbTrace
10
112
20
12
30
0
11
112.416284658
21
9.5
31
0
12
111.583715342
22
9.5
32
0
13
111.583715342
23
9.5
33
0
0
SOLID
5
C3
100
AcDbEntity
8
0
6
CONTINUOUS
62
7
370
0
100
AcDbTrace
10
112
20
-2.22885717445e-14
30
0
11
111.583715342
21
2.5
31
0
12
112.416284658
22
2.5
32
0
13
112.416284658
23
2.5
33
0
0
MTEXT
5
C4
100
AcDbEntity
8
0
6
CONTINUOUS
62
7
370
0
100
AcDbMText
10
110.125
20
6
30
0
40
2.5
41
2.5
71
5
72
1
1
12
7
standard
210
0
220
0
230
1
50
90
73
2
44
1
0
LINE
5
C5
100
AcDbEntity
8
0
6
CONTINUOUS
62
7
370
0
100
AcDbLine
10
91.625
20
12
11
113.25
21
12
0
LINE
5
C6
100
AcDbEntity
8
0
6
CONTINUOUS
62
7
370
0
100
AcDbLine
10
91.625
20
-2.22885717445e-14
11
113.25
21
-2.22885717445e-14
0
ENDBLK
5
60
330
5E
100
AcDbEntity
8
0
100
AcDbBlockEnd
0
BLOCK
5
62
330
61
100
AcDbEntity
8
0
100
AcDbBlockBegin
2
*D18
70
1
10
0
20
0
3
*D18
1

0
LINE
5
C7
100
AcDbEntity
8
0
6
CONTINUOUS
62
7
370
0
100
AcDbLine
10
35.6369709928
20
-38.6131550948
11
72.45688
21
-38.6131550948
0
LINE
5
C8
100
AcDbEntity
8
0
6
CONTINUOUS
62
7
370
0
100
AcDbLine
10
35.6369709928
20
-44.944
11
72.45688
21
-44.944
0
LINE
5
C9
100
AcDbEntity
8
0
6
CONTINUOUS
62
7
370
0
100
AcDbLine
10
71.20688
20
-38.6131550948
11
71.20688
21
-44.944
0
SOLID
5
CA
100
AcDbEntity
8
0
6
CONTINUOUS
62
7
370
0
100
AcDbTrace
10
71.20688
20
-38.6131550948
30
0
11
71.6231646578
21
-41.1131550948
31
0
12
70.7905953422
22
-41.1131550948
32
0
13
70.7905953422
23
-41.1131550948
33
0
0
SOLID
5
CB
100
AcDbEntity
8
0
6
CONTINUOUS
62
7
370
0
100
AcDbTrace
10
71.20688
20
-44.944
30
0
11
70.7905953422
21
-42.444
31
0
12
71.6231646578
22
-42.444
32
0
13
71.6231646578
23
-42.444
33
0
0
MTEXT
5
CC
100
AcDbEntity
8
0
6
CONTINUOUS
62
7
370
0
100
AcDbMText
10
69
20
-34
30
0
40
2.5
41
5.83333333333
71
5
72
1
1
6.33
7
standard
210
0
220
0
230
1
50
90
73
2
44
1
0
ENDBLK
5
63
330
61
100
AcDbEntity
8
0
100
AcDbBlockEnd
0
BLOCK
5
65
330
64
100
AcDbEntity
8
0
100
AcDbBlockBegin
2
*D14
70
1
10
0
20
0
3
*D14
1

0
LINE
5
CD
100
AcDbEntity
8
0
6
CONTINUOUS
62
7
370
0
100
AcDbLine
10
33.1994709928
20
-70.4159947804
11
27.0873111793
21
-59.8294234396
0
LINE
5
CE
100
AcDbEntity
8
0
6
CONTINUOUS
62
7
370
0
100
AcDbLine
10
33.6994709928
20
-70.1273196458
11
27.5873111793
21
-59.540748305
0
LINE
5
CF
100
AcDbEntity
8
0
6
CONTINUOUS
62
7
370
0
100
AcDbLine
10
23.3821841604
20
-63.4119551944
11
32.5424381982
21
-58.1232800597
0
SOLID
5
D0
100
AcDbEntity
8
0
6
CONTINUOUS
62
7
370
0
100
AcDbTrace
10
27.7123111793
20
-60.9119551944
30
0
11
25.7553899987
21
-62.5224682832
31
0
12
25.3391053409
22
-61.8014421055
32
0
13
25.3391053409
23
-61.8014421055
33
0
0
SOLID
5
D1
100
AcDbEntity
8
0
6
CONTINUOUS
62
7
370
0
100
AcDbTrace
10
28.2123111793
20
-60.6232800598
30
0
11
30.1692323598
21
-59.0127669709
31
0
12
30.5855170176
22
-59.7337931486
32
0
13
30.5855170176
23
-59.7337931486
33
0
0
MTEXT
5
D2
100
AcDbEntity
8
0
6
CONTINUOUS
62
7
370
0
100
AcDbMText
10
30.3419844845
20
-57.2286490942
30
0
40
2.5
41
5.83333333333
71
5
72
1
1
0.58
7
standard
210
0
220
0
230
1
50
30.0000000004
73
2
44
1
0
ENDBLK
5
66
330
64
100
AcDbEntity
8
0
100
AcDbBlockEnd
0
BLOCK
5
68
330
67
100
AcDbEntity
8
0
100
AcDbBlockBegin
2
*D11
70
1
10
0
20
0
3
*D11
1

0
LINE
5
D3
100
AcDbEntity
8
0
6
CONTINUOUS
62
7
370
0
100
AcDbLine
10
30.89438
20
-65.773941012
11
15.6530550617
21
-92.1726901792
0
LINE
5
D4
100
AcDbEntity
8
0
6
CONTINUOUS
62
7
370
0
100
AcDbLine
10
30.39438
20
-65.4852658774
11
15.1530550617
21
-91.8840150446
0
LINE
5
D5
100
AcDbEntity
8
0
6
CONTINUOUS
62
7
370
0
100
AcDbLine
10
20.6081820807
20
-93.5901584245
11
11.4479280428
21
-88.3014832898
0
SOLID
5
D6
100
AcDbEntity
8
0
6
CONTINUOUS
62
7
370
0
100
AcDbTrace
10
16.2780550618
20
-91.0901584245
30
0
11
18.6512609001
21
-91.9796453357
31
0
12
18.2349762423
22
-92.7006715133
32
0
13
18.2349762423
23
-92.7006715133
33
0
0
SOLID
5
D7
100
AcDbEntity
8
0
6
CONTINUOUS
62
7
370
0
100
AcDbTrace
10
15.7780550618
20
-90.8014832899
30
0
11
13.4048492234
21
-89.9119963787
31
0
12
13.8211338812
22
-89.190970201
32
0
13
13.8211338812
23
-89.190970201
33
0
0
MTEXT
5
D8
100
AcDbEntity
8
0
6
CONTINUOUS
62
7
370
0
100
AcDbMText
10
20.282728367
20
-91.2371941259
30
0
40
2.5
41
5.83333333333
71
5
72
1
1
0.58
7
standard
210
0
220
0
230
1
50
330
73
2
44
1
0
ENDBLK
5
69
330
67
100
AcDbEntity
8
0
100
AcDbBlockEnd
0
BLOCK
5
6B
330
6A
100
AcDbEntity
8
0
100
AcDbBlockBegin
2
*D4
70
1
10
0
20
0
3
*D4
1

0
LINE
5
D9
100
AcDbEntity
8
0
6
CONTINUOUS
62
7
370
0
100
AcDbLine
10
107
20
11
11
107
21
1
0
SOLID
5
DA
100
AcDbEntity
8
0
6
CONTINUOUS
62
7
370
0
100
AcDbTrace
10
107
20
11
30
0
11
107.416284658
21
8.5
31
0
12
106.583715342
22
8.5
32
0
13
106.583715342
23
8.5
33
0
0
SOLID
5
DB
100
AcDbEntity
8
0
6
CONTINUOUS
62
7
370
0
100
AcDbTrace
10
107
20
1
30
0
11
106.583715342
21
3.5
31
0
12
107.416284658
22
3.5
32
0
13
107.416284658
23
3.5
33
0
0
MTEXT
5
DC
100
AcDbEntity
8
0
6
CONTINUOUS
62
7
370
0
100
AcDbMText
10
105.125
20
6
30
0
40
2.5
41
2.5
71
5
72
1
1
10
7
standard
210
0
220
0
230
1
50
90
73
2
44
1
0
LINE
5
DD
100
AcDbEntity
8
0
6
CONTINUOUS
62
7
370
0
100
AcDbLine
10
90.625
20
11
11
108.25
21
11
0
LINE
5
DE
100
AcDbEntity
8
0
6
CONTINUOUS
62
7
370
0
100
AcDbLine
10
90.625
20
1
11
108.25
21
1
0
ENDBLK
5
6C
330
6A
100
AcDbEntity
8
0
100
AcDbBlockEnd
0
BLOCK
5
6E
330
6D
100
AcDbEntity
8
0
100
AcDbBlockBegin
2
*D8
70
1
10
0
20
0
3
*D8
1

0
LINE
5
DF
100
AcDbEntity
8
0
6
CONTINUOUS
62
7
370
0
100
AcDbLine
10
55
20
-5
11
72
21
-5
0
SOLID
5
E0
100
AcDbEntity
8
0
6
CONTINUOUS
62
7
370
0
100
AcDbTrace
10
55
20
-5
30
0
11
57.5
21
-4.58371534223
31
0
12
57.5
22
-5.41628465777
32
0
13
57.5
23
-5.41628465777
33
0
0
SOLID
5
E1
100
AcDbEntity
8
0
6
CONTINUOUS
62
7
370
0
100
AcDbTrace
10
72
20
-5
30
0
11
69.5
21
-5.41628465777
31
0
12
69.5
22
-4.58371534223
32
0
13
69.5
23
-4.58371534223
33
0
0
MTEXT
5
E2
100
AcDbEntity
8
0
6
CONTINUOUS
62
7
370
0
100
AcDbMText
10
63.5
20
-3.125
30
0
40
2.5
41
2.5
71
5
72
1
1
17
7
standard
210
0
220
0
230
1
50
0
73
2
44
1
0
LINE
5
E3
100
AcDbEntity
8
0
6
CONTINUOUS
62
7
370
0
100
AcDbLine
10
55
20
-0.625
11
55
21
-6.25
0
LINE
5
E4
100
AcDbEntity
8
0
6
CONTINUOUS
62
7
370
0
100
AcDbLine
10
72
20
-0.625
11
72
21
-6.25
0
ENDBLK
5
6F
330
6D
100
AcDbEntity
8
0
100
AcDbBlockEnd
0
BLOCK
5
71
330
70
100
AcDbEntity
8
0
100
AcDbBlockBegin
2
*D15
70
1
10
0
20
0
3
*D15
1

0
LINE
5
E5
100
AcDbEntity
8
0
6
CONTINUOUS
62
7
370
0
100
AcDbLine
10
29.8818619869
20
-72.331417233
11
21.2697021732
21
-57.4147188734
0
LINE
5
E6
100
AcDbEntity
8
0
6
CONTINUOUS
62
7
370
0
100
AcDbLine
10
28.3443079478
20
-73.2191244714
11
19.7321481341
21
-58.3024261118
0
LINE
5
E7
100
AcDbEntity
8
0
6
CONTINUOUS
62
7
370
0
100
AcDbLine
10
26.2248291921
20
-55.9972506281
11
16.0270211153
21
-61.8849578666
0
SOLID
5
E8
100
AcDbEntity
8
0
6
CONTINUOUS
62
7
370
0
100
AcDbTrace
10
21.8947021732
20
-58.4972506281
30
0
11
23.8516233538
21
-56.8867375393
31
0
12
24.2679080116
22
-57.6077637169
32
0
13
24.2679080116
23
-57.6077637169
33
0
0
SOLID
5
E9
100
AcDbEntity
8
0
6
CONTINUOUS
62
7
370
0
100
AcDbTrace
10
20.3571481341
20
-59.3849578665
30
0
11
18.4002269536
21
-60.9954709554
31
0
12
17.9839422958
22
-60.2744447777
32
0
13
17.9839422958
23
-60.2744447777
33
0
0
MTEXT
5
EA
100
AcDbEntity
8
0
6
CONTINUOUS
62
7
370
0
100
AcDbMText
10
23.7838128664
20
-55.2415085514
30
0
40
2.5
41
5.27777777778
71
5
72
1
1
1.78
7
standard
210
0
220
0
230
1
50
30.0000000009
73
2
44
1
0
ENDBLK
5
72
330
70
100
AcDbEntity
8
0
100
AcDbBlockEnd
0
BLOCK
5
74
330
73
100
AcDbEntity
8
0
100
AcDbBlockBegin
2
*D6
70
1
10
0
20
0
3
*D6
1

0
LINE
5
EB
100
AcDbEntity
8
0
6
CONTINUOUS
62
7
370
0
100
AcDbLine
10
19
20
-5
11
36
21
-5
0
SOLID
5
EC
100
AcDbEntity
8
0
6
CONTINUOUS
62
7
370
0
100
AcDbTrace
10
19
20
-5
30
0
11
21.5
21
-4.58371534223
31
0
12
21.5
22
-5.41628465777
32
0
13
21.5
23
-5.41628465777
33
0
0
SOLID
5
ED
100
AcDbEntity
8
0
6
CONTINUOUS
62
7
370
0
100
AcDbTrace
10
36
20
-5
30
0
11
33.5
21
-5.41628465777
31
0
12
33.5
22
-4.58371534223
32
0
13
33.5
23
-4.58371534223
33
0
0
MTEXT
5
EE
100
AcDbEntity
8
0
6
CONTINUOUS
62
7
370
0
100
AcDbMText
10
27.5
20
-3.125
30
0
40
2.5
41
2.5
71
5
72
1
1
17
7
standard
210
0
220
0
230
1
50
0
73
2
44
1
0
LINE
5
EF
100
AcDbEntity
8
0
6
CONTINUOUS
62
7
370
0
100
AcDbLine
10
19
20
-0.625
11
19
21
-6.25
0
LINE
5
F0
100
AcDbEntity
8
0
6
CONTINUOUS
62
7
370
0
100
AcDbLine
10
36
20
-0.625
11
36
21
-6.25
0
ENDBLK
5
75
330
73
100
AcDbEntity
8
0
100
AcDbBlockEnd
0
BLOCK
5
77
330
76
100
AcDbEntity
8
0
100
AcDbBlockBegin
2
*D10
70
1
10
0
20
0
3
*D10
1

0
LINE
5
F1
100
AcDbEntity
8
0
6
CONTINUOUS
62
7
370
0
100
AcDbLine
10
38.39438
20
-70.1040680309
11
26.2200423599
21
-91.1906393716
0
LINE
5
F2
100
AcDbEntity
8
0
6
CONTINUOUS
62
7
370
0
100
AcDbLine
10
38.89438
20
-70.3927431655
11
26.7200423599
21
-91.4793145062
0
LINE
5
F3
100
AcDbEntity
8
0
6
CONTINUOUS
62
7
370
0
100
AcDbLine
10
22.514915341
20
-87.6081076169
11
31.6751693788
21
-92.8967827515
0
SOLID
5
F4
100
AcDbEntity
8
0
6
CONTINUOUS
62
7
370
0
100
AcDbTrace
10
26.8450423599
20
-90.1081076169
30
0
11
24.4718365216
21
-89.2186207057
31
0
12
24.8881211794
22
-88.497594528
32
0
13
24.8881211794
23
-88.497594528
33
0
0
SOLID
5
F5
100
AcDbEntity
8
0
6
CONTINUOUS
62
7
370
0
100
AcDbTrace
10
27.3450423599
20
-90.3967827515
30
0
11
29.7182481983
21
-91.2862696627
31
0
12
29.3019635405
22
-92.0072958403
32
0
13
29.3019635405
23
-92.0072958403
33
0
0
MTEXT
5
F6
100
AcDbEntity
8
0
6
CONTINUOUS
62
7
370
0
100
AcDbMText
10
31.3497156652
20
-90.5438184529
30
0
40
2.5
41
5.83333333333
71
5
72
1
1
0.58
7
standard
210
0
220
0
230
1
50
330
73
2
44
1
0
ENDBLK
5
78
330
76
100
AcDbEntity
8
0
100
AcDbBlockEnd
0
BLOCK
5
7A
330
79
100
AcDbEntity
8
0
100
AcDbBlockBegin
2
*D20
70
1
10
0
20
0
3
*D20
1

0
LINE
5
F7
100
AcDbEntity
8
0
6
CONTINUOUS
62
7
370
0
100
AcDbLine
10
26.7767890072
20
-34.944
11
11.95688
21
-34.944
0
LINE
5
F8
100
AcDbEntity
8
0
6
CONTINUOUS
62
7
370
0
100
AcDbLine
10
26.7767890072
20
-41.8521951744
11
11.95688
21
-41.8521951744
0
LINE
5
F9
100
AcDbEntity
8
0
6
CONTINUOUS
62
7
370
0
100
AcDbLine
10
13.20688
20
-34.944
11
13.20688
21
-41.8521951744
0
SOLID
5
FA
100
AcDbEntity
8
0
6
CONTINUOUS
62
7
370
0
100
AcDbTrace
10
13.20688
20
-34.944
30
0
11
13.6231646578
21
-37.444
31
0
12
12.7905953422
22
-37.444
32
0
13
12.7905953422
23
-37.444
33
0
0
SOLID
5
FB
100
AcDbEntity
8
0
6
CONTINUOUS
62
7
370
0
100
AcDbTrace
10
13.20688
20
-41.8521951744
30
0
11
12.7905953422
21
-39.3521951744
31
0
12
13.6231646578
22
-39.3521951744
32
0
13
13.6231646578
23
-39.3521951744
33
0
0
MTEXT
5
FC
100
AcDbEntity
8
0
6
CONTINUOUS
62
7
370
0
100
AcDbMText
10
11
20
-46
30
0
40
2.5
41
5.27777777778
71
5
72
1
1
6.91
7
standard
210
0
220
0
230
1
50
90
73
2
44
1
0
ENDBLK
5
7B
330
79
100
AcDbEntity
8
0
100
AcDbBlockEnd
0
BLOCK
5
7D
330
7C
100
AcDbEntity
8
0
100
AcDbBlockBegin
2
*D25
70
1
10
0
20
0
3
*D25
1

0
LINE
5
FD
100
AcDbEntity
8
0
6
CONTINUOUS
62
7
370
0
100
AcDbLine
10
27.0892890072
20
-37.4945389482
11
20.3486599846
21
-25.8194270062
0
LINE
5
FE
100
AcDbEntity
8
0
6
CONTINUOUS
62
7
370
0
100
AcDbLine
10
32.4444520522
20
-34.4027341226
11
25.7038230296
21
-22.7276221806
0
LINE
5
FF
100
AcDbEntity
8
0
6
CONTINUOUS
62
7
370
0
100
AcDbLine
10
16.6435329657
20
-29.4019587609
11
30.6589500485
21
-21.3101539353
0
SOLID
5
100
100
AcDbEntity
8
0
6
CONTINUOUS
62
7
370
0
100
AcDbTrace
10
20.9736599846
20
-26.9019587609
30
0
11
19.016738804
21
-28.5124718498
31
0
12
18.6004541463
22
-27.7914456721
32
0
13
18.6004541463
23
-27.7914456721
33
0
0
SOLID
5
101
100
AcDbEntity
8
0
6
CONTINUOUS
62
7
370
0
100
AcDbTrace
10
26.3288230296
20
-23.8101539353
30
0
11
28.2857442102
21
-22.1996408465
31
0
12
28.702028868
22
-22.9206670242
32
0
13
28.702028868
23
-22.9206670242
33
0
0
MTEXT
5
102
100
AcDbEntity
8
0
6
CONTINUOUS
62
7
370
0
100
AcDbMText
10
26
20
-21
30
0
40
2.5
41
5.27777777778
71
5
72
1
1
6.18
7
standard
210
0
220
0
230
1
50
30.0000000001
73
2
44
1
0
ENDBLK
5
7E
330
7C
100
AcDbEntity
8
0
100
AcDbBlockEnd
0
BLOCK
5
80
330
7F
100
AcDbEntity
8
0
100
AcDbBlockBegin
2
*D22
70
1
10
0
20
0
3
*D22
1

0
LINE
5
103
100
AcDbEntity
8
0
6
CONTINUOUS
62
7
370
0
100
AcDbLine
10
31.01938
20
-35.5863437738
11
38.1344615225
21
-23.2626610769
0
LINE
5
104
100
AcDbEntity
8
0
6
CONTINUOUS
62
7
370
0
100
AcDbLine
10
39.51938
20
-40.4938210619
11
46.6344615225
21
-28.170138365
0
LINE
5
105
100
AcDbEntity
8
0
6
CONTINUOUS
62
7
370
0
100
AcDbLine
10
37.5094615225
20
-24.3451928316
11
46.0094615225
21
-29.2526701197
0
SOLID
5
106
100
AcDbEntity
8
0
6
CONTINUOUS
62
7
370
0
100
AcDbTrace
10
37.5094615225
20
-24.3451928316
30
0
11
39.8826673608
21
-25.2346797428
31
0
12
39.4663827031
22
-25.9557059204
32
0
13
39.4663827031
23
-25.9557059204
33
0
0
SOLID
5
107
100
AcDbEntity
8
0
6
CONTINUOUS
62
7
370
0
100
AcDbTrace
10
46.0094615225
20
-29.2526701197
30
0
11
43.6362556841
21
-28.3631832085
31
0
12
44.0525403419
22
-27.6421570309
32
0
13
44.0525403419
23
-27.6421570309
33
0
0
MTEXT
5
108
100
AcDbEntity
8
0
6
CONTINUOUS
62
7
370
0
100
AcDbMText
10
43
20
-25
30
0
40
2.5
41
5.27777777778
71
5
72
1
1
9.81
7
standard
210
0
220
0
230
1
50
330
73
2
44
1
0
ENDBLK
5
81
330
7F
100
AcDbEntity
8
0
100
AcDbBlockEnd
0
BLOCK
5
83
330
82
100
AcDbEntity
8
0
100
AcDbBlockBegin
2
*D12
70
1
10
0
20
0
3
*D12
1

0
LINE
5
109
100
AcDbEntity
8
0
6
CONTINUOUS
62
7
370
0
100
AcDbLine
10
34.3869709928
20
-67.4295454436
11
13.45688
21
-67.4295454436
0
LINE
5
10A
100
AcDbEntity
8
0
6
CONTINUOUS
62
7
370
0
100
AcDbLine
10
34.3869709928
20
-73.7603903488
11
13.45688
21
-73.7603903488
0
LINE
5
10B
100
AcDbEntity
8
0
6
CONTINUOUS
62
7
370
0
100
AcDbLine
10
14.70688
20
-67.4295454436
11
14.70688
21
-73.7603903488
0
SOLID
5
10C
100
AcDbEntity
8
0
6
CONTINUOUS
62
7
370
0
100
AcDbTrace
10
14.70688
20
-67.4295454436
30
0
11
15.1231646578
21
-69.9295454436
31
0
12
14.2905953422
22
-69.9295454436
32
0
13
14.2905953422
23
-69.9295454436
33
0
0
SOLID
5
10D
100
AcDbEntity
8
0
6
CONTINUOUS
62
7
370
0
100
AcDbTrace
10
14.70688
20
-73.7603903488
30
0
11
14.2905953422
21
-71.2603903488
31
0
12
15.1231646578
22
-71.2603903488
32
0
13
15.1231646578
23
-71.2603903488
33
0
0
MTEXT
5
10E
100
AcDbEntity
8
0
6
CONTINUOUS
62
7
370
0
100
AcDbMText
10
12.83188
20
-70.5949678962
30
0
40
2.5
41
5.83333333333
71
5
72
1
1
6.33
7
standard
210
0
220
0
230
1
50
90
73
2
44
1
0
ENDBLK
5
84
330
82
100
AcDbEntity
8
0
100
AcDbBlockEnd
0
BLOCK
5
86
330
85
100
AcDbEntity
8
0
100
AcDbBlockBegin
2
*D24
70
1
10
0
20
0
3
*D24
1

0
LINE
5
10F
100
AcDbEntity
8
0
6
CONTINUOUS
62
7
370
0
100
AcDbLine
10
27.0892890072
20
-36.3398384098
11
17.6835964752
21
-20.048701064
0
LINE
5
110
100
AcDbEntity
8
0
6
CONTINUOUS
62
7
370
0
100
AcDbLine
10
30.4444520522
20
-34.4027341226
11
21.0387595202
21
-18.1115967768
0
LINE
5
111
100
AcDbEntity
8
0
6
CONTINUOUS
62
7
370
0
100
AcDbLine
10
13.9784694563
20
-23.6312328187
11
25.9938865391
21
-16.6941285315
0
SOLID
5
112
100
AcDbEntity
8
0
6
CONTINUOUS
62
7
370
0
100
AcDbTrace
10
18.3085964752
20
-21.1312328187
30
0
11
16.3516752946
21
-22.7417459076
31
0
12
15.9353906369
22
-22.0207197299
32
0
13
15.9353906369
23
-22.0207197299
33
0
0
SOLID
5
113
100
AcDbEntity
8
0
6
CONTINUOUS
62
7
370
0
100
AcDbTrace
10
21.6637595202
20
-19.1941285315
30
0
11
23.6206807008
21
-17.5836154427
31
0
12
24.0369653585
22
-18.3046416204
32
0
13
24.0369653585
23
-18.3046416204
33
0
0
MTEXT
5
114
100
AcDbEntity
8
0
6
CONTINUOUS
62
7
370
0
100
AcDbMText
10
23.7934328253
20
-15.7994975661
30
0
40
2.5
41
5.83333333333
71
5
72
1
1
3.87
7
standard
210
0
220
0
230
1
50
29.9999999999
73
2
44
1
0
ENDBLK
5
87
330
85
100
AcDbEntity
8
0
100
AcDbBlockEnd
0
BLOCK
5
89
330
88
100
AcDbEntity
8
0
100
AcDbBlockBegin
2
*D2
70
1
10
0
20
0
3
*D2
1

0
LINE
5
115
100
AcDbEntity
8
0
6
CONTINUOUS
62
7
370
0
100
AcDbLine
10
1
20
16
11
90
21
16
0
SOLID
5
116
100
AcDbEntity
8
0
6
CONTINUOUS
62
7
370
0
100
AcDbTrace
10
1
20
16
30
0
11
3.5
21
16.4162846578
31
0
12
3.5
22
15.5837153422
32
0
13
3.5
23
15.5837153422
33
0
0
SOLID
5
117
100
AcDbEntity
8
0
6
CONTINUOUS
62
7
370
0
100
AcDbTrace
10
90
20
16
30
0
11
87.5
21
15.5837153422
31
0
12
87.5
22
16.4162846578
32
0
13
87.5
23
16.4162846578
33
0
0
MTEXT
5
118
100
AcDbEntity
8
0
6
CONTINUOUS
62
7
370
0
100
AcDbMText
10
45.5
20
17.875
30
0
40
2.5
41
3.05555555556
71
5
72
1
1
89
7
standard
210
0
220
0
230
1
50
0
73
2
44
1
0
LINE
5
119
100
AcDbEntity
8
0
6
CONTINUOUS
62
7
370
0
100
AcDbLine
10
1
20
11.625
11
1
21
17.25
0
LINE
5
11A
100
AcDbEntity
8
0
6
CONTINUOUS
62
7
370
0
100
AcDbLine
10
90
20
11.625
11
90
21
17.25
0
ENDBLK
5
8A
330
88
100
AcDbEntity
8
0
100
AcDbBlockEnd
0
BLOCK
5
8C
330
8B
100
AcDbEntity
8
0
100
AcDbBlockBegin
2
*D21
70
1
10
0
20
0
3
*D21
1

0
LINE
5
11B
100
AcDbEntity
8
0
6
CONTINUOUS
62
7
370
0
100
AcDbLine
10
25.7767890072
20
-41.2748449052
11
7.95688
21
-41.2748449052
0
LINE
5
11C
100
AcDbEntity
8
0
6
CONTINUOUS
62
7
370
0
100
AcDbLine
10
25.7767890072
20
-34.944
11
7.95688
21
-34.944
0
LINE
5
11D
100
AcDbEntity
8
0
6
CONTINUOUS
62
7
370
0
100
AcDbLine
10
9.20688
20
-41.2748449052
11
9.20688
21
-34.944
0
SOLID
5
11E
100
AcDbEntity
8
0
6
CONTINUOUS
62
7
370
0
100
AcDbTrace
10
9.20688
20
-41.2748449052
30
0
11
8.79059534223
21
-38.7748449052
31
0
12
9.62316465777
22
-38.7748449052
32
0
13
9.62316465777
23
-38.7748449052
33
0
0
SOLID
5
11F
100
AcDbEntity
8
0
6
CONTINUOUS
62
7
370
0
100
AcDbTrace
10
9.20688
20
-34.944
30
0
11
9.62316465777
21
-37.444
31
0
12
8.79059534223
22
-37.444
32
0
13
8.79059534223
23
-37.444
33
0
0
MTEXT
5
120
100
AcDbEntity
8
0
6
CONTINUOUS
62
7
370
0
100
AcDbMText
10
7
20
-46
30
0
40
2.5
41
5.83333333333
71
5
72
1
1
6.33
7
standard
210
0
220
0
230
1
50
90
73
2
44
1
0
ENDBLK
5
8D
330
8B
100
AcDbEntity
8
0
100
AcDbBlockEnd
0
BLOCK
5
8F
330
8E
100
AcDbEntity
8
0
100
AcDbBlockBegin
2
*D9
70
1
10
0
20
0
3
*D9
1

0
LINE
5
121
100
AcDbEntity
8
0
6
CONTINUOUS
62
7
370
0
100
AcDbLine
10
73
20
-5
11
90
21
-5
0
SOLID
5
122
100
AcDbEntity
8
0
6
CONTINUOUS
62
7
370
0
100
AcDbTrace
10
73
20
-5
30
0
11
75.5
21
-4.58371534223
31
0
12
75.5
22
-5.41628465777
32
0
13
75.5
23
-5.41628465777
33
0
0
SOLID
5
123
100
AcDbEntity
8
0
6
CONTINUOUS
62
7
370
0
100
AcDbTrace
10
90
20
-5
30
0
11
87.5
21
-5.41628465777
31
0
12
87.5
22
-4.58371534223
32
0
13
87.5
23
-4.58371534223
33
0
0
MTEXT
5
124
100
AcDbEntity
8
0
6
CONTINUOUS
62
7
370
0
100
AcDbMText
10
81.5
20
-3.125
30
0
40
2.5
41
2.5
71
5
72
1
1
17
7
standard
210
0
220
0
230
1
50
0
73
2
44
1
0
LINE
5
125
100
AcDbEntity
8
0
6
CONTINUOUS
62
7
370
0
100
AcDbLine
10
73
20
-0.625
11
73
21
-6.25
0
LINE
5
126
100
AcDbEntity
8
0
6
CONTINUOUS
62
7
370
0
100
AcDbLine
10
90
20
-0.625
11
90
21
-6.25
0
ENDBLK
5
90
330
8E
100
AcDbEntity
8
0
100
AcDbBlockEnd
0
ENDSEC
0
SECTION
2
ENTITIES
0
LINE
5
127
100
AcDbEntity
8
0
6
ByLayer
62
256
370
-1
100
AcDbLine
10
0
20
12
11
0
21
0
0
LINE
5
128
100
AcDbEntity
8
0
6
ByLayer
62
256
370
-1
100
AcDbLine
10
7.34788079488e-16
20
12
11
91
21
12
0
LINE
5
129
100
AcDbEntity
8
0
6
ByLayer
62
256
370
-1
100
AcDbLine
10
0
20
0
11
91
21
0
0
LINE
5
12A
100
AcDbEntity
8
0
6
ByLayer
62
256
370
-1
100
AcDbLine
10
91
20
12
11
91
21
-2.22885717445e-14
0
LINE
5
12B
100
AcDbEntity
8
0
6
ByLayer
62
256
370
-1
100
AcDbLine
10
90
20
11
11
90
21
-2.19211777047e-14
0
LINE
5
12C
100
AcDbEntity
8
0
6
ByLayer
62
256
370
-1
100
AcDbLine
10
6.12323399574e-17
20
1
11
90
21
1
0
LINE
5
12D
100
AcDbEntity
8
0
6
ByLayer
62
256
370
-1
100
AcDbLine
10
1
20
12
11
1
21
1
0
LINE
5
12E
100
AcDbEntity
8
0
6
ByLayer
62
256
370
-1
100
AcDbLine
10
1
20
11
11
91
21
11
0
LINE
5
12F
100
AcDbEntity
8
0
6
ByLayer
62
256
370
-1
100
AcDbLine
10
18
20
11
11
18
21
1
0
LINE
5
130
100
AcDbEntity
8
0
6
ByLayer
62
256
370
-1
100
AcDbLine
10
19
20
11
11
19
21
1
0
LINE
5
131
100
AcDbEntity
8
0
6
ByLayer
62
256
370
-1
100
AcDbLine
10
36
20
11
11
36
21
1
0
LINE
5
132
100
AcDbEntity
8
0
6
ByLayer
62
256
370
-1
100
AcDbLine
10
37
20
11
11
37
21
1
0
LINE
5
133
100
AcDbEntity
8
0
6
ByLayer
62
256
370
-1
100
AcDbLine
10
55
20
11
11
55
21
1
0
LINE
5
134
100
AcDbEntity
8
0
6
ByLayer
62
256
370
-1
100
AcDbLine
10
54
20
11
11
54
21
1
0
LINE
5
135
100
AcDbEntity
8
0
6
ByLayer
62
256
370
-1
100
AcDbLine
10
73
20
11
11
73
21
1
0
LINE
5
136
100
AcDbEntity
8
0
6
ByLayer
62
256
370
-1
100
AcDbLine
10
72
20
11
11
72
21
1
0
DIMENSION
5
137
100
AcDbEntity
8
0
6
ByLayer
62
3
370
-1
100
AcDbDimension
2
*D1
10
91
20
20
30
0
11
45.5
21
21.875
31
0
70
32
71
5
72
0
3
Standard
53
0
210
0
220
0
230
1
100
AcDbAlignedDimension
13
0
23
12
33
0
14
91
24
12
34
0
100
AcDbRotatedDimension
0
DIMENSION
5
138
100
AcDbEntity
8
0
6
ByLayer
62
3
370
-1
100
AcDbDimension
2
*D2
10
90
20
16
30
0
11
45.5
21
17.875
31
0
70
32
71
5
72
0
3
Standard
53
0
210
0
220
0
230
1
100
AcDbAlignedDimension
13
1
23
11
33
0
14
90
24
11
34
0
100
AcDbRotatedDimension
0
DIMENSION
5
139
100
AcDbEntity
8
0
6
ByLayer
62
3
370
-1
100
AcDbDimension
2
*D3
10
112
20
-2.48603300227e-14
30
0
11
110.125
21
6
31
0
70
32
71
5
72
0
3
Standard
53
0
210
0
220
0
230
1
100
AcDbAlignedDimension
13
91
23
12
33
0
14
91
24
-2.22885717445e-14
34
0
50
90
100
AcDbRotatedDimension
0
DIMENSION
5
13A
100
AcDbEntity
8
0
6
ByLayer
62
3
370
-1
100
AcDbDimension
2
*D4
10
107
20
1
30
0
11
105.125
21
6
31
0
70
32
71
5
72
0
3
Standard
53
0
210
0
220
0
230
1
100
AcDbAlignedDimension
13
90
23
11
33
0
14
90
24
1
34
0
50
90
100
AcDbRotatedDimension
0
DIMENSION
5
13B
100
AcDbEntity
8
0
6
ByLayer
62
3
370
-1
100
AcDbDimension
2
*D5
10
18
20
-5
30
0
11
9.5
21
-3.125
31
0
70
32
71
5
72
0
3
Standard
53
0
210
0
220
0
230
1
100
AcDbAlignedDimension
13
1
23
0
33
0
14
18
24
0
34
0
100
AcDbRotatedDimension
0
DIMENSION
5
13C
100
AcDbEntity
8
0
6
ByLayer
62
3
370
-1
100
AcDbDimension
2
*D6
10
36
20
-5
30
0
11
27.5
21
-3.125
31
0
70
32
71
5
72
0
3
Standard
53
0
210
0
220
0
230
1
100
AcDbAlignedDimension
13
19
23
0
33
0
14
36
24
0
34
0
100
AcDbRotatedDimension
0
DIMENSION
5
13D
100
AcDbEntity
8
0
6
ByLayer
62
3
370
-1
100
AcDbDimension
2
*D7
10
54
20
-5
30
0
11
45.5
21
-3.125
31
0
70
32
71
5
72
0
3
Standard
53
0
210
0
220
0
230
1
100
AcDbAlignedDimension
13
37
23
0
33
0
14
54
24
0
34
0
100
AcDbRotatedDimension
0
DIMENSION
5
13E
100
AcDbEntity
8
0
6
ByLayer
62
3
370
-1
100
AcDbDimension
2
*D8
10
72
20
-5
30
0
11
63.5
21
-3.125
31
0
70
32
71
5
72
0
3
Standard
53
0
210
0
220
0
230
1
100
AcDbAlignedDimension
13
55
23
0
33
0
14
72
24
0
34
0
100
AcDbRotatedDimension
0
DIMENSION
5
13F
100
AcDbEntity
8
0
6
ByLayer
62
3
370
-1
100
AcDbDimension
2
*D9
10
90
20
-5
30
0
11
81.5
21
-3.125
31
0
70
32
71
5
72
0
3
Standard
53
0
210
0
220
0
230
1
100
AcDbAlignedDimension
13
73
23
0
33
0
14
90
24
0
34
0
100
AcDbRotatedDimension
0
LINE
5
140
100
AcDbEntity
8
0
6
ByLayer
62
256
370
-1
100
AcDbLine
10
22.20688
20
-44.944
11
39.20688
21
-44.944
0
LINE
5
141
100
AcDbEntity
8
0
6
ByLayer
62
256
370
-1
100
AcDbLine
10
22.20688
20
-34.944
11
39.20688
21
-34.944
0
LINE
5
142
100
AcDbEntity
8
0
6
ByLayer
62
256
370
-1
100
AcDbLine
10
22.20688
20
-34.944
11
22.20688
21
-44.944
0
LINE
5
143
100
AcDbEntity
8
0
6
ByLayer
62
256
370
-1
100
AcDbLine
10
39.20688
20
-44.944
11
39.20688
21
-34.944
0
CIRCLE
5
144
100
AcDbEntity
8
0
6
ByLayer
62
256
370
-1
100
AcDbCircle
10
30.70688
20
-39.944
40
3.3
0
LINE
5
145
100
AcDbEntity
8
0
6
ByLayer
62
256
370
-1
100
AcDbLine
10
26.4017890072
20
-34.944
11
26.4017890072
21
-41.2748449052
0
LINE
5
146
100
AcDbEntity
8
0
6
ByLayer
62
256
370
-1
100
AcDbLine
10
27.4017890072
20
-34.944
11
27.4017890072
21
-41.8521951744
0
LINE
5
147
100
AcDbEntity
8
0
6
ByLayer
62
256
370
-1
100
AcDbLine
10
22.20688
20
-38.8529130607
11
30.70688
21
-43.7603903488
0
LINE
5
148
100
AcDbEntity
8
0
6
ByLayer
62
256
370
-1
100
AcDbLine
10
22.20688
20
-40.0076135991
11
29.70688
21
-44.337740618
0
LINE
5
149
100
AcDbEntity
8
0
6
ByLayer
62
256
370
-1
100
AcDbLine
10
30.6568079478
20
-44.944
11
34.0119709928
21
-43.0068957128
0
LINE
5
14A
100
AcDbEntity
8
0
6
ByLayer
62
256
370
-1
100
AcDbLine
10
28.6568079478
20
-44.944
11
34.0119709928
21
-41.8521951744
0
LINE
5
14B
100
AcDbEntity
8
0
6
ByLayer
62
256
370
-1
100
AcDbLine
10
34.0119709928
20
-44.944
11
34.0119709928
21
-38.0358048256
0
LINE
5
14C
100
AcDbEntity
8
0
6
ByLayer
62
256
370
-1
100
AcDbLine
10
35.0119709928
20
-44.944
11
35.0119709928
21
-38.6131550948
0
LINE
5
14D
100
AcDbEntity
8
0
6
ByLayer
62
256
370
-1
100
AcDbLine
10
39.20688
20
-39.8803864009
11
31.70688
21
-35.550259382
0
LINE
5
14E
100
AcDbEntity
8
0
6
ByLayer
62
256
370
-1
100
AcDbLine
10
39.20688
20
-41.0350869393
11
30.70688
21
-36.1276096512
0
LINE
5
14F
100
AcDbEntity
8
0
6
ByLayer
62
256
370
-1
100
AcDbLine
10
30.7569520522
20
-34.944
11
27.4017890072
21
-36.8811042872
0
LINE
5
150
100
AcDbEntity
8
0
6
ByLayer
62
256
370
-1
100
AcDbLine
10
32.7569520522
20
-34.944
11
27.4017890072
21
-38.0358048256
0
LINE
5
151
100
AcDbEntity
8
0
6
ByLayer
62
256
370
-1
100
AcDbLine
10
22.20688
20
-73.7603903488
11
39.20688
21
-73.7603903488
0
LINE
5
152
100
AcDbEntity
8
0
6
ByLayer
62
256
370
-1
100
AcDbLine
10
22.20688
20
-63.7603903488
11
39.20688
21
-63.7603903488
0
LINE
5
153
100
AcDbEntity
8
0
6
ByLayer
62
256
370
-1
100
AcDbLine
10
22.20688
20
-63.7603903488
11
22.20688
21
-73.7603903488
0
LINE
5
154
100
AcDbEntity
8
0
6
ByLayer
62
256
370
-1
100
AcDbLine
10
39.20688
20
-73.7603903488
11
39.20688
21
-63.7603903488
0
CIRCLE
5
155
100
AcDbEntity
8
0
6
ByLayer
62
256
370
-1
100
AcDbCircle
10
30.70688
20
-68.7603903488
40
3.3
0
LINE
5
156
100
AcDbEntity
8
0
6
ByLayer
62
256
370
-1
100
AcDbLine
10
26.4017890072
20
-63.7603903488
11
26.4017890072
21
-70.091235254
0
LINE
5
157
100
AcDbEntity
8
0
6
ByLayer
62
256
370
-1
100
AcDbLine
10
27.4017890072
20
-63.7603903488
11
27.4017890072
21
-70.6685855232
0
LINE
5
158
100
AcDbEntity
8
0
6
ByLayer
62
256
370
-1
100
AcDbLine
10
22.20688
20
-67.6693034095
11
30.70688
21
-72.5767806976
0
LINE
5
159
100
AcDbEntity
8
0
6
ByLayer
62
256
370
-1
100
AcDbLine
10
22.20688
20
-68.8240039479
11
29.70688
21
-73.1541309668
0
LINE
5
15A
100
AcDbEntity
8
0
6
ByLayer
62
256
370
-1
100
AcDbLine
10
30.6568079478
20
-73.7603903488
11
34.0119709928
21
-71.8232860616
0
LINE
5
15B
100
AcDbEntity
8
0
6
ByLayer
62
256
370
-1
100
AcDbLine
10
28.6568079478
20
-73.7603903488
11
34.0119709928
21
-70.6685855232
0
LINE
5
15C
100
AcDbEntity
8
0
6
ByLayer
62
256
370
-1
100
AcDbLine
10
34.0119709928
20
-73.7603903488
11
34.0119709928
21
-66.8521951744
0
LINE
5
15D
100
AcDbEntity
8
0
6
ByLayer
62
256
370
-1
100
AcDbLine
10
35.0119709928
20
-73.7603903488
11
35.0119709928
21
-67.4295454436
0
LINE
5
15E
100
AcDbEntity
8
0
6
ByLayer
62
256
370
-1
100
AcDbLine
10
39.20688
20
-68.6967767497
11
31.70688
21
-64.3666497308
0
LINE
5
15F
100
AcDbEntity
8
0
6
ByLayer
62
256
370
-1
100
AcDbLine
10
39.20688
20
-69.8514772881
11
30.70688
21
-64.944
0
LINE
5
160
100
AcDbEntity
8
0
6
ByLayer
62
256
370
-1
100
AcDbLine
10
30.7569520522
20
-63.7603903488
11
27.4017890072
21
-65.697494636
0
LINE
5
161
100
AcDbEntity
8
0
6
ByLayer
62
256
370
-1
100
AcDbLine
10
32.7569520522
20
-63.7603903488
11
27.4017890072
21
-66.8521951744
0
LINE
5
162
100
AcDbEntity
8
0
6
ByLayer
62
3
370
-1
100
AcDbLine
10
34.0119709928
20
-71.8232860616
11
33.5119709928
21
-70.9572606578
0
LINE
5
163
100
AcDbEntity
8
0
6
ByLayer
62
3
370
-1
100
AcDbLine
10
30.6943619869
20
-73.7387085142
11
30.1943619869
21
-72.8726831104
0
LINE
5
164
100
AcDbEntity
8
0
6
ByLayer
62
3
370
-1
100
AcDbLine
10
35.0119709928
20
-67.4295454436
11
34.0119709928
21
-67.4295454436
0
LINE
5
165
100
AcDbEntity
8
0
6
ByLayer
62
3
370
-1
100
AcDbLine
10
39.20688
20
-68.6967767497
11
38.70688
21
-69.5628021535
0
LINE
5
166
100
AcDbEntity
8
0
6
ByLayer
62
3
370
-1
100
AcDbLine
10
31.70688
20
-64.3666497308
11
31.20688
21
-65.2326751346
0
DIMENSION
5
167
100
AcDbEntity
8
0
6
ByLayer
62
3
370
-1
100
AcDbDimension
2
*D10
10
27.3450423599
20
-90.3967827515
30
0
11
28.0325423601
21
-88.6286475522
31
0
70
33
71
5
72
0
3
Standard
53
0
210
0
220
0
230
1
100
AcDbAlignedDimension
13
38.70688
23
-69.5628021535
33
0
14
39.20688
24
-69.8514772881
34
0
0
DIMENSION
5
168
100
AcDbEntity
8
0
6
ByLayer
62
3
370
-1
100
AcDbDimension
2
*D11
10
15.7780550618
20
-90.8014832899
30
0
11
16.965555062
21
-89.3220232252
31
0
70
33
71
5
72
0
3
Standard
53
0
210
0
220
0
230
1
100
AcDbAlignedDimension
13
31.20688
23
-65.2326751346
33
0
14
30.70688
24
-64.944
34
0
0
DIMENSION
5
169
100
AcDbEntity
8
0
6
ByLayer
62
3
370
-1
100
AcDbDimension
2
*D12
10
14.70688
20
-73.7603903488
30
0
11
12.83188
21
-70.5949678962
31
0
70
33
71
5
72
0
3
Standard
53
0
210
0
220
0
230
1
100
AcDbAlignedDimension
13
35.0119709928
23
-67.4295454436
33
0
14
35.0119709928
24
-73.7603903488
34
0
0
DIMENSION
5
16A
100
AcDbEntity
8
0
6
ByLayer
62
3
370
-1
100
AcDbDimension
2
*D13
10
41.1716033228
20
-84.2241330208
30
0
11
38.57529882
21
-83.558046615
31
0
70
33
71
5
72
0
3
Standard
53
0
210
0
220
0
230
1
100
AcDbAlignedDimension
13
30.6943619869
23
-73.7387085142
33
0
14
34.0119709928
24
-71.8232860616
34
0
0
DIMENSION
5
16B
100
AcDbEntity
8
0
6
ByLayer
62
3
370
-1
100
AcDbDimension
2
*D14
10
28.2123111793
20
-60.6232800598
30
0
11
27.0248111794
21
-59.1438199949
31
0
70
33
71
5
72
0
3
Standard
53
0
210
0
220
0
230
1
100
AcDbAlignedDimension
13
33.5119709928
23
-70.9572606578
33
0
14
34.0119709928
24
-70.6685855232
34
0
0
DIMENSION
5
16C
100
AcDbEntity
8
0
6
ByLayer
62
3
370
-1
100
AcDbDimension
2
*D15
10
20.3571481341
20
-59.3849578665
30
0
11
20.1884251539
21
-57.3173066151
31
0
70
33
71
5
72
0
3
Standard
53
0
210
0
220
0
230
1
100
AcDbAlignedDimension
13
30.1943619869
23
-72.8726831104
33
0
14
28.6568079478
24
-73.7603903488
34
0
0
DIMENSION
5
16D
100
AcDbEntity
8
0
6
ByLayer
62
3
370
-1
100
AcDbDimension
2
*D16
10
59
20
-66.8521951744
30
0
11
57.125
21
-67.140870309
31
0
70
33
71
5
72
0
3
Standard
53
0
210
0
220
0
230
1
100
AcDbAlignedDimension
13
34.0119709928
23
-67.4295454436
33
0
14
34.0119709928
24
-66.8521951744
34
0
0
DIMENSION
5
16E
100
AcDbEntity
8
0
6
ByLayer
62
3
370
-1
100
AcDbDimension
2
*D17
10
43.7379620962
20
-60.8487123457
30
0
11
40.9254620962
21
-57.0598512042
31
0
70
33
71
5
72
0
3
Standard
53
0
210
0
220
0
230
1
100
AcDbAlignedDimension
13
31.70688
23
-64.3666497308
33
0
14
39.20688
24
-68.6967767497
34
0
0
DIMENSION
5
16F
100
AcDbEntity
8
0
6
ByLayer
62
3
370
-1
100
AcDbDimension
2
*D18
10
71.20688
20
-44.944
30
0
11
69
21
-34
31
0
70
33
71
5
72
0
3
Standard
53
0
210
0
220
0
230
1
100
AcDbAlignedDimension
13
35.0119709928
23
-38.6131550948
33
0
14
35.0119709928
24
-44.944
34
0
0
DIMENSION
5
170
100
AcDbEntity
8
0
6
ByLayer
62
3
370
-1
100
AcDbDimension
2
*D19
10
67.20688
20
-44.944
30
0
11
65
21
-34
31
0
70
33
71
5
72
0
3
Standard
53
0
210
0
220
0
230
1
100
AcDbAlignedDimension
13
34.0119709928
23
-38.0358048256
33
0
14
34.0119709928
24
-44.944
34
0
0
DIMENSION
5
171
100
AcDbEntity
8
0
6
ByLayer
62
3
370
-1
100
AcDbDimension
2
*D20
10
13.20688
20
-41.8521951744
30
0
11
11
21
-46
31
0
70
33
71
5
72
0
3
Standard
53
0
210
0
220
0
230
1
100
AcDbAlignedDimension
13
27.4017890072
23
-34.944
33
0
14
27.4017890072
24
-41.8521951744
34
0
0
DIMENSION
5
172
100
AcDbEntity
8
0
6
ByLayer
62
3
370
-1
100
AcDbDimension
2
*D21
10
9.20688
20
-34.944
30
0
11
7
21
-46
31
0
70
33
71
5
72
0
3
Standard
53
0
210
0
220
0
230
1
100
AcDbAlignedDimension
13
26.4017890072
23
-41.2748449052
33
0
14
26.4017890072
24
-34.944
34
0
0
DIMENSION
5
173
100
AcDbEntity
8
0
6
ByLayer
62
3
370
-1
100
AcDbDimension
2
*D22
10
46.0094615225
20
-29.2526701197
30
0
11
43
21
-25
31
0
70
33
71
5
72
0
3
Standard
53
0
210
0
220
0
230
1
100
AcDbAlignedDimension
13
30.70688
23
-36.1276096512
33
0
14
39.20688
24
-41.0350869393
34
0
0
DIMENSION
5
174
100
AcDbEntity
8
0
6
ByLayer
62
3
370
-1
100
AcDbDimension
2
*D23
10
48.0985563206
20
-24.4795512491
30
0
11
46
21
-20
31
0
70
33
71
5
72
0
3
Standard
53
0
210
0
220
0
230
1
100
AcDbAlignedDimension
13
31.70688
23
-35.550259382
33
0
14
39.20688
24
-39.8803864009
34
0
0
DIMENSION
5
175
100
AcDbEntity
8
0
6
ByLayer
62
3
370
-1
100
AcDbDimension
2
*D24
10
21.6637595202
20
-19.1941285315
30
0
11
19.0486779977
21
-18.538883043
31
0
70
33
71
5
72
0
3
Standard
53
0
210
0
220
0
230
1
100
AcDbAlignedDimension
13
27.4017890072
23
-36.8811042872
33
0
14
30.7569520522
24
-34.944
34
0
0
DIMENSION
5
176
100
AcDbEntity
8
0
6
ByLayer
62
3
370
-1
100
AcDbDimension
2
*D25
10
26.3288230296
20
-23.8101539353
30
0
11
26
21
-21
31
0
70
33
71
5
72
0
3
Standard
53
0
210
0
220
0
230
1
100
AcDbAlignedDimension
13
27.4017890072
23
-38.0358048256
33
0
14
32.7569520522
24
-34.944
34
0
0
LINE
5
177
100
AcDbEntity
8
0
6
ByLayer
62
256
370
-1
100
AcDbLine
10
83
20
-100
11
95
21
-100
0
LINE
5
178
100
AcDbEntity
8
0
6
ByLayer
62
256
370
-1
100
AcDbLine
10
83
20
-100
11
83
21
-9
0
LINE
5
179
100
AcDbEntity
8
0
6
ByLayer
62
256
370
-1
100
AcDbLine
10
95
20
-100
11
95
21
-9
0
LINE
5
17A
100
AcDbEntity
8
0
6
ByLayer
62
256
370
-1
100
AcDbLine
10
83
20
-9
11
95
21
-9
0
LINE
5
17B
100
AcDbEntity
8
0
6
ByLayer
62
256
370
-1
100
AcDbLine
10
84
20
-10
11
95
21
-10
0
LINE
5
17C
100
AcDbEntity
8
0
6
ByLayer
62
256
370
-1
100
AcDbLine
10
94
20
-100
11
94
21
-10
0
LINE
5
17D
100
AcDbEntity
8
0
6
ByLayer
62
256
370
-1
100
AcDbLine
10
83
20
-99
11
94
21
-99
0
LINE
5
17E
100
AcDbEntity
8
0
6
ByLayer
62
256
370
-1
100
AcDbLine
10
84
20
-99
11
84
21
-9
0
LINE
5
17F
100
AcDbEntity
8
0
6
ByLayer
62
256
370
-1
100
AcDbLine
10
84
20
-82
11
94
21
-82
0
LINE
5
180
100
AcDbEntity
8
0
6
ByLayer
62
256
370
-1
100
AcDbLine
10
84
20
-81
11
94
21
-81
0
LINE
5
181
100
AcDbEntity
8
0
6
ByLayer
62
256
370
-1
100
AcDbLine
10
84
20
-64
11
94
21
-64
0
LINE
5
182
100
AcDbEntity
8
0
6
ByLayer
62
256
370
-1
100
AcDbLine
10
84
20
-63
11
94
21
-63
0
LINE
5
183
100
AcDbEntity
8
0
6
ByLayer
62
256
370
-1
100
AcDbLine
10
84
20
-45
11
94
21
-45
0
LINE
5
184
100
AcDbEntity
8
0
6
ByLayer
62
256
370
-1
100
AcDbLine
10
84
20
-46
11
94
21
-46
0
LINE
5
185
100
AcDbEntity
8
0
6
ByLayer
62
256
370
-1
100
AcDbLine
10
84
20
-27
11
94
21
-27
0
LINE
5
186
100
AcDbEntity
8
0
6
ByLayer
62
256
370
-1
100
AcDbLine
10
84
20
-28
11
94
21
-28
0
CIRCLE
5
187
100
AcDbEntity
8
0
6
ByLayer
62
256
370
-1
100
AcDbCircle
10
89
20
-18.5
40
3.3
0
LINE
5
188
100
AcDbEntity
8
0
6
ByLayer
62
256
370
-1
100
AcDbLine
10
94
20
-14.1949090072
11
87.6691550948
21
-14.1949090072
0
LINE
5
189
100
AcDbEntity
8
0
6
ByLayer
62
256
370
-1
100
AcDbLine
10
94
20
-15.1949090072
11
87.0918048256
21
-15.1949090072
0
LINE
5
18A
100
AcDbEntity
8
0
6
ByLayer
62
256
370
-1
100
AcDbLine
10
90.0910869393
20
-10
11
85.1836096512
21
-18.5
0
LINE
5
18B
100
AcDbEntity
8
0
6
ByLayer
62
256
370
-1
100
AcDbLine
10
88.9363864009
20
-10
11
84.606259382
21
-17.5
0
LINE
5
18C
100
AcDbEntity
8
0
6
ByLayer
62
256
370
-1
100
AcDbLine
10
84
20
-18.4499279478
11
85.9371042872
21
-21.8050909928
0
LINE
5
18D
100
AcDbEntity
8
0
6
ByLayer
62
256
370
-1
100
AcDbLine
10
84
20
-16.4499279478
11
87.0918048256
21
-21.8050909928
0
LINE
5
18E
100
AcDbEntity
8
0
6
ByLayer
62
256
370
-1
100
AcDbLine
10
84
20
-21.8050909928
11
90.9081951744
21
-21.8050909928
0
LINE
5
18F
100
AcDbEntity
8
0
6
ByLayer
62
256
370
-1
100
AcDbLine
10
84
20
-22.8050909928
11
90.3308449052
21
-22.8050909928
0
LINE
5
190
100
AcDbEntity
8
0
6
ByLayer
62
256
370
-1
100
AcDbLine
10
89.0636135991
20
-27
11
93.393740618
21
-19.5
0
LINE
5
191
100
AcDbEntity
8
0
6
ByLayer
62
256
370
-1
100
AcDbLine
10
87.9089130607
20
-27
11
92.8163903488
21
-18.5
0
LINE
5
192
100
AcDbEntity
8
0
6
ByLayer
62
256
370
-1
100
AcDbLine
10
94
20
-18.5500720522
11
92.0628957128
21
-15.1949090072
0
LINE
5
193
100
AcDbEntity
8
0
6
ByLayer
62
256
370
-1
100
AcDbLine
10
94
20
-20.5500720522
11
90.9081951744
21
-15.1949090072
0
LINE
5
194
100
AcDbEntity
8
0
6
ByLayer
62
256
370
-1
100
AcDbLine
10
94
20
-27
11
94
21
-20.5500720522
0
LINE
5
195
100
AcDbEntity
8
0
6
ByLayer
62
256
370
-1
100
AcDbLine
10
89.0636135991
20
-27
11
94
21
-27
0
CIRCLE
5
196
100
AcDbEntity
8
0
6
ByLayer
62
256
370
-1
100
AcDbCircle
10
89
20
-54.5
40
3.3
0
LINE
5
197
100
AcDbEntity
8
0
6
ByLayer
62
256
370
-1
100
AcDbLine
10
94
20
-50.1949090072
11
87.6691550948
21
-50.1949090072
0
LINE
5
198
100
AcDbEntity
8
0
6
ByLayer
62
256
370
-1
100
AcDbLine
10
94
20
-51.1949090072
11
87.0918048256
21
-51.1949090072
0
LINE
5
199
100
AcDbEntity
8
0
6
ByLayer
62
256
370
-1
100
AcDbLine
10
90.0910869393
20
-46
11
85.1836096512
21
-54.5
0
LINE
5
19A
100
AcDbEntity
8
0
6
ByLayer
62
256
370
-1
100
AcDbLine
10
88.9363864009
20
-46
11
84.606259382
21
-53.5
0
LINE
5
19B
100
AcDbEntity
8
0
6
ByLayer
62
256
370
-1
100
AcDbLine
10
84
20
-54.4499279478
11
85.9371042872
21
-57.8050909928
0
LINE
5
19C
100
AcDbEntity
8
0
6
ByLayer
62
256
370
-1
100
AcDbLine
10
84
20
-52.4499279478
11
87.0918048256
21
-57.8050909928
0
LINE
5
19D
100
AcDbEntity
8
0
6
ByLayer
62
256
370
-1
100
AcDbLine
10
84
20
-57.8050909928
11
90.9081951744
21
-57.8050909928
0
LINE
5
19E
100
AcDbEntity
8
0
6
ByLayer
62
256
370
-1
100
AcDbLine
10
84
20
-58.8050909928
11
90.3308449052
21
-58.8050909928
0
LINE
5
19F
100
AcDbEntity
8
0
6
ByLayer
62
256
370
-1
100
AcDbLine
10
89.0636135991
20
-63
11
93.393740618
21
-55.5
0
LINE
5
1A0
100
AcDbEntity
8
0
6
ByLayer
62
256
370
-1
100
AcDbLine
10
87.9089130607
20
-63
11
92.8163903488
21
-54.5
0
LINE
5
1A1
100
AcDbEntity
8
0
6
ByLayer
62
256
370
-1
100
AcDbLine
10
94
20
-54.5500720522
11
92.0628957128
21
-51.1949090072
0
LINE
5
1A2
100
AcDbEntity
8
0
6
ByLayer
62
256
370
-1
100
AcDbLine
10
94
20
-56.5500720522
11
90.9081951744
21
-51.1949090072
0
LINE
5
1A3
100
AcDbEntity
8
0
6
ByLayer
62
256
370
-1
100
AcDbLine
10
94
20
-63
11
94
21
-56.5500720522
0
LINE
5
1A4
100
AcDbEntity
8
0
6
ByLayer
62
256
370
-1
100
AcDbLine
10
89.0636135991
20
-63
11
94
21
-63
0
CIRCLE
5
1A5
100
AcDbEntity
8
0
6
ByLayer
62
256
370
-1
100
AcDbCircle
10
89
20
-90.5
40
3.3
0
LINE
5
1A6
100
AcDbEntity
8
0
6
ByLayer
62
256
370
-1
100
AcDbLine
10
94
20
-86.1949090072
11
87.6691550948
21
-86.1949090072
0
LINE
5
1A7
100
AcDbEntity
8
0
6
ByLayer
62
256
370
-1
100
AcDbLine
10
94
20
-87.1949090072
11
87.0918048256
21
-87.1949090072
0
LINE
5
1A8
100
AcDbEntity
8
0
6
ByLayer
62
256
370
-1
100
AcDbLine
10
90.0910869393
20
-82
11
85.1836096512
21
-90.5
0
LINE
5
1A9
100
AcDbEntity
8
0
6
ByLayer
62
256
370
-1
100
AcDbLine
10
88.9363864009
20
-82
11
84.606259382
21
-89.5
0
LINE
5
1AA
100
AcDbEntity
8
0
6
ByLayer
62
256
370
-1
100
AcDbLine
10
84
20
-90.4499279478
11
85.9371042872
21
-93.8050909928
0
LINE
5
1AB
100
AcDbEntity
8
0
6
ByLayer
62
256
370
-1
100
AcDbLine
10
84
20
-88.4499279478
11
87.0918048256
21
-93.8050909928
0
LINE
5
1AC
100
AcDbEntity
8
0
6
ByLayer
62
256
370
-1
100
AcDbLine
10
84
20
-93.8050909928
11
90.9081951744
21
-93.8050909928
0
LINE
5
1AD
100
AcDbEntity
8
0
6
ByLayer
62
256
370
-1
100
AcDbLine
10
84
20
-94.8050909928
11
90.3308449052
21
-94.8050909928
0
LINE
5
1AE
100
AcDbEntity
8
0
6
ByLayer
62
256
370
-1
100
AcDbLine
10
89.0636135991
20
-99
11
93.393740618
21
-91.5
0
LINE
5
1AF
100
AcDbEntity
8
0
6
ByLayer
62
256
370
-1
100
AcDbLine
10
87.9089130607
20
-99
11
92.8163903488
21
-90.5
0
LINE
5
1B0
100
AcDbEntity
8
0
6
ByLayer
62
256
370
-1
100
AcDbLine
10
94
20
-90.5500720522
11
92.0628957128
21
-87.1949090072
0
LINE
5
1B1
100
AcDbEntity
8
0
6
ByLayer
62
256
370
-1
100
AcDbLine
10
94
20
-92.5500720522
11
90.9081951744
21
-87.1949090072
0
LINE
5
1B2
100
AcDbEntity
8
0
6
ByLayer
62
256
370
-1
100
AcDbLine
10
94
20
-99
11
94
21
-92.5500720522
0
LINE
5
1B3
100
AcDbEntity
8
0
6
ByLayer
62
256
370
-1
100
AcDbLine
10
89.0636135991
20
-99
11
94
21
-99
0
ENDSEC
0
SECTION
2
OBJECTS
0
DICTIONARY
5
C
330
0
100
AcDbDictionary
281
1
3
ACAD_GROUP
350
D
0
DICTIONARY
5
D
330
C
100
AcDbDictionary
281
1
0
ENDSEC
0
EOF
