<?xml version="1.0" encoding="UTF-8" standalone="no"?>
<svg width="799.042mm" height="868.539mm"
 viewBox="0 0 2265 2462"
 xmlns="http://www.w3.org/2000/svg" xmlns:xlink="http://www.w3.org/1999/xlink"  version="1.2" baseProfile="tiny">
<title>Qt Svg Document</title>
<desc>Generated with Qt</desc>
<defs>
</defs>
<g fill="none" stroke="black" stroke-width="1" fill-rule="evenodd" stroke-linecap="square" stroke-linejoin="bevel" >

<g fill="#ffffff" fill-opacity="1" stroke="none" transform="matrix(1,0,0,1,0,0)"
font-family="Sans Serif" font-size="9" font-weight="400" font-style="normal" 
>
<path vector-effect="non-scaling-stroke" fill-rule="evenodd" d="M0,0 L2265,0 L2265,2462 L0,2462 L0,0"/>
</g>

<g fill="none" stroke="#000000" stroke-opacity="1" stroke-width="1" stroke-linecap="round" stroke-linejoin="round" transform="matrix(1,0,0,1,0,0)"
font-family="Sans Serif" font-size="9" font-weight="400" font-style="normal" 
>
<polyline fill="none" vector-effect="non-scaling-stroke" points="5,227 5,466 " />
<polyline fill="none" vector-effect="non-scaling-stroke" points="5,227 1817,227 " />
<polyline fill="none" vector-effect="non-scaling-stroke" points="5,466 1817,466 " />
<polyline fill="none" vector-effect="non-scaling-stroke" points="1817,227 1817,466 " />
<polyline fill="none" vector-effect="non-scaling-stroke" points="1797,247 1797,466 " />
<polyline fill="none" vector-effect="non-scaling-stroke" points="5,446 1797,446 " />
<polyline fill="none" vector-effect="non-scaling-stroke" points="25,227 25,446 " />
<polyline fill="none" vector-effect="non-scaling-stroke" points="25,247 1817,247 " />
<polyline fill="none" vector-effect="non-scaling-stroke" points="363,247 363,446 " />
<polyline fill="none" vector-effect="non-scaling-stroke" points="383,247 383,446 " />
<polyline fill="none" vector-effect="non-scaling-stroke" points="722,247 722,446 " />
<polyline fill="none" vector-effect="non-scaling-stroke" points="742,247 742,446 " />
<polyline fill="none" vector-effect="non-scaling-stroke" points="1100,247 1100,446 " />
<polyline fill="none" vector-effect="non-scaling-stroke" points="1080,247 1080,446 " />
<polyline fill="none" vector-effect="non-scaling-stroke" points="1459,247 1459,446 " />
<polyline fill="none" vector-effect="non-scaling-stroke" points="1439,247 1439,446 " />
<polyline fill="none" vector-effect="non-scaling-stroke" points="5,68 1817,68 " />
</g>

<g fill="#000000" fill-opacity="1" stroke="#000000" stroke-opacity="1" stroke-width="1" stroke-linecap="round" stroke-linejoin="round" transform="matrix(1,0,0,1,0,0)"
font-family="Sans Serif" font-size="9" font-weight="400" font-style="normal" 
>
<path vector-effect="non-scaling-stroke" fill-rule="evenodd" d="M5,68 L55,59 L55,76 L5,68"/>
</g>

<g fill="#000000" fill-opacity="1" stroke="#000000" stroke-opacity="1" stroke-width="1" stroke-linecap="round" stroke-linejoin="round" transform="matrix(1,0,0,1,0,0)"
font-family="Sans Serif" font-size="9" font-weight="400" font-style="normal" 
>
<path vector-effect="non-scaling-stroke" fill-rule="evenodd" d="M1817,68 L1767,76 L1767,59 L1817,68"/>
<polyline fill="none" vector-effect="non-scaling-stroke" points="908,33 897,33 " />
<polyline fill="none" vector-effect="non-scaling-stroke" points="886,22 886,24 887,26 888,28 889,29 890,31 892,32 894,33 896,33 897,33 " />
<polyline fill="none" vector-effect="non-scaling-stroke" points="886,22 886,17 " />
<polyline fill="none" vector-effect="non-scaling-stroke" points="908,17 908,15 908,13 907,11 905,9 904,8 902,7 900,6 899,6 897,6 895,6 893,6 891,7 889,9 888,10 887,12 886,14 886,16 886,17 " />
<polyline fill="none" vector-effect="non-scaling-stroke" points="908,17 908,33 " />
<polyline fill="none" vector-effect="non-scaling-stroke" points="892,55 894,55 895,54 897,53 899,52 900,51 902,49 903,48 904,46 905,44 906,43 907,41 908,39 908,37 908,35 908,33 " />
<polyline fill="none" vector-effect="non-scaling-stroke" points="925,17 936,6 " />
<polyline fill="none" vector-effect="non-scaling-stroke" points="936,6 936,55 " />
<polyline fill="none" vector-effect="non-scaling-stroke" points="5,215 5,43 " />
<polyline fill="none" vector-effect="non-scaling-stroke" points="1817,215 1817,43 " />
<polyline fill="none" vector-effect="non-scaling-stroke" points="25,147 1797,147 " />
</g>

<g fill="#000000" fill-opacity="1" stroke="#000000" stroke-opacity="1" stroke-width="1" stroke-linecap="round" stroke-linejoin="round" transform="matrix(1,0,0,1,0,0)"
font-family="Sans Serif" font-size="9" font-weight="400" font-style="normal" 
>
<path vector-effect="non-scaling-stroke" fill-rule="evenodd" d="M25,147 L75,139 L75,156 L25,147"/>
</g>

<g fill="#000000" fill-opacity="1" stroke="#000000" stroke-opacity="1" stroke-width="1" stroke-linecap="round" stroke-linejoin="round" transform="matrix(1,0,0,1,0,0)"
font-family="Sans Serif" font-size="9" font-weight="400" font-style="normal" 
>
<path vector-effect="non-scaling-stroke" fill-rule="evenodd" d="M1797,147 L1747,156 L1747,139 L1797,147"/>
<polyline fill="none" vector-effect="non-scaling-stroke" points="903,124 903,118 " />
<polyline fill="none" vector-effect="non-scaling-stroke" points="903,118 903,116 902,114 901,113 900,111 898,110 897,109 895,108 893,107 891,107 889,108 887,108 885,109 884,111 883,112 882,114 881,116 881,118 " />
<polyline fill="none" vector-effect="non-scaling-stroke" points="881,118 881,124 " />
<polyline fill="none" vector-effect="non-scaling-stroke" points="881,124 881,126 881,128 882,130 883,131 885,133 886,134 888,134 890,135 892,135 894,135 896,134 898,133 899,132 901,130 902,129 902,127 903,125 903,124 " />
<polyline fill="none" vector-effect="non-scaling-stroke" points="892,107 894,107 896,107 897,106 899,105 900,103 901,101 902,100 903,98 903,96 902,94 902,92 901,90 899,88 898,87 896,86 894,86 892,85 " />
<polyline fill="none" vector-effect="non-scaling-stroke" points="892,85 890,85 888,86 886,87 884,88 883,89 882,91 881,93 881,95 881,97 881,99 882,101 882,102 884,104 885,105 887,106 889,107 891,107 892,107 " />
<polyline fill="none" vector-effect="non-scaling-stroke" points="941,113 930,113 " />
<polyline fill="none" vector-effect="non-scaling-stroke" points="919,102 919,104 920,106 921,107 922,109 923,110 925,112 927,112 929,113 930,113 " />
<polyline fill="none" vector-effect="non-scaling-stroke" points="919,102 919,96 " />
<polyline fill="none" vector-effect="non-scaling-stroke" points="941,96 941,94 941,92 940,91 939,89 937,88 936,86 934,86 932,85 930,85 928,85 926,86 924,87 923,88 921,90 920,92 920,94 919,95 919,96 " />
<polyline fill="none" vector-effect="non-scaling-stroke" points="941,96 941,113 " />
<polyline fill="none" vector-effect="non-scaling-stroke" points="925,135 927,134 929,134 930,133 932,131 934,130 935,129 936,127 937,126 939,124 939,122 940,120 941,118 941,116 941,115 941,113 " />
<polyline fill="none" vector-effect="non-scaling-stroke" points="25,235 25,123 " />
<polyline fill="none" vector-effect="non-scaling-stroke" points="1797,235 1797,123 " />
<polyline fill="none" vector-effect="non-scaling-stroke" points="2235,227 2235,466 " />
</g>

<g fill="#000000" fill-opacity="1" stroke="#000000" stroke-opacity="1" stroke-width="1" stroke-linecap="round" stroke-linejoin="round" transform="matrix(1,0,0,1,0,0)"
font-family="Sans Serif" font-size="9" font-weight="400" font-style="normal" 
>
<path vector-effect="non-scaling-stroke" fill-rule="evenodd" d="M2235,227 L2243,277 L2227,277 L2235,227"/>
</g>

<g fill="#000000" fill-opacity="1" stroke="#000000" stroke-opacity="1" stroke-width="1" stroke-linecap="round" stroke-linejoin="round" transform="matrix(1,0,0,1,0,0)"
font-family="Sans Serif" font-size="9" font-weight="400" font-style="normal" 
>
<path vector-effect="non-scaling-stroke" fill-rule="evenodd" d="M2235,466 L2227,416 L2243,416 L2235,466"/>
<polyline fill="none" vector-effect="non-scaling-stroke" points="2184,371 2173,360 " />
<polyline fill="none" vector-effect="non-scaling-stroke" points="2173,360 2223,360 " />
<polyline fill="none" vector-effect="non-scaling-stroke" points="2181,344 2178,342 " />
<polyline fill="none" vector-effect="non-scaling-stroke" points="2189,323 2188,322 2186,322 2184,322 2182,322 2180,322 2178,323 2176,325 2175,326 2174,328 2173,330 2173,332 2173,334 2173,336 2174,337 2175,339 2176,341 2178,342 " />
<polyline fill="none" vector-effect="non-scaling-stroke" points="2189,323 2223,344 " />
<polyline fill="none" vector-effect="non-scaling-stroke" points="2223,344 2223,322 " />
<polyline fill="none" vector-effect="non-scaling-stroke" points="1829,227 2260,227 " />
<polyline fill="none" vector-effect="non-scaling-stroke" points="1829,466 2260,466 " />
<polyline fill="none" vector-effect="non-scaling-stroke" points="2136,247 2136,446 " />
</g>

<g fill="#000000" fill-opacity="1" stroke="#000000" stroke-opacity="1" stroke-width="1" stroke-linecap="round" stroke-linejoin="round" transform="matrix(1,0,0,1,0,0)"
font-family="Sans Serif" font-size="9" font-weight="400" font-style="normal" 
>
<path vector-effect="non-scaling-stroke" fill-rule="evenodd" d="M2136,247 L2144,297 L2127,297 L2136,247"/>
</g>

<g fill="#000000" fill-opacity="1" stroke="#000000" stroke-opacity="1" stroke-width="1" stroke-linecap="round" stroke-linejoin="round" transform="matrix(1,0,0,1,0,0)"
font-family="Sans Serif" font-size="9" font-weight="400" font-style="normal" 
>
<path vector-effect="non-scaling-stroke" fill-rule="evenodd" d="M2136,446 L2127,396 L2144,396 L2136,446"/>
<polyline fill="none" vector-effect="non-scaling-stroke" points="2084,371 2073,360 " />
<polyline fill="none" vector-effect="non-scaling-stroke" points="2073,360 2123,360 " />
<polyline fill="none" vector-effect="non-scaling-stroke" points="2076,327 2075,329 2074,330 2073,332 2074,334 2074,336 2075,338 2076,338 " />
<polyline fill="none" vector-effect="non-scaling-stroke" points="2076,338 2078,339 2080,340 2082,341 2083,341 2085,342 2087,342 2089,343 2091,343 2093,343 2095,344 2097,344 2099,344 2101,344 2103,344 2105,343 2107,343 2109,342 2111,342 2113,341 2115,341 2117,340 2118,339 2120,338 " />
<polyline fill="none" vector-effect="non-scaling-stroke" points="2120,338 2122,337 2123,335 2123,333 2123,331 2122,329 2121,328 2120,327 " />
<polyline fill="none" vector-effect="non-scaling-stroke" points="2120,327 2119,326 2117,325 2115,325 2113,324 2111,323 2109,323 2107,323 2105,322 2103,322 2101,322 2099,322 2097,322 2095,322 2093,322 2091,322 2089,322 2087,323 2085,323 2084,324 2082,325 2080,325 2078,326 2076,327 " />
<polyline fill="none" vector-effect="non-scaling-stroke" points="1809,247 2160,247 " />
<polyline fill="none" vector-effect="non-scaling-stroke" points="1809,446 2160,446 " />
<polyline fill="none" vector-effect="non-scaling-stroke" points="25,566 363,566 " />
</g>

<g fill="#000000" fill-opacity="1" stroke="#000000" stroke-opacity="1" stroke-width="1" stroke-linecap="round" stroke-linejoin="round" transform="matrix(1,0,0,1,0,0)"
font-family="Sans Serif" font-size="9" font-weight="400" font-style="normal" 
>
<path vector-effect="non-scaling-stroke" fill-rule="evenodd" d="M25,566 L75,557 L75,574 L25,566"/>
</g>

<g fill="#000000" fill-opacity="1" stroke="#000000" stroke-opacity="1" stroke-width="1" stroke-linecap="round" stroke-linejoin="round" transform="matrix(1,0,0,1,0,0)"
font-family="Sans Serif" font-size="9" font-weight="400" font-style="normal" 
>
<path vector-effect="non-scaling-stroke" fill-rule="evenodd" d="M363,566 L314,574 L314,557 L363,566"/>
<polyline fill="none" vector-effect="non-scaling-stroke" points="169,514 180,503 " />
<polyline fill="none" vector-effect="non-scaling-stroke" points="180,503 180,553 " />
<polyline fill="none" vector-effect="non-scaling-stroke" points="197,509 197,503 " />
<polyline fill="none" vector-effect="non-scaling-stroke" points="197,503 219,503 " />
<polyline fill="none" vector-effect="non-scaling-stroke" points="219,503 208,553 " />
<polyline fill="none" vector-effect="non-scaling-stroke" points="25,478 25,590 " />
<polyline fill="none" vector-effect="non-scaling-stroke" points="363,478 363,590 " />
<polyline fill="none" vector-effect="non-scaling-stroke" points="383,566 722,566 " />
</g>

<g fill="#000000" fill-opacity="1" stroke="#000000" stroke-opacity="1" stroke-width="1" stroke-linecap="round" stroke-linejoin="round" transform="matrix(1,0,0,1,0,0)"
font-family="Sans Serif" font-size="9" font-weight="400" font-style="normal" 
>
<path vector-effect="non-scaling-stroke" fill-rule="evenodd" d="M383,566 L433,557 L433,574 L383,566"/>
</g>

<g fill="#000000" fill-opacity="1" stroke="#000000" stroke-opacity="1" stroke-width="1" stroke-linecap="round" stroke-linejoin="round" transform="matrix(1,0,0,1,0,0)"
font-family="Sans Serif" font-size="9" font-weight="400" font-style="normal" 
>
<path vector-effect="non-scaling-stroke" fill-rule="evenodd" d="M722,566 L672,574 L672,557 L722,566"/>
<polyline fill="none" vector-effect="non-scaling-stroke" points="528,514 539,503 " />
<polyline fill="none" vector-effect="non-scaling-stroke" points="539,503 539,553 " />
<polyline fill="none" vector-effect="non-scaling-stroke" points="555,509 555,503 " />
<polyline fill="none" vector-effect="non-scaling-stroke" points="555,503 577,503 " />
<polyline fill="none" vector-effect="non-scaling-stroke" points="577,503 566,553 " />
<polyline fill="none" vector-effect="non-scaling-stroke" points="383,478 383,590 " />
<polyline fill="none" vector-effect="non-scaling-stroke" points="722,478 722,590 " />
<polyline fill="none" vector-effect="non-scaling-stroke" points="742,566 1080,566 " />
</g>

<g fill="#000000" fill-opacity="1" stroke="#000000" stroke-opacity="1" stroke-width="1" stroke-linecap="round" stroke-linejoin="round" transform="matrix(1,0,0,1,0,0)"
font-family="Sans Serif" font-size="9" font-weight="400" font-style="normal" 
>
<path vector-effect="non-scaling-stroke" fill-rule="evenodd" d="M742,566 L792,557 L792,574 L742,566"/>
</g>

<g fill="#000000" fill-opacity="1" stroke="#000000" stroke-opacity="1" stroke-width="1" stroke-linecap="round" stroke-linejoin="round" transform="matrix(1,0,0,1,0,0)"
font-family="Sans Serif" font-size="9" font-weight="400" font-style="normal" 
>
<path vector-effect="non-scaling-stroke" fill-rule="evenodd" d="M1080,566 L1030,574 L1030,557 L1080,566"/>
<polyline fill="none" vector-effect="non-scaling-stroke" points="886,514 897,503 " />
<polyline fill="none" vector-effect="non-scaling-stroke" points="897,503 897,553 " />
<polyline fill="none" vector-effect="non-scaling-stroke" points="914,509 914,503 " />
<polyline fill="none" vector-effect="non-scaling-stroke" points="914,503 936,503 " />
<polyline fill="none" vector-effect="non-scaling-stroke" points="936,503 925,553 " />
<polyline fill="none" vector-effect="non-scaling-stroke" points="742,478 742,590 " />
<polyline fill="none" vector-effect="non-scaling-stroke" points="1080,478 1080,590 " />
<polyline fill="none" vector-effect="non-scaling-stroke" points="1100,566 1439,566 " />
</g>

<g fill="#000000" fill-opacity="1" stroke="#000000" stroke-opacity="1" stroke-width="1" stroke-linecap="round" stroke-linejoin="round" transform="matrix(1,0,0,1,0,0)"
font-family="Sans Serif" font-size="9" font-weight="400" font-style="normal" 
>
<path vector-effect="non-scaling-stroke" fill-rule="evenodd" d="M1100,566 L1150,557 L1150,574 L1100,566"/>
</g>

<g fill="#000000" fill-opacity="1" stroke="#000000" stroke-opacity="1" stroke-width="1" stroke-linecap="round" stroke-linejoin="round" transform="matrix(1,0,0,1,0,0)"
font-family="Sans Serif" font-size="9" font-weight="400" font-style="normal" 
>
<path vector-effect="non-scaling-stroke" fill-rule="evenodd" d="M1439,566 L1389,574 L1389,557 L1439,566"/>
<polyline fill="none" vector-effect="non-scaling-stroke" points="1245,514 1256,503 " />
<polyline fill="none" vector-effect="non-scaling-stroke" points="1256,503 1256,553 " />
<polyline fill="none" vector-effect="non-scaling-stroke" points="1272,509 1272,503 " />
<polyline fill="none" vector-effect="non-scaling-stroke" points="1272,503 1294,503 " />
<polyline fill="none" vector-effect="non-scaling-stroke" points="1294,503 1283,553 " />
<polyline fill="none" vector-effect="non-scaling-stroke" points="1100,478 1100,590 " />
<polyline fill="none" vector-effect="non-scaling-stroke" points="1439,478 1439,590 " />
<polyline fill="none" vector-effect="non-scaling-stroke" points="1459,566 1797,566 " />
</g>

<g fill="#000000" fill-opacity="1" stroke="#000000" stroke-opacity="1" stroke-width="1" stroke-linecap="round" stroke-linejoin="round" transform="matrix(1,0,0,1,0,0)"
font-family="Sans Serif" font-size="9" font-weight="400" font-style="normal" 
>
<path vector-effect="non-scaling-stroke" fill-rule="evenodd" d="M1459,566 L1508,557 L1508,574 L1459,566"/>
</g>

<g fill="#000000" fill-opacity="1" stroke="#000000" stroke-opacity="1" stroke-width="1" stroke-linecap="round" stroke-linejoin="round" transform="matrix(1,0,0,1,0,0)"
font-family="Sans Serif" font-size="9" font-weight="400" font-style="normal" 
>
<path vector-effect="non-scaling-stroke" fill-rule="evenodd" d="M1797,566 L1747,574 L1747,557 L1797,566"/>
<polyline fill="none" vector-effect="non-scaling-stroke" points="1603,514 1614,503 " />
<polyline fill="none" vector-effect="non-scaling-stroke" points="1614,503 1614,553 " />
<polyline fill="none" vector-effect="non-scaling-stroke" points="1631,509 1631,503 " />
<polyline fill="none" vector-effect="non-scaling-stroke" points="1631,503 1653,503 " />
<polyline fill="none" vector-effect="non-scaling-stroke" points="1653,503 1642,553 " />
<polyline fill="none" vector-effect="non-scaling-stroke" points="1459,478 1459,590 " />
<polyline fill="none" vector-effect="non-scaling-stroke" points="1797,478 1797,590 " />
<polyline fill="none" vector-effect="non-scaling-stroke" points="447,1361 786,1361 " />
<polyline fill="none" vector-effect="non-scaling-stroke" points="447,1162 786,1162 " />
<polyline fill="none" vector-effect="non-scaling-stroke" points="447,1162 447,1361 " />
<polyline fill="none" vector-effect="non-scaling-stroke" points="786,1361 786,1162 " />
<polyline fill="none" vector-effect="non-scaling-stroke" points="682,1261 682,1259 682,1257 682,1255 682,1253 681,1251 681,1249 681,1247 680,1246 680,1244 679,1242 678,1240 678,1238 677,1236 676,1234 675,1232 674,1231 674,1229 673,1227 671,1225 670,1224 669,1222 668,1221 667,1219 665,1218 664,1216 663,1215 661,1213 660,1212 658,1211 657,1209 655,1208 653,1207 652,1206 650,1205 648,1204 646,1203 645,1202 643,1201 641,1200 639,1200 637,1199 635,1198 633,1198 632,1197 630,1197 628,1197 626,1196 624,1196 622,1196 620,1196 618,1196 616,1196 614,1196 612,1196 610,1196 608,1196 606,1197 604,1197 602,1197 600,1198 598,1198 596,1199 594,1200 592,1200 590,1201 589,1202 587,1203 585,1204 583,1205 582,1206 580,1207 578,1208 577,1209 575,1210 573,1212 572,1213 571,1214 569,1216 568,1217 566,1219 565,1220 564,1222 563,1223 562,1225 561,1227 560,1228 559,1230 558,1232 557,1234 556,1236 555,1237 555,1239 554,1241 553,1243 553,1245 552,1247 552,1249 552,1251 551,1253 551,1255 551,1257 551,1259 551,1261 551,1263 551,1265 551,1267 551,1269 551,1271 552,1273 552,1275 553,1277 553,1279 554,1281 554,1283 555,1284 556,1286 556,1288 557,1290 558,1292 559,1293 560,1295 561,1297 562,1299 563,1300 565,1302 566,1303 567,1305 569,1306 570,1308 571,1309 573,1311 574,1312 576,1313 578,1314 579,1315 581,1317 583,1318 584,1319 586,1320 588,1320 590,1321 591,1322 593,1323 595,1324 597,1324 599,1325 601,1325 603,1326 605,1326 607,1326 609,1327 611,1327 613,1327 615,1327 617,1327 619,1327 621,1327 623,1327 625,1327 627,1326 629,1326 631,1325 633,1325 635,1325 636,1324 638,1323 640,1323 642,1322 644,1321 646,1320 647,1319 649,1318 651,1317 653,1316 654,1315 656,1314 657,1313 659,1311 661,1310 662,1309 663,1307 665,1306 666,1304 667,1303 669,1301 670,1300 671,1298 672,1296 673,1295 674,1293 675,1291 676,1289 677,1287 677,1286 678,1284 679,1282 679,1280 680,1278 680,1276 681,1274 681,1272 682,1270 682,1268 682,1266 682,1264 682,1262 682,1261 " />
<polyline fill="none" vector-effect="non-scaling-stroke" points="531,1162 531,1288 " />
<polyline fill="none" vector-effect="non-scaling-stroke" points="551,1162 551,1299 " />
<polyline fill="none" vector-effect="non-scaling-stroke" points="447,1240 616,1337 " />
<polyline fill="none" vector-effect="non-scaling-stroke" points="447,1263 597,1349 " />
<polyline fill="none" vector-effect="non-scaling-stroke" points="615,1361 682,1322 " />
<polyline fill="none" vector-effect="non-scaling-stroke" points="576,1361 682,1299 " />
<polyline fill="none" vector-effect="non-scaling-stroke" points="682,1361 682,1223 " />
<polyline fill="none" vector-effect="non-scaling-stroke" points="702,1361 702,1235 " />
<polyline fill="none" vector-effect="non-scaling-stroke" points="786,1260 636,1174 " />
<polyline fill="none" vector-effect="non-scaling-stroke" points="786,1283 616,1185 " />
<polyline fill="none" vector-effect="non-scaling-stroke" points="617,1162 551,1200 " />
<polyline fill="none" vector-effect="non-scaling-stroke" points="657,1162 551,1223 " />
<polyline fill="none" vector-effect="non-scaling-stroke" points="447,1935 786,1935 " />
<polyline fill="none" vector-effect="non-scaling-stroke" points="447,1736 786,1736 " />
<polyline fill="none" vector-effect="non-scaling-stroke" points="447,1736 447,1935 " />
<polyline fill="none" vector-effect="non-scaling-stroke" points="786,1935 786,1736 " />
<polyline fill="none" vector-effect="non-scaling-stroke" points="682,1835 682,1833 682,1831 682,1829 682,1827 681,1825 681,1823 681,1821 680,1819 680,1817 679,1815 678,1814 678,1812 677,1810 676,1808 675,1806 674,1804 674,1803 673,1801 671,1799 670,1798 669,1796 668,1794 667,1793 665,1791 664,1790 663,1788 661,1787 660,1786 658,1784 657,1783 655,1782 653,1781 652,1780 650,1779 648,1778 646,1777 645,1776 643,1775 641,1774 639,1773 637,1773 635,1772 633,1772 632,1771 630,1771 628,1770 626,1770 624,1770 622,1770 620,1770 618,1769 616,1769 614,1769 612,1770 610,1770 608,1770 606,1770 604,1771 602,1771 600,1772 598,1772 596,1773 594,1773 592,1774 590,1775 589,1776 587,1777 585,1777 583,1778 582,1779 580,1781 578,1782 577,1783 575,1784 573,1785 572,1787 571,1788 569,1790 568,1791 566,1792 565,1794 564,1796 563,1797 562,1799 561,1801 560,1802 559,1804 558,1806 557,1808 556,1809 555,1811 555,1813 554,1815 553,1817 553,1819 552,1821 552,1823 552,1825 551,1827 551,1829 551,1831 551,1833 551,1835 551,1837 551,1839 551,1841 551,1843 551,1845 552,1847 552,1849 553,1851 553,1852 554,1854 554,1856 555,1858 556,1860 556,1862 557,1864 558,1866 559,1867 560,1869 561,1871 562,1872 563,1874 565,1876 566,1877 567,1879 569,1880 570,1882 571,1883 573,1884 574,1886 576,1887 578,1888 579,1889 581,1890 583,1891 584,1892 586,1893 588,1894 590,1895 591,1896 593,1897 595,1897 597,1898 599,1898 601,1899 603,1899 605,1900 607,1900 609,1900 611,1901 613,1901 615,1901 617,1901 619,1901 621,1901 623,1901 625,1900 627,1900 629,1900 631,1899 633,1899 635,1898 636,1898 638,1897 640,1896 642,1896 644,1895 646,1894 647,1893 649,1892 651,1891 653,1890 654,1889 656,1888 657,1886 659,1885 661,1884 662,1882 663,1881 665,1880 666,1878 667,1877 669,1875 670,1873 671,1872 672,1870 673,1868 674,1867 675,1865 676,1863 677,1861 677,1859 678,1858 679,1856 679,1854 680,1852 680,1850 681,1848 681,1846 682,1844 682,1842 682,1840 682,1838 682,1836 682,1835 " />
<polyline fill="none" vector-effect="non-scaling-stroke" points="531,1736 531,1862 " />
<polyline fill="none" vector-effect="non-scaling-stroke" points="551,1736 551,1873 " />
<polyline fill="none" vector-effect="non-scaling-stroke" points="447,1813 616,1911 " />
<polyline fill="none" vector-effect="non-scaling-stroke" points="447,1836 597,1923 " />
<polyline fill="none" vector-effect="non-scaling-stroke" points="615,1935 682,1896 " />
<polyline fill="none" vector-effect="non-scaling-stroke" points="576,1935 682,1873 " />
<polyline fill="none" vector-effect="non-scaling-stroke" points="682,1935 682,1797 " />
<polyline fill="none" vector-effect="non-scaling-stroke" points="702,1935 702,1809 " />
<polyline fill="none" vector-effect="non-scaling-stroke" points="786,1834 636,1748 " />
<polyline fill="none" vector-effect="non-scaling-stroke" points="786,1857 616,1759 " />
<polyline fill="none" vector-effect="non-scaling-stroke" points="617,1736 551,1774 " />
<polyline fill="none" vector-effect="non-scaling-stroke" points="657,1736 551,1797 " />
<polyline fill="none" vector-effect="non-scaling-stroke" points="682,1896 672,1879 " />
<polyline fill="none" vector-effect="non-scaling-stroke" points="616,1934 606,1917 " />
<polyline fill="none" vector-effect="non-scaling-stroke" points="702,1809 682,1809 " />
<polyline fill="none" vector-effect="non-scaling-stroke" points="786,1834 776,1851 " />
<polyline fill="none" vector-effect="non-scaling-stroke" points="636,1748 626,1765 " />
<polyline fill="none" vector-effect="non-scaling-stroke" points="769,1862 527,2282 " />
<polyline fill="none" vector-effect="non-scaling-stroke" points="779,1868 537,2288 " />
<polyline fill="none" vector-effect="non-scaling-stroke" points="453,2210 636,2316 " />
</g>

<g fill="#000000" fill-opacity="1" stroke="#000000" stroke-opacity="1" stroke-width="1" stroke-linecap="round" stroke-linejoin="round" transform="matrix(1,0,0,1,0,0)"
font-family="Sans Serif" font-size="9" font-weight="400" font-style="normal" 
>
<path vector-effect="non-scaling-stroke" fill-rule="evenodd" d="M540,2260 L492,2242 L501,2228 L540,2260"/>
</g>

<g fill="#000000" fill-opacity="1" stroke="#000000" stroke-opacity="1" stroke-width="1" stroke-linecap="round" stroke-linejoin="round" transform="matrix(1,0,0,1,0,0)"
font-family="Sans Serif" font-size="9" font-weight="400" font-style="normal" 
>
<path vector-effect="non-scaling-stroke" fill-rule="evenodd" d="M549,2266 L597,2284 L588,2298 L549,2266"/>
<polyline fill="none" vector-effect="non-scaling-stroke" points="604,2229 604,2227 603,2225 601,2224 600,2223 598,2223 596,2223 595,2223 " />
<polyline fill="none" vector-effect="non-scaling-stroke" points="595,2223 593,2225 591,2226 590,2227 588,2228 587,2230 586,2231 584,2232 583,2234 582,2236 581,2237 579,2239 578,2241 578,2242 577,2244 576,2246 575,2248 575,2250 574,2252 574,2254 573,2256 573,2258 573,2260 573,2262 " />
<polyline fill="none" vector-effect="non-scaling-stroke" points="573,2262 573,2264 574,2265 576,2267 578,2268 579,2268 581,2268 582,2267 " />
<polyline fill="none" vector-effect="non-scaling-stroke" points="582,2267 584,2266 586,2265 587,2264 589,2263 590,2261 592,2260 593,2258 594,2257 595,2255 596,2253 598,2252 599,2250 599,2248 600,2246 601,2245 602,2243 602,2241 603,2239 603,2237 604,2235 604,2233 604,2231 604,2229 " />
<polyline fill="none" vector-effect="non-scaling-stroke" points="600,2281 601,2278 " />
<polyline fill="none" vector-effect="non-scaling-stroke" points="658,2257 639,2246 " />
<polyline fill="none" vector-effect="non-scaling-stroke" points="639,2246 628,2265 " />
<polyline fill="none" vector-effect="non-scaling-stroke" points="628,2265 638,2271 " />
<polyline fill="none" vector-effect="non-scaling-stroke" points="642,2286 643,2284 643,2282 643,2280 643,2278 643,2276 642,2274 640,2273 639,2271 638,2271 " />
<polyline fill="none" vector-effect="non-scaling-stroke" points="642,2286 639,2291 " />
<polyline fill="none" vector-effect="non-scaling-stroke" points="624,2295 626,2295 628,2296 630,2296 632,2296 634,2295 635,2294 637,2293 638,2292 639,2291 " />
<polyline fill="none" vector-effect="non-scaling-stroke" points="624,2295 614,2289 " />
<polyline fill="none" vector-effect="non-scaling-stroke" points="673,2310 675,2305 " />
<polyline fill="none" vector-effect="non-scaling-stroke" points="675,2305 676,2303 677,2301 677,2299 677,2297 676,2295 675,2294 674,2292 672,2291 671,2290 669,2289 667,2289 665,2289 663,2289 661,2290 659,2291 658,2292 657,2293 656,2294 " />
<polyline fill="none" vector-effect="non-scaling-stroke" points="656,2294 653,2299 " />
<polyline fill="none" vector-effect="non-scaling-stroke" points="653,2299 653,2301 652,2303 652,2305 652,2307 653,2308 654,2310 655,2312 656,2313 658,2314 660,2315 662,2315 664,2315 666,2315 668,2314 669,2313 671,2312 672,2311 673,2310 " />
<polyline fill="none" vector-effect="non-scaling-stroke" points="671,2290 673,2291 675,2291 677,2291 679,2291 681,2291 683,2290 684,2289 686,2287 687,2285 687,2284 688,2282 688,2280 688,2278 687,2276 686,2274 685,2272 683,2271 682,2271 " />
<polyline fill="none" vector-effect="non-scaling-stroke" points="682,2271 681,2270 679,2269 677,2269 675,2270 673,2270 671,2271 669,2272 668,2274 667,2275 666,2277 666,2279 666,2281 666,2283 667,2285 668,2287 669,2288 671,2290 " />
<polyline fill="none" vector-effect="non-scaling-stroke" points="620,1776 317,2301 " />
<polyline fill="none" vector-effect="non-scaling-stroke" points="610,1770 307,2296 " />
<polyline fill="none" vector-effect="non-scaling-stroke" points="415,2330 233,2224 " />
</g>

<g fill="#000000" fill-opacity="1" stroke="#000000" stroke-opacity="1" stroke-width="1" stroke-linecap="round" stroke-linejoin="round" transform="matrix(1,0,0,1,0,0)"
font-family="Sans Serif" font-size="9" font-weight="400" font-style="normal" 
>
<path vector-effect="non-scaling-stroke" fill-rule="evenodd" d="M329,2280 L376,2297 L368,2312 L329,2280"/>
</g>

<g fill="#000000" fill-opacity="1" stroke="#000000" stroke-opacity="1" stroke-width="1" stroke-linecap="round" stroke-linejoin="round" transform="matrix(1,0,0,1,0,0)"
font-family="Sans Serif" font-size="9" font-weight="400" font-style="normal" 
>
<path vector-effect="non-scaling-stroke" fill-rule="evenodd" d="M319,2274 L272,2256 L280,2242 L319,2274"/>
<polyline fill="none" vector-effect="non-scaling-stroke" points="384,2243 383,2241 382,2239 381,2238 379,2237 377,2237 375,2237 374,2237 " />
<polyline fill="none" vector-effect="non-scaling-stroke" points="374,2237 373,2238 371,2240 370,2241 368,2242 367,2243 365,2245 364,2246 363,2248 361,2249 360,2251 359,2253 358,2254 357,2256 356,2258 356,2260 355,2262 354,2264 354,2266 353,2268 353,2270 353,2272 352,2274 352,2276 " />
<polyline fill="none" vector-effect="non-scaling-stroke" points="352,2276 353,2277 354,2279 355,2281 357,2281 359,2282 361,2281 362,2281 " />
<polyline fill="none" vector-effect="non-scaling-stroke" points="362,2281 364,2280 365,2279 367,2278 368,2276 370,2275 371,2274 372,2272 374,2271 375,2269 376,2267 377,2266 378,2264 379,2262 380,2260 381,2258 381,2257 382,2255 383,2253 383,2251 383,2249 384,2247 384,2245 384,2243 " />
<polyline fill="none" vector-effect="non-scaling-stroke" points="380,2295 381,2292 " />
<polyline fill="none" vector-effect="non-scaling-stroke" points="438,2271 419,2260 " />
<polyline fill="none" vector-effect="non-scaling-stroke" points="419,2260 408,2279 " />
<polyline fill="none" vector-effect="non-scaling-stroke" points="408,2279 417,2284 " />
<polyline fill="none" vector-effect="non-scaling-stroke" points="421,2300 422,2298 423,2296 423,2294 423,2292 422,2290 421,2288 420,2287 419,2285 417,2284 " />
<polyline fill="none" vector-effect="non-scaling-stroke" points="421,2300 419,2304 " />
<polyline fill="none" vector-effect="non-scaling-stroke" points="404,2308 405,2309 407,2310 409,2310 411,2310 413,2309 415,2308 417,2307 418,2305 419,2304 " />
<polyline fill="none" vector-effect="non-scaling-stroke" points="404,2308 394,2303 " />
<polyline fill="none" vector-effect="non-scaling-stroke" points="452,2324 455,2319 " />
<polyline fill="none" vector-effect="non-scaling-stroke" points="455,2319 456,2317 456,2315 456,2313 456,2311 456,2309 455,2307 454,2306 452,2305 450,2304 449,2303 447,2302 445,2302 443,2303 441,2303 439,2304 438,2306 436,2307 436,2308 " />
<polyline fill="none" vector-effect="non-scaling-stroke" points="436,2308 433,2313 " />
<polyline fill="none" vector-effect="non-scaling-stroke" points="433,2313 432,2314 432,2316 432,2318 432,2320 432,2322 433,2324 435,2326 436,2327 438,2328 440,2329 441,2329 443,2329 445,2329 447,2328 449,2327 451,2326 452,2324 " />
<polyline fill="none" vector-effect="non-scaling-stroke" points="451,2304 453,2305 455,2305 457,2305 459,2305 461,2304 462,2304 464,2302 465,2301 466,2299 467,2297 467,2295 468,2293 467,2291 467,2290 466,2288 464,2286 463,2285 462,2285 " />
<polyline fill="none" vector-effect="non-scaling-stroke" points="462,2285 460,2284 458,2283 456,2283 454,2283 452,2284 451,2285 449,2286 448,2288 447,2289 446,2291 445,2293 445,2295 446,2297 446,2299 447,2301 449,2302 450,2303 451,2304 " />
<polyline fill="none" vector-effect="non-scaling-stroke" points="690,1809 273,1809 " />
<polyline fill="none" vector-effect="non-scaling-stroke" points="690,1935 273,1935 " />
<polyline fill="none" vector-effect="non-scaling-stroke" points="298,1809 298,1935 " />
</g>

<g fill="#000000" fill-opacity="1" stroke="#000000" stroke-opacity="1" stroke-width="1" stroke-linecap="round" stroke-linejoin="round" transform="matrix(1,0,0,1,0,0)"
font-family="Sans Serif" font-size="9" font-weight="400" font-style="normal" 
>
<path vector-effect="non-scaling-stroke" fill-rule="evenodd" d="M298,1809 L306,1858 L290,1858 L298,1809"/>
</g>

<g fill="#000000" fill-opacity="1" stroke="#000000" stroke-opacity="1" stroke-width="1" stroke-linecap="round" stroke-linejoin="round" transform="matrix(1,0,0,1,0,0)"
font-family="Sans Serif" font-size="9" font-weight="400" font-style="normal" 
>
<path vector-effect="non-scaling-stroke" fill-rule="evenodd" d="M298,1935 L290,1885 L306,1885 L298,1935"/>
<polyline fill="none" vector-effect="non-scaling-stroke" points="258,1930 258,1919 " />
<polyline fill="none" vector-effect="non-scaling-stroke" points="269,1908 267,1908 265,1908 263,1909 261,1910 260,1912 259,1914 258,1915 258,1917 258,1919 " />
<polyline fill="none" vector-effect="non-scaling-stroke" points="269,1908 274,1908 " />
<polyline fill="none" vector-effect="non-scaling-stroke" points="274,1930 276,1930 278,1929 280,1928 282,1927 283,1926 284,1924 285,1922 285,1920 285,1918 285,1916 284,1914 283,1912 282,1911 281,1910 279,1909 277,1908 275,1908 274,1908 " />
<polyline fill="none" vector-effect="non-scaling-stroke" points="274,1930 258,1930 " />
<polyline fill="none" vector-effect="non-scaling-stroke" points="236,1913 236,1915 237,1917 238,1919 239,1920 240,1922 242,1923 243,1925 245,1926 247,1927 248,1928 250,1928 252,1929 254,1929 256,1930 258,1930 " />
<polyline fill="none" vector-effect="non-scaling-stroke" points="285,1891 283,1891 " />
<polyline fill="none" vector-effect="non-scaling-stroke" points="236,1874 236,1863 " />
<polyline fill="none" vector-effect="non-scaling-stroke" points="258,1863 258,1861 257,1859 256,1858 255,1856 254,1855 252,1854 250,1853 248,1852 246,1852 244,1853 242,1853 240,1854 239,1856 238,1857 237,1859 236,1861 236,1863 " />
<polyline fill="none" vector-effect="non-scaling-stroke" points="258,1869 258,1863 " />
<polyline fill="none" vector-effect="non-scaling-stroke" points="269,1852 267,1852 265,1853 263,1854 261,1855 260,1857 259,1858 258,1860 258,1862 258,1863 " />
<polyline fill="none" vector-effect="non-scaling-stroke" points="269,1852 274,1852 " />
<polyline fill="none" vector-effect="non-scaling-stroke" points="285,1863 285,1861 285,1859 284,1858 283,1856 281,1855 279,1854 278,1853 276,1852 274,1852 " />
<polyline fill="none" vector-effect="non-scaling-stroke" points="285,1863 285,1874 " />
<polyline fill="none" vector-effect="non-scaling-stroke" points="236,1836 236,1825 " />
<polyline fill="none" vector-effect="non-scaling-stroke" points="258,1825 258,1823 257,1821 256,1819 255,1817 254,1816 252,1815 250,1814 248,1814 246,1814 244,1814 242,1815 240,1816 239,1817 238,1818 237,1820 236,1822 236,1824 236,1825 " />
<polyline fill="none" vector-effect="non-scaling-stroke" points="258,1830 258,1825 " />
<polyline fill="none" vector-effect="non-scaling-stroke" points="269,1814 267,1814 265,1814 263,1815 261,1816 260,1818 259,1819 258,1821 258,1823 258,1825 " />
<polyline fill="none" vector-effect="non-scaling-stroke" points="269,1814 274,1814 " />
<polyline fill="none" vector-effect="non-scaling-stroke" points="285,1825 285,1823 285,1821 284,1819 283,1817 281,1816 279,1815 278,1814 276,1814 274,1814 " />
<polyline fill="none" vector-effect="non-scaling-stroke" points="285,1825 285,1836 " />
<polyline fill="none" vector-effect="non-scaling-stroke" points="622,1945 771,2203 " />
<polyline fill="none" vector-effect="non-scaling-stroke" points="688,1907 837,2165 " />
<polyline fill="none" vector-effect="non-scaling-stroke" points="673,2231 911,2093 " />
</g>

<g fill="#000000" fill-opacity="1" stroke="#000000" stroke-opacity="1" stroke-width="1" stroke-linecap="round" stroke-linejoin="round" transform="matrix(1,0,0,1,0,0)"
font-family="Sans Serif" font-size="9" font-weight="400" font-style="normal" 
>
<path vector-effect="non-scaling-stroke" fill-rule="evenodd" d="M759,2181 L720,2213 L711,2199 L759,2181"/>
</g>

<g fill="#000000" fill-opacity="1" stroke="#000000" stroke-opacity="1" stroke-width="1" stroke-linecap="round" stroke-linejoin="round" transform="matrix(1,0,0,1,0,0)"
font-family="Sans Serif" font-size="9" font-weight="400" font-style="normal" 
>
<path vector-effect="non-scaling-stroke" fill-rule="evenodd" d="M825,2143 L864,2111 L872,2125 L825,2143"/>
<polyline fill="none" vector-effect="non-scaling-stroke" points="804,2083 814,2077 " />
<polyline fill="none" vector-effect="non-scaling-stroke" points="825,2097 827,2095 828,2094 829,2092 830,2091 831,2089 831,2087 830,2085 830,2083 829,2081 828,2079 826,2078 824,2077 822,2076 821,2076 819,2076 817,2076 815,2077 814,2077 " />
<polyline fill="none" vector-effect="non-scaling-stroke" points="820,2099 825,2097 " />
<polyline fill="none" vector-effect="non-scaling-stroke" points="840,2101 839,2099 838,2098 836,2096 834,2096 832,2095 830,2095 828,2095 826,2096 825,2097 " />
<polyline fill="none" vector-effect="non-scaling-stroke" points="840,2101 843,2105 " />
<polyline fill="none" vector-effect="non-scaling-stroke" points="839,2121 841,2119 842,2118 843,2116 844,2114 844,2113 844,2111 844,2109 844,2107 843,2105 " />
<polyline fill="none" vector-effect="non-scaling-stroke" points="839,2121 829,2126 " />
<polyline fill="none" vector-effect="non-scaling-stroke" points="863,2107 861,2104 " />
<polyline fill="none" vector-effect="non-scaling-stroke" points="891,2078 888,2073 " />
<polyline fill="none" vector-effect="non-scaling-stroke" points="888,2073 887,2071 886,2070 884,2069 882,2068 880,2068 878,2067 876,2068 874,2068 872,2069 871,2070 870,2072 869,2074 868,2076 868,2078 868,2080 868,2081 869,2083 869,2084 " />
<polyline fill="none" vector-effect="non-scaling-stroke" points="869,2084 872,2089 " />
<polyline fill="none" vector-effect="non-scaling-stroke" points="872,2089 873,2090 874,2092 876,2093 878,2094 880,2094 882,2094 884,2094 886,2093 887,2093 889,2091 890,2090 891,2088 892,2086 892,2084 892,2082 892,2080 891,2078 " />
<polyline fill="none" vector-effect="non-scaling-stroke" points="873,2069 875,2068 876,2066 877,2065 878,2063 878,2061 879,2059 878,2057 878,2055 877,2053 875,2052 874,2050 872,2049 870,2049 868,2048 866,2048 864,2049 863,2049 862,2050 " />
<polyline fill="none" vector-effect="non-scaling-stroke" points="862,2050 860,2051 859,2052 858,2054 857,2056 857,2058 856,2060 857,2062 857,2064 858,2065 859,2067 861,2068 863,2069 865,2070 867,2070 869,2070 870,2070 872,2069 873,2069 " />
<polyline fill="none" vector-effect="non-scaling-stroke" points="886,2036 895,2030 " />
<polyline fill="none" vector-effect="non-scaling-stroke" points="907,2050 908,2048 910,2047 911,2045 911,2043 912,2042 912,2040 912,2038 911,2036 910,2034 909,2032 908,2031 906,2030 904,2029 902,2029 900,2029 898,2029 896,2030 895,2030 " />
<polyline fill="none" vector-effect="non-scaling-stroke" points="902,2052 907,2050 " />
<polyline fill="none" vector-effect="non-scaling-stroke" points="922,2054 920,2052 919,2051 917,2049 916,2049 914,2048 912,2048 910,2048 908,2049 907,2050 " />
<polyline fill="none" vector-effect="non-scaling-stroke" points="922,2054 924,2058 " />
<polyline fill="none" vector-effect="non-scaling-stroke" points="920,2074 922,2072 923,2071 925,2069 925,2067 926,2065 926,2064 926,2062 925,2060 924,2058 " />
<polyline fill="none" vector-effect="non-scaling-stroke" points="920,2074 911,2079 " />
<polyline fill="none" vector-effect="non-scaling-stroke" points="666,1868 544,1657 " />
<polyline fill="none" vector-effect="non-scaling-stroke" points="676,1862 554,1652 " />
<polyline fill="none" vector-effect="non-scaling-stroke" points="471,1729 653,1623 " />
</g>

<g fill="#000000" fill-opacity="1" stroke="#000000" stroke-opacity="1" stroke-width="1" stroke-linecap="round" stroke-linejoin="round" transform="matrix(1,0,0,1,0,0)"
font-family="Sans Serif" font-size="9" font-weight="400" font-style="normal" 
>
<path vector-effect="non-scaling-stroke" fill-rule="evenodd" d="M557,1679 L518,1711 L510,1697 L557,1679"/>
</g>

<g fill="#000000" fill-opacity="1" stroke="#000000" stroke-opacity="1" stroke-width="1" stroke-linecap="round" stroke-linejoin="round" transform="matrix(1,0,0,1,0,0)"
font-family="Sans Serif" font-size="9" font-weight="400" font-style="normal" 
>
<path vector-effect="non-scaling-stroke" fill-rule="evenodd" d="M567,1673 L606,1641 L614,1655 L567,1673"/>
<polyline fill="none" vector-effect="non-scaling-stroke" points="562,1607 560,1607 558,1607 556,1607 555,1608 553,1610 553,1612 553,1613 " />
<polyline fill="none" vector-effect="non-scaling-stroke" points="553,1613 553,1615 553,1617 553,1619 554,1621 554,1623 555,1624 555,1626 556,1628 557,1630 557,1632 558,1634 559,1635 560,1637 562,1639 563,1640 564,1642 565,1643 567,1645 568,1646 570,1647 571,1649 573,1650 575,1651 " />
<polyline fill="none" vector-effect="non-scaling-stroke" points="575,1651 577,1651 579,1651 581,1651 582,1650 583,1648 584,1646 584,1645 " />
<polyline fill="none" vector-effect="non-scaling-stroke" points="584,1645 584,1643 584,1641 584,1639 583,1637 583,1636 582,1634 582,1632 581,1630 580,1628 579,1626 579,1624 578,1623 576,1621 575,1619 574,1618 573,1616 571,1615 570,1613 569,1612 567,1611 566,1609 564,1608 562,1607 " />
<polyline fill="none" vector-effect="non-scaling-stroke" points="605,1637 603,1634 " />
<polyline fill="none" vector-effect="non-scaling-stroke" points="613,1574 594,1585 " />
<polyline fill="none" vector-effect="non-scaling-stroke" points="594,1585 605,1605 " />
<polyline fill="none" vector-effect="non-scaling-stroke" points="605,1605 615,1599 " />
<polyline fill="none" vector-effect="non-scaling-stroke" points="630,1603 629,1601 627,1600 626,1599 624,1598 622,1598 620,1598 618,1598 616,1598 615,1599 " />
<polyline fill="none" vector-effect="non-scaling-stroke" points="630,1603 633,1608 " />
<polyline fill="none" vector-effect="non-scaling-stroke" points="629,1623 630,1622 632,1620 633,1619 634,1617 634,1615 634,1613 634,1611 633,1609 633,1608 " />
<polyline fill="none" vector-effect="non-scaling-stroke" points="629,1623 619,1628 " />
<polyline fill="none" vector-effect="non-scaling-stroke" points="666,1588 664,1584 " />
<polyline fill="none" vector-effect="non-scaling-stroke" points="664,1584 662,1582 661,1581 659,1580 658,1579 656,1578 654,1578 652,1578 650,1579 648,1580 646,1581 645,1583 644,1584 643,1586 643,1588 643,1590 643,1592 644,1594 644,1595 " />
<polyline fill="none" vector-effect="non-scaling-stroke" points="644,1595 647,1600 " />
<polyline fill="none" vector-effect="non-scaling-stroke" points="647,1600 648,1601 650,1603 651,1604 653,1604 655,1605 657,1605 659,1605 661,1604 663,1603 664,1602 666,1600 667,1599 667,1597 668,1595 668,1593 667,1591 667,1589 666,1588 " />
<polyline fill="none" vector-effect="non-scaling-stroke" points="648,1580 650,1578 652,1577 653,1575 653,1574 654,1572 654,1570 654,1568 653,1566 652,1564 651,1562 649,1561 648,1560 646,1559 644,1559 642,1559 640,1559 638,1560 637,1560 " />
<polyline fill="none" vector-effect="non-scaling-stroke" points="637,1560 636,1562 634,1563 633,1565 632,1567 632,1568 632,1570 632,1572 633,1574 634,1576 635,1578 636,1579 638,1580 640,1581 642,1581 644,1581 646,1581 648,1580 " />
<polyline fill="none" vector-effect="non-scaling-stroke" points="600,1906 429,1609 " />
<polyline fill="none" vector-effect="non-scaling-stroke" points="569,1924 398,1627 " />
<polyline fill="none" vector-effect="non-scaling-stroke" points="527,1581 324,1698 " />
</g>

<g fill="#000000" fill-opacity="1" stroke="#000000" stroke-opacity="1" stroke-width="1" stroke-linecap="round" stroke-linejoin="round" transform="matrix(1,0,0,1,0,0)"
font-family="Sans Serif" font-size="9" font-weight="400" font-style="normal" 
>
<path vector-effect="non-scaling-stroke" fill-rule="evenodd" d="M441,1631 L480,1599 L488,1613 L441,1631"/>
</g>

<g fill="#000000" fill-opacity="1" stroke="#000000" stroke-opacity="1" stroke-width="1" stroke-linecap="round" stroke-linejoin="round" transform="matrix(1,0,0,1,0,0)"
font-family="Sans Serif" font-size="9" font-weight="400" font-style="normal" 
>
<path vector-effect="non-scaling-stroke" fill-rule="evenodd" d="M410,1648 L371,1681 L363,1666 L410,1648"/>
<polyline fill="none" vector-effect="non-scaling-stroke" points="426,1580 430,1565 " />
<polyline fill="none" vector-effect="non-scaling-stroke" points="430,1565 455,1608 " />
<polyline fill="none" vector-effect="non-scaling-stroke" points="469,1600 468,1598 " />
<polyline fill="none" vector-effect="non-scaling-stroke" points="462,1553 459,1549 " />
<polyline fill="none" vector-effect="non-scaling-stroke" points="459,1549 478,1537 " />
<polyline fill="none" vector-effect="non-scaling-stroke" points="478,1537 493,1586 " />
<polyline fill="none" vector-effect="non-scaling-stroke" points="531,1552 528,1547 " />
<polyline fill="none" vector-effect="non-scaling-stroke" points="528,1547 527,1545 526,1544 524,1543 522,1542 520,1541 518,1541 516,1542 514,1542 513,1543 511,1544 510,1546 509,1548 508,1549 508,1551 508,1553 508,1555 509,1557 509,1558 " />
<polyline fill="none" vector-effect="non-scaling-stroke" points="509,1558 512,1563 " />
<polyline fill="none" vector-effect="non-scaling-stroke" points="512,1563 513,1564 514,1566 516,1567 518,1568 520,1568 522,1568 524,1568 526,1567 527,1566 529,1565 530,1564 531,1562 532,1560 532,1558 532,1556 532,1554 531,1552 " />
<polyline fill="none" vector-effect="non-scaling-stroke" points="513,1543 515,1542 516,1540 517,1539 518,1537 519,1535 519,1533 518,1531 518,1529 517,1527 516,1526 514,1524 512,1523 511,1523 509,1522 507,1522 505,1523 503,1523 502,1524 " />
<polyline fill="none" vector-effect="non-scaling-stroke" points="502,1524 500,1525 499,1526 498,1528 497,1530 497,1532 497,1534 497,1536 497,1538 498,1539 500,1541 501,1542 503,1543 505,1544 507,1544 509,1544 511,1544 512,1543 513,1543 " />
<polyline fill="none" vector-effect="non-scaling-stroke" points="695,1809 1205,1809 " />
<polyline fill="none" vector-effect="non-scaling-stroke" points="695,1797 1205,1797 " />
<polyline fill="none" vector-effect="non-scaling-stroke" points="1180,1908 1180,1698 " />
</g>

<g fill="#000000" fill-opacity="1" stroke="#000000" stroke-opacity="1" stroke-width="1" stroke-linecap="round" stroke-linejoin="round" transform="matrix(1,0,0,1,0,0)"
font-family="Sans Serif" font-size="9" font-weight="400" font-style="normal" 
>
<path vector-effect="non-scaling-stroke" fill-rule="evenodd" d="M1180,1809 L1188,1858 L1172,1858 L1180,1809"/>
</g>

<g fill="#000000" fill-opacity="1" stroke="#000000" stroke-opacity="1" stroke-width="1" stroke-linecap="round" stroke-linejoin="round" transform="matrix(1,0,0,1,0,0)"
font-family="Sans Serif" font-size="9" font-weight="400" font-style="normal" 
>
<path vector-effect="non-scaling-stroke" fill-rule="evenodd" d="M1180,1797 L1172,1747 L1188,1747 L1180,1797"/>
<polyline fill="none" vector-effect="non-scaling-stroke" points="1120,1768 1119,1770 1118,1771 1118,1773 1118,1775 1118,1777 1120,1779 " />
<polyline fill="none" vector-effect="non-scaling-stroke" points="1120,1779 1122,1780 1124,1781 1126,1782 1128,1782 1130,1783 1132,1783 1133,1784 1135,1784 1137,1784 1139,1785 1141,1785 1143,1785 1145,1785 1147,1784 1149,1784 1151,1784 1153,1783 1155,1783 1157,1782 1159,1782 1161,1781 1163,1780 1165,1779 " />
<polyline fill="none" vector-effect="non-scaling-stroke" points="1165,1779 1166,1778 1167,1776 1167,1774 1167,1772 1166,1770 1165,1769 1165,1768 " />
<polyline fill="none" vector-effect="non-scaling-stroke" points="1165,1768 1163,1767 1161,1766 1159,1766 1157,1765 1155,1764 1153,1764 1151,1763 1149,1763 1147,1763 1145,1763 1143,1763 1141,1763 1139,1763 1137,1763 1136,1763 1134,1763 1132,1764 1130,1764 1128,1765 1126,1766 1124,1766 1122,1767 1120,1768 " />
<polyline fill="none" vector-effect="non-scaling-stroke" points="1167,1746 1165,1746 " />
<polyline fill="none" vector-effect="non-scaling-stroke" points="1118,1707 1118,1729 " />
<polyline fill="none" vector-effect="non-scaling-stroke" points="1118,1729 1140,1729 " />
<polyline fill="none" vector-effect="non-scaling-stroke" points="1140,1729 1140,1718 " />
<polyline fill="none" vector-effect="non-scaling-stroke" points="1151,1707 1149,1707 1147,1708 1145,1709 1143,1710 1142,1711 1141,1713 1140,1715 1140,1717 1140,1718 " />
<polyline fill="none" vector-effect="non-scaling-stroke" points="1151,1707 1156,1707 " />
<polyline fill="none" vector-effect="non-scaling-stroke" points="1167,1718 1167,1716 1167,1714 1166,1713 1165,1711 1163,1710 1161,1709 1160,1708 1158,1707 1156,1707 " />
<polyline fill="none" vector-effect="non-scaling-stroke" points="1167,1718 1167,1729 " />
<polyline fill="none" vector-effect="non-scaling-stroke" points="1156,1669 1151,1669 " />
<polyline fill="none" vector-effect="non-scaling-stroke" points="1151,1669 1149,1669 1147,1669 1145,1670 1143,1671 1142,1673 1141,1674 1140,1676 1140,1678 1140,1680 1140,1682 1141,1684 1142,1686 1143,1687 1144,1689 1146,1690 1148,1690 1150,1691 1151,1691 " />
<polyline fill="none" vector-effect="non-scaling-stroke" points="1151,1691 1156,1691 " />
<polyline fill="none" vector-effect="non-scaling-stroke" points="1156,1691 1158,1690 1160,1690 1162,1689 1164,1688 1165,1686 1166,1685 1167,1683 1167,1681 1167,1679 1167,1677 1166,1675 1165,1673 1164,1672 1163,1671 1161,1670 1159,1669 1157,1669 1156,1669 " />
<polyline fill="none" vector-effect="non-scaling-stroke" points="1140,1680 1140,1678 1139,1676 1138,1674 1137,1672 1135,1671 1134,1670 1132,1669 1130,1669 1128,1669 1126,1669 1124,1669 1122,1670 1121,1672 1120,1673 1119,1675 1118,1677 1118,1679 1118,1680 " />
<polyline fill="none" vector-effect="non-scaling-stroke" points="1118,1680 1118,1682 1118,1684 1119,1685 1120,1687 1122,1688 1123,1689 1125,1690 1127,1691 1129,1691 1131,1690 1133,1690 1135,1689 1136,1687 1138,1686 1139,1684 1139,1682 1140,1680 " />
<polyline fill="none" vector-effect="non-scaling-stroke" points="643,1737 739,1570 " />
<polyline fill="none" vector-effect="non-scaling-stroke" points="792,1823 888,1656 " />
<polyline fill="none" vector-effect="non-scaling-stroke" points="727,1591 876,1678 " />
</g>

<g fill="#000000" fill-opacity="1" stroke="#000000" stroke-opacity="1" stroke-width="1" stroke-linecap="round" stroke-linejoin="round" transform="matrix(1,0,0,1,0,0)"
font-family="Sans Serif" font-size="9" font-weight="400" font-style="normal" 
>
<path vector-effect="non-scaling-stroke" fill-rule="evenodd" d="M727,1591 L774,1609 L766,1623 L727,1591"/>
</g>

<g fill="#000000" fill-opacity="1" stroke="#000000" stroke-opacity="1" stroke-width="1" stroke-linecap="round" stroke-linejoin="round" transform="matrix(1,0,0,1,0,0)"
font-family="Sans Serif" font-size="9" font-weight="400" font-style="normal" 
>
<path vector-effect="non-scaling-stroke" fill-rule="evenodd" d="M876,1678 L829,1660 L837,1646 L876,1678"/>
<polyline fill="none" vector-effect="non-scaling-stroke" points="782,1596 785,1591 " />
<polyline fill="none" vector-effect="non-scaling-stroke" points="785,1591 785,1590 786,1588 786,1586 786,1584 785,1582 784,1580 783,1578 782,1577 780,1576 778,1575 776,1575 774,1575 772,1575 770,1576 769,1577 767,1578 766,1580 765,1580 " />
<polyline fill="none" vector-effect="non-scaling-stroke" points="765,1580 763,1585 " />
<polyline fill="none" vector-effect="non-scaling-stroke" points="763,1585 762,1587 761,1589 761,1591 761,1593 762,1595 763,1597 764,1598 766,1599 767,1601 769,1601 771,1602 773,1602 775,1601 777,1601 779,1600 780,1598 781,1597 782,1596 " />
<polyline fill="none" vector-effect="non-scaling-stroke" points="781,1576 782,1577 784,1578 786,1578 788,1578 790,1577 792,1576 794,1575 795,1573 796,1572 797,1570 797,1568 797,1566 797,1564 796,1562 795,1560 794,1559 792,1557 " />
<polyline fill="none" vector-effect="non-scaling-stroke" points="792,1557 790,1556 788,1556 786,1556 784,1556 782,1556 780,1557 779,1559 777,1560 776,1562 775,1564 775,1566 775,1568 775,1569 776,1571 777,1573 778,1575 780,1576 781,1576 " />
<polyline fill="none" vector-effect="non-scaling-stroke" points="791,1614 792,1612 " />
<polyline fill="none" vector-effect="non-scaling-stroke" points="819,1598 828,1604 " />
<polyline fill="none" vector-effect="non-scaling-stroke" points="833,1619 833,1617 834,1615 834,1613 834,1611 833,1609 832,1608 831,1606 830,1605 828,1604 " />
<polyline fill="none" vector-effect="non-scaling-stroke" points="833,1619 830,1624 " />
<polyline fill="none" vector-effect="non-scaling-stroke" points="811,1613 810,1615 809,1616 809,1618 809,1620 810,1622 811,1624 812,1626 813,1627 815,1628 817,1629 819,1629 821,1629 823,1629 825,1628 827,1627 828,1626 829,1624 830,1624 " />
<polyline fill="none" vector-effect="non-scaling-stroke" points="811,1613 819,1598 " />
<polyline fill="none" vector-effect="non-scaling-stroke" points="844,1588 842,1587 840,1587 838,1587 836,1587 834,1587 832,1588 831,1588 829,1589 827,1590 825,1591 824,1592 822,1594 821,1595 820,1597 819,1598 " />
<polyline fill="none" vector-effect="non-scaling-stroke" points="852,1618 862,1623 " />
<polyline fill="none" vector-effect="non-scaling-stroke" points="866,1638 867,1637 867,1635 868,1633 867,1631 867,1629 866,1627 865,1625 863,1624 862,1623 " />
<polyline fill="none" vector-effect="non-scaling-stroke" points="866,1638 863,1643 " />
<polyline fill="none" vector-effect="non-scaling-stroke" points="844,1632 843,1634 843,1636 843,1638 843,1640 843,1642 844,1644 846,1645 847,1646 849,1648 851,1648 853,1649 855,1649 856,1648 858,1648 860,1647 862,1645 863,1644 863,1643 " />
<polyline fill="none" vector-effect="non-scaling-stroke" points="844,1632 852,1618 " />
<polyline fill="none" vector-effect="non-scaling-stroke" points="878,1607 876,1606 874,1606 872,1606 870,1606 868,1607 866,1607 864,1608 862,1609 860,1610 859,1611 857,1612 856,1613 854,1615 853,1616 852,1618 " />
<polyline fill="none" vector-effect="non-scaling-stroke" points="715,1235 1448,1235 " />
<polyline fill="none" vector-effect="non-scaling-stroke" points="715,1361 1448,1361 " />
<polyline fill="none" vector-effect="non-scaling-stroke" points="1423,1235 1423,1361 " />
</g>

<g fill="#000000" fill-opacity="1" stroke="#000000" stroke-opacity="1" stroke-width="1" stroke-linecap="round" stroke-linejoin="round" transform="matrix(1,0,0,1,0,0)"
font-family="Sans Serif" font-size="9" font-weight="400" font-style="normal" 
>
<path vector-effect="non-scaling-stroke" fill-rule="evenodd" d="M1423,1235 L1431,1285 L1415,1285 L1423,1235"/>
</g>

<g fill="#000000" fill-opacity="1" stroke="#000000" stroke-opacity="1" stroke-width="1" stroke-linecap="round" stroke-linejoin="round" transform="matrix(1,0,0,1,0,0)"
font-family="Sans Serif" font-size="9" font-weight="400" font-style="normal" 
>
<path vector-effect="non-scaling-stroke" fill-rule="evenodd" d="M1423,1361 L1415,1311 L1431,1311 L1423,1361"/>
<polyline fill="none" vector-effect="non-scaling-stroke" points="1376,1201 1376,1190 " />
<polyline fill="none" vector-effect="non-scaling-stroke" points="1387,1179 1385,1179 1383,1180 1381,1181 1380,1182 1379,1183 1377,1185 1377,1187 1376,1189 1376,1190 " />
<polyline fill="none" vector-effect="non-scaling-stroke" points="1387,1179 1393,1179 " />
<polyline fill="none" vector-effect="non-scaling-stroke" points="1393,1201 1395,1201 1397,1200 1398,1199 1400,1198 1401,1197 1403,1195 1403,1193 1404,1191 1404,1189 1403,1187 1403,1186 1402,1184 1401,1182 1399,1181 1397,1180 1395,1179 1393,1179 " />
<polyline fill="none" vector-effect="non-scaling-stroke" points="1393,1201 1376,1201 " />
<polyline fill="none" vector-effect="non-scaling-stroke" points="1354,1184 1355,1186 1355,1188 1356,1190 1358,1192 1359,1193 1360,1195 1362,1196 1363,1197 1365,1198 1367,1199 1369,1200 1371,1200 1372,1201 1374,1201 1376,1201 " />
<polyline fill="none" vector-effect="non-scaling-stroke" points="1404,1162 1401,1162 " />
<polyline fill="none" vector-effect="non-scaling-stroke" points="1354,1146 1354,1135 " />
<polyline fill="none" vector-effect="non-scaling-stroke" points="1376,1135 1376,1133 1375,1131 1375,1129 1373,1127 1372,1126 1370,1125 1368,1124 1366,1124 1364,1124 1362,1124 1361,1125 1359,1126 1357,1127 1356,1128 1355,1130 1354,1132 1354,1134 1354,1135 " />
<polyline fill="none" vector-effect="non-scaling-stroke" points="1376,1140 1376,1135 " />
<polyline fill="none" vector-effect="non-scaling-stroke" points="1387,1124 1385,1124 1383,1124 1381,1125 1380,1126 1379,1128 1377,1130 1377,1131 1376,1133 1376,1135 " />
<polyline fill="none" vector-effect="non-scaling-stroke" points="1387,1124 1393,1124 " />
<polyline fill="none" vector-effect="non-scaling-stroke" points="1404,1135 1404,1133 1403,1131 1402,1129 1401,1127 1400,1126 1398,1125 1396,1124 1394,1124 1393,1124 " />
<polyline fill="none" vector-effect="non-scaling-stroke" points="1404,1135 1404,1146 " />
<polyline fill="none" vector-effect="non-scaling-stroke" points="1354,1107 1354,1096 " />
<polyline fill="none" vector-effect="non-scaling-stroke" points="1376,1096 1376,1094 1375,1092 1375,1090 1373,1089 1372,1087 1370,1086 1368,1085 1366,1085 1364,1085 1362,1085 1361,1086 1359,1087 1357,1088 1356,1090 1355,1091 1354,1093 1354,1095 1354,1096 " />
<polyline fill="none" vector-effect="non-scaling-stroke" points="1376,1102 1376,1096 " />
<polyline fill="none" vector-effect="non-scaling-stroke" points="1387,1085 1385,1085 1383,1086 1381,1087 1380,1088 1379,1089 1377,1091 1377,1093 1376,1095 1376,1096 " />
<polyline fill="none" vector-effect="non-scaling-stroke" points="1387,1085 1393,1085 " />
<polyline fill="none" vector-effect="non-scaling-stroke" points="1404,1096 1404,1094 1403,1092 1402,1090 1401,1089 1400,1087 1398,1086 1396,1085 1394,1085 1393,1085 " />
<polyline fill="none" vector-effect="non-scaling-stroke" points="1404,1096 1404,1107 " />
<polyline fill="none" vector-effect="non-scaling-stroke" points="695,1223 1368,1223 " />
<polyline fill="none" vector-effect="non-scaling-stroke" points="695,1361 1368,1361 " />
<polyline fill="none" vector-effect="non-scaling-stroke" points="1343,1223 1343,1361 " />
</g>

<g fill="#000000" fill-opacity="1" stroke="#000000" stroke-opacity="1" stroke-width="1" stroke-linecap="round" stroke-linejoin="round" transform="matrix(1,0,0,1,0,0)"
font-family="Sans Serif" font-size="9" font-weight="400" font-style="normal" 
>
<path vector-effect="non-scaling-stroke" fill-rule="evenodd" d="M1343,1223 L1351,1273 L1335,1273 L1343,1223"/>
</g>

<g fill="#000000" fill-opacity="1" stroke="#000000" stroke-opacity="1" stroke-width="1" stroke-linecap="round" stroke-linejoin="round" transform="matrix(1,0,0,1,0,0)"
font-family="Sans Serif" font-size="9" font-weight="400" font-style="normal" 
>
<path vector-effect="non-scaling-stroke" fill-rule="evenodd" d="M1343,1361 L1335,1311 L1351,1311 L1343,1361"/>
<polyline fill="none" vector-effect="non-scaling-stroke" points="1296,1196 1296,1184 " />
<polyline fill="none" vector-effect="non-scaling-stroke" points="1308,1173 1306,1174 1304,1174 1302,1175 1300,1176 1299,1178 1298,1179 1297,1181 1297,1183 1296,1184 " />
<polyline fill="none" vector-effect="non-scaling-stroke" points="1308,1173 1313,1173 " />
<polyline fill="none" vector-effect="non-scaling-stroke" points="1313,1196 1315,1195 1317,1195 1319,1194 1320,1193 1322,1191 1323,1190 1324,1188 1324,1186 1324,1184 1324,1182 1323,1180 1322,1178 1321,1177 1319,1175 1318,1174 1316,1174 1314,1173 1313,1173 " />
<polyline fill="none" vector-effect="non-scaling-stroke" points="1313,1196 1296,1196 " />
<polyline fill="none" vector-effect="non-scaling-stroke" points="1274,1179 1275,1181 1276,1183 1277,1184 1278,1186 1279,1188 1281,1189 1282,1190 1284,1192 1285,1193 1287,1194 1289,1194 1291,1195 1293,1195 1295,1195 1296,1196 " />
<polyline fill="none" vector-effect="non-scaling-stroke" points="1324,1157 1321,1157 " />
<polyline fill="none" vector-effect="non-scaling-stroke" points="1302,1118 1302,1129 " />
<polyline fill="none" vector-effect="non-scaling-stroke" points="1291,1140 1293,1140 1295,1140 1297,1139 1298,1137 1300,1136 1301,1134 1302,1132 1302,1131 1302,1129 " />
<polyline fill="none" vector-effect="non-scaling-stroke" points="1291,1140 1285,1140 " />
<polyline fill="none" vector-effect="non-scaling-stroke" points="1285,1118 1283,1118 1282,1119 1280,1120 1278,1121 1277,1122 1276,1124 1275,1126 1274,1128 1274,1130 1275,1132 1275,1134 1276,1135 1278,1137 1279,1138 1281,1139 1283,1140 1285,1140 " />
<polyline fill="none" vector-effect="non-scaling-stroke" points="1285,1118 1302,1118 " />
<polyline fill="none" vector-effect="non-scaling-stroke" points="1324,1135 1324,1133 1323,1131 1322,1129 1321,1128 1319,1126 1318,1125 1317,1123 1315,1122 1313,1121 1311,1120 1310,1119 1308,1119 1306,1118 1304,1118 1302,1118 " />
<polyline fill="none" vector-effect="non-scaling-stroke" points="1285,1102 1274,1090 " />
<polyline fill="none" vector-effect="non-scaling-stroke" points="1274,1090 1324,1090 " />
<polyline fill="none" vector-effect="non-scaling-stroke" points="538,1162 243,1162 " />
<polyline fill="none" vector-effect="non-scaling-stroke" points="538,1299 243,1299 " />
<polyline fill="none" vector-effect="non-scaling-stroke" points="268,1162 268,1299 " />
</g>

<g fill="#000000" fill-opacity="1" stroke="#000000" stroke-opacity="1" stroke-width="1" stroke-linecap="round" stroke-linejoin="round" transform="matrix(1,0,0,1,0,0)"
font-family="Sans Serif" font-size="9" font-weight="400" font-style="normal" 
>
<path vector-effect="non-scaling-stroke" fill-rule="evenodd" d="M268,1162 L276,1212 L260,1212 L268,1162"/>
</g>

<g fill="#000000" fill-opacity="1" stroke="#000000" stroke-opacity="1" stroke-width="1" stroke-linecap="round" stroke-linejoin="round" transform="matrix(1,0,0,1,0,0)"
font-family="Sans Serif" font-size="9" font-weight="400" font-style="normal" 
>
<path vector-effect="non-scaling-stroke" fill-rule="evenodd" d="M268,1299 L260,1250 L276,1250 L268,1299"/>
<polyline fill="none" vector-effect="non-scaling-stroke" points="221,1434 221,1423 " />
<polyline fill="none" vector-effect="non-scaling-stroke" points="232,1412 230,1413 228,1413 227,1414 225,1415 224,1417 223,1418 222,1420 221,1422 221,1423 " />
<polyline fill="none" vector-effect="non-scaling-stroke" points="232,1412 238,1412 " />
<polyline fill="none" vector-effect="non-scaling-stroke" points="238,1434 240,1434 242,1434 244,1433 245,1432 247,1430 248,1429 248,1427 249,1425 249,1423 249,1421 248,1419 247,1417 246,1416 244,1414 242,1413 241,1413 239,1412 238,1412 " />
<polyline fill="none" vector-effect="non-scaling-stroke" points="238,1434 221,1434 " />
<polyline fill="none" vector-effect="non-scaling-stroke" points="199,1418 200,1420 201,1422 202,1423 203,1425 204,1427 205,1428 207,1429 208,1431 210,1432 212,1432 214,1433 216,1434 218,1434 220,1434 221,1434 " />
<polyline fill="none" vector-effect="non-scaling-stroke" points="249,1396 246,1396 " />
<polyline fill="none" vector-effect="non-scaling-stroke" points="227,1357 227,1368 " />
<polyline fill="none" vector-effect="non-scaling-stroke" points="216,1379 218,1379 220,1378 221,1378 223,1376 224,1375 226,1373 226,1371 227,1369 227,1368 " />
<polyline fill="none" vector-effect="non-scaling-stroke" points="216,1379 210,1379 " />
<polyline fill="none" vector-effect="non-scaling-stroke" points="210,1357 208,1357 206,1358 204,1359 203,1360 202,1361 200,1363 200,1365 199,1367 199,1369 199,1371 200,1373 201,1374 202,1376 204,1377 206,1378 207,1379 209,1379 210,1379 " />
<polyline fill="none" vector-effect="non-scaling-stroke" points="210,1357 227,1357 " />
<polyline fill="none" vector-effect="non-scaling-stroke" points="249,1374 248,1372 247,1370 247,1368 245,1366 244,1365 243,1363 241,1362 240,1361 238,1360 236,1359 234,1358 232,1358 230,1357 228,1357 227,1357 " />
<polyline fill="none" vector-effect="non-scaling-stroke" points="210,1340 199,1329 " />
<polyline fill="none" vector-effect="non-scaling-stroke" points="199,1329 249,1329 " />
<polyline fill="none" vector-effect="non-scaling-stroke" points="518,1288 163,1288 " />
<polyline fill="none" vector-effect="non-scaling-stroke" points="518,1162 163,1162 " />
<polyline fill="none" vector-effect="non-scaling-stroke" points="188,1288 188,1162 " />
</g>

<g fill="#000000" fill-opacity="1" stroke="#000000" stroke-opacity="1" stroke-width="1" stroke-linecap="round" stroke-linejoin="round" transform="matrix(1,0,0,1,0,0)"
font-family="Sans Serif" font-size="9" font-weight="400" font-style="normal" 
>
<path vector-effect="non-scaling-stroke" fill-rule="evenodd" d="M188,1288 L180,1238 L197,1238 L188,1288"/>
</g>

<g fill="#000000" fill-opacity="1" stroke="#000000" stroke-opacity="1" stroke-width="1" stroke-linecap="round" stroke-linejoin="round" transform="matrix(1,0,0,1,0,0)"
font-family="Sans Serif" font-size="9" font-weight="400" font-style="normal" 
>
<path vector-effect="non-scaling-stroke" fill-rule="evenodd" d="M188,1162 L197,1212 L180,1212 L188,1162"/>
<polyline fill="none" vector-effect="non-scaling-stroke" points="142,1440 142,1429 " />
<polyline fill="none" vector-effect="non-scaling-stroke" points="153,1418 151,1418 149,1419 147,1419 145,1421 144,1422 143,1424 142,1426 142,1428 142,1429 " />
<polyline fill="none" vector-effect="non-scaling-stroke" points="153,1418 158,1418 " />
<polyline fill="none" vector-effect="non-scaling-stroke" points="158,1440 160,1440 162,1439 164,1438 166,1437 167,1436 168,1434 169,1432 169,1430 169,1428 169,1426 168,1424 167,1423 166,1421 165,1420 163,1419 161,1418 159,1418 158,1418 " />
<polyline fill="none" vector-effect="non-scaling-stroke" points="158,1440 142,1440 " />
<polyline fill="none" vector-effect="non-scaling-stroke" points="119,1423 120,1425 121,1427 122,1429 123,1431 124,1432 126,1434 127,1435 129,1436 130,1437 132,1438 134,1439 136,1439 138,1440 140,1440 142,1440 " />
<polyline fill="none" vector-effect="non-scaling-stroke" points="169,1401 167,1401 " />
<polyline fill="none" vector-effect="non-scaling-stroke" points="119,1385 119,1374 " />
<polyline fill="none" vector-effect="non-scaling-stroke" points="142,1374 141,1372 141,1370 140,1368 139,1366 137,1365 136,1364 134,1363 132,1363 130,1363 128,1363 126,1364 124,1365 123,1366 121,1367 120,1369 120,1371 120,1373 119,1374 " />
<polyline fill="none" vector-effect="non-scaling-stroke" points="142,1379 142,1374 " />
<polyline fill="none" vector-effect="non-scaling-stroke" points="153,1363 151,1363 149,1363 147,1364 145,1365 144,1367 143,1368 142,1370 142,1372 142,1374 " />
<polyline fill="none" vector-effect="non-scaling-stroke" points="153,1363 158,1363 " />
<polyline fill="none" vector-effect="non-scaling-stroke" points="169,1374 169,1372 169,1370 168,1368 167,1366 165,1365 163,1364 162,1363 160,1363 158,1363 " />
<polyline fill="none" vector-effect="non-scaling-stroke" points="169,1374 169,1385 " />
<polyline fill="none" vector-effect="non-scaling-stroke" points="119,1346 119,1335 " />
<polyline fill="none" vector-effect="non-scaling-stroke" points="142,1335 141,1333 141,1331 140,1329 139,1328 137,1326 136,1325 134,1324 132,1324 130,1324 128,1324 126,1325 124,1326 123,1327 121,1329 120,1330 120,1332 120,1334 119,1335 " />
<polyline fill="none" vector-effect="non-scaling-stroke" points="142,1340 142,1335 " />
<polyline fill="none" vector-effect="non-scaling-stroke" points="153,1324 151,1324 149,1325 147,1325 145,1327 144,1328 143,1330 142,1332 142,1334 142,1335 " />
<polyline fill="none" vector-effect="non-scaling-stroke" points="153,1324 158,1324 " />
<polyline fill="none" vector-effect="non-scaling-stroke" points="169,1335 169,1333 169,1331 168,1329 167,1328 165,1326 163,1325 162,1324 160,1324 158,1324 " />
<polyline fill="none" vector-effect="non-scaling-stroke" points="169,1335 169,1346 " />
<polyline fill="none" vector-effect="non-scaling-stroke" points="623,1175 764,929 " />
<polyline fill="none" vector-effect="non-scaling-stroke" points="792,1272 934,1027 " />
<polyline fill="none" vector-effect="non-scaling-stroke" points="752,951 921,1048 " />
</g>

<g fill="#000000" fill-opacity="1" stroke="#000000" stroke-opacity="1" stroke-width="1" stroke-linecap="round" stroke-linejoin="round" transform="matrix(1,0,0,1,0,0)"
font-family="Sans Serif" font-size="9" font-weight="400" font-style="normal" 
>
<path vector-effect="non-scaling-stroke" fill-rule="evenodd" d="M752,951 L799,968 L791,983 L752,951"/>
</g>

<g fill="#000000" fill-opacity="1" stroke="#000000" stroke-opacity="1" stroke-width="1" stroke-linecap="round" stroke-linejoin="round" transform="matrix(1,0,0,1,0,0)"
font-family="Sans Serif" font-size="9" font-weight="400" font-style="normal" 
>
<path vector-effect="non-scaling-stroke" fill-rule="evenodd" d="M921,1048 L874,1031 L882,1016 L921,1048"/>
<polyline fill="none" vector-effect="non-scaling-stroke" points="833,951 824,945 " />
<polyline fill="none" vector-effect="non-scaling-stroke" points="820,930 819,932 819,934 818,936 819,938 819,940 820,942 821,943 823,945 824,945 " />
<polyline fill="none" vector-effect="non-scaling-stroke" points="820,930 823,926 " />
<polyline fill="none" vector-effect="non-scaling-stroke" points="842,937 843,935 843,933 843,931 843,929 842,927 842,925 840,924 839,922 837,921 835,920 833,920 831,920 829,920 828,921 826,922 824,923 823,925 823,926 " />
<polyline fill="none" vector-effect="non-scaling-stroke" points="842,937 833,951 " />
<polyline fill="none" vector-effect="non-scaling-stroke" points="808,962 810,962 812,962 814,962 816,962 818,962 820,962 822,961 824,960 825,959 827,958 829,957 830,955 831,954 833,952 833,951 " />
<polyline fill="none" vector-effect="non-scaling-stroke" points="837,978 838,976 " />
<polyline fill="none" vector-effect="non-scaling-stroke" points="876,988 879,983 " />
<polyline fill="none" vector-effect="non-scaling-stroke" points="879,983 879,982 880,980 880,978 880,976 879,974 878,972 877,970 876,969 874,968 872,967 870,967 868,967 866,967 864,968 863,969 861,970 860,972 859,972 " />
<polyline fill="none" vector-effect="non-scaling-stroke" points="859,972 857,977 " />
<polyline fill="none" vector-effect="non-scaling-stroke" points="857,977 856,979 855,981 855,983 855,985 856,987 857,989 858,990 860,992 861,993 863,993 865,994 867,994 869,993 871,993 873,992 874,990 875,989 876,988 " />
<polyline fill="none" vector-effect="non-scaling-stroke" points="875,968 876,969 878,970 880,970 882,970 884,969 886,968 888,967 889,965 890,964 891,962 891,960 891,958 891,956 890,954 889,952 888,951 886,950 886,949 " />
<polyline fill="none" vector-effect="non-scaling-stroke" points="886,949 884,948 882,948 880,948 878,948 876,948 874,949 873,951 871,952 870,954 869,956 869,958 869,960 869,962 870,963 871,965 872,967 874,968 875,968 " />
<polyline fill="none" vector-effect="non-scaling-stroke" points="904,973 919,969 " />
<polyline fill="none" vector-effect="non-scaling-stroke" points="919,969 894,1012 " />
<polyline fill="none" vector-effect="non-scaling-stroke" points="643,1163 826,846 " />
<polyline fill="none" vector-effect="non-scaling-stroke" points="792,1249 975,932 " />
<polyline fill="none" vector-effect="non-scaling-stroke" points="813,867 963,953 " />
</g>

<g fill="#000000" fill-opacity="1" stroke="#000000" stroke-opacity="1" stroke-width="1" stroke-linecap="round" stroke-linejoin="round" transform="matrix(1,0,0,1,0,0)"
font-family="Sans Serif" font-size="9" font-weight="400" font-style="normal" 
>
<path vector-effect="non-scaling-stroke" fill-rule="evenodd" d="M813,867 L861,885 L852,899 L813,867"/>
</g>

<g fill="#000000" fill-opacity="1" stroke="#000000" stroke-opacity="1" stroke-width="1" stroke-linecap="round" stroke-linejoin="round" transform="matrix(1,0,0,1,0,0)"
font-family="Sans Serif" font-size="9" font-weight="400" font-style="normal" 
>
<path vector-effect="non-scaling-stroke" fill-rule="evenodd" d="M963,953 L915,936 L924,921 L963,953"/>
<polyline fill="none" vector-effect="non-scaling-stroke" points="883,858 886,853 " />
<polyline fill="none" vector-effect="non-scaling-stroke" points="886,853 886,852 887,850 887,848 887,846 886,844 885,842 884,840 883,839 881,838 879,837 877,837 875,837 873,837 871,838 870,839 868,840 867,842 866,842 " />
<polyline fill="none" vector-effect="non-scaling-stroke" points="866,842 864,847 " />
<polyline fill="none" vector-effect="non-scaling-stroke" points="864,847 863,849 862,851 862,853 862,855 863,857 864,859 865,860 867,862 868,863 870,863 872,864 874,864 876,863 878,863 880,862 881,860 882,859 883,858 " />
<polyline fill="none" vector-effect="non-scaling-stroke" points="882,838 883,839 885,840 887,840 889,840 891,839 893,838 895,837 896,835 897,834 898,832 898,830 898,828 898,826 897,824 896,822 895,821 893,820 893,819 " />
<polyline fill="none" vector-effect="non-scaling-stroke" points="893,819 891,818 889,818 887,818 885,818 883,818 881,819 880,821 878,822 877,824 877,826 876,828 876,830 876,832 877,833 878,835 879,837 881,838 882,838 " />
<polyline fill="none" vector-effect="non-scaling-stroke" points="892,876 893,874 " />
<polyline fill="none" vector-effect="non-scaling-stroke" points="920,860 930,866 " />
<polyline fill="none" vector-effect="non-scaling-stroke" points="934,881 934,879 935,877 935,875 935,873 934,871 933,870 932,868 931,867 930,866 " />
<polyline fill="none" vector-effect="non-scaling-stroke" points="934,881 931,886 " />
<polyline fill="none" vector-effect="non-scaling-stroke" points="912,875 911,877 910,879 910,881 910,883 911,884 912,886 913,888 915,889 916,890 918,891 920,891 922,891 924,891 926,890 928,889 929,888 930,887 931,886 " />
<polyline fill="none" vector-effect="non-scaling-stroke" points="912,875 920,860 " />
<polyline fill="none" vector-effect="non-scaling-stroke" points="945,850 943,849 941,849 939,849 937,849 935,849 933,850 932,850 930,851 928,852 926,853 925,855 923,856 922,857 921,859 920,860 " />
<polyline fill="none" vector-effect="non-scaling-stroke" points="953,880 963,885 " />
<polyline fill="none" vector-effect="non-scaling-stroke" points="967,900 968,899 968,897 969,895 968,893 968,891 967,889 966,887 964,886 963,885 " />
<polyline fill="none" vector-effect="non-scaling-stroke" points="967,900 964,905 " />
<polyline fill="none" vector-effect="non-scaling-stroke" points="945,894 944,896 944,898 944,900 944,902 944,904 945,906 947,907 948,909 950,910 952,910 954,911 956,911 958,910 959,910 961,909 963,907 964,906 964,905 " />
<polyline fill="none" vector-effect="non-scaling-stroke" points="945,894 953,880 " />
<polyline fill="none" vector-effect="non-scaling-stroke" points="979,869 977,869 975,868 973,868 971,868 969,869 967,869 965,870 963,871 962,872 960,873 958,874 957,875 956,877 954,878 953,880 " />
<polyline fill="none" vector-effect="non-scaling-stroke" points="544,1190 357,865 " />
<polyline fill="none" vector-effect="non-scaling-stroke" points="611,1151 424,827 " />
<polyline fill="none" vector-effect="non-scaling-stroke" points="283,937 523,798 " />
</g>

<g fill="#000000" fill-opacity="1" stroke="#000000" stroke-opacity="1" stroke-width="1" stroke-linecap="round" stroke-linejoin="round" transform="matrix(1,0,0,1,0,0)"
font-family="Sans Serif" font-size="9" font-weight="400" font-style="normal" 
>
<path vector-effect="non-scaling-stroke" fill-rule="evenodd" d="M370,887 L331,919 L322,904 L370,887"/>
</g>

<g fill="#000000" fill-opacity="1" stroke="#000000" stroke-opacity="1" stroke-width="1" stroke-linecap="round" stroke-linejoin="round" transform="matrix(1,0,0,1,0,0)"
font-family="Sans Serif" font-size="9" font-weight="400" font-style="normal" 
>
<path vector-effect="non-scaling-stroke" fill-rule="evenodd" d="M436,848 L475,816 L484,830 L436,848"/>
<polyline fill="none" vector-effect="non-scaling-stroke" points="416,788 426,783 " />
<polyline fill="none" vector-effect="non-scaling-stroke" points="437,802 438,801 440,799 441,797 442,796 442,794 442,792 442,790 441,788 440,786 439,784 438,783 436,782 434,781 432,781 430,781 428,781 426,782 426,783 " />
<polyline fill="none" vector-effect="non-scaling-stroke" points="432,804 437,802 " />
<polyline fill="none" vector-effect="non-scaling-stroke" points="452,806 451,804 449,803 448,802 446,801 444,800 442,800 440,800 438,801 437,802 " />
<polyline fill="none" vector-effect="non-scaling-stroke" points="452,806 455,811 " />
<polyline fill="none" vector-effect="non-scaling-stroke" points="450,826 452,825 454,823 455,821 455,820 456,818 456,816 456,814 455,812 455,811 " />
<polyline fill="none" vector-effect="non-scaling-stroke" points="450,826 441,831 " />
<polyline fill="none" vector-effect="non-scaling-stroke" points="474,812 473,809 " />
<polyline fill="none" vector-effect="non-scaling-stroke" points="502,783 500,778 " />
<polyline fill="none" vector-effect="non-scaling-stroke" points="500,778 499,776 497,775 495,774 494,773 492,773 490,773 488,773 486,773 484,774 482,776 481,777 480,779 479,781 479,783 479,785 479,787 480,788 481,789 " />
<polyline fill="none" vector-effect="non-scaling-stroke" points="481,789 483,794 " />
<polyline fill="none" vector-effect="non-scaling-stroke" points="483,794 484,796 486,797 488,798 489,799 491,799 493,799 495,799 497,799 499,798 500,796 502,795 503,793 504,791 504,789 504,787 504,785 503,784 502,783 " />
<polyline fill="none" vector-effect="non-scaling-stroke" points="485,774 486,773 488,771 489,770 490,768 490,766 490,764 490,762 489,760 488,758 487,757 486,756 484,755 482,754 480,753 478,753 476,754 474,755 " />
<polyline fill="none" vector-effect="non-scaling-stroke" points="474,755 472,756 470,757 469,759 469,761 468,763 468,765 468,767 469,769 470,771 471,772 473,773 474,774 476,775 478,775 480,775 482,775 484,774 485,774 " />
<polyline fill="none" vector-effect="non-scaling-stroke" points="500,746 497,741 " />
<polyline fill="none" vector-effect="non-scaling-stroke" points="497,741 517,730 " />
<polyline fill="none" vector-effect="non-scaling-stroke" points="517,730 532,779 " />
<polyline fill="none" vector-effect="non-scaling-stroke" points="544,1213 410,980 " />
<polyline fill="none" vector-effect="non-scaling-stroke" points="651,1151 517,919 " />
<polyline fill="none" vector-effect="non-scaling-stroke" points="336,1051 615,890 " />
</g>

<g fill="#000000" fill-opacity="1" stroke="#000000" stroke-opacity="1" stroke-width="1" stroke-linecap="round" stroke-linejoin="round" transform="matrix(1,0,0,1,0,0)"
font-family="Sans Serif" font-size="9" font-weight="400" font-style="normal" 
>
<path vector-effect="non-scaling-stroke" fill-rule="evenodd" d="M423,1002 L384,1034 L375,1019 L423,1002"/>
</g>

<g fill="#000000" fill-opacity="1" stroke="#000000" stroke-opacity="1" stroke-width="1" stroke-linecap="round" stroke-linejoin="round" transform="matrix(1,0,0,1,0,0)"
font-family="Sans Serif" font-size="9" font-weight="400" font-style="normal" 
>
<path vector-effect="non-scaling-stroke" fill-rule="evenodd" d="M529,940 L568,908 L577,922 L529,940"/>
<polyline fill="none" vector-effect="non-scaling-stroke" points="476,908 485,902 " />
<polyline fill="none" vector-effect="non-scaling-stroke" points="501,907 499,905 498,904 496,902 494,902 493,901 491,901 489,901 487,902 485,902 " />
<polyline fill="none" vector-effect="non-scaling-stroke" points="501,907 503,911 " />
<polyline fill="none" vector-effect="non-scaling-stroke" points="484,922 485,924 487,925 488,927 490,927 492,928 494,928 496,928 498,927 500,926 501,925 503,923 504,922 504,920 505,918 505,916 504,914 504,912 503,911 " />
<polyline fill="none" vector-effect="non-scaling-stroke" points="484,922 476,908 " />
<polyline fill="none" vector-effect="non-scaling-stroke" points="479,881 478,882 477,884 476,885 475,887 474,889 473,891 473,893 473,895 473,897 473,899 473,901 474,903 474,905 475,907 476,908 " />
<polyline fill="none" vector-effect="non-scaling-stroke" points="523,913 522,910 " />
<polyline fill="none" vector-effect="non-scaling-stroke" points="518,871 522,856 " />
<polyline fill="none" vector-effect="non-scaling-stroke" points="522,856 547,899 " />
<polyline fill="none" vector-effect="non-scaling-stroke" points="575,870 572,865 " />
<polyline fill="none" vector-effect="non-scaling-stroke" points="572,865 571,863 570,862 568,861 566,860 564,860 562,860 560,860 558,860 557,861 555,863 554,864 553,866 552,868 552,870 552,872 552,874 553,875 553,876 " />
<polyline fill="none" vector-effect="non-scaling-stroke" points="553,876 556,881 " />
<polyline fill="none" vector-effect="non-scaling-stroke" points="556,881 557,883 559,884 560,885 562,886 564,886 566,886 568,886 570,886 572,885 573,883 574,882 576,880 576,878 577,876 577,874 576,872 575,871 575,870 " />
<polyline fill="none" vector-effect="non-scaling-stroke" points="557,861 559,860 560,858 561,857 562,855 563,853 563,851 563,849 562,847 561,845 560,844 558,842 557,841 555,841 553,840 551,840 549,841 547,841 546,842 " />
<polyline fill="none" vector-effect="non-scaling-stroke" points="546,842 545,843 543,844 542,846 541,848 541,850 541,852 541,854 542,856 542,857 544,859 545,860 547,861 549,862 551,862 553,862 555,862 557,861 " />
<polyline fill="none" vector-effect="non-scaling-stroke" points="1658,2457 1897,2457 " />
<polyline fill="none" vector-effect="non-scaling-stroke" points="1658,2457 1658,645 " />
<polyline fill="none" vector-effect="non-scaling-stroke" points="1897,2457 1897,645 " />
<polyline fill="none" vector-effect="non-scaling-stroke" points="1658,645 1897,645 " />
<polyline fill="none" vector-effect="non-scaling-stroke" points="1678,665 1897,665 " />
<polyline fill="none" vector-effect="non-scaling-stroke" points="1877,2457 1877,665 " />
<polyline fill="none" vector-effect="non-scaling-stroke" points="1658,2437 1877,2437 " />
<polyline fill="none" vector-effect="non-scaling-stroke" points="1678,2437 1678,645 " />
<polyline fill="none" vector-effect="non-scaling-stroke" points="1678,2099 1877,2099 " />
<polyline fill="none" vector-effect="non-scaling-stroke" points="1678,2079 1877,2079 " />
<polyline fill="none" vector-effect="non-scaling-stroke" points="1678,1740 1877,1740 " />
<polyline fill="none" vector-effect="non-scaling-stroke" points="1678,1720 1877,1720 " />
<polyline fill="none" vector-effect="non-scaling-stroke" points="1678,1362 1877,1362 " />
<polyline fill="none" vector-effect="non-scaling-stroke" points="1678,1382 1877,1382 " />
<polyline fill="none" vector-effect="non-scaling-stroke" points="1678,1004 1877,1004 " />
<polyline fill="none" vector-effect="non-scaling-stroke" points="1678,1024 1877,1024 " />
<polyline fill="none" vector-effect="non-scaling-stroke" points="1843,834 1843,832 1843,830 1843,828 1842,826 1842,824 1842,822 1841,820 1841,819 1840,817 1840,815 1839,813 1839,811 1838,809 1837,807 1836,805 1835,804 1834,802 1833,800 1832,798 1831,797 1830,795 1829,794 1827,792 1826,791 1825,789 1823,788 1822,786 1820,785 1819,784 1817,782 1816,781 1814,780 1812,779 1811,778 1809,777 1807,776 1805,775 1804,774 1802,773 1800,773 1798,772 1796,771 1794,771 1792,770 1790,770 1788,770 1786,769 1784,769 1782,769 1780,769 1778,769 1776,769 1774,769 1772,769 1770,769 1768,769 1766,770 1764,770 1762,770 1761,771 1759,771 1757,772 1755,773 1753,773 1751,774 1749,775 1747,776 1746,777 1744,778 1742,779 1741,780 1739,781 1737,782 1736,783 1734,785 1733,786 1731,787 1730,789 1728,790 1727,792 1726,793 1725,795 1723,796 1722,798 1721,800 1720,801 1719,803 1718,805 1717,807 1717,809 1716,810 1715,812 1715,814 1714,816 1713,818 1713,820 1713,822 1712,824 1712,826 1712,828 1712,830 1711,832 1711,834 1711,836 1712,838 1712,840 1712,842 1712,844 1712,846 1713,848 1713,850 1714,852 1714,854 1715,856 1716,857 1716,859 1717,861 1718,863 1719,865 1720,866 1721,868 1722,870 1723,872 1724,873 1725,875 1727,876 1728,878 1729,879 1731,881 1732,882 1734,884 1735,885 1737,886 1738,887 1740,888 1742,890 1743,891 1745,892 1747,893 1748,894 1750,894 1752,895 1754,896 1756,897 1758,897 1760,898 1762,898 1764,899 1766,899 1768,899 1770,900 1772,900 1773,900 1775,900 1777,900 1779,900 1781,900 1783,900 1785,900 1787,899 1789,899 1791,899 1793,898 1795,898 1797,897 1799,896 1801,896 1803,895 1805,894 1806,893 1808,892 1810,891 1812,890 1813,889 1815,888 1817,887 1818,886 1820,884 1821,883 1823,882 1824,880 1826,879 1827,877 1828,876 1829,874 1831,873 1832,871 1833,869 1834,868 1835,866 1836,864 1837,862 1837,860 1838,859 1839,857 1840,855 1840,853 1841,851 1841,849 1842,847 1842,845 1842,843 1842,841 1843,839 1843,837 1843,835 1843,834 " />
<polyline fill="none" vector-effect="non-scaling-stroke" points="1877,749 1751,749 " />
<polyline fill="none" vector-effect="non-scaling-stroke" points="1877,769 1739,769 " />
<polyline fill="none" vector-effect="non-scaling-stroke" points="1799,665 1701,834 " />
<polyline fill="none" vector-effect="non-scaling-stroke" points="1776,665 1690,814 " />
<polyline fill="none" vector-effect="non-scaling-stroke" points="1678,833 1716,900 " />
<polyline fill="none" vector-effect="non-scaling-stroke" points="1678,794 1739,900 " />
<polyline fill="none" vector-effect="non-scaling-stroke" points="1678,900 1815,900 " />
<polyline fill="none" vector-effect="non-scaling-stroke" points="1678,920 1804,920 " />
<polyline fill="none" vector-effect="non-scaling-stroke" points="1778,1004 1865,854 " />
<polyline fill="none" vector-effect="non-scaling-stroke" points="1755,1004 1853,834 " />
<polyline fill="none" vector-effect="non-scaling-stroke" points="1877,835 1838,769 " />
<polyline fill="none" vector-effect="non-scaling-stroke" points="1877,875 1815,769 " />
<polyline fill="none" vector-effect="non-scaling-stroke" points="1877,1004 1877,875 " />
<polyline fill="none" vector-effect="non-scaling-stroke" points="1778,1004 1877,1004 " />
<polyline fill="none" vector-effect="non-scaling-stroke" points="1843,1551 1843,1549 1843,1547 1843,1545 1842,1543 1842,1541 1842,1539 1841,1537 1841,1535 1840,1533 1840,1531 1839,1530 1839,1528 1838,1526 1837,1524 1836,1522 1835,1520 1834,1519 1833,1517 1832,1515 1831,1514 1830,1512 1829,1510 1827,1509 1826,1507 1825,1506 1823,1504 1822,1503 1820,1502 1819,1500 1817,1499 1816,1498 1814,1497 1812,1496 1811,1495 1809,1494 1807,1493 1805,1492 1804,1491 1802,1490 1800,1490 1798,1489 1796,1488 1794,1488 1792,1487 1790,1487 1788,1486 1786,1486 1784,1486 1782,1486 1780,1486 1778,1485 1776,1485 1774,1486 1772,1486 1770,1486 1768,1486 1766,1486 1764,1487 1762,1487 1761,1488 1759,1488 1757,1489 1755,1489 1753,1490 1751,1491 1749,1492 1747,1493 1746,1493 1744,1494 1742,1496 1741,1497 1739,1498 1737,1499 1736,1500 1734,1501 1733,1503 1731,1504 1730,1506 1728,1507 1727,1509 1726,1510 1725,1512 1723,1513 1722,1515 1721,1517 1720,1518 1719,1520 1718,1522 1717,1524 1717,1525 1716,1527 1715,1529 1715,1531 1714,1533 1713,1535 1713,1537 1713,1539 1712,1541 1712,1543 1712,1545 1712,1547 1711,1549 1711,1551 1711,1553 1712,1555 1712,1557 1712,1559 1712,1561 1712,1563 1713,1565 1713,1567 1714,1569 1714,1570 1715,1572 1716,1574 1716,1576 1717,1578 1718,1580 1719,1582 1720,1583 1721,1585 1722,1587 1723,1588 1724,1590 1725,1592 1727,1593 1728,1595 1729,1596 1731,1598 1732,1599 1734,1600 1735,1602 1737,1603 1738,1604 1740,1605 1742,1606 1743,1607 1745,1608 1747,1609 1748,1610 1750,1611 1752,1612 1754,1613 1756,1613 1758,1614 1760,1615 1762,1615 1764,1615 1766,1616 1768,1616 1770,1616 1772,1617 1773,1617 1775,1617 1777,1617 1779,1617 1781,1617 1783,1617 1785,1616 1787,1616 1789,1616 1791,1615 1793,1615 1795,1614 1797,1614 1799,1613 1801,1612 1803,1612 1805,1611 1806,1610 1808,1609 1810,1608 1812,1607 1813,1606 1815,1605 1817,1604 1818,1602 1820,1601 1821,1600 1823,1599 1824,1597 1826,1596 1827,1594 1828,1593 1829,1591 1831,1589 1832,1588 1833,1586 1834,1584 1835,1583 1836,1581 1837,1579 1837,1577 1838,1575 1839,1574 1840,1572 1840,1570 1841,1568 1841,1566 1842,1564 1842,1562 1842,1560 1842,1558 1843,1556 1843,1554 1843,1552 1843,1551 " />
<polyline fill="none" vector-effect="non-scaling-stroke" points="1877,1465 1751,1465 " />
<polyline fill="none" vector-effect="non-scaling-stroke" points="1877,1485 1739,1485 " />
<polyline fill="none" vector-effect="non-scaling-stroke" points="1799,1382 1701,1551 " />
<polyline fill="none" vector-effect="non-scaling-stroke" points="1776,1382 1690,1531 " />
<polyline fill="none" vector-effect="non-scaling-stroke" points="1678,1550 1716,1617 " />
<polyline fill="none" vector-effect="non-scaling-stroke" points="1678,1510 1739,1617 " />
<polyline fill="none" vector-effect="non-scaling-stroke" points="1678,1617 1815,1617 " />
<polyline fill="none" vector-effect="non-scaling-stroke" points="1678,1637 1804,1637 " />
<polyline fill="none" vector-effect="non-scaling-stroke" points="1778,1720 1865,1571 " />
<polyline fill="none" vector-effect="non-scaling-stroke" points="1755,1720 1853,1551 " />
<polyline fill="none" vector-effect="non-scaling-stroke" points="1877,1552 1838,1485 " />
<polyline fill="none" vector-effect="non-scaling-stroke" points="1877,1592 1815,1485 " />
<polyline fill="none" vector-effect="non-scaling-stroke" points="1877,1720 1877,1592 " />
<polyline fill="none" vector-effect="non-scaling-stroke" points="1778,1720 1877,1720 " />
<polyline fill="none" vector-effect="non-scaling-stroke" points="1843,2268 1843,2266 1843,2264 1843,2262 1842,2260 1842,2258 1842,2256 1841,2254 1841,2252 1840,2250 1840,2248 1839,2246 1839,2245 1838,2243 1837,2241 1836,2239 1835,2237 1834,2236 1833,2234 1832,2232 1831,2230 1830,2229 1829,2227 1827,2226 1826,2224 1825,2223 1823,2221 1822,2220 1820,2219 1819,2217 1817,2216 1816,2215 1814,2214 1812,2213 1811,2212 1809,2211 1807,2210 1805,2209 1804,2208 1802,2207 1800,2206 1798,2206 1796,2205 1794,2205 1792,2204 1790,2204 1788,2203 1786,2203 1784,2203 1782,2203 1780,2202 1778,2202 1776,2202 1774,2202 1772,2202 1770,2203 1768,2203 1766,2203 1764,2204 1762,2204 1761,2204 1759,2205 1757,2206 1755,2206 1753,2207 1751,2208 1749,2209 1747,2209 1746,2210 1744,2211 1742,2212 1741,2213 1739,2215 1737,2216 1736,2217 1734,2218 1733,2220 1731,2221 1730,2222 1728,2224 1727,2225 1726,2227 1725,2228 1723,2230 1722,2232 1721,2233 1720,2235 1719,2237 1718,2239 1717,2240 1717,2242 1716,2244 1715,2246 1715,2248 1714,2250 1713,2252 1713,2254 1713,2256 1712,2258 1712,2260 1712,2262 1712,2264 1711,2266 1711,2268 1711,2270 1712,2272 1712,2274 1712,2276 1712,2278 1712,2280 1713,2281 1713,2283 1714,2285 1714,2287 1715,2289 1716,2291 1716,2293 1717,2295 1718,2297 1719,2298 1720,2300 1721,2302 1722,2304 1723,2305 1724,2307 1725,2308 1727,2310 1728,2312 1729,2313 1731,2314 1732,2316 1734,2317 1735,2318 1737,2320 1738,2321 1740,2322 1742,2323 1743,2324 1745,2325 1747,2326 1748,2327 1750,2328 1752,2329 1754,2330 1756,2330 1758,2331 1760,2331 1762,2332 1764,2332 1766,2333 1768,2333 1770,2333 1772,2333 1773,2334 1775,2334 1777,2334 1779,2334 1781,2334 1783,2333 1785,2333 1787,2333 1789,2333 1791,2332 1793,2332 1795,2331 1797,2331 1799,2330 1801,2329 1803,2329 1805,2328 1806,2327 1808,2326 1810,2325 1812,2324 1813,2323 1815,2322 1817,2321 1818,2319 1820,2318 1821,2317 1823,2315 1824,2314 1826,2312 1827,2311 1828,2309 1829,2308 1831,2306 1832,2305 1833,2303 1834,2301 1835,2300 1836,2298 1837,2296 1837,2294 1838,2292 1839,2290 1840,2289 1840,2287 1841,2285 1841,2283 1842,2281 1842,2279 1842,2277 1842,2275 1843,2273 1843,2271 1843,2269 1843,2268 " />
<polyline fill="none" vector-effect="non-scaling-stroke" points="1877,2182 1751,2182 " />
<polyline fill="none" vector-effect="non-scaling-stroke" points="1877,2202 1739,2202 " />
<polyline fill="none" vector-effect="non-scaling-stroke" points="1799,2099 1701,2268 " />
<polyline fill="none" vector-effect="non-scaling-stroke" points="1776,2099 1690,2248 " />
<polyline fill="none" vector-effect="non-scaling-stroke" points="1678,2267 1716,2334 " />
<polyline fill="none" vector-effect="non-scaling-stroke" points="1678,2227 1739,2334 " />
<polyline fill="none" vector-effect="non-scaling-stroke" points="1678,2334 1815,2334 " />
<polyline fill="none" vector-effect="non-scaling-stroke" points="1678,2354 1804,2354 " />
<polyline fill="none" vector-effect="non-scaling-stroke" points="1778,2437 1865,2288 " />
<polyline fill="none" vector-effect="non-scaling-stroke" points="1755,2437 1853,2268 " />
<polyline fill="none" vector-effect="non-scaling-stroke" points="1877,2269 1838,2202 " />
<polyline fill="none" vector-effect="non-scaling-stroke" points="1877,2309 1815,2202 " />
<polyline fill="none" vector-effect="non-scaling-stroke" points="1877,2437 1877,2309 " />
<polyline fill="none" vector-effect="non-scaling-stroke" points="1778,2437 1877,2437 " />
</g>
</g>
</svg>
