999
dxfrw 0.5.11
0
SECTION
2
HEADER
9
$ACADVER
1
AC1021
9
$HANDSEED
5
20000
9
$DWGCODEPAGE
3
ANSI_1252
9
$INSBASE
10
0
20
0
30
0
9
$EXTMIN
10
-0.758951957159
20
-125
30
0
9
$EXTMAX
10
171.25
20
23.125
30
0
9
$LIMMIN
10
0
20
0
9
$LIMMAX
10
420
20
297
9
$ORTHOMODE
70
0
9
$LTSCALE
40
1
9
$TEXTSTYLE
7
STANDARD
9
$CLAYER
8
0
9
$DIMASZ
40
2.5
9
$DIMLFAC
40
1
9
$DIMSCALE
40
1
9
$DIMEXO
40
0.625
9
$DIMEXE
40
1.25
9
$DIMTXT
40
2.5
9
$DIMTSZ
40
0
9
$DIMAUNIT
70
0
9
$DIMADEC
70
2
9
$DIMLUNIT
70
2
9
$DIMSTYLE
2
STANDARD
9
$DIMGAP
40
0.625
9
$DIMTIH
70
0
9
$LUNITS
70
2
9
$LUPREC
70
2
9
$AUNITS
70
0
9
$AUPREC
70
2
9
$SPLINESEGS
70
8
9
$GRIDMODE
70
1
9
$SNAPSTYLE
70
0
9
$GRIDUNIT
10
0
20
0
9
$PINSBASE
10
0
20
0
30
0
9
$PLIMMIN
10
0
20
0
9
$PLIMMAX
10
215.9
20
279.4
9
$INSUNITS
70
4
9
$PSVPSCALE
40
1
0
ENDSEC
0
SECTION
2
CLASSES
0
ENDSEC
0
SECTION
2
TABLES
0
TABLE
2
VPORT
5
8
330
0
100
AcDbSymbolTable
70
1
0
VPORT
5
31
330
2
100
AcDbSymbolTableRecord
100
AcDbViewportTableRecord
2
*ACTIVE
70
0
10
0
20
0
11
1
21
1
12
89.9037856225
22
-5.66323059039
13
0
23
0
14
10
24
10
15
10
25
10
16
0
26
0
36
1
17
0
27
0
37
0
40
79.002066736
41
1.86618876941
42
50
43
0
44
0
50
0
51
0
71
0
72
100
73
1
74
3
75
0
76
1
77
0
78
0
281
0
65
1
110
0
120
0
130
0
111
1
121
0
131
0
112
0
122
1
132
0
79
0
146
0
348
10020
60
7
61
5
292
1
282
1
141
0
142
0
63
250
421
3358443
0
ENDTAB
0
TABLE
2
LTYPE
5
5
330
0
100
AcDbSymbolTable
70
4
0
LTYPE
5
14
330
5
100
AcDbSymbolTableRecord
100
AcDbLinetypeTableRecord
2
ByBlock
70
0
3

72
65
73
0
40
0
0
LTYPE
5
15
330
5
100
AcDbSymbolTableRecord
100
AcDbLinetypeTableRecord
2
ByLayer
70
0
3

72
65
73
0
40
0
0
LTYPE
5
16
330
5
100
AcDbSymbolTableRecord
100
AcDbLinetypeTableRecord
2
Continuous
70
0
3
Solid line
72
65
73
0
40
0
0
LTYPE
5
32
330
5
100
AcDbSymbolTableRecord
100
AcDbLinetypeTableRecord
2
DOT
70
0
3
Dot . . . . . . . . . . . . . . . . . . . . . .
72
65
73
2
40
6.35
49
0
74
0
49
-6.35
74
0
0
LTYPE
5
33
330
5
100
AcDbSymbolTableRecord
100
AcDbLinetypeTableRecord
2
DOT2
70
0
3
Dot (.5x) .....................................
72
65
73
2
40
3.175
49
0
74
0
49
-3.175
74
0
0
LTYPE
5
34
330
5
100
AcDbSymbolTableRecord
100
AcDbLinetypeTableRecord
2
DOTX2
70
0
3
Dot (2x) .  .  .  .  .  .  .  .  .  .  .  .  .
72
65
73
2
40
12.7
49
0
74
0
49
-12.7
74
0
0
LTYPE
5
35
330
5
100
AcDbSymbolTableRecord
100
AcDbLinetypeTableRecord
2
DASHED
70
0
3
Dot . . . . . . . . . . . . . . . . . . . . . .
72
65
73
2
40
19.05
49
12.7
74
0
49
-6.35
74
0
0
LTYPE
5
36
330
5
100
AcDbSymbolTableRecord
100
AcDbLinetypeTableRecord
2
DASHED2
70
0
3
Dashed (.5x) _ _ _ _ _ _ _ _ _ _ _ _ _ _ _ _ _
72
65
73
2
40
9.525
49
6.35
74
0
49
-3.175
74
0
0
LTYPE
5
37
330
5
100
AcDbSymbolTableRecord
100
AcDbLinetypeTableRecord
2
DASHEDX2
70
0
3
Dashed (2x) ____  ____  ____  ____  ____  ___
72
65
73
2
40
38.1
49
25.4
74
0
49
-12.7
74
0
0
LTYPE
5
38
330
5
100
AcDbSymbolTableRecord
100
AcDbLinetypeTableRecord
2
DASHDOT
70
0
3
Dash dot __ . __ . __ . __ . __ . __ . __ . __
72
65
73
4
40
25.4
49
12.7
74
0
49
-6.35
74
0
49
0
74
0
49
-6.35
74
0
0
LTYPE
5
39
330
5
100
AcDbSymbolTableRecord
100
AcDbLinetypeTableRecord
2
DASHDOT2
70
0
3
Dash dot (.5x) _._._._._._._._._._._._._._._.
72
65
73
4
40
12.7
49
6.35
74
0
49
-3.175
74
0
49
0
74
0
49
-3.175
74
0
0
LTYPE
5
3A
330
5
100
AcDbSymbolTableRecord
100
AcDbLinetypeTableRecord
2
DASHDOTX2
70
0
3
Dash dot (2x) ____  .  ____  .  ____  .  ___
72
65
73
4
40
50.8
49
25.4
74
0
49
-12.7
74
0
49
0
74
0
49
-12.7
74
0
0
LTYPE
5
3B
330
5
100
AcDbSymbolTableRecord
100
AcDbLinetypeTableRecord
2
DIVIDE
70
0
3
Divide ____ . . ____ . . ____ . . ____ . . ____
72
65
73
6
40
31.75
49
12.7
74
0
49
-6.35
74
0
49
0
74
0
49
-6.35
74
0
49
0
74
0
49
-6.35
74
0
0
LTYPE
5
3C
330
5
100
AcDbSymbolTableRecord
100
AcDbLinetypeTableRecord
2
DIVIDE2
70
0
3
Divide (.5x) __..__..__..__..__..__..__..__.._
72
65
73
6
40
15.875
49
6.35
74
0
49
-3.175
74
0
49
0
74
0
49
-3.175
74
0
49
0
74
0
49
-3.175
74
0
0
LTYPE
5
3D
330
5
100
AcDbSymbolTableRecord
100
AcDbLinetypeTableRecord
2
DIVIDEX2
70
0
3
Divide (2x) ________  .  .  ________  .  .  _
72
65
73
6
40
63.5
49
25.4
74
0
49
-12.7
74
0
49
0
74
0
49
-12.7
74
0
49
0
74
0
49
-12.7
74
0
0
LTYPE
5
3E
330
5
100
AcDbSymbolTableRecord
100
AcDbLinetypeTableRecord
2
BORDER
70
0
3
Border __ __ . __ __ . __ __ . __ __ . __ __ .
72
65
73
6
40
44.45
49
12.7
74
0
49
-6.35
74
0
49
12.7
74
0
49
-6.35
74
0
49
0
74
0
49
-6.35
74
0
0
LTYPE
5
3F
330
5
100
AcDbSymbolTableRecord
100
AcDbLinetypeTableRecord
2
BORDER2
70
0
3
Border (.5x) __.__.__.__.__.__.__.__.__.__.__.
72
65
73
6
40
22.225
49
6.35
74
0
49
-3.175
74
0
49
6.35
74
0
49
-3.175
74
0
49
0
74
0
49
-3.175
74
0
0
LTYPE
5
40
330
5
100
AcDbSymbolTableRecord
100
AcDbLinetypeTableRecord
2
BORDERX2
70
0
3
Border (2x) ____  ____  .  ____  ____  .  ___
72
65
73
6
40
88.9
49
25.4
74
0
49
-12.7
74
0
49
25.4
74
0
49
-12.7
74
0
49
0
74
0
49
-12.7
74
0
0
LTYPE
5
41
330
5
100
AcDbSymbolTableRecord
100
AcDbLinetypeTableRecord
2
CENTER
70
0
3
Center ____ _ ____ _ ____ _ ____ _ ____ _ ____
72
65
73
4
40
50.8
49
31.75
74
0
49
-6.35
74
0
49
6.35
74
0
49
-6.35
74
0
0
LTYPE
5
42
330
5
100
AcDbSymbolTableRecord
100
AcDbLinetypeTableRecord
2
CENTER2
70
0
3
Center (.5x) ___ _ ___ _ ___ _ ___ _ ___ _ ___
72
65
73
4
40
28.575
49
19.05
74
0
49
-3.175
74
0
49
3.175
74
0
49
-3.175
74
0
0
LTYPE
5
43
330
5
100
AcDbSymbolTableRecord
100
AcDbLinetypeTableRecord
2
CENTERX2
70
0
3
Center (2x) ________  __  ________  __  _____
72
65
73
4
40
101.6
49
63.5
74
0
49
-12.7
74
0
49
12.7
74
0
49
-12.7
74
0
0
ENDTAB
0
TABLE
2
LAYER
5
2
330
0
100
AcDbSymbolTable
70
1
0
LAYER
5
10
330
2
100
AcDbSymbolTableRecord
100
AcDbLayerTableRecord
2
0
70
0
62
7
6
CONTINUOUS
370
0
390
F
0
ENDTAB
0
TABLE
2
STYLE
5
3
330
0
100
AcDbSymbolTable
70
3
0
STYLE
5
44
330
2
100
AcDbSymbolTableRecord
100
AcDbTextStyleTableRecord
2
Standard
70
0
40
0
41
1
50
0
71
0
42
1
3
txt
4

0
ENDTAB
0
TABLE
2
VIEW
5
6
330
0
100
AcDbSymbolTable
70
0
0
ENDTAB
0
TABLE
2
UCS
5
7
330
0
100
AcDbSymbolTable
70
0
0
ENDTAB
0
TABLE
2
APPID
5
9
330
0
100
AcDbSymbolTable
70
1
0
APPID
5
12
330
9
100
AcDbSymbolTableRecord
100
AcDbRegAppTableRecord
2
ACAD
70
0
0
ENDTAB
0
TABLE
2
DIMSTYLE
5
A
330
0
100
AcDbSymbolTable
70
1
100
AcDbDimStyleTable
71
1
0
DIMSTYLE
105
45
330
A
100
AcDbSymbolTableRecord
100
AcDbDimStyleTableRecord
2
Standard
70
0
40
1
41
2.5
42
0.625
43
0.38
44
1.25
45
0
46
0
47
0
48
0
140
2.5
141
0.09
142
0
143
25.4
144
1
145
0
146
1
147
0.625
148
0
71
0
72
0
73
0
74
1
75
0
76
0
77
0
78
0
79
0
170
0
171
2
172
0
173
0
174
0
175
0
176
0
177
0
178
0
179
0
271
4
272
4
273
2
274
2
275
0
276
0
277
2
278
46
279
0
280
0
281
0
282
0
283
1
284
0
285
0
286
0
288
0
289
3
340
Standard
341

371
-2
372
-2
0
ENDTAB
0
TABLE
2
BLOCK_RECORD
5
1
330
0
100
AcDbSymbolTable
70
2
0
BLOCK_RECORD
5
1F
330
1
100
AcDbSymbolTableRecord
100
AcDbBlockTableRecord
2
*Model_Space
70
0
280
1
281
0
0
BLOCK_RECORD
5
1E
330
1
100
AcDbSymbolTableRecord
100
AcDbBlockTableRecord
2
*Paper_Space
70
0
280
1
281
0
0
BLOCK_RECORD
5
46
330
1
100
AcDbSymbolTableRecord
100
AcDbBlockTableRecord
2
*D10
70
0
280
1
281
0
0
BLOCK_RECORD
5
49
330
1
100
AcDbSymbolTableRecord
100
AcDbBlockTableRecord
2
*D27
70
0
280
1
281
0
0
BLOCK_RECORD
5
4C
330
1
100
AcDbSymbolTableRecord
100
AcDbBlockTableRecord
2
*D39
70
0
280
1
281
0
0
BLOCK_RECORD
5
4F
330
1
100
AcDbSymbolTableRecord
100
AcDbBlockTableRecord
2
*D7
70
0
280
1
281
0
0
BLOCK_RECORD
5
52
330
1
100
AcDbSymbolTableRecord
100
AcDbBlockTableRecord
2
*D34
70
0
280
1
281
0
0
BLOCK_RECORD
5
55
330
1
100
AcDbSymbolTableRecord
100
AcDbBlockTableRecord
2
*D36
70
0
280
1
281
0
0
BLOCK_RECORD
5
58
330
1
100
AcDbSymbolTableRecord
100
AcDbBlockTableRecord
2
*D2
70
0
280
1
281
0
0
BLOCK_RECORD
5
5B
330
1
100
AcDbSymbolTableRecord
100
AcDbBlockTableRecord
2
*D31
70
0
280
1
281
0
0
BLOCK_RECORD
5
5E
330
1
100
AcDbSymbolTableRecord
100
AcDbBlockTableRecord
2
*D32
70
0
280
1
281
0
0
BLOCK_RECORD
5
61
330
1
100
AcDbSymbolTableRecord
100
AcDbBlockTableRecord
2
*D17
70
0
280
1
281
0
0
BLOCK_RECORD
5
64
330
1
100
AcDbSymbolTableRecord
100
AcDbBlockTableRecord
2
*D16
70
0
280
1
281
0
0
BLOCK_RECORD
5
67
330
1
100
AcDbSymbolTableRecord
100
AcDbBlockTableRecord
2
*D43
70
0
280
1
281
0
0
BLOCK_RECORD
5
6A
330
1
100
AcDbSymbolTableRecord
100
AcDbBlockTableRecord
2
*D12
70
0
280
1
281
0
0
BLOCK_RECORD
5
6D
330
1
100
AcDbSymbolTableRecord
100
AcDbBlockTableRecord
2
*D40
70
0
280
1
281
0
0
BLOCK_RECORD
5
70
330
1
100
AcDbSymbolTableRecord
100
AcDbBlockTableRecord
2
*D14
70
0
280
1
281
0
0
BLOCK_RECORD
5
73
330
1
100
AcDbSymbolTableRecord
100
AcDbBlockTableRecord
2
*D35
70
0
280
1
281
0
0
BLOCK_RECORD
5
76
330
1
100
AcDbSymbolTableRecord
100
AcDbBlockTableRecord
2
*D29
70
0
280
1
281
0
0
BLOCK_RECORD
5
79
330
1
100
AcDbSymbolTableRecord
100
AcDbBlockTableRecord
2
*D22
70
0
280
1
281
0
0
BLOCK_RECORD
5
7C
330
1
100
AcDbSymbolTableRecord
100
AcDbBlockTableRecord
2
*D20
70
0
280
1
281
0
0
BLOCK_RECORD
5
7F
330
1
100
AcDbSymbolTableRecord
100
AcDbBlockTableRecord
2
*D33
70
0
280
1
281
0
0
BLOCK_RECORD
5
82
330
1
100
AcDbSymbolTableRecord
100
AcDbBlockTableRecord
2
*D4
70
0
280
1
281
0
0
BLOCK_RECORD
5
85
330
1
100
AcDbSymbolTableRecord
100
AcDbBlockTableRecord
2
*D19
70
0
280
1
281
0
0
BLOCK_RECORD
5
88
330
1
100
AcDbSymbolTableRecord
100
AcDbBlockTableRecord
2
*D21
70
0
280
1
281
0
0
BLOCK_RECORD
5
8B
330
1
100
AcDbSymbolTableRecord
100
AcDbBlockTableRecord
2
*D28
70
0
280
1
281
0
0
BLOCK_RECORD
5
8E
330
1
100
AcDbSymbolTableRecord
100
AcDbBlockTableRecord
2
*D8
70
0
280
1
281
0
0
BLOCK_RECORD
5
91
330
1
100
AcDbSymbolTableRecord
100
AcDbBlockTableRecord
2
*D37
70
0
280
1
281
0
0
BLOCK_RECORD
5
94
330
1
100
AcDbSymbolTableRecord
100
AcDbBlockTableRecord
2
*D5
70
0
280
1
281
0
0
BLOCK_RECORD
5
97
330
1
100
AcDbSymbolTableRecord
100
AcDbBlockTableRecord
2
*D9
70
0
280
1
281
0
0
BLOCK_RECORD
5
9A
330
1
100
AcDbSymbolTableRecord
100
AcDbBlockTableRecord
2
*D38
70
0
280
1
281
0
0
BLOCK_RECORD
5
9D
330
1
100
AcDbSymbolTableRecord
100
AcDbBlockTableRecord
2
*D24
70
0
280
1
281
0
0
BLOCK_RECORD
5
A0
330
1
100
AcDbSymbolTableRecord
100
AcDbBlockTableRecord
2
*D41
70
0
280
1
281
0
0
BLOCK_RECORD
5
A3
330
1
100
AcDbSymbolTableRecord
100
AcDbBlockTableRecord
2
*D3
70
0
280
1
281
0
0
BLOCK_RECORD
5
A6
330
1
100
AcDbSymbolTableRecord
100
AcDbBlockTableRecord
2
*D30
70
0
280
1
281
0
0
BLOCK_RECORD
5
A9
330
1
100
AcDbSymbolTableRecord
100
AcDbBlockTableRecord
2
*D26
70
0
280
1
281
0
0
BLOCK_RECORD
5
AC
330
1
100
AcDbSymbolTableRecord
100
AcDbBlockTableRecord
2
*D42
70
0
280
1
281
0
0
BLOCK_RECORD
5
AF
330
1
100
AcDbSymbolTableRecord
100
AcDbBlockTableRecord
2
*D23
70
0
280
1
281
0
0
BLOCK_RECORD
5
B2
330
1
100
AcDbSymbolTableRecord
100
AcDbBlockTableRecord
2
*D1
70
0
280
1
281
0
0
BLOCK_RECORD
5
B5
330
1
100
AcDbSymbolTableRecord
100
AcDbBlockTableRecord
2
*D15
70
0
280
1
281
0
0
BLOCK_RECORD
5
B8
330
1
100
AcDbSymbolTableRecord
100
AcDbBlockTableRecord
2
*D13
70
0
280
1
281
0
0
BLOCK_RECORD
5
BB
330
1
100
AcDbSymbolTableRecord
100
AcDbBlockTableRecord
2
*D18
70
0
280
1
281
0
0
BLOCK_RECORD
5
BE
330
1
100
AcDbSymbolTableRecord
100
AcDbBlockTableRecord
2
*D25
70
0
280
1
281
0
0
BLOCK_RECORD
5
C1
330
1
100
AcDbSymbolTableRecord
100
AcDbBlockTableRecord
2
*D11
70
0
280
1
281
0
0
BLOCK_RECORD
5
C4
330
1
100
AcDbSymbolTableRecord
100
AcDbBlockTableRecord
2
*D6
70
0
280
1
281
0
0
ENDTAB
0
ENDSEC
0
SECTION
2
BLOCKS
0
BLOCK
5
20
330
1F
100
AcDbEntity
8
0
100
AcDbBlockBegin
2
*Model_Space
70
0
10
0
20
0
30
0
3
*Model_Space
1

0
ENDBLK
5
21
330
1F
100
AcDbEntity
8
0
100
AcDbBlockEnd
0
BLOCK
5
1C
330
1B
100
AcDbEntity
8
0
100
AcDbBlockBegin
2
*Paper_Space
70
0
10
0
20
0
30
0
3
*Paper_Space
1

0
ENDBLK
5
1D
330
1F
100
AcDbEntity
8
0
100
AcDbBlockEnd
0
BLOCK
5
47
330
46
100
AcDbEntity
8
0
100
AcDbBlockBegin
2
*D10
70
1
10
0
20
0
3
*D10
1

0
LINE
5
C7
100
AcDbEntity
8
0
6
CONTINUOUS
62
7
370
0
100
AcDbLine
10
23.4300909928
20
-33.6691550948
11
60.25
21
-33.6691550948
0
LINE
5
C8
100
AcDbEntity
8
0
6
CONTINUOUS
62
7
370
0
100
AcDbLine
10
23.4300909928
20
-40
11
60.25
21
-40
0
LINE
5
C9
100
AcDbEntity
8
0
6
CONTINUOUS
62
7
370
0
100
AcDbLine
10
59
20
-33.6691550948
11
59
21
-40
0
SOLID
5
CA
100
AcDbEntity
8
0
6
CONTINUOUS
62
7
370
0
100
AcDbTrace
10
59
20
-33.6691550948
30
0
11
59.4162846578
21
-36.1691550948
31
0
12
58.5837153422
22
-36.1691550948
32
0
13
58.5837153422
23
-36.1691550948
33
0
0
SOLID
5
CB
100
AcDbEntity
8
0
6
CONTINUOUS
62
7
370
0
100
AcDbTrace
10
59
20
-40
30
0
11
58.5837153422
21
-37.5
31
0
12
59.4162846578
22
-37.5
32
0
13
59.4162846578
23
-37.5
33
0
0
MTEXT
5
CC
100
AcDbEntity
8
0
6
CONTINUOUS
62
7
370
0
100
AcDbMText
10
56.79312
20
-29.056
30
0
40
2.5
41
5.83333333333
71
5
72
1
1
6.33
7
standard
210
0
220
0
230
1
50
90
73
2
44
1
0
ENDBLK
5
48
330
46
100
AcDbEntity
8
0
100
AcDbBlockEnd
0
BLOCK
5
4A
330
49
100
AcDbEntity
8
0
100
AcDbBlockBegin
2
*D27
70
1
10
0
20
0
3
*D27
1

0
LINE
5
CD
100
AcDbEntity
8
0
6
CONTINUOUS
62
7
370
0
100
AcDbLine
10
10.1949090072
20
-99.90832128
11
23.5500720522
21
-99.90832128
0
SOLID
5
CE
100
AcDbEntity
8
0
6
CONTINUOUS
62
7
370
0
100
AcDbTrace
10
15.1949090072
20
-99.90832128
30
0
11
12.6949090072
21
-100.324605938
31
0
12
12.6949090072
22
-99.4920366222
32
0
13
12.6949090072
23
-99.4920366222
33
0
0
SOLID
5
CF
100
AcDbEntity
8
0
6
CONTINUOUS
62
7
370
0
100
AcDbTrace
10
18.5500720522
20
-99.90832128
30
0
11
21.0500720522
21
-99.4920366222
31
0
12
21.0500720522
22
-100.324605938
32
0
13
21.0500720522
23
-100.324605938
33
0
0
MTEXT
5
D0
100
AcDbEntity
8
0
6
CONTINUOUS
62
7
370
0
100
AcDbMText
10
22.0917387189
20
-98.03332128
30
0
40
2.5
41
5.83333333333
71
5
72
1
1
3.36
7
standard
210
0
220
0
230
1
50
0
73
2
44
1
0
LINE
5
D1
100
AcDbEntity
8
0
6
CONTINUOUS
62
7
370
0
100
AcDbLine
10
15.1949090072
20
-109.375
11
15.1949090072
21
-98.65832128
0
LINE
5
D2
100
AcDbEntity
8
0
6
CONTINUOUS
62
7
370
0
100
AcDbLine
10
18.5500720522
20
-109.375
11
18.5500720522
21
-98.65832128
0
ENDBLK
5
4B
330
49
100
AcDbEntity
8
0
100
AcDbBlockEnd
0
BLOCK
5
4D
330
4C
100
AcDbEntity
8
0
100
AcDbBlockBegin
2
*D39
70
1
10
0
20
0
3
*D39
1

0
LINE
5
D3
100
AcDbEntity
8
0
6
CONTINUOUS
62
7
370
0
100
AcDbLine
10
113.863358236
20
-67
11
122.34863961
21
-67
0
SOLID
5
D4
100
AcDbEntity
8
0
6
CONTINUOUS
62
7
370
0
100
AcDbTrace
10
113.863358236
20
-67
30
0
11
116.363358236
21
-66.5837153422
31
0
12
116.363358236
22
-67.4162846578
32
0
13
116.363358236
23
-67.4162846578
33
0
0
SOLID
5
D5
100
AcDbEntity
8
0
6
CONTINUOUS
62
7
370
0
100
AcDbTrace
10
122.34863961
20
-67
30
0
11
119.84863961
21
-67.4162846578
31
0
12
119.84863961
22
-66.5837153422
32
0
13
119.84863961
23
-66.5837153422
33
0
0
MTEXT
5
D6
100
AcDbEntity
8
0
6
CONTINUOUS
62
7
370
0
100
AcDbMText
10
118.105998923
20
-65.125
30
0
40
2.5
41
6.11111111111
71
5
72
1
1
8.49
7
standard
210
0
220
0
230
1
50
0
73
2
44
1
0
LINE
5
D7
100
AcDbEntity
8
0
6
CONTINUOUS
62
7
370
0
100
AcDbLine
10
113.863358236
20
-61.625
11
113.863358236
21
-68.25
0
LINE
5
D8
100
AcDbEntity
8
0
6
CONTINUOUS
62
7
370
0
100
AcDbLine
10
122.34863961
20
-61.625
11
122.34863961
21
-68.25
0
ENDBLK
5
4E
330
4C
100
AcDbEntity
8
0
100
AcDbBlockEnd
0
BLOCK
5
50
330
4F
100
AcDbEntity
8
0
100
AcDbBlockBegin
2
*D7
70
1
10
0
20
0
3
*D7
1

0
LINE
5
D9
100
AcDbEntity
8
0
6
CONTINUOUS
62
7
370
0
100
AcDbLine
10
37
20
-5
11
54
21
-5
0
SOLID
5
DA
100
AcDbEntity
8
0
6
CONTINUOUS
62
7
370
0
100
AcDbTrace
10
37
20
-5
30
0
11
39.5
21
-4.58371534223
31
0
12
39.5
22
-5.41628465777
32
0
13
39.5
23
-5.41628465777
33
0
0
SOLID
5
DB
100
AcDbEntity
8
0
6
CONTINUOUS
62
7
370
0
100
AcDbTrace
10
54
20
-5
30
0
11
51.5
21
-5.41628465777
31
0
12
51.5
22
-4.58371534223
32
0
13
51.5
23
-4.58371534223
33
0
0
MTEXT
5
DC
100
AcDbEntity
8
0
6
CONTINUOUS
62
7
370
0
100
AcDbMText
10
45.5
20
-3.125
30
0
40
2.5
41
2.5
71
5
72
1
1
17
7
standard
210
0
220
0
230
1
50
0
73
2
44
1
0
LINE
5
DD
100
AcDbEntity
8
0
6
CONTINUOUS
62
7
370
0
100
AcDbLine
10
37
20
-0.625
11
37
21
-6.25
0
LINE
5
DE
100
AcDbEntity
8
0
6
CONTINUOUS
62
7
370
0
100
AcDbLine
10
54
20
-0.625
11
54
21
-6.25
0
ENDBLK
5
51
330
4F
100
AcDbEntity
8
0
100
AcDbBlockEnd
0
BLOCK
5
53
330
52
100
AcDbEntity
8
0
100
AcDbBlockBegin
2
*D34
70
1
10
0
20
0
3
*D34
1

0
LINE
5
DF
100
AcDbEntity
8
0
6
CONTINUOUS
62
7
370
0
100
AcDbLine
10
142.147629483
20
-53
11
150.632910858
21
-53
0
SOLID
5
E0
100
AcDbEntity
8
0
6
CONTINUOUS
62
7
370
0
100
AcDbTrace
10
142.147629483
20
-53
30
0
11
144.647629483
21
-52.5837153422
31
0
12
144.647629483
22
-53.4162846578
32
0
13
144.647629483
23
-53.4162846578
33
0
0
SOLID
5
E1
100
AcDbEntity
8
0
6
CONTINUOUS
62
7
370
0
100
AcDbTrace
10
150.632910858
20
-53
30
0
11
148.132910858
21
-53.4162846578
31
0
12
148.132910858
22
-52.5837153422
32
0
13
148.132910858
23
-52.5837153422
33
0
0
MTEXT
5
E2
100
AcDbEntity
8
0
6
CONTINUOUS
62
7
370
0
100
AcDbMText
10
146.39027017
20
-51.125
30
0
40
2.5
41
6.11111111111
71
5
72
1
1
8.49
7
standard
210
0
220
0
230
1
50
0
73
2
44
1
0
LINE
5
E3
100
AcDbEntity
8
0
6
CONTINUOUS
62
7
370
0
100
AcDbLine
10
142.147629483
20
-56.1323593129
11
142.147629483
21
-51.75
0
LINE
5
E4
100
AcDbEntity
8
0
6
CONTINUOUS
62
7
370
0
100
AcDbLine
10
150.632910858
20
-56.1323593129
11
150.632910858
21
-51.75
0
ENDBLK
5
54
330
52
100
AcDbEntity
8
0
100
AcDbBlockEnd
0
BLOCK
5
56
330
55
100
AcDbEntity
8
0
100
AcDbBlockBegin
2
*D36
70
1
10
0
20
0
3
*D36
1

0
LINE
5
E5
100
AcDbEntity
8
0
6
CONTINUOUS
62
7
370
0
100
AcDbLine
10
111
20
-72
11
147.804483733
21
-72
0
SOLID
5
E6
100
AcDbEntity
8
0
6
CONTINUOUS
62
7
370
0
100
AcDbTrace
10
111
20
-72
30
0
11
113.5
21
-71.5837153422
31
0
12
113.5
22
-72.4162846578
32
0
13
113.5
23
-72.4162846578
33
0
0
SOLID
5
E7
100
AcDbEntity
8
0
6
CONTINUOUS
62
7
370
0
100
AcDbTrace
10
147.804483733
20
-72
30
0
11
145.304483733
21
-72.4162846578
31
0
12
145.304483733
22
-71.5837153422
32
0
13
145.304483733
23
-71.5837153422
33
0
0
MTEXT
5
E8
100
AcDbEntity
8
0
6
CONTINUOUS
62
7
370
0
100
AcDbMText
10
129.402241866
20
-70.125
30
0
40
2.5
41
5.83333333333
71
5
72
1
1
36.8
7
standard
210
0
220
0
230
1
50
0
73
2
44
1
0
LINE
5
E9
100
AcDbEntity
8
0
6
CONTINUOUS
62
7
370
0
100
AcDbLine
10
111
20
-62.625
11
111
21
-73.25
0
LINE
5
EA
100
AcDbEntity
8
0
6
CONTINUOUS
62
7
370
0
100
AcDbLine
10
147.804483733
20
-62.625
11
147.804483733
21
-73.25
0
ENDBLK
5
57
330
55
100
AcDbEntity
8
0
100
AcDbBlockEnd
0
BLOCK
5
59
330
58
100
AcDbEntity
8
0
100
AcDbBlockBegin
2
*D2
70
1
10
0
20
0
3
*D2
1

0
LINE
5
EB
100
AcDbEntity
8
0
6
CONTINUOUS
62
7
370
0
100
AcDbLine
10
1
20
16
11
90
21
16
0
SOLID
5
EC
100
AcDbEntity
8
0
6
CONTINUOUS
62
7
370
0
100
AcDbTrace
10
1
20
16
30
0
11
3.5
21
16.4162846578
31
0
12
3.5
22
15.5837153422
32
0
13
3.5
23
15.5837153422
33
0
0
SOLID
5
ED
100
AcDbEntity
8
0
6
CONTINUOUS
62
7
370
0
100
AcDbTrace
10
90
20
16
30
0
11
87.5
21
15.5837153422
31
0
12
87.5
22
16.4162846578
32
0
13
87.5
23
16.4162846578
33
0
0
MTEXT
5
EE
100
AcDbEntity
8
0
6
CONTINUOUS
62
7
370
0
100
AcDbMText
10
45.5
20
17.875
30
0
40
2.5
41
3.05555555556
71
5
72
1
1
89
7
standard
210
0
220
0
230
1
50
0
73
2
44
1
0
LINE
5
EF
100
AcDbEntity
8
0
6
CONTINUOUS
62
7
370
0
100
AcDbLine
10
1
20
11.625
11
1
21
17.25
0
LINE
5
F0
100
AcDbEntity
8
0
6
CONTINUOUS
62
7
370
0
100
AcDbLine
10
90
20
11.625
11
90
21
17.25
0
ENDBLK
5
5A
330
58
100
AcDbEntity
8
0
100
AcDbBlockEnd
0
BLOCK
5
5C
330
5B
100
AcDbEntity
8
0
100
AcDbBlockBegin
2
*D31
70
1
10
0
20
0
3
*D31
1

0
LINE
5
F1
100
AcDbEntity
8
0
6
CONTINUOUS
62
7
370
0
100
AcDbLine
10
108.206503986
20
-53
11
116.691785361
21
-53
0
SOLID
5
F2
100
AcDbEntity
8
0
6
CONTINUOUS
62
7
370
0
100
AcDbTrace
10
108.206503986
20
-53
30
0
11
110.706503986
21
-52.5837153422
31
0
12
110.706503986
22
-53.4162846578
32
0
13
110.706503986
23
-53.4162846578
33
0
0
SOLID
5
F3
100
AcDbEntity
8
0
6
CONTINUOUS
62
7
370
0
100
AcDbTrace
10
116.691785361
20
-53
30
0
11
114.191785361
21
-53.4162846578
31
0
12
114.191785361
22
-52.5837153422
32
0
13
114.191785361
23
-52.5837153422
33
0
0
MTEXT
5
F4
100
AcDbEntity
8
0
6
CONTINUOUS
62
7
370
0
100
AcDbMText
10
112.449144673
20
-51.125
30
0
40
2.5
41
6.11111111111
71
5
72
1
1
8.49
7
standard
210
0
220
0
230
1
50
0
73
2
44
1
0
LINE
5
F5
100
AcDbEntity
8
0
6
CONTINUOUS
62
7
370
0
100
AcDbLine
10
108.206503986
20
-56.1323593129
11
108.206503986
21
-51.75
0
LINE
5
F6
100
AcDbEntity
8
0
6
CONTINUOUS
62
7
370
0
100
AcDbLine
10
116.691785361
20
-56.1323593129
11
116.691785361
21
-51.75
0
ENDBLK
5
5D
330
5B
100
AcDbEntity
8
0
100
AcDbBlockEnd
0
BLOCK
5
5F
330
5E
100
AcDbEntity
8
0
100
AcDbBlockBegin
2
*D32
70
1
10
0
20
0
3
*D32
1

0
LINE
5
F7
100
AcDbEntity
8
0
6
CONTINUOUS
62
7
370
0
100
AcDbLine
10
119.520212485
20
-53
11
128.00549386
21
-53
0
SOLID
5
F8
100
AcDbEntity
8
0
6
CONTINUOUS
62
7
370
0
100
AcDbTrace
10
119.520212485
20
-53
30
0
11
122.020212485
21
-52.5837153422
31
0
12
122.020212485
22
-53.4162846578
32
0
13
122.020212485
23
-53.4162846578
33
0
0
SOLID
5
F9
100
AcDbEntity
8
0
6
CONTINUOUS
62
7
370
0
100
AcDbTrace
10
128.00549386
20
-53
30
0
11
125.50549386
21
-53.4162846578
31
0
12
125.50549386
22
-52.5837153422
32
0
13
125.50549386
23
-52.5837153422
33
0
0
MTEXT
5
FA
100
AcDbEntity
8
0
6
CONTINUOUS
62
7
370
0
100
AcDbMText
10
123.762853172
20
-51.125
30
0
40
2.5
41
6.11111111111
71
5
72
1
1
8.49
7
standard
210
0
220
0
230
1
50
0
73
2
44
1
0
LINE
5
FB
100
AcDbEntity
8
0
6
CONTINUOUS
62
7
370
0
100
AcDbLine
10
119.520212485
20
-56.1323593129
11
119.520212485
21
-51.75
0
LINE
5
FC
100
AcDbEntity
8
0
6
CONTINUOUS
62
7
370
0
100
AcDbLine
10
128.00549386
20
-56.1323593129
11
128.00549386
21
-51.75
0
ENDBLK
5
60
330
5E
100
AcDbEntity
8
0
100
AcDbBlockEnd
0
BLOCK
5
62
330
61
100
AcDbEntity
8
0
100
AcDbBlockBegin
2
*D17
70
1
10
0
20
0
3
*D17
1

0
LINE
5
FD
100
AcDbEntity
8
0
6
CONTINUOUS
62
7
370
0
100
AcDbLine
10
18.6875
20
-62.0135506632
11
3.44617506174
21
-88.4122998304
0
LINE
5
FE
100
AcDbEntity
8
0
6
CONTINUOUS
62
7
370
0
100
AcDbLine
10
18.1875
20
-61.7248755286
11
2.94617506174
21
-88.1236246958
0
LINE
5
FF
100
AcDbEntity
8
0
6
CONTINUOUS
62
7
370
0
100
AcDbLine
10
8.40130208065
20
-89.8297680757
11
-0.758951957159
21
-84.5410929411
0
SOLID
5
100
100
AcDbEntity
8
0
6
CONTINUOUS
62
7
370
0
100
AcDbTrace
10
4.07117506174
20
-87.3297680757
30
0
11
6.44438090008
21
-88.2192549869
31
0
12
6.02809624231
22
-88.9402811645
32
0
13
6.02809624231
23
-88.9402811645
33
0
0
SOLID
5
101
100
AcDbEntity
8
0
6
CONTINUOUS
62
7
370
0
100
AcDbTrace
10
3.57117506174
20
-87.0410929411
30
0
11
1.1979692234
21
-86.1516060299
31
0
12
1.61425388118
22
-85.4305798522
32
0
13
1.61425388118
23
-85.4305798522
33
0
0
MTEXT
5
102
100
AcDbEntity
8
0
6
CONTINUOUS
62
7
370
0
100
AcDbMText
10
8.07584836706
20
-87.4768037771
30
0
40
2.5
41
5.83333333333
71
5
72
1
1
0.58
7
standard
210
0
220
0
230
1
50
330
73
2
44
1
0
ENDBLK
5
63
330
61
100
AcDbEntity
8
0
100
AcDbBlockEnd
0
BLOCK
5
65
330
64
100
AcDbEntity
8
0
100
AcDbBlockBegin
2
*D16
70
1
10
0
20
0
3
*D16
1

0
LINE
5
103
100
AcDbEntity
8
0
6
CONTINUOUS
62
7
370
0
100
AcDbLine
10
26.1875
20
-66.3436776821
11
14.0131623599
21
-87.4302490228
0
LINE
5
104
100
AcDbEntity
8
0
6
CONTINUOUS
62
7
370
0
100
AcDbLine
10
26.6875
20
-66.6323528167
11
14.5131623599
21
-87.7189241574
0
LINE
5
105
100
AcDbEntity
8
0
6
CONTINUOUS
62
7
370
0
100
AcDbLine
10
10.308035341
20
-83.8477172681
11
19.4682893788
21
-89.1363924027
0
SOLID
5
106
100
AcDbEntity
8
0
6
CONTINUOUS
62
7
370
0
100
AcDbTrace
10
14.6381623599
20
-86.3477172681
30
0
11
12.2649565216
21
-85.4582303569
31
0
12
12.6812411793
22
-84.7372041793
32
0
13
12.6812411793
23
-84.7372041793
33
0
0
SOLID
5
107
100
AcDbEntity
8
0
6
CONTINUOUS
62
7
370
0
100
AcDbTrace
10
15.1381623599
20
-86.6363924027
30
0
11
17.5113681982
21
-87.5258793139
31
0
12
17.0950835405
22
-88.2469054916
32
0
13
17.0950835405
23
-88.2469054916
33
0
0
MTEXT
5
108
100
AcDbEntity
8
0
6
CONTINUOUS
62
7
370
0
100
AcDbMText
10
19.1428356652
20
-86.7834281041
30
0
40
2.5
41
5.83333333333
71
5
72
1
1
0.58
7
standard
210
0
220
0
230
1
50
330
73
2
44
1
0
ENDBLK
5
66
330
64
100
AcDbEntity
8
0
100
AcDbBlockEnd
0
BLOCK
5
68
330
67
100
AcDbEntity
8
0
100
AcDbBlockBegin
2
*D43
70
1
10
0
20
0
3
*D43
1

0
LINE
5
109
100
AcDbEntity
8
0
6
CONTINUOUS
62
7
370
0
100
AcDbLine
10
170
20
-66
11
170
21
-51.7573593129
0
SOLID
5
10A
100
AcDbEntity
8
0
6
CONTINUOUS
62
7
370
0
100
AcDbTrace
10
170
20
-61
30
0
11
170.416284658
21
-63.5
31
0
12
169.583715342
22
-63.5
32
0
13
169.583715342
23
-63.5
33
0
0
SOLID
5
10B
100
AcDbEntity
8
0
6
CONTINUOUS
62
7
370
0
100
AcDbTrace
10
170
20
-56.7573593129
30
0
11
169.583715342
21
-54.2573593129
31
0
12
170.416284658
22
-54.2573593129
32
0
13
170.416284658
23
-54.2573593129
33
0
0
MTEXT
5
10C
100
AcDbEntity
8
0
6
CONTINUOUS
62
7
370
0
100
AcDbMText
10
168.125
20
-52.9379148684
30
0
40
2.5
41
6.38888888889
71
5
72
1
1
4.24
7
standard
210
0
220
0
230
1
50
90
73
2
44
1
0
LINE
5
10D
100
AcDbEntity
8
0
6
CONTINUOUS
62
7
370
0
100
AcDbLine
10
148.429483733
20
-61
11
171.25
21
-61
0
LINE
5
10E
100
AcDbEntity
8
0
6
CONTINUOUS
62
7
370
0
100
AcDbLine
10
152.67212442
20
-56.7573593129
11
171.25
21
-56.7573593129
0
ENDBLK
5
69
330
67
100
AcDbEntity
8
0
100
AcDbBlockEnd
0
BLOCK
5
6B
330
6A
100
AcDbEntity
8
0
100
AcDbBlockBegin
2
*D12
70
1
10
0
20
0
3
*D12
1

0
LINE
5
10F
100
AcDbEntity
8
0
6
CONTINUOUS
62
7
370
0
100
AcDbLine
10
18.8125
20
-30.6423437738
11
25.9275815225
21
-18.3186610769
0
LINE
5
110
100
AcDbEntity
8
0
6
CONTINUOUS
62
7
370
0
100
AcDbLine
10
27.3125
20
-35.5498210619
11
34.4275815225
21
-23.226138365
0
LINE
5
111
100
AcDbEntity
8
0
6
CONTINUOUS
62
7
370
0
100
AcDbLine
10
25.3025815225
20
-19.4011928316
11
33.8025815225
21
-24.3086701197
0
SOLID
5
112
100
AcDbEntity
8
0
6
CONTINUOUS
62
7
370
0
100
AcDbTrace
10
25.3025815225
20
-19.4011928316
30
0
11
27.6757873608
21
-20.2906797428
31
0
12
27.2595027031
22
-21.0117059204
32
0
13
27.2595027031
23
-21.0117059204
33
0
0
SOLID
5
113
100
AcDbEntity
8
0
6
CONTINUOUS
62
7
370
0
100
AcDbTrace
10
33.8025815225
20
-24.3086701197
30
0
11
31.4293756841
21
-23.4191832085
31
0
12
31.8456603419
22
-22.6981570309
32
0
13
31.8456603419
23
-22.6981570309
33
0
0
MTEXT
5
114
100
AcDbEntity
8
0
6
CONTINUOUS
62
7
370
0
100
AcDbMText
10
30.79312
20
-20.056
30
0
40
2.5
41
5.27777777778
71
5
72
1
1
9.81
7
standard
210
0
220
0
230
1
50
330
73
2
44
1
0
ENDBLK
5
6C
330
6A
100
AcDbEntity
8
0
100
AcDbBlockEnd
0
BLOCK
5
6E
330
6D
100
AcDbEntity
8
0
100
AcDbBlockBegin
2
*D40
70
1
10
0
20
0
3
*D40
1

0
LINE
5
115
100
AcDbEntity
8
0
6
CONTINUOUS
62
7
370
0
100
AcDbLine
10
148.246425471
20
-61.4419417382
11
157.786125343
21
-70.9816416099
0
LINE
5
116
100
AcDbEntity
8
0
6
CONTINUOUS
62
7
370
0
100
AcDbLine
10
152.489066158
20
-57.1993010511
11
162.02876603
21
-66.7390009228
0
LINE
5
117
100
AcDbEntity
8
0
6
CONTINUOUS
62
7
370
0
100
AcDbLine
10
153.366707961
20
-73.6332920394
11
164.68041646
21
-62.3195835403
0
SOLID
5
118
100
AcDbEntity
8
0
6
CONTINUOUS
62
7
370
0
100
AcDbTrace
10
156.902241867
20
-70.0977581334
30
0
11
155.428832618
21
-72.1598827908
31
0
12
154.840117209
22
-71.571167382
32
0
13
154.840117209
23
-71.571167382
33
0
0
SOLID
5
119
100
AcDbEntity
8
0
6
CONTINUOUS
62
7
370
0
100
AcDbTrace
10
161.144882554
20
-65.8551174463
30
0
11
162.618291802
21
-63.7929927889
31
0
12
163.207007211
22
-64.3817081977
32
0
13
163.207007211
23
-64.3817081977
33
0
0
MTEXT
5
11A
100
AcDbEntity
8
0
6
CONTINUOUS
62
7
370
0
100
AcDbMText
10
157.697736995
20
-66.6506125752
30
0
40
2.5
41
1.11111111111
71
5
72
1
1
6
7
standard
210
0
220
0
230
1
50
45.0000000008
73
2
44
1
0
ENDBLK
5
6F
330
6D
100
AcDbEntity
8
0
100
AcDbBlockEnd
0
BLOCK
5
71
330
70
100
AcDbEntity
8
0
100
AcDbBlockBegin
2
*D14
70
1
10
0
20
0
3
*D14
1

0
LINE
5
11B
100
AcDbEntity
8
0
6
CONTINUOUS
62
7
370
0
100
AcDbLine
10
14.8824090072
20
-31.3958384098
11
5.47671647519
21
-15.104701064
0
LINE
5
11C
100
AcDbEntity
8
0
6
CONTINUOUS
62
7
370
0
100
AcDbLine
10
18.2375720522
20
-29.4587341226
11
8.83187952019
21
-13.1675967768
0
LINE
5
11D
100
AcDbEntity
8
0
6
CONTINUOUS
62
7
370
0
100
AcDbLine
10
1.77158945626
20
-18.6872328187
11
13.7870065391
21
-11.7501285315
0
SOLID
5
11E
100
AcDbEntity
8
0
6
CONTINUOUS
62
7
370
0
100
AcDbTrace
10
6.10171647519
20
-16.1872328187
30
0
11
4.14479529461
21
-17.7977459075
31
0
12
3.72851063684
22
-17.0767197299
32
0
13
3.72851063684
23
-17.0767197299
33
0
0
SOLID
5
11F
100
AcDbEntity
8
0
6
CONTINUOUS
62
7
370
0
100
AcDbTrace
10
9.45687952019
20
-14.2501285315
30
0
11
11.4138007008
21
-12.6396154427
31
0
12
11.8300853585
22
-13.3606416203
32
0
13
11.8300853585
23
-13.3606416203
33
0
0
MTEXT
5
120
100
AcDbEntity
8
0
6
CONTINUOUS
62
7
370
0
100
AcDbMText
10
11.5865528253
20
-10.8554975661
30
0
40
2.5
41
5.83333333333
71
5
72
1
1
3.87
7
standard
210
0
220
0
230
1
50
29.9999999999
73
2
44
1
0
ENDBLK
5
72
330
70
100
AcDbEntity
8
0
100
AcDbBlockEnd
0
BLOCK
5
74
330
73
100
AcDbEntity
8
0
100
AcDbBlockBegin
2
*D35
70
1
10
0
20
0
3
*D35
1

0
LINE
5
121
100
AcDbEntity
8
0
6
CONTINUOUS
62
7
370
0
100
AcDbLine
10
106.792290424
20
-48
11
152.04712442
21
-48
0
SOLID
5
122
100
AcDbEntity
8
0
6
CONTINUOUS
62
7
370
0
100
AcDbTrace
10
106.792290424
20
-48
30
0
11
109.292290424
21
-47.5837153422
31
0
12
109.292290424
22
-48.4162846578
32
0
13
109.292290424
23
-48.4162846578
33
0
0
SOLID
5
123
100
AcDbEntity
8
0
6
CONTINUOUS
62
7
370
0
100
AcDbTrace
10
152.04712442
20
-48
30
0
11
149.54712442
21
-48.4162846578
31
0
12
149.54712442
22
-47.5837153422
32
0
13
149.54712442
23
-47.5837153422
33
0
0
MTEXT
5
124
100
AcDbEntity
8
0
6
CONTINUOUS
62
7
370
0
100
AcDbMText
10
129.419707422
20
-46.125
30
0
40
2.5
41
8.05555555556
71
5
72
1
1
45.25
7
standard
210
0
220
0
230
1
50
0
73
2
44
1
0
LINE
5
125
100
AcDbEntity
8
0
6
CONTINUOUS
62
7
370
0
100
AcDbLine
10
106.792290424
20
-55.1323593129
11
106.792290424
21
-46.75
0
LINE
5
126
100
AcDbEntity
8
0
6
CONTINUOUS
62
7
370
0
100
AcDbLine
10
152.04712442
20
-55.1323593129
11
152.04712442
21
-46.75
0
ENDBLK
5
75
330
73
100
AcDbEntity
8
0
100
AcDbBlockEnd
0
BLOCK
5
77
330
76
100
AcDbEntity
8
0
100
AcDbBlockBegin
2
*D29
70
1
10
0
20
0
3
*D29
1

0
LINE
5
127
100
AcDbEntity
8
0
6
CONTINUOUS
62
7
370
0
100
AcDbLine
10
39.2167424
20
-111.091086939
11
39.2167424
21
-125
0
SOLID
5
128
100
AcDbEntity
8
0
6
CONTINUOUS
62
7
370
0
100
AcDbTrace
10
39.2167424
20
-116.091086939
30
0
11
38.8004577422
21
-113.591086939
31
0
12
39.6330270578
22
-113.591086939
32
0
13
39.6330270578
23
-113.591086939
33
0
0
SOLID
5
129
100
AcDbEntity
8
0
6
CONTINUOUS
62
7
370
0
100
AcDbTrace
10
39.2167424
20
-120
30
0
11
39.6330270578
21
-122.5
31
0
12
38.8004577422
22
-122.5
32
0
13
38.8004577422
23
-122.5
33
0
0
MTEXT
5
12A
100
AcDbEntity
8
0
6
CONTINUOUS
62
7
370
0
100
AcDbMText
10
37.3417424
20
-112.82719805
30
0
40
2.5
41
5.27777777778
71
5
72
1
1
3.91
7
standard
210
0
220
0
230
1
50
90
73
2
44
1
0
LINE
5
12B
100
AcDbEntity
8
0
6
CONTINUOUS
62
7
370
0
100
AcDbLine
10
27.625
20
-116.091086939
11
40.4667424
21
-116.091086939
0
LINE
5
12C
100
AcDbEntity
8
0
6
CONTINUOUS
62
7
370
0
100
AcDbLine
10
27.625
20
-120
11
40.4667424
21
-120
0
ENDBLK
5
78
330
76
100
AcDbEntity
8
0
100
AcDbBlockEnd
0
BLOCK
5
7A
330
79
100
AcDbEntity
8
0
100
AcDbBlockBegin
2
*D22
70
1
10
0
20
0
3
*D22
1

0
LINE
5
12D
100
AcDbEntity
8
0
6
CONTINUOUS
62
7
370
0
100
AcDbLine
10
45.8050909928
20
-94.625
11
45.8050909928
21
-104.34135449
0
LINE
5
12E
100
AcDbEntity
8
0
6
CONTINUOUS
62
7
370
0
100
AcDbLine
10
39.9086620705
20
-94.3125
11
34.1716337729
21
-97.6247748324
0
ARC
5
12F
100
AcDbEntity
8
0
6
CONTINUOUS
62
7
370
0
100
AcDbCircle
10
45.8050909928
20
-90.908195174
40
12.1831593155
100
AcDbArc
50
210.000000003
51
270
0
SOLID
5
130
100
AcDbEntity
8
0
6
CONTINUOUS
62
7
370
0
100
AcDbTrace
10
45.8050909928
20
-103.09135449
30
0
11
43.2756018911
21
-103.249398156
31
0
12
43.3608742468
22
-102.421207181
32
0
13
43.3608742468
23
-102.421207181
33
0
0
SOLID
5
131
100
AcDbEntity
8
0
6
CONTINUOUS
62
7
370
0
100
AcDbTrace
10
35.2541655275
20
-96.9997748324
30
0
11
37.056638494
21
-98.7814549725
31
0
12
36.3820402486
22
-99.2693984862
32
0
13
36.3820402486
23
-99.2693984862
33
0
0
MTEXT
5
132
100
AcDbEntity
8
0
6
CONTINUOUS
62
7
370
0
100
AcDbMText
10
40.0260113353
20
-100.917854762
30
0
40
2.5
41
4.72222222222
71
8
72
1
1
60%%D
7
standard
210
0
220
0
230
1
50
-29.9999999983
73
2
44
1
0
ENDBLK
5
7B
330
79
100
AcDbEntity
8
0
100
AcDbBlockEnd
0
BLOCK
5
7D
330
7C
100
AcDbEntity
8
0
100
AcDbBlockBegin
2
*D20
70
1
10
0
20
0
3
*D20
1

0
LINE
5
133
100
AcDbEntity
8
0
6
CONTINUOUS
62
7
370
0
100
AcDbLine
10
22.4300909928
20
-63.6691550948
11
48.04312
21
-63.6691550948
0
LINE
5
134
100
AcDbEntity
8
0
6
CONTINUOUS
62
7
370
0
100
AcDbLine
10
22.4300909928
20
-63.0918048256
11
48.04312
21
-63.0918048256
0
LINE
5
135
100
AcDbEntity
8
0
6
CONTINUOUS
62
7
370
0
100
AcDbLine
10
46.79312
20
-68.6691550948
11
46.79312
21
-58.0918048256
0
SOLID
5
136
100
AcDbEntity
8
0
6
CONTINUOUS
62
7
370
0
100
AcDbTrace
10
46.79312
20
-63.6691550948
30
0
11
47.2094046578
21
-66.1691550948
31
0
12
46.3768353422
22
-66.1691550948
32
0
13
46.3768353422
23
-66.1691550948
33
0
0
SOLID
5
137
100
AcDbEntity
8
0
6
CONTINUOUS
62
7
370
0
100
AcDbTrace
10
46.79312
20
-63.0918048256
30
0
11
46.3768353422
21
-60.5918048256
31
0
12
47.2094046578
22
-60.5918048256
32
0
13
47.2094046578
23
-60.5918048256
33
0
0
MTEXT
5
138
100
AcDbEntity
8
0
6
CONTINUOUS
62
7
370
0
100
AcDbMText
10
44.91812
20
-59.5501381589
30
0
40
2.5
41
5.83333333333
71
5
72
1
1
0.58
7
standard
210
0
220
0
230
1
50
90
73
2
44
1
0
ENDBLK
5
7E
330
7C
100
AcDbEntity
8
0
100
AcDbBlockEnd
0
BLOCK
5
80
330
7F
100
AcDbEntity
8
0
100
AcDbBlockBegin
2
*D33
70
1
10
0
20
0
3
*D33
1

0
LINE
5
139
100
AcDbEntity
8
0
6
CONTINUOUS
62
7
370
0
100
AcDbLine
10
130.833920984
20
-53
11
139.319202359
21
-53
0
SOLID
5
13A
100
AcDbEntity
8
0
6
CONTINUOUS
62
7
370
0
100
AcDbTrace
10
130.833920984
20
-53
30
0
11
133.333920984
21
-52.5837153422
31
0
12
133.333920984
22
-53.4162846578
32
0
13
133.333920984
23
-53.4162846578
33
0
0
SOLID
5
13B
100
AcDbEntity
8
0
6
CONTINUOUS
62
7
370
0
100
AcDbTrace
10
139.319202359
20
-53
30
0
11
136.819202359
21
-53.4162846578
31
0
12
136.819202359
22
-52.5837153422
32
0
13
136.819202359
23
-52.5837153422
33
0
0
MTEXT
5
13C
100
AcDbEntity
8
0
6
CONTINUOUS
62
7
370
0
100
AcDbMText
10
135.076561671
20
-51.125
30
0
40
2.5
41
6.11111111111
71
5
72
1
1
8.49
7
standard
210
0
220
0
230
1
50
0
73
2
44
1
0
LINE
5
13D
100
AcDbEntity
8
0
6
CONTINUOUS
62
7
370
0
100
AcDbLine
10
130.833920984
20
-56.1323593129
11
130.833920984
21
-51.75
0
LINE
5
13E
100
AcDbEntity
8
0
6
CONTINUOUS
62
7
370
0
100
AcDbLine
10
139.319202359
20
-56.1323593129
11
139.319202359
21
-51.75
0
ENDBLK
5
81
330
7F
100
AcDbEntity
8
0
100
AcDbBlockEnd
0
BLOCK
5
83
330
82
100
AcDbEntity
8
0
100
AcDbBlockBegin
2
*D4
70
1
10
0
20
0
3
*D4
1

0
LINE
5
13F
100
AcDbEntity
8
0
6
CONTINUOUS
62
7
370
0
100
AcDbLine
10
107
20
11
11
107
21
1
0
SOLID
5
140
100
AcDbEntity
8
0
6
CONTINUOUS
62
7
370
0
100
AcDbTrace
10
107
20
11
30
0
11
107.416284658
21
8.5
31
0
12
106.583715342
22
8.5
32
0
13
106.583715342
23
8.5
33
0
0
SOLID
5
141
100
AcDbEntity
8
0
6
CONTINUOUS
62
7
370
0
100
AcDbTrace
10
107
20
1
30
0
11
106.583715342
21
3.5
31
0
12
107.416284658
22
3.5
32
0
13
107.416284658
23
3.5
33
0
0
MTEXT
5
142
100
AcDbEntity
8
0
6
CONTINUOUS
62
7
370
0
100
AcDbMText
10
105.125
20
6
30
0
40
2.5
41
2.5
71
5
72
1
1
10
7
standard
210
0
220
0
230
1
50
90
73
2
44
1
0
LINE
5
143
100
AcDbEntity
8
0
6
CONTINUOUS
62
7
370
0
100
AcDbLine
10
90.625
20
11
11
108.25
21
11
0
LINE
5
144
100
AcDbEntity
8
0
6
CONTINUOUS
62
7
370
0
100
AcDbLine
10
90.625
20
1
11
108.25
21
1
0
ENDBLK
5
84
330
82
100
AcDbEntity
8
0
100
AcDbBlockEnd
0
BLOCK
5
86
330
85
100
AcDbEntity
8
0
100
AcDbBlockBegin
2
*D19
70
1
10
0
20
0
3
*D19
1

0
LINE
5
145
100
AcDbEntity
8
0
6
CONTINUOUS
62
7
370
0
100
AcDbLine
10
17.6749819869
20
-68.5710268842
11
9.06282217321
21
-53.6543285246
0
LINE
5
146
100
AcDbEntity
8
0
6
CONTINUOUS
62
7
370
0
100
AcDbLine
10
16.1374279478
20
-69.4587341226
11
7.52526813411
21
-54.542035763
0
LINE
5
147
100
AcDbEntity
8
0
6
CONTINUOUS
62
7
370
0
100
AcDbLine
10
14.0179491921
20
-52.2368602792
11
3.82014111524
21
-58.1245675178
0
SOLID
5
148
100
AcDbEntity
8
0
6
CONTINUOUS
62
7
370
0
100
AcDbTrace
10
9.68782217323
20
-54.7368602793
30
0
11
11.6447433538
21
-53.1263471904
31
0
12
12.0610280116
22
-53.8473733681
32
0
13
12.0610280116
23
-53.8473733681
33
0
0
SOLID
5
149
100
AcDbEntity
8
0
6
CONTINUOUS
62
7
370
0
100
AcDbTrace
10
8.15026813413
20
-55.6245675177
30
0
11
6.19334695358
21
-57.2350806066
31
0
12
5.77706229579
22
-56.5140544289
32
0
13
5.77706229579
23
-56.5140544289
33
0
0
MTEXT
5
14A
100
AcDbEntity
8
0
6
CONTINUOUS
62
7
370
0
100
AcDbMText
10
11.5769328663
20
-51.4811182026
30
0
40
2.5
41
5.27777777778
71
5
72
1
1
1.78
7
standard
210
0
220
0
230
1
50
30.0000000009
73
2
44
1
0
ENDBLK
5
87
330
85
100
AcDbEntity
8
0
100
AcDbBlockEnd
0
BLOCK
5
89
330
88
100
AcDbEntity
8
0
100
AcDbBlockBegin
2
*D21
70
1
10
0
20
0
3
*D21
1

0
LINE
5
14B
100
AcDbEntity
8
0
6
CONTINUOUS
62
7
370
0
100
AcDbLine
10
45.8050909928
20
-94.625
11
45.8050909928
21
-102.363415138
0
LINE
5
14C
100
AcDbEntity
8
0
6
CONTINUOUS
62
7
370
0
100
AcDbLine
10
51.5412658774
20
-90.403586939
11
59.0306934803
21
-94.7276099815
0
ARC
5
14D
100
AcDbEntity
8
0
6
CONTINUOUS
62
7
370
0
100
AcDbCircle
10
45.8050909928
20
-87.0918048253
40
14.0216103126
100
AcDbArc
50
270
51
330.000000001
0
SOLID
5
14E
100
AcDbEntity
8
0
6
CONTINUOUS
62
7
370
0
100
AcDbTrace
10
45.8050909928
20
-101.113415138
30
0
11
48.258101487
21
-100.476208396
31
0
12
48.3322251917
22
-101.305471528
32
0
13
48.3322251917
23
-101.305471528
33
0
0
SOLID
5
14F
100
AcDbEntity
8
0
6
CONTINUOUS
62
7
370
0
100
AcDbTrace
10
57.9481617256
20
-94.1026099815
30
0
11
56.8509203388
21
-96.3872005916
31
0
12
56.1698192527
22
-95.9083760144
32
0
13
56.1698192527
23
-95.9083760144
33
0
0
MTEXT
5
150
100
AcDbEntity
8
0
6
CONTINUOUS
62
7
370
0
100
AcDbMText
10
52.5033961492
20
-98.6936096806
30
0
40
2.5
41
4.72222222222
71
8
72
1
1
60%%D
7
standard
210
0
220
0
230
1
50
30.0000000003
73
2
44
1
0
ENDBLK
5
8A
330
88
100
AcDbEntity
8
0
100
AcDbBlockEnd
0
BLOCK
5
8C
330
8B
100
AcDbEntity
8
0
100
AcDbBlockBegin
2
*D28
70
1
10
0
20
0
3
*D28
1

0
LINE
5
151
100
AcDbEntity
8
0
6
CONTINUOUS
62
7
370
0
100
AcDbLine
10
33.554432
20
-105
11
33.554432
21
-119.936386401
0
SOLID
5
152
100
AcDbEntity
8
0
6
CONTINUOUS
62
7
370
0
100
AcDbTrace
10
33.554432
20
-110
30
0
11
33.1381473422
21
-107.5
31
0
12
33.9707166578
22
-107.5
32
0
13
33.9707166578
23
-107.5
33
0
0
SOLID
5
153
100
AcDbEntity
8
0
6
CONTINUOUS
62
7
370
0
100
AcDbTrace
10
33.554432
20
-114.936386401
30
0
11
33.9707166578
21
-117.436386401
31
0
12
33.1381473422
22
-117.436386401
32
0
13
33.1381473422
23
-117.436386401
33
0
0
MTEXT
5
154
100
AcDbEntity
8
0
6
CONTINUOUS
62
7
370
0
100
AcDbMText
10
31.679432
20
-106.180555555
30
0
40
2.5
41
6.38888888889
71
5
72
1
1
4.94
7
standard
210
0
220
0
230
1
50
90
73
2
44
1
0
LINE
5
155
100
AcDbEntity
8
0
6
CONTINUOUS
62
7
370
0
100
AcDbLine
10
27.625
20
-110
11
34.804432
21
-110
0
LINE
5
156
100
AcDbEntity
8
0
6
CONTINUOUS
62
7
370
0
100
AcDbLine
10
27.625
20
-114.936386401
11
34.804432
21
-114.936386401
0
ENDBLK
5
8D
330
8B
100
AcDbEntity
8
0
100
AcDbBlockEnd
0
BLOCK
5
8F
330
8E
100
AcDbEntity
8
0
100
AcDbBlockBegin
2
*D8
70
1
10
0
20
0
3
*D8
1

0
LINE
5
157
100
AcDbEntity
8
0
6
CONTINUOUS
62
7
370
0
100
AcDbLine
10
55
20
-5
11
72
21
-5
0
SOLID
5
158
100
AcDbEntity
8
0
6
CONTINUOUS
62
7
370
0
100
AcDbTrace
10
55
20
-5
30
0
11
57.5
21
-4.58371534223
31
0
12
57.5
22
-5.41628465777
32
0
13
57.5
23
-5.41628465777
33
0
0
SOLID
5
159
100
AcDbEntity
8
0
6
CONTINUOUS
62
7
370
0
100
AcDbTrace
10
72
20
-5
30
0
11
69.5
21
-5.41628465777
31
0
12
69.5
22
-4.58371534223
32
0
13
69.5
23
-4.58371534223
33
0
0
MTEXT
5
15A
100
AcDbEntity
8
0
6
CONTINUOUS
62
7
370
0
100
AcDbMText
10
63.5
20
-3.125
30
0
40
2.5
41
2.5
71
5
72
1
1
17
7
standard
210
0
220
0
230
1
50
0
73
2
44
1
0
LINE
5
15B
100
AcDbEntity
8
0
6
CONTINUOUS
62
7
370
0
100
AcDbLine
10
55
20
-0.625
11
55
21
-6.25
0
LINE
5
15C
100
AcDbEntity
8
0
6
CONTINUOUS
62
7
370
0
100
AcDbLine
10
72
20
-0.625
11
72
21
-6.25
0
ENDBLK
5
90
330
8E
100
AcDbEntity
8
0
100
AcDbBlockEnd
0
BLOCK
5
92
330
91
100
AcDbEntity
8
0
100
AcDbBlockBegin
2
*D37
70
1
10
0
20
0
3
*D37
1

0
LINE
5
15D
100
AcDbEntity
8
0
6
CONTINUOUS
62
7
370
0
100
AcDbLine
10
125.177066735
20
-67
11
133.662348109
21
-67
0
SOLID
5
15E
100
AcDbEntity
8
0
6
CONTINUOUS
62
7
370
0
100
AcDbTrace
10
125.177066735
20
-67
30
0
11
127.677066735
21
-66.5837153422
31
0
12
127.677066735
22
-67.4162846578
32
0
13
127.677066735
23
-67.4162846578
33
0
0
SOLID
5
15F
100
AcDbEntity
8
0
6
CONTINUOUS
62
7
370
0
100
AcDbTrace
10
133.662348109
20
-67
30
0
11
131.162348109
21
-67.4162846578
31
0
12
131.162348109
22
-66.5837153422
32
0
13
131.162348109
23
-66.5837153422
33
0
0
MTEXT
5
160
100
AcDbEntity
8
0
6
CONTINUOUS
62
7
370
0
100
AcDbMText
10
129.419707422
20
-65.125
30
0
40
2.5
41
6.11111111111
71
5
72
1
1
8.49
7
standard
210
0
220
0
230
1
50
0
73
2
44
1
0
LINE
5
161
100
AcDbEntity
8
0
6
CONTINUOUS
62
7
370
0
100
AcDbLine
10
125.177066735
20
-61.625
11
125.177066735
21
-68.25
0
LINE
5
162
100
AcDbEntity
8
0
6
CONTINUOUS
62
7
370
0
100
AcDbLine
10
133.662348109
20
-61.625
11
133.662348109
21
-68.25
0
ENDBLK
5
93
330
91
100
AcDbEntity
8
0
100
AcDbBlockEnd
0
BLOCK
5
95
330
94
100
AcDbEntity
8
0
100
AcDbBlockBegin
2
*D5
70
1
10
0
20
0
3
*D5
1

0
LINE
5
163
100
AcDbEntity
8
0
6
CONTINUOUS
62
7
370
0
100
AcDbLine
10
1
20
-5
11
18
21
-5
0
SOLID
5
164
100
AcDbEntity
8
0
6
CONTINUOUS
62
7
370
0
100
AcDbTrace
10
1
20
-5
30
0
11
3.5
21
-4.58371534223
31
0
12
3.5
22
-5.41628465777
32
0
13
3.5
23
-5.41628465777
33
0
0
SOLID
5
165
100
AcDbEntity
8
0
6
CONTINUOUS
62
7
370
0
100
AcDbTrace
10
18
20
-5
30
0
11
15.5
21
-5.41628465777
31
0
12
15.5
22
-4.58371534223
32
0
13
15.5
23
-4.58371534223
33
0
0
MTEXT
5
166
100
AcDbEntity
8
0
6
CONTINUOUS
62
7
370
0
100
AcDbMText
10
9.5
20
-3.125
30
0
40
2.5
41
2.5
71
5
72
1
1
17
7
standard
210
0
220
0
230
1
50
0
73
2
44
1
0
LINE
5
167
100
AcDbEntity
8
0
6
CONTINUOUS
62
7
370
0
100
AcDbLine
10
1
20
-0.625
11
1
21
-6.25
0
LINE
5
168
100
AcDbEntity
8
0
6
CONTINUOUS
62
7
370
0
100
AcDbLine
10
18
20
-0.625
11
18
21
-6.25
0
ENDBLK
5
96
330
94
100
AcDbEntity
8
0
100
AcDbBlockEnd
0
BLOCK
5
98
330
97
100
AcDbEntity
8
0
100
AcDbBlockBegin
2
*D9
70
1
10
0
20
0
3
*D9
1

0
LINE
5
169
100
AcDbEntity
8
0
6
CONTINUOUS
62
7
370
0
100
AcDbLine
10
73
20
-5
11
90
21
-5
0
SOLID
5
16A
100
AcDbEntity
8
0
6
CONTINUOUS
62
7
370
0
100
AcDbTrace
10
73
20
-5
30
0
11
75.5
21
-4.58371534223
31
0
12
75.5
22
-5.41628465777
32
0
13
75.5
23
-5.41628465777
33
0
0
SOLID
5
16B
100
AcDbEntity
8
0
6
CONTINUOUS
62
7
370
0
100
AcDbTrace
10
90
20
-5
30
0
11
87.5
21
-5.41628465777
31
0
12
87.5
22
-4.58371534223
32
0
13
87.5
23
-4.58371534223
33
0
0
MTEXT
5
16C
100
AcDbEntity
8
0
6
CONTINUOUS
62
7
370
0
100
AcDbMText
10
81.5
20
-3.125
30
0
40
2.5
41
2.5
71
5
72
1
1
17
7
standard
210
0
220
0
230
1
50
0
73
2
44
1
0
LINE
5
16D
100
AcDbEntity
8
0
6
CONTINUOUS
62
7
370
0
100
AcDbLine
10
73
20
-0.625
11
73
21
-6.25
0
LINE
5
16E
100
AcDbEntity
8
0
6
CONTINUOUS
62
7
370
0
100
AcDbLine
10
90
20
-0.625
11
90
21
-6.25
0
ENDBLK
5
99
330
97
100
AcDbEntity
8
0
100
AcDbBlockEnd
0
BLOCK
5
9B
330
9A
100
AcDbEntity
8
0
100
AcDbBlockBegin
2
*D38
70
1
10
0
20
0
3
*D38
1

0
LINE
5
16F
100
AcDbEntity
8
0
6
CONTINUOUS
62
7
370
0
100
AcDbLine
10
136.490775234
20
-67
11
144.976056608
21
-67
0
SOLID
5
170
100
AcDbEntity
8
0
6
CONTINUOUS
62
7
370
0
100
AcDbTrace
10
136.490775234
20
-67
30
0
11
138.990775234
21
-66.5837153422
31
0
12
138.990775234
22
-67.4162846578
32
0
13
138.990775234
23
-67.4162846578
33
0
0
SOLID
5
171
100
AcDbEntity
8
0
6
CONTINUOUS
62
7
370
0
100
AcDbTrace
10
144.976056608
20
-67
30
0
11
142.476056608
21
-67.4162846578
31
0
12
142.476056608
22
-66.5837153422
32
0
13
142.476056608
23
-66.5837153422
33
0
0
MTEXT
5
172
100
AcDbEntity
8
0
6
CONTINUOUS
62
7
370
0
100
AcDbMText
10
140.733415921
20
-65.125
30
0
40
2.5
41
6.11111111111
71
5
72
1
1
8.49
7
standard
210
0
220
0
230
1
50
0
73
2
44
1
0
LINE
5
173
100
AcDbEntity
8
0
6
CONTINUOUS
62
7
370
0
100
AcDbLine
10
136.490775234
20
-61.625
11
136.490775234
21
-68.25
0
LINE
5
174
100
AcDbEntity
8
0
6
CONTINUOUS
62
7
370
0
100
AcDbLine
10
144.976056608
20
-61.625
11
144.976056608
21
-68.25
0
ENDBLK
5
9C
330
9A
100
AcDbEntity
8
0
100
AcDbBlockEnd
0
BLOCK
5
9E
330
9D
100
AcDbEntity
8
0
100
AcDbBlockBegin
2
*D24
70
1
10
0
20
0
3
*D24
1

0
LINE
5
175
100
AcDbEntity
8
0
6
CONTINUOUS
62
7
370
0
100
AcDbLine
10
51
20
-83.375
11
51
21
-73.3929711663
0
LINE
5
176
100
AcDbEntity
8
0
6
CONTINUOUS
62
7
370
0
100
AcDbLine
10
41.9587341226
20
-84.871109651
11
36.5390075454
21
-81.7420290528
0
ARC
5
177
100
AcDbEntity
8
0
6
CONTINUOUS
62
7
370
0
100
AcDbCircle
10
51
20
-90.091086939
40
15.4481157727
100
AcDbArc
50
90
51
150.000000001
0
SOLID
5
178
100
AcDbEntity
8
0
6
CONTINUOUS
62
7
370
0
100
AcDbTrace
10
51
20
-74.6429711663
30
0
11
48.5418271391
21
-75.2599631453
31
0
12
48.4745324365
22
-74.4301179259
32
0
13
48.4745324365
23
-74.4301179259
33
0
0
SOLID
5
179
100
AcDbEntity
8
0
6
CONTINUOUS
62
7
370
0
100
AcDbTrace
10
37.6215393002
20
-82.3670290528
30
0
11
38.6999367684
21
-80.0734833661
31
0
12
39.3849564584
22
-80.5466848978
32
0
13
39.3849564584
23
-80.5466848978
33
0
0
MTEXT
5
17A
100
AcDbEntity
8
0
6
CONTINUOUS
62
7
370
0
100
AcDbMText
10
42.9634421136
20
-76.1713603619
30
0
40
2.5
41
4.72222222222
71
8
72
1
1
60%%D
7
standard
210
0
220
0
230
1
50
390
73
2
44
1
0
ENDBLK
5
9F
330
9D
100
AcDbEntity
8
0
100
AcDbBlockEnd
0
BLOCK
5
A1
330
A0
100
AcDbEntity
8
0
100
AcDbBlockBegin
2
*D41
70
1
10
0
20
0
3
*D41
1

0
LINE
5
17B
100
AcDbEntity
8
0
6
CONTINUOUS
62
7
370
0
100
AcDbLine
10
146.832211908
20
-61.4419417383
11
153.57901856
21
-68.1887483919
0
LINE
5
17C
100
AcDbEntity
8
0
6
CONTINUOUS
62
7
370
0
100
AcDbLine
10
151.074852596
20
-57.1993010512
11
157.821659248
21
-63.9461077048
0
LINE
5
17D
100
AcDbEntity
8
0
6
CONTINUOUS
62
7
370
0
100
AcDbLine
10
149.159601178
20
-70.8403988209
11
160.473309678
21
-59.5266903226
0
SOLID
5
17E
100
AcDbEntity
8
0
6
CONTINUOUS
62
7
370
0
100
AcDbTrace
10
152.695135084
20
-67.3048649153
30
0
11
151.221725835
21
-69.3669895725
31
0
12
150.633010426
22
-68.7782741636
32
0
13
150.633010426
23
-68.7782741636
33
0
0
SOLID
5
17F
100
AcDbEntity
8
0
6
CONTINUOUS
62
7
370
0
100
AcDbTrace
10
156.937775772
20
-63.0622242282
30
0
11
158.411185021
21
-61.000099571
31
0
12
158.99990043
22
-61.5888149799
32
0
13
158.99990043
23
-61.5888149799
33
0
0
MTEXT
5
180
100
AcDbEntity
8
0
6
CONTINUOUS
62
7
370
0
100
AcDbMText
10
153.490630213
20
-63.8577193569
30
0
40
2.5
41
1.11111111111
71
5
72
1
1
6
7
standard
210
0
220
0
230
1
50
44.9999999941
73
2
44
1
0
ENDBLK
5
A2
330
A0
100
AcDbEntity
8
0
100
AcDbBlockEnd
0
BLOCK
5
A4
330
A3
100
AcDbEntity
8
0
100
AcDbBlockBegin
2
*D3
70
1
10
0
20
0
3
*D3
1

0
LINE
5
181
100
AcDbEntity
8
0
6
CONTINUOUS
62
7
370
0
100
AcDbLine
10
112
20
12
11
112
21
-2.22885717445e-14
0
SOLID
5
182
100
AcDbEntity
8
0
6
CONTINUOUS
62
7
370
0
100
AcDbTrace
10
112
20
12
30
0
11
112.416284658
21
9.5
31
0
12
111.583715342
22
9.5
32
0
13
111.583715342
23
9.5
33
0
0
SOLID
5
183
100
AcDbEntity
8
0
6
CONTINUOUS
62
7
370
0
100
AcDbTrace
10
112
20
-2.22885717445e-14
30
0
11
111.583715342
21
2.5
31
0
12
112.416284658
22
2.5
32
0
13
112.416284658
23
2.5
33
0
0
MTEXT
5
184
100
AcDbEntity
8
0
6
CONTINUOUS
62
7
370
0
100
AcDbMText
10
110.125
20
6
30
0
40
2.5
41
2.5
71
5
72
1
1
12
7
standard
210
0
220
0
230
1
50
90
73
2
44
1
0
LINE
5
185
100
AcDbEntity
8
0
6
CONTINUOUS
62
7
370
0
100
AcDbLine
10
91.625
20
12
11
113.25
21
12
0
LINE
5
186
100
AcDbEntity
8
0
6
CONTINUOUS
62
7
370
0
100
AcDbLine
10
91.625
20
-2.22885717445e-14
11
113.25
21
-2.22885717445e-14
0
ENDBLK
5
A5
330
A3
100
AcDbEntity
8
0
100
AcDbBlockEnd
0
BLOCK
5
A7
330
A6
100
AcDbEntity
8
0
100
AcDbBlockBegin
2
*D30
70
1
10
0
20
0
3
*D30
1

0
LINE
5
187
100
AcDbEntity
8
0
6
CONTINUOUS
62
7
370
0
100
AcDbLine
10
5
20
-104.93141975
11
19.1949090072
21
-104.93141975
0
SOLID
5
188
100
AcDbEntity
8
0
6
CONTINUOUS
62
7
370
0
100
AcDbTrace
10
10
20
-104.93141975
30
0
11
7.5
21
-105.347704408
31
0
12
7.5
22
-104.515135092
32
0
13
7.5
23
-104.515135092
33
0
0
SOLID
5
189
100
AcDbEntity
8
0
6
CONTINUOUS
62
7
370
0
100
AcDbTrace
10
14.1949090072
20
-104.93141975
30
0
11
16.6949090072
21
-104.515135092
31
0
12
16.6949090072
22
-105.347704408
32
0
13
16.6949090072
23
-105.347704408
33
0
0
MTEXT
5
18A
100
AcDbEntity
8
0
6
CONTINUOUS
62
7
370
0
100
AcDbMText
10
11.9594604414
20
-102.50878976
30
0
40
2.5
41
5.55555555556
71
5
72
1
1
4.19
7
standard
210
0
220
0
230
1
50
0
73
2
44
1
0
LINE
5
18B
100
AcDbEntity
8
0
6
CONTINUOUS
62
7
370
0
100
AcDbLine
10
10
20
-109.375
11
10
21
-103.68141975
0
LINE
5
18C
100
AcDbEntity
8
0
6
CONTINUOUS
62
7
370
0
100
AcDbLine
10
14.1949090072
20
-109.375
11
14.1949090072
21
-103.68141975
0
ENDBLK
5
A8
330
A6
100
AcDbEntity
8
0
100
AcDbBlockEnd
0
BLOCK
5
AA
330
A9
100
AcDbEntity
8
0
100
AcDbBlockBegin
2
*D26
70
1
10
0
20
0
3
*D26
1

0
LINE
5
18D
100
AcDbEntity
8
0
6
CONTINUOUS
62
7
370
0
100
AcDbLine
10
20.5500720522
20
-104.93141975
11
27
21
-104.93141975
0
SOLID
5
18E
100
AcDbEntity
8
0
6
CONTINUOUS
62
7
370
0
100
AcDbTrace
10
20.5500720522
20
-104.93141975
30
0
11
23.0500720522
21
-104.515135092
31
0
12
23.0500720522
22
-105.347704408
32
0
13
23.0500720522
23
-105.347704408
33
0
0
SOLID
5
18F
100
AcDbEntity
8
0
6
CONTINUOUS
62
7
370
0
100
AcDbTrace
10
27
20
-104.93141975
30
0
11
24.5
21
-105.347704408
31
0
12
24.5
22
-104.515135092
32
0
13
24.5
23
-104.515135092
33
0
0
MTEXT
5
190
100
AcDbEntity
8
0
6
CONTINUOUS
62
7
370
0
100
AcDbMText
10
23.7750360261
20
-103.05641975
30
0
40
2.5
41
6.11111111111
71
5
72
1
1
6.45
7
standard
210
0
220
0
230
1
50
0
73
2
44
1
0
LINE
5
191
100
AcDbEntity
8
0
6
CONTINUOUS
62
7
370
0
100
AcDbLine
10
20.5500720522
20
-109.375
11
20.5500720522
21
-103.68141975
0
LINE
5
192
100
AcDbEntity
8
0
6
CONTINUOUS
62
7
370
0
100
AcDbLine
10
27
20
-109.375
11
27
21
-103.68141975
0
ENDBLK
5
AB
330
A9
100
AcDbEntity
8
0
100
AcDbBlockEnd
0
BLOCK
5
AD
330
AC
100
AcDbEntity
8
0
100
AcDbBlockBegin
2
*D42
70
1
10
0
20
0
3
*D42
1

0
LINE
5
193
100
AcDbEntity
8
0
6
CONTINUOUS
62
7
370
0
100
AcDbLine
10
106.350348686
20
-57.1993010511
11
101.390941392
21
-62.1587083451
0
LINE
5
194
100
AcDbEntity
8
0
6
CONTINUOUS
62
7
370
0
100
AcDbLine
10
107.057455467
20
-57.9064078321
11
102.098048173
21
-62.8658151261
0
LINE
5
195
100
AcDbEntity
8
0
6
CONTINUOUS
62
7
370
0
100
AcDbLine
10
98.7392909625
20
-57.7392909628
11
106.517465556
21
-65.5174655554
0
SOLID
5
196
100
AcDbEntity
8
0
6
CONTINUOUS
62
7
370
0
100
AcDbTrace
10
102.274824869
20
-61.2748248686
30
0
11
100.212700211
21
-59.8014156201
31
0
12
100.80141562
22
-59.2127002113
32
0
13
100.80141562
23
-59.2127002113
33
0
0
SOLID
5
197
100
AcDbEntity
8
0
6
CONTINUOUS
62
7
370
0
100
AcDbTrace
10
102.98193165
20
-61.9819316496
30
0
11
105.044056307
21
-63.4553408981
31
0
12
104.455340898
22
-64.0440563069
32
0
13
104.455340898
23
-64.0440563069
33
0
0
MTEXT
5
198
100
AcDbEntity
8
0
6
CONTINUOUS
62
7
370
0
100
AcDbMText
10
103.954203474
20
-60.3025530443
30
0
40
2.5
41
0.555555555556
71
5
72
1
1
1
7
standard
210
0
220
0
230
1
50
315.000000002
73
2
44
1
0
ENDBLK
5
AE
330
AC
100
AcDbEntity
8
0
100
AcDbBlockEnd
0
BLOCK
5
B0
330
AF
100
AcDbEntity
8
0
100
AcDbBlockBegin
2
*D23
70
1
10
0
20
0
3
*D23
1

0
LINE
5
199
100
AcDbEntity
8
0
6
CONTINUOUS
62
7
370
0
100
AcDbLine
10
51.625
20
-94
11
62.4369500667
21
-94
0
LINE
5
19A
100
AcDbEntity
8
0
6
CONTINUOUS
62
7
370
0
100
AcDbLine
10
46.3463568701
20
-90.595695174
11
59.4912476557
21
-83.0064889394
0
ARC
5
19B
100
AcDbEntity
8
0
6
CONTINUOUS
62
7
370
0
100
AcDbCircle
10
40.4499279478
20
-94
40
20.7370221189
100
AcDbArc
50
0
51
30.0000000033
0
SOLID
5
19C
100
AcDbEntity
8
0
6
CONTINUOUS
62
7
370
0
100
AcDbTrace
10
61.1869500667
20
-94
30
0
11
60.6208160506
21
-91.5296184116
31
0
12
61.4518732466
22
-91.4794626317
32
0
13
61.4518732466
23
-91.4794626317
33
0
0
SOLID
5
19D
100
AcDbEntity
8
0
6
CONTINUOUS
62
7
370
0
100
AcDbTrace
10
58.408715901
20
-83.6314889395
30
0
11
59.8984147891
21
-85.6818767416
31
0
12
59.1536202555
22
-86.0539691601
32
0
13
59.1536202555
23
-86.0539691601
33
0
0
MTEXT
5
19E
100
AcDbEntity
8
0
6
CONTINUOUS
62
7
370
0
100
AcDbMText
10
61.0840568141
20
-88.4711018331
30
0
40
2.5
41
4.72222222222
71
8
72
1
1
30%%D
7
standard
210
0
220
0
230
1
50
285.000000002
73
2
44
1
0
ENDBLK
5
B1
330
AF
100
AcDbEntity
8
0
100
AcDbBlockEnd
0
BLOCK
5
B3
330
B2
100
AcDbEntity
8
0
100
AcDbBlockBegin
2
*D1
70
1
10
0
20
0
3
*D1
1

0
LINE
5
19F
100
AcDbEntity
8
0
6
CONTINUOUS
62
7
370
0
100
AcDbLine
10
0
20
20
11
91
21
20
0
SOLID
5
1A0
100
AcDbEntity
8
0
6
CONTINUOUS
62
7
370
0
100
AcDbTrace
10
0
20
20
30
0
11
2.5
21
20.4162846578
31
0
12
2.5
22
19.5837153422
32
0
13
2.5
23
19.5837153422
33
0
0
SOLID
5
1A1
100
AcDbEntity
8
0
6
CONTINUOUS
62
7
370
0
100
AcDbTrace
10
91
20
20
30
0
11
88.5
21
19.5837153422
31
0
12
88.5
22
20.4162846578
32
0
13
88.5
23
20.4162846578
33
0
0
MTEXT
5
1A2
100
AcDbEntity
8
0
6
CONTINUOUS
62
7
370
0
100
AcDbMText
10
45.5
20
21.875
30
0
40
2.5
41
2.5
71
5
72
1
1
91
7
standard
210
0
220
0
230
1
50
0
73
2
44
1
0
LINE
5
1A3
100
AcDbEntity
8
0
6
CONTINUOUS
62
7
370
0
100
AcDbLine
10
3.82702124734e-17
20
12.625
11
7.65404249467e-17
21
21.25
0
LINE
5
1A4
100
AcDbEntity
8
0
6
CONTINUOUS
62
7
370
0
100
AcDbLine
10
91
20
12.625
11
91
21
21.25
0
ENDBLK
5
B4
330
B2
100
AcDbEntity
8
0
100
AcDbBlockEnd
0
BLOCK
5
B6
330
B5
100
AcDbEntity
8
0
100
AcDbBlockBegin
2
*D15
70
1
10
0
20
0
3
*D15
1

0
LINE
5
1A5
100
AcDbEntity
8
0
6
CONTINUOUS
62
7
370
0
100
AcDbLine
10
14.8824090072
20
-32.5505389482
11
8.1417799846
21
-20.8754270062
0
LINE
5
1A6
100
AcDbEntity
8
0
6
CONTINUOUS
62
7
370
0
100
AcDbLine
10
20.2375720522
20
-29.4587341226
11
13.4969430296
21
-17.7836221806
0
LINE
5
1A7
100
AcDbEntity
8
0
6
CONTINUOUS
62
7
370
0
100
AcDbLine
10
4.43665296568
20
-24.4579587609
11
18.4520700485
21
-16.3661539353
0
SOLID
5
1A8
100
AcDbEntity
8
0
6
CONTINUOUS
62
7
370
0
100
AcDbTrace
10
8.7667799846
20
-21.9579587609
30
0
11
6.80985880403
21
-23.5684718497
31
0
12
6.39357414625
22
-22.8474456721
32
0
13
6.39357414625
23
-22.8474456721
33
0
0
SOLID
5
1A9
100
AcDbEntity
8
0
6
CONTINUOUS
62
7
370
0
100
AcDbTrace
10
14.1219430296
20
-18.8661539353
30
0
11
16.0788642102
21
-17.2556408465
31
0
12
16.4951488679
22
-17.9766670241
32
0
13
16.4951488679
23
-17.9766670241
33
0
0
MTEXT
5
1AA
100
AcDbEntity
8
0
6
CONTINUOUS
62
7
370
0
100
AcDbMText
10
13.79312
20
-16.056
30
0
40
2.5
41
5.27777777778
71
5
72
1
1
6.18
7
standard
210
0
220
0
230
1
50
30.0000000001
73
2
44
1
0
ENDBLK
5
B7
330
B5
100
AcDbEntity
8
0
100
AcDbBlockEnd
0
BLOCK
5
B9
330
B8
100
AcDbEntity
8
0
100
AcDbBlockBegin
2
*D13
70
1
10
0
20
0
3
*D13
1

0
LINE
5
1AB
100
AcDbEntity
8
0
6
CONTINUOUS
62
7
370
0
100
AcDbLine
10
19.8125
20
-30.0649935046
11
29.0166763206
21
-14.1228924755
0
LINE
5
1AC
100
AcDbEntity
8
0
6
CONTINUOUS
62
7
370
0
100
AcDbLine
10
27.3125
20
-34.3951205235
11
36.5166763206
21
-18.4530194944
0
LINE
5
1AD
100
AcDbEntity
8
0
6
CONTINUOUS
62
7
370
0
100
AcDbLine
10
28.3916763206
20
-15.2054242302
11
35.8916763206
21
-19.5355512491
0
SOLID
5
1AE
100
AcDbEntity
8
0
6
CONTINUOUS
62
7
370
0
100
AcDbTrace
10
28.3916763206
20
-15.2054242302
30
0
11
30.7648821589
21
-16.0949111414
31
0
12
30.3485975012
22
-16.815937319
32
0
13
30.3485975012
23
-16.815937319
33
0
0
SOLID
5
1AF
100
AcDbEntity
8
0
6
CONTINUOUS
62
7
370
0
100
AcDbTrace
10
35.8916763206
20
-19.5355512491
30
0
11
33.5184704822
21
-18.6460643379
31
0
12
33.93475514
22
-17.9250381603
32
0
13
33.93475514
23
-17.9250381603
33
0
0
MTEXT
5
1B0
100
AcDbEntity
8
0
6
CONTINUOUS
62
7
370
0
100
AcDbMText
10
33.79312
20
-15.056
30
0
40
2.5
41
5.83333333333
71
5
72
1
1
8.66
7
standard
210
0
220
0
230
1
50
330
73
2
44
1
0
ENDBLK
5
BA
330
B8
100
AcDbEntity
8
0
100
AcDbBlockEnd
0
BLOCK
5
BC
330
BB
100
AcDbEntity
8
0
100
AcDbBlockBegin
2
*D18
70
1
10
0
20
0
3
*D18
1

0
LINE
5
1B1
100
AcDbEntity
8
0
6
CONTINUOUS
62
7
370
0
100
AcDbLine
10
20.9925909928
20
-66.6556044316
11
14.8804311793
21
-56.0690330909
0
LINE
5
1B2
100
AcDbEntity
8
0
6
CONTINUOUS
62
7
370
0
100
AcDbLine
10
21.4925909928
20
-66.366929297
11
15.3804311793
21
-55.7803579563
0
LINE
5
1B3
100
AcDbEntity
8
0
6
CONTINUOUS
62
7
370
0
100
AcDbLine
10
11.1753041604
20
-59.6515648456
11
20.3355581982
21
-54.362889711
0
SOLID
5
1B4
100
AcDbEntity
8
0
6
CONTINUOUS
62
7
370
0
100
AcDbTrace
10
15.5054311793
20
-57.1515648456
30
0
11
13.5485099987
21
-58.7620779344
31
0
12
13.132225341
22
-58.0410517568
32
0
13
13.132225341
23
-58.0410517568
33
0
0
SOLID
5
1B5
100
AcDbEntity
8
0
6
CONTINUOUS
62
7
370
0
100
AcDbTrace
10
16.0054311793
20
-56.862889711
30
0
11
17.9623523599
21
-55.2523766221
31
0
12
18.3786370176
22
-55.9734027998
32
0
13
18.3786370176
23
-55.9734027998
33
0
0
MTEXT
5
1B6
100
AcDbEntity
8
0
6
CONTINUOUS
62
7
370
0
100
AcDbMText
10
18.1351044845
20
-53.4682587454
30
0
40
2.5
41
5.83333333333
71
5
72
1
1
0.58
7
standard
210
0
220
0
230
1
50
30.0000000004
73
2
44
1
0
ENDBLK
5
BD
330
BB
100
AcDbEntity
8
0
100
AcDbBlockEnd
0
BLOCK
5
BF
330
BE
100
AcDbEntity
8
0
100
AcDbBlockBegin
2
*D25
70
1
10
0
20
0
3
*D25
1

0
LINE
5
1B7
100
AcDbEntity
8
0
6
CONTINUOUS
62
7
370
0
100
AcDbLine
10
45.0913379295
20
-83.6875
11
54.9640352937
21
-77.9874955184
0
LINE
5
1B8
100
AcDbEntity
8
0
6
CONTINUOUS
62
7
370
0
100
AcDbLine
10
51.5412658774
20
-90.403586939
11
54.9640352942
21
-92.3797237831
0
ARC
5
1B9
100
AcDbEntity
8
0
6
CONTINUOUS
62
7
370
0
100
AcDbCircle
10
42.5000000003
20
-85.1836096512
40
13.1422282641
100
AcDbArc
50
330.000000001
51
30.0000000033
0
SOLID
5
1BA
100
AcDbEntity
8
0
6
CONTINUOUS
62
7
370
0
100
AcDbTrace
10
53.881503539
20
-78.6124955185
30
0
11
55.2988887239
21
-80.7135219709
31
0
12
54.5415869666
22
-81.0594492951
32
0
13
54.5415869666
23
-81.0594492951
33
0
0
SOLID
5
1BB
100
AcDbEntity
8
0
6
CONTINUOUS
62
7
370
0
100
AcDbTrace
10
53.8815035394
20
-91.7547237831
30
0
11
54.5415869669
21
-89.3077700065
31
0
12
55.2988887242
22
-89.6536973306
32
0
13
55.2988887242
23
-89.6536973306
33
0
0
MTEXT
5
1BC
100
AcDbEntity
8
0
6
CONTINUOUS
62
7
370
0
100
AcDbMText
10
55.0172282644
20
-85.1836096508
30
0
40
2.5
41
4.72222222222
71
8
72
1
1
60%%D
7
standard
210
0
220
0
230
1
50
90.0000000019
73
2
44
1
0
ENDBLK
5
C0
330
BE
100
AcDbEntity
8
0
100
AcDbBlockEnd
0
BLOCK
5
C2
330
C1
100
AcDbEntity
8
0
100
AcDbBlockBegin
2
*D11
70
1
10
0
20
0
3
*D11
1

0
LINE
5
1BD
100
AcDbEntity
8
0
6
CONTINUOUS
62
7
370
0
100
AcDbLine
10
22.4300909928
20
-33.0918048256
11
56.25
21
-33.0918048256
0
LINE
5
1BE
100
AcDbEntity
8
0
6
CONTINUOUS
62
7
370
0
100
AcDbLine
10
22.4300909928
20
-40
11
56.25
21
-40
0
LINE
5
1BF
100
AcDbEntity
8
0
6
CONTINUOUS
62
7
370
0
100
AcDbLine
10
55
20
-33.0918048256
11
55
21
-40
0
SOLID
5
1C0
100
AcDbEntity
8
0
6
CONTINUOUS
62
7
370
0
100
AcDbTrace
10
55
20
-33.0918048256
30
0
11
55.4162846578
21
-35.5918048256
31
0
12
54.5837153422
22
-35.5918048256
32
0
13
54.5837153422
23
-35.5918048256
33
0
0
SOLID
5
1C1
100
AcDbEntity
8
0
6
CONTINUOUS
62
7
370
0
100
AcDbTrace
10
55
20
-40
30
0
11
54.5837153422
21
-37.5
31
0
12
55.4162846578
22
-37.5
32
0
13
55.4162846578
23
-37.5
33
0
0
MTEXT
5
1C2
100
AcDbEntity
8
0
6
CONTINUOUS
62
7
370
0
100
AcDbMText
10
52.79312
20
-29.056
30
0
40
2.5
41
5.27777777778
71
5
72
1
1
6.91
7
standard
210
0
220
0
230
1
50
90
73
2
44
1
0
ENDBLK
5
C3
330
C1
100
AcDbEntity
8
0
100
AcDbBlockEnd
0
BLOCK
5
C5
330
C4
100
AcDbEntity
8
0
100
AcDbBlockBegin
2
*D6
70
1
10
0
20
0
3
*D6
1

0
LINE
5
1C3
100
AcDbEntity
8
0
6
CONTINUOUS
62
7
370
0
100
AcDbLine
10
19
20
-5
11
36
21
-5
0
SOLID
5
1C4
100
AcDbEntity
8
0
6
CONTINUOUS
62
7
370
0
100
AcDbTrace
10
19
20
-5
30
0
11
21.5
21
-4.58371534223
31
0
12
21.5
22
-5.41628465777
32
0
13
21.5
23
-5.41628465777
33
0
0
SOLID
5
1C5
100
AcDbEntity
8
0
6
CONTINUOUS
62
7
370
0
100
AcDbTrace
10
36
20
-5
30
0
11
33.5
21
-5.41628465777
31
0
12
33.5
22
-4.58371534223
32
0
13
33.5
23
-4.58371534223
33
0
0
MTEXT
5
1C6
100
AcDbEntity
8
0
6
CONTINUOUS
62
7
370
0
100
AcDbMText
10
27.5
20
-3.125
30
0
40
2.5
41
2.5
71
5
72
1
1
17
7
standard
210
0
220
0
230
1
50
0
73
2
44
1
0
LINE
5
1C7
100
AcDbEntity
8
0
6
CONTINUOUS
62
7
370
0
100
AcDbLine
10
19
20
-0.625
11
19
21
-6.25
0
LINE
5
1C8
100
AcDbEntity
8
0
6
CONTINUOUS
62
7
370
0
100
AcDbLine
10
36
20
-0.625
11
36
21
-6.25
0
ENDBLK
5
C6
330
C4
100
AcDbEntity
8
0
100
AcDbBlockEnd
0
ENDSEC
0
SECTION
2
ENTITIES
0
LINE
5
1C9
100
AcDbEntity
8
0
6
ByLayer
62
256
370
-1
100
AcDbLine
10
0
20
12
11
0
21
0
0
LINE
5
1CA
100
AcDbEntity
8
0
6
ByLayer
62
256
370
-1
100
AcDbLine
10
7.34788079488e-16
20
12
11
91
21
12
0
LINE
5
1CB
100
AcDbEntity
8
0
6
ByLayer
62
256
370
-1
100
AcDbLine
10
0
20
0
11
91
21
0
0
LINE
5
1CC
100
AcDbEntity
8
0
6
ByLayer
62
256
370
-1
100
AcDbLine
10
91
20
12
11
91
21
-2.22885717445e-14
0
LINE
5
1CD
100
AcDbEntity
8
0
6
ByLayer
62
256
370
-1
100
AcDbLine
10
90
20
11
11
90
21
-2.19211777047e-14
0
LINE
5
1CE
100
AcDbEntity
8
0
6
ByLayer
62
256
370
-1
100
AcDbLine
10
6.12323399574e-17
20
1
11
90
21
1
0
LINE
5
1CF
100
AcDbEntity
8
0
6
ByLayer
62
256
370
-1
100
AcDbLine
10
1
20
12
11
1
21
1
0
LINE
5
1D0
100
AcDbEntity
8
0
6
ByLayer
62
256
370
-1
100
AcDbLine
10
1
20
11
11
91
21
11
0
LINE
5
1D1
100
AcDbEntity
8
0
6
ByLayer
62
256
370
-1
100
AcDbLine
10
18
20
11
11
18
21
1
0
LINE
5
1D2
100
AcDbEntity
8
0
6
ByLayer
62
256
370
-1
100
AcDbLine
10
19
20
11
11
19
21
1
0
LINE
5
1D3
100
AcDbEntity
8
0
6
ByLayer
62
256
370
-1
100
AcDbLine
10
36
20
11
11
36
21
1
0
LINE
5
1D4
100
AcDbEntity
8
0
6
ByLayer
62
256
370
-1
100
AcDbLine
10
37
20
11
11
37
21
1
0
LINE
5
1D5
100
AcDbEntity
8
0
6
ByLayer
62
256
370
-1
100
AcDbLine
10
55
20
11
11
55
21
1
0
LINE
5
1D6
100
AcDbEntity
8
0
6
ByLayer
62
256
370
-1
100
AcDbLine
10
54
20
11
11
54
21
1
0
LINE
5
1D7
100
AcDbEntity
8
0
6
ByLayer
62
256
370
-1
100
AcDbLine
10
73
20
11
11
73
21
1
0
LINE
5
1D8
100
AcDbEntity
8
0
6
ByLayer
62
256
370
-1
100
AcDbLine
10
72
20
11
11
72
21
1
0
DIMENSION
5
1D9
100
AcDbEntity
8
0
6
ByLayer
62
3
370
-1
100
AcDbDimension
2
*D1
10
91
20
20
30
0
11
45.5
21
21.875
31
0
70
32
71
5
3
Standard
53
0
210
0
220
0
230
1
100
AcDbAlignedDimension
13
0
23
12
33
0
14
91
24
12
34
0
100
AcDbRotatedDimension
0
DIMENSION
5
1DA
100
AcDbEntity
8
0
6
ByLayer
62
3
370
-1
100
AcDbDimension
2
*D2
10
90
20
16
30
0
11
45.5
21
17.875
31
0
70
32
71
5
3
Standard
53
0
210
0
220
0
230
1
100
AcDbAlignedDimension
13
1
23
11
33
0
14
90
24
11
34
0
100
AcDbRotatedDimension
0
DIMENSION
5
1DB
100
AcDbEntity
8
0
6
ByLayer
62
3
370
-1
100
AcDbDimension
2
*D3
10
112
20
-2.48603300227e-14
30
0
11
110.125
21
6
31
0
70
32
71
5
3
Standard
53
0
210
0
220
0
230
1
100
AcDbAlignedDimension
13
91
23
12
33
0
14
91
24
-2.22885717445e-14
34
0
50
90
100
AcDbRotatedDimension
0
DIMENSION
5
1DC
100
AcDbEntity
8
0
6
ByLayer
62
3
370
-1
100
AcDbDimension
2
*D4
10
107
20
1
30
0
11
105.125
21
6
31
0
70
32
71
5
3
Standard
53
0
210
0
220
0
230
1
100
AcDbAlignedDimension
13
90
23
11
33
0
14
90
24
1
34
0
50
90
100
AcDbRotatedDimension
0
DIMENSION
5
1DD
100
AcDbEntity
8
0
6
ByLayer
62
3
370
-1
100
AcDbDimension
2
*D5
10
18
20
-5
30
0
11
9.5
21
-3.125
31
0
70
32
71
5
3
Standard
53
0
210
0
220
0
230
1
100
AcDbAlignedDimension
13
1
23
0
33
0
14
18
24
0
34
0
100
AcDbRotatedDimension
0
DIMENSION
5
1DE
100
AcDbEntity
8
0
6
ByLayer
62
3
370
-1
100
AcDbDimension
2
*D6
10
36
20
-5
30
0
11
27.5
21
-3.125
31
0
70
32
71
5
3
Standard
53
0
210
0
220
0
230
1
100
AcDbAlignedDimension
13
19
23
0
33
0
14
36
24
0
34
0
100
AcDbRotatedDimension
0
DIMENSION
5
1DF
100
AcDbEntity
8
0
6
ByLayer
62
3
370
-1
100
AcDbDimension
2
*D7
10
54
20
-5
30
0
11
45.5
21
-3.125
31
0
70
32
71
5
3
Standard
53
0
210
0
220
0
230
1
100
AcDbAlignedDimension
13
37
23
0
33
0
14
54
24
0
34
0
100
AcDbRotatedDimension
0
DIMENSION
5
1E0
100
AcDbEntity
8
0
6
ByLayer
62
3
370
-1
100
AcDbDimension
2
*D8
10
72
20
-5
30
0
11
63.5
21
-3.125
31
0
70
32
71
5
3
Standard
53
0
210
0
220
0
230
1
100
AcDbAlignedDimension
13
55
23
0
33
0
14
72
24
0
34
0
100
AcDbRotatedDimension
0
DIMENSION
5
1E1
100
AcDbEntity
8
0
6
ByLayer
62
3
370
-1
100
AcDbDimension
2
*D9
10
90
20
-5
30
0
11
81.5
21
-3.125
31
0
70
32
71
5
3
Standard
53
0
210
0
220
0
230
1
100
AcDbAlignedDimension
13
73
23
0
33
0
14
90
24
0
34
0
100
AcDbRotatedDimension
0
LINE
5
1E2
100
AcDbEntity
8
0
6
ByLayer
62
256
370
-1
100
AcDbLine
10
10
20
-40
11
27
21
-40
0
LINE
5
1E3
100
AcDbEntity
8
0
6
ByLayer
62
256
370
-1
100
AcDbLine
10
10
20
-30
11
27
21
-30
0
LINE
5
1E4
100
AcDbEntity
8
0
6
ByLayer
62
256
370
-1
100
AcDbLine
10
10
20
-30
11
10
21
-40
0
LINE
5
1E5
100
AcDbEntity
8
0
6
ByLayer
62
256
370
-1
100
AcDbLine
10
27
20
-40
11
27
21
-30
0
CIRCLE
5
1E6
100
AcDbEntity
8
0
6
ByLayer
62
256
370
-1
100
AcDbCircle
10
18.5
20
-35
40
3.3
0
LINE
5
1E7
100
AcDbEntity
8
0
6
ByLayer
62
256
370
-1
100
AcDbLine
10
14.1949090072
20
-30
11
14.1949090072
21
-36.3308449052
0
LINE
5
1E8
100
AcDbEntity
8
0
6
ByLayer
62
256
370
-1
100
AcDbLine
10
15.1949090072
20
-30
11
15.1949090072
21
-36.9081951744
0
LINE
5
1E9
100
AcDbEntity
8
0
6
ByLayer
62
256
370
-1
100
AcDbLine
10
10
20
-33.9089130607
11
18.5
21
-38.8163903488
0
LINE
5
1EA
100
AcDbEntity
8
0
6
ByLayer
62
256
370
-1
100
AcDbLine
10
10
20
-35.0636135991
11
17.5
21
-39.393740618
0
LINE
5
1EB
100
AcDbEntity
8
0
6
ByLayer
62
256
370
-1
100
AcDbLine
10
18.4499279478
20
-40
11
21.8050909928
21
-38.0628957128
0
LINE
5
1EC
100
AcDbEntity
8
0
6
ByLayer
62
256
370
-1
100
AcDbLine
10
16.4499279478
20
-40
11
21.8050909928
21
-36.9081951744
0
LINE
5
1ED
100
AcDbEntity
8
0
6
ByLayer
62
256
370
-1
100
AcDbLine
10
21.8050909928
20
-40
11
21.8050909928
21
-33.0918048256
0
LINE
5
1EE
100
AcDbEntity
8
0
6
ByLayer
62
256
370
-1
100
AcDbLine
10
22.8050909928
20
-40
11
22.8050909928
21
-33.6691550948
0
LINE
5
1EF
100
AcDbEntity
8
0
6
ByLayer
62
256
370
-1
100
AcDbLine
10
27
20
-34.9363864009
11
19.5
21
-30.606259382
0
LINE
5
1F0
100
AcDbEntity
8
0
6
ByLayer
62
256
370
-1
100
AcDbLine
10
27
20
-36.0910869393
11
18.5
21
-31.1836096512
0
LINE
5
1F1
100
AcDbEntity
8
0
6
ByLayer
62
256
370
-1
100
AcDbLine
10
18.5500720522
20
-30
11
15.1949090072
21
-31.9371042872
0
LINE
5
1F2
100
AcDbEntity
8
0
6
ByLayer
62
256
370
-1
100
AcDbLine
10
20.5500720522
20
-30
11
15.1949090072
21
-33.0918048256
0
DIMENSION
5
1F3
100
AcDbEntity
8
0
6
ByLayer
62
3
370
-1
100
AcDbDimension
2
*D10
10
59
20
-40
30
0
11
56.79312
21
-29.056
31
0
70
33
71
5
3
Standard
53
0
210
0
220
0
230
1
100
AcDbAlignedDimension
13
22.8050909928
23
-33.6691550948
33
0
14
22.8050909928
24
-40
34
0
0
DIMENSION
5
1F4
100
AcDbEntity
8
0
6
ByLayer
62
3
370
-1
100
AcDbDimension
2
*D11
10
55
20
-40
30
0
11
52.79312
21
-29.056
31
0
70
33
71
5
3
Standard
53
0
210
0
220
0
230
1
100
AcDbAlignedDimension
13
21.8050909928
23
-33.0918048256
33
0
14
21.8050909928
24
-40
34
0
0
DIMENSION
5
1F5
100
AcDbEntity
8
0
6
ByLayer
62
3
370
-1
100
AcDbDimension
2
*D12
10
33.8025815225
20
-24.3086701197
30
0
11
30.79312
21
-20.056
31
0
70
33
71
5
3
Standard
53
0
210
0
220
0
230
1
100
AcDbAlignedDimension
13
18.5
23
-31.1836096512
33
0
14
27
24
-36.0910869393
34
0
0
DIMENSION
5
1F6
100
AcDbEntity
8
0
6
ByLayer
62
3
370
-1
100
AcDbDimension
2
*D13
10
35.8916763206
20
-19.5355512491
30
0
11
33.79312
21
-15.056
31
0
70
33
71
5
3
Standard
53
0
210
0
220
0
230
1
100
AcDbAlignedDimension
13
19.5
23
-30.606259382
33
0
14
27
24
-34.9363864009
34
0
0
DIMENSION
5
1F7
100
AcDbEntity
8
0
6
ByLayer
62
3
370
-1
100
AcDbDimension
2
*D14
10
9.45687952019
20
-14.2501285315
30
0
11
6.8417979977
21
-13.594883043
31
0
70
33
71
5
3
Standard
53
0
210
0
220
0
230
1
100
AcDbAlignedDimension
13
15.1949090072
23
-31.9371042872
33
0
14
18.5500720522
24
-30
34
0
0
DIMENSION
5
1F8
100
AcDbEntity
8
0
6
ByLayer
62
3
370
-1
100
AcDbDimension
2
*D15
10
14.1219430296
20
-18.8661539353
30
0
11
13.79312
21
-16.056
31
0
70
33
71
5
3
Standard
53
0
210
0
220
0
230
1
100
AcDbAlignedDimension
13
15.1949090072
23
-33.0918048256
33
0
14
20.5500720522
24
-30
34
0
0
LINE
5
1F9
100
AcDbEntity
8
0
6
ByLayer
62
256
370
-1
100
AcDbLine
10
70
20
-111
11
82
21
-111
0
LINE
5
1FA
100
AcDbEntity
8
0
6
ByLayer
62
256
370
-1
100
AcDbLine
10
70
20
-111
11
70
21
-20
0
LINE
5
1FB
100
AcDbEntity
8
0
6
ByLayer
62
256
370
-1
100
AcDbLine
10
82
20
-111
11
82
21
-20
0
LINE
5
1FC
100
AcDbEntity
8
0
6
ByLayer
62
256
370
-1
100
AcDbLine
10
70
20
-20
11
82
21
-20
0
LINE
5
1FD
100
AcDbEntity
8
0
6
ByLayer
62
256
370
-1
100
AcDbLine
10
71
20
-21
11
82
21
-21
0
LINE
5
1FE
100
AcDbEntity
8
0
6
ByLayer
62
256
370
-1
100
AcDbLine
10
81
20
-111
11
81
21
-21
0
LINE
5
1FF
100
AcDbEntity
8
0
6
ByLayer
62
256
370
-1
100
AcDbLine
10
70
20
-110
11
81
21
-110
0
LINE
5
200
100
AcDbEntity
8
0
6
ByLayer
62
256
370
-1
100
AcDbLine
10
71
20
-110
11
71
21
-20
0
LINE
5
201
100
AcDbEntity
8
0
6
ByLayer
62
256
370
-1
100
AcDbLine
10
71
20
-93
11
81
21
-93
0
LINE
5
202
100
AcDbEntity
8
0
6
ByLayer
62
256
370
-1
100
AcDbLine
10
71
20
-92
11
81
21
-92
0
LINE
5
203
100
AcDbEntity
8
0
6
ByLayer
62
256
370
-1
100
AcDbLine
10
71
20
-75
11
81
21
-75
0
LINE
5
204
100
AcDbEntity
8
0
6
ByLayer
62
256
370
-1
100
AcDbLine
10
71
20
-74
11
81
21
-74
0
LINE
5
205
100
AcDbEntity
8
0
6
ByLayer
62
256
370
-1
100
AcDbLine
10
71
20
-56
11
81
21
-56
0
LINE
5
206
100
AcDbEntity
8
0
6
ByLayer
62
256
370
-1
100
AcDbLine
10
71
20
-57
11
81
21
-57
0
LINE
5
207
100
AcDbEntity
8
0
6
ByLayer
62
256
370
-1
100
AcDbLine
10
71
20
-38
11
81
21
-38
0
LINE
5
208
100
AcDbEntity
8
0
6
ByLayer
62
256
370
-1
100
AcDbLine
10
71
20
-39
11
81
21
-39
0
CIRCLE
5
209
100
AcDbEntity
8
0
6
ByLayer
62
256
370
-1
100
AcDbCircle
10
76
20
-29.5
40
3.3
0
LINE
5
20A
100
AcDbEntity
8
0
6
ByLayer
62
256
370
-1
100
AcDbLine
10
81
20
-25.1949090072
11
74.6691550948
21
-25.1949090072
0
LINE
5
20B
100
AcDbEntity
8
0
6
ByLayer
62
256
370
-1
100
AcDbLine
10
81
20
-26.1949090072
11
74.0918048256
21
-26.1949090072
0
LINE
5
20C
100
AcDbEntity
8
0
6
ByLayer
62
256
370
-1
100
AcDbLine
10
77.0910869393
20
-21
11
72.1836096512
21
-29.5
0
LINE
5
20D
100
AcDbEntity
8
0
6
ByLayer
62
256
370
-1
100
AcDbLine
10
75.9363864009
20
-21
11
71.606259382
21
-28.5
0
LINE
5
20E
100
AcDbEntity
8
0
6
ByLayer
62
256
370
-1
100
AcDbLine
10
71
20
-29.4499279478
11
72.9371042872
21
-32.8050909928
0
LINE
5
20F
100
AcDbEntity
8
0
6
ByLayer
62
256
370
-1
100
AcDbLine
10
71
20
-27.4499279478
11
74.0918048256
21
-32.8050909928
0
LINE
5
210
100
AcDbEntity
8
0
6
ByLayer
62
256
370
-1
100
AcDbLine
10
71
20
-32.8050909928
11
77.9081951744
21
-32.8050909928
0
LINE
5
211
100
AcDbEntity
8
0
6
ByLayer
62
256
370
-1
100
AcDbLine
10
71
20
-33.8050909928
11
77.3308449052
21
-33.8050909928
0
LINE
5
212
100
AcDbEntity
8
0
6
ByLayer
62
256
370
-1
100
AcDbLine
10
76.0636135991
20
-38
11
80.393740618
21
-30.5
0
LINE
5
213
100
AcDbEntity
8
0
6
ByLayer
62
256
370
-1
100
AcDbLine
10
74.9089130607
20
-38
11
79.8163903488
21
-29.5
0
LINE
5
214
100
AcDbEntity
8
0
6
ByLayer
62
256
370
-1
100
AcDbLine
10
81
20
-29.5500720522
11
79.0628957128
21
-26.1949090072
0
LINE
5
215
100
AcDbEntity
8
0
6
ByLayer
62
256
370
-1
100
AcDbLine
10
81
20
-31.5500720522
11
77.9081951744
21
-26.1949090072
0
LINE
5
216
100
AcDbEntity
8
0
6
ByLayer
62
256
370
-1
100
AcDbLine
10
81
20
-38
11
81
21
-31.5500720522
0
LINE
5
217
100
AcDbEntity
8
0
6
ByLayer
62
256
370
-1
100
AcDbLine
10
76.0636135991
20
-38
11
81
21
-38
0
CIRCLE
5
218
100
AcDbEntity
8
0
6
ByLayer
62
256
370
-1
100
AcDbCircle
10
76
20
-101.5
40
3.3
0
LINE
5
219
100
AcDbEntity
8
0
6
ByLayer
62
256
370
-1
100
AcDbLine
10
81
20
-97.1949090072
11
74.6691550948
21
-97.1949090072
0
LINE
5
21A
100
AcDbEntity
8
0
6
ByLayer
62
256
370
-1
100
AcDbLine
10
81
20
-98.1949090072
11
74.0918048256
21
-98.1949090072
0
LINE
5
21B
100
AcDbEntity
8
0
6
ByLayer
62
256
370
-1
100
AcDbLine
10
77.0910869393
20
-93
11
72.1836096512
21
-101.5
0
LINE
5
21C
100
AcDbEntity
8
0
6
ByLayer
62
256
370
-1
100
AcDbLine
10
75.9363864009
20
-93
11
71.606259382
21
-100.5
0
LINE
5
21D
100
AcDbEntity
8
0
6
ByLayer
62
256
370
-1
100
AcDbLine
10
71
20
-101.449927948
11
72.9371042872
21
-104.805090993
0
LINE
5
21E
100
AcDbEntity
8
0
6
ByLayer
62
256
370
-1
100
AcDbLine
10
71
20
-99.4499279478
11
74.0918048256
21
-104.805090993
0
LINE
5
21F
100
AcDbEntity
8
0
6
ByLayer
62
256
370
-1
100
AcDbLine
10
71
20
-104.805090993
11
77.9081951744
21
-104.805090993
0
LINE
5
220
100
AcDbEntity
8
0
6
ByLayer
62
256
370
-1
100
AcDbLine
10
71
20
-105.805090993
11
77.3308449052
21
-105.805090993
0
LINE
5
221
100
AcDbEntity
8
0
6
ByLayer
62
256
370
-1
100
AcDbLine
10
76.0636135991
20
-110
11
80.393740618
21
-102.5
0
LINE
5
222
100
AcDbEntity
8
0
6
ByLayer
62
256
370
-1
100
AcDbLine
10
74.9089130607
20
-110
11
79.8163903488
21
-101.5
0
LINE
5
223
100
AcDbEntity
8
0
6
ByLayer
62
256
370
-1
100
AcDbLine
10
81
20
-101.550072052
11
79.0628957128
21
-98.1949090072
0
LINE
5
224
100
AcDbEntity
8
0
6
ByLayer
62
256
370
-1
100
AcDbLine
10
81
20
-103.550072052
11
77.9081951744
21
-98.1949090072
0
LINE
5
225
100
AcDbEntity
8
0
6
ByLayer
62
256
370
-1
100
AcDbLine
10
81
20
-110
11
81
21
-103.550072052
0
LINE
5
226
100
AcDbEntity
8
0
6
ByLayer
62
256
370
-1
100
AcDbLine
10
76.0636135991
20
-110
11
81
21
-110
0
CIRCLE
5
227
100
AcDbEntity
8
0
6
ByLayer
62
256
370
-1
100
AcDbCircle
10
76
20
-65.5
40
3.3
0
LINE
5
228
100
AcDbEntity
8
0
6
ByLayer
62
256
370
-1
100
AcDbLine
10
71
20
-61.1949090072
11
77.3308449052
21
-61.1949090072
0
LINE
5
229
100
AcDbEntity
8
0
6
ByLayer
62
256
370
-1
100
AcDbLine
10
71
20
-62.1949090072
11
77.9081951744
21
-62.1949090072
0
LINE
5
22A
100
AcDbEntity
8
0
6
ByLayer
62
256
370
-1
100
AcDbLine
10
74.9089130607
20
-57
11
79.8163903488
21
-65.5
0
LINE
5
22B
100
AcDbEntity
8
0
6
ByLayer
62
256
370
-1
100
AcDbLine
10
76.0636135991
20
-57
11
80.393740618
21
-64.5
0
LINE
5
22C
100
AcDbEntity
8
0
6
ByLayer
62
256
370
-1
100
AcDbLine
10
81
20
-65.4499279478
11
79.0628957128
21
-68.8050909928
0
LINE
5
22D
100
AcDbEntity
8
0
6
ByLayer
62
256
370
-1
100
AcDbLine
10
81
20
-63.4499279478
11
77.9081951744
21
-68.8050909928
0
LINE
5
22E
100
AcDbEntity
8
0
6
ByLayer
62
256
370
-1
100
AcDbLine
10
81
20
-68.8050909928
11
74.0918048256
21
-68.8050909928
0
LINE
5
22F
100
AcDbEntity
8
0
6
ByLayer
62
256
370
-1
100
AcDbLine
10
81
20
-69.8050909928
11
74.6691550948
21
-69.8050909928
0
LINE
5
230
100
AcDbEntity
8
0
6
ByLayer
62
256
370
-1
100
AcDbLine
10
75.9363864009
20
-74
11
71.606259382
21
-66.5
0
LINE
5
231
100
AcDbEntity
8
0
6
ByLayer
62
256
370
-1
100
AcDbLine
10
77.0910869393
20
-74
11
72.1836096512
21
-65.5
0
LINE
5
232
100
AcDbEntity
8
0
6
ByLayer
62
256
370
-1
100
AcDbLine
10
71
20
-65.5500720522
11
72.9371042872
21
-62.1949090072
0
LINE
5
233
100
AcDbEntity
8
0
6
ByLayer
62
256
370
-1
100
AcDbLine
10
71
20
-67.5500720522
11
74.0918048256
21
-62.1949090072
0
LINE
5
234
100
AcDbEntity
8
0
6
ByLayer
62
256
370
-1
100
AcDbLine
10
71
20
-74
11
71
21
-67.5500720522
0
LINE
5
235
100
AcDbEntity
8
0
6
ByLayer
62
256
370
-1
100
AcDbLine
10
75.9363864009
20
-74
11
71
21
-74
0
LINE
5
236
100
AcDbEntity
8
0
6
ByLayer
62
256
370
-1
100
AcDbLine
10
10
20
-70
11
27
21
-70
0
LINE
5
237
100
AcDbEntity
8
0
6
ByLayer
62
256
370
-1
100
AcDbLine
10
10
20
-60
11
27
21
-60
0
LINE
5
238
100
AcDbEntity
8
0
6
ByLayer
62
256
370
-1
100
AcDbLine
10
10
20
-60
11
10
21
-70
0
LINE
5
239
100
AcDbEntity
8
0
6
ByLayer
62
256
370
-1
100
AcDbLine
10
27
20
-70
11
27
21
-60
0
CIRCLE
5
23A
100
AcDbEntity
8
0
6
ByLayer
62
256
370
-1
100
AcDbCircle
10
18.5
20
-65
40
3.3
0
LINE
5
23B
100
AcDbEntity
8
0
6
ByLayer
62
256
370
-1
100
AcDbLine
10
14.1949090072
20
-60
11
14.1949090072
21
-66.3308449052
0
LINE
5
23C
100
AcDbEntity
8
0
6
ByLayer
62
256
370
-1
100
AcDbLine
10
15.1949090072
20
-60
11
15.1949090072
21
-66.9081951744
0
LINE
5
23D
100
AcDbEntity
8
0
6
ByLayer
62
256
370
-1
100
AcDbLine
10
10
20
-63.9089130607
11
18.5
21
-68.8163903488
0
LINE
5
23E
100
AcDbEntity
8
0
6
ByLayer
62
256
370
-1
100
AcDbLine
10
10
20
-65.0636135991
11
17.5
21
-69.393740618
0
LINE
5
23F
100
AcDbEntity
8
0
6
ByLayer
62
256
370
-1
100
AcDbLine
10
18.4499279478
20
-70
11
21.8050909928
21
-68.0628957128
0
LINE
5
240
100
AcDbEntity
8
0
6
ByLayer
62
256
370
-1
100
AcDbLine
10
16.4499279478
20
-70
11
21.8050909928
21
-66.9081951744
0
LINE
5
241
100
AcDbEntity
8
0
6
ByLayer
62
256
370
-1
100
AcDbLine
10
21.8050909928
20
-70
11
21.8050909928
21
-63.0918048256
0
LINE
5
242
100
AcDbEntity
8
0
6
ByLayer
62
256
370
-1
100
AcDbLine
10
22.8050909928
20
-70
11
22.8050909928
21
-63.6691550948
0
LINE
5
243
100
AcDbEntity
8
0
6
ByLayer
62
256
370
-1
100
AcDbLine
10
27
20
-64.9363864009
11
19.5
21
-60.606259382
0
LINE
5
244
100
AcDbEntity
8
0
6
ByLayer
62
256
370
-1
100
AcDbLine
10
27
20
-66.0910869393
11
18.5
21
-61.1836096512
0
LINE
5
245
100
AcDbEntity
8
0
6
ByLayer
62
256
370
-1
100
AcDbLine
10
18.5500720522
20
-60
11
15.1949090072
21
-61.9371042872
0
LINE
5
246
100
AcDbEntity
8
0
6
ByLayer
62
256
370
-1
100
AcDbLine
10
20.5500720522
20
-60
11
15.1949090072
21
-63.0918048256
0
LINE
5
247
100
AcDbEntity
8
0
6
ByLayer
62
3
370
-1
100
AcDbLine
10
21.8050909928
20
-68.0628957128
11
21.3050909928
21
-67.196870309
0
LINE
5
248
100
AcDbEntity
8
0
6
ByLayer
62
3
370
-1
100
AcDbLine
10
18.4874819869
20
-69.9783181654
11
17.9874819869
21
-69.1122927616
0
LINE
5
249
100
AcDbEntity
8
0
6
ByLayer
62
3
370
-1
100
AcDbLine
10
22.8050909928
20
-63.6691550948
11
21.8050909928
21
-63.6691550948
0
LINE
5
24A
100
AcDbEntity
8
0
6
ByLayer
62
3
370
-1
100
AcDbLine
10
27
20
-64.9363864009
11
26.5
21
-65.8024118047
0
LINE
5
24B
100
AcDbEntity
8
0
6
ByLayer
62
3
370
-1
100
AcDbLine
10
19.5
20
-60.606259382
11
19
21
-61.4722847858
0
DIMENSION
5
24C
100
AcDbEntity
8
0
6
ByLayer
62
3
370
-1
100
AcDbDimension
2
*D16
10
15.1381623599
20
-86.6363924027
30
0
11
15.8256623601
21
-84.8682572034
31
0
70
33
71
5
3
Standard
53
0
210
0
220
0
230
1
100
AcDbAlignedDimension
13
26.5
23
-65.8024118047
33
0
14
27
24
-66.0910869393
34
0
0
DIMENSION
5
24D
100
AcDbEntity
8
0
6
ByLayer
62
3
370
-1
100
AcDbDimension
2
*D17
10
3.57117506174
20
-87.0410929411
30
0
11
4.758675062
21
-85.5616328764
31
0
70
33
71
5
3
Standard
53
0
210
0
220
0
230
1
100
AcDbAlignedDimension
13
19
23
-61.4722847858
33
0
14
18.5
24
-61.1836096512
34
0
0
DIMENSION
5
24E
100
AcDbEntity
8
0
6
ByLayer
62
3
370
-1
100
AcDbDimension
2
*D18
10
16.0054311793
20
-56.862889711
30
0
11
14.8179311794
21
-55.3834296461
31
0
70
33
71
5
3
Standard
53
0
210
0
220
0
230
1
100
AcDbAlignedDimension
13
21.3050909928
23
-67.196870309
33
0
14
21.8050909928
24
-66.9081951744
34
0
0
DIMENSION
5
24F
100
AcDbEntity
8
0
6
ByLayer
62
3
370
-1
100
AcDbDimension
2
*D19
10
8.15026813413
20
-55.6245675177
30
0
11
7.9815451539
21
-53.5569162663
31
0
70
33
71
5
3
Standard
53
0
210
0
220
0
230
1
100
AcDbAlignedDimension
13
17.9874819869
23
-69.1122927616
33
0
14
16.4499279478
24
-70
34
0
0
DIMENSION
5
250
100
AcDbEntity
8
0
6
ByLayer
62
3
370
-1
100
AcDbDimension
2
*D20
10
46.79312
20
-63.0918048256
30
0
11
44.91812
21
-63.3804799602
31
0
70
33
71
5
3
Standard
53
0
210
0
220
0
230
1
100
AcDbAlignedDimension
13
21.8050909928
23
-63.6691550948
33
0
14
21.8050909928
24
-63.0918048256
34
0
0
LINE
5
251
100
AcDbEntity
8
0
6
ByLayer
62
256
370
-1
100
AcDbLine
10
34
20
-94
11
51
21
-94
0
LINE
5
252
100
AcDbEntity
8
0
6
ByLayer
62
256
370
-1
100
AcDbLine
10
34
20
-84
11
51
21
-84
0
LINE
5
253
100
AcDbEntity
8
0
6
ByLayer
62
256
370
-1
100
AcDbLine
10
34
20
-84
11
34
21
-94
0
LINE
5
254
100
AcDbEntity
8
0
6
ByLayer
62
256
370
-1
100
AcDbLine
10
51
20
-94
11
51
21
-84
0
CIRCLE
5
255
100
AcDbEntity
8
0
6
ByLayer
62
256
370
-1
100
AcDbCircle
10
42.5
20
-89
40
3.3
0
LINE
5
256
100
AcDbEntity
8
0
6
ByLayer
62
256
370
-1
100
AcDbLine
10
38.1949090072
20
-84
11
38.1949090072
21
-90.330844905
0
LINE
5
257
100
AcDbEntity
8
0
6
ByLayer
62
256
370
-1
100
AcDbLine
10
39.1949090072
20
-84
11
39.1949090072
21
-90.908195174
0
LINE
5
258
100
AcDbEntity
8
0
6
ByLayer
62
256
370
-1
100
AcDbLine
10
34
20
-87.908913061
11
42.5
21
-92.816390349
0
LINE
5
259
100
AcDbEntity
8
0
6
ByLayer
62
256
370
-1
100
AcDbLine
10
34
20
-89.063613599
11
41.5
21
-93.393740618
0
LINE
5
25A
100
AcDbEntity
8
0
6
ByLayer
62
256
370
-1
100
AcDbLine
10
42.4499279478
20
-94
11
45.8050909928
21
-92.062895713
0
LINE
5
25B
100
AcDbEntity
8
0
6
ByLayer
62
256
370
-1
100
AcDbLine
10
40.4499279478
20
-94
11
45.8050909928
21
-90.908195174
0
LINE
5
25C
100
AcDbEntity
8
0
6
ByLayer
62
256
370
-1
100
AcDbLine
10
45.8050909928
20
-94
11
45.8050909928
21
-87.091804826
0
LINE
5
25D
100
AcDbEntity
8
0
6
ByLayer
62
256
370
-1
100
AcDbLine
10
46.8050909928
20
-94
11
46.8050909928
21
-87.669155095
0
LINE
5
25E
100
AcDbEntity
8
0
6
ByLayer
62
256
370
-1
100
AcDbLine
10
51
20
-88.936386401
11
43.5
21
-84.606259382
0
LINE
5
25F
100
AcDbEntity
8
0
6
ByLayer
62
256
370
-1
100
AcDbLine
10
51
20
-90.091086939
11
42.5
21
-85.183609651
0
LINE
5
260
100
AcDbEntity
8
0
6
ByLayer
62
256
370
-1
100
AcDbLine
10
42.5500720522
20
-84
11
39.1949090072
21
-85.937104287
0
LINE
5
261
100
AcDbEntity
8
0
6
ByLayer
62
256
370
-1
100
AcDbLine
10
44.5500720522
20
-84
11
39.1949090072
21
-87.091804826
0
LINE
5
262
100
AcDbEntity
8
0
6
ByLayer
62
3
370
-1
100
AcDbLine
10
45.8050909928
20
-92.062895713
11
45.3050909928
21
-91.196870309
0
LINE
5
263
100
AcDbEntity
8
0
6
ByLayer
62
3
370
-1
100
AcDbLine
10
42.4874819869
20
-93.978318165
11
41.9874819869
21
-93.112292762
0
LINE
5
264
100
AcDbEntity
8
0
6
ByLayer
62
3
370
-1
100
AcDbLine
10
46.8050909928
20
-87.669155095
11
45.8050909928
21
-87.669155095
0
LINE
5
265
100
AcDbEntity
8
0
6
ByLayer
62
3
370
-1
100
AcDbLine
10
51
20
-88.936386401
11
50.5
21
-89.802411805
0
LINE
5
266
100
AcDbEntity
8
0
6
ByLayer
62
3
370
-1
100
AcDbLine
10
43.5
20
-84.606259382
11
43
21
-85.472284786
0
DIMENSION
5
267
100
AcDbEntity
8
0
6
ByLayer
62
3
370
-1
100
AcDbDimension
2
*D21
10
51
20
-90.091086939
30
0
11
11.652
21
26.584
31
0
70
34
71
5
72
0
3
Standard
53
0
210
0
220
0
230
1
100
AcDb2LineAngularDimension
13
45.8050909928
23
-87.091804826
33
0
14
45.8050909928
24
-94
34
0
15
42.5
25
-85.183609651
35
0
16
52.79812224
26
-99.24512
36
0
0
DIMENSION
5
268
100
AcDbEntity
8
0
6
ByLayer
62
3
370
-1
100
AcDbDimension
2
*D22
10
40.4499279478
20
-94
30
0
11
11.652
21
26.584
31
0
70
34
71
5
72
0
3
Standard
53
0
210
0
220
0
230
1
100
AcDb2LineAngularDimension
13
45.8050909928
23
-94
33
0
14
45.8050909928
24
-87.091804826
34
0
15
45.8050909928
25
-90.908195174
35
0
16
37.421803776
26
-99.74843648
36
0
0
DIMENSION
5
269
100
AcDbEntity
8
0
6
ByLayer
62
3
370
-1
100
AcDbDimension
2
*D23
10
45.8050909928
20
-90.908195174
30
0
11
11.652
21
26.584
31
0
70
34
71
5
72
0
3
Standard
53
0
210
0
220
0
230
1
100
AcDb2LineAngularDimension
13
34
23
-94
33
0
14
51
24
-94
34
0
15
40.4499279478
25
-94
35
0
16
60.909906176
26
-90.621630976
36
0
0
DIMENSION
5
26A
100
AcDbEntity
8
0
6
ByLayer
62
3
370
-1
100
AcDbDimension
2
*D24
10
42.5
20
-85.183609651
30
0
11
11.652
21
26.584
31
0
70
34
71
5
72
0
3
Standard
53
0
210
0
220
0
230
1
100
AcDb2LineAngularDimension
13
51
23
-94
33
0
14
51
24
-84
34
0
15
51
25
-90.091086939
35
0
16
41.5234975437
26
-77.891079475
36
0
0
DIMENSION
5
26B
100
AcDbEntity
8
0
6
ByLayer
62
3
370
-1
100
AcDbDimension
2
*D25
10
51
20
-90.091086939
30
0
11
11.652
21
26.584
31
0
70
34
71
5
72
0
3
Standard
53
0
210
0
220
0
230
1
100
AcDb2LineAngularDimension
13
44.5500720522
23
-84
33
0
14
39.1949090072
24
-87.091804826
34
0
15
42.5
25
-85.183609651
35
0
16
55.632465111
26
-84.677127803
36
0
0
LINE
5
26C
100
AcDbEntity
8
0
6
ByLayer
62
256
370
-1
100
AcDbLine
10
10
20
-120
11
27
21
-120
0
LINE
5
26D
100
AcDbEntity
8
0
6
ByLayer
62
256
370
-1
100
AcDbLine
10
10
20
-110
11
27
21
-110
0
LINE
5
26E
100
AcDbEntity
8
0
6
ByLayer
62
256
370
-1
100
AcDbLine
10
10
20
-110
11
10
21
-120
0
LINE
5
26F
100
AcDbEntity
8
0
6
ByLayer
62
256
370
-1
100
AcDbLine
10
27
20
-120
11
27
21
-110
0
CIRCLE
5
270
100
AcDbEntity
8
0
6
ByLayer
62
256
370
-1
100
AcDbCircle
10
18.5
20
-115
40
3.3
0
LINE
5
271
100
AcDbEntity
8
0
6
ByLayer
62
256
370
-1
100
AcDbLine
10
14.1949090072
20
-110
11
14.1949090072
21
-116.330844905
0
LINE
5
272
100
AcDbEntity
8
0
6
ByLayer
62
256
370
-1
100
AcDbLine
10
15.1949090072
20
-110
11
15.1949090072
21
-116.908195174
0
LINE
5
273
100
AcDbEntity
8
0
6
ByLayer
62
256
370
-1
100
AcDbLine
10
10
20
-113.908913061
11
18.5
21
-118.816390349
0
LINE
5
274
100
AcDbEntity
8
0
6
ByLayer
62
256
370
-1
100
AcDbLine
10
10
20
-115.063613599
11
17.5
21
-119.393740618
0
LINE
5
275
100
AcDbEntity
8
0
6
ByLayer
62
256
370
-1
100
AcDbLine
10
18.4499279478
20
-120
11
21.8050909928
21
-118.062895713
0
LINE
5
276
100
AcDbEntity
8
0
6
ByLayer
62
256
370
-1
100
AcDbLine
10
16.4499279478
20
-120
11
21.8050909928
21
-116.908195174
0
LINE
5
277
100
AcDbEntity
8
0
6
ByLayer
62
256
370
-1
100
AcDbLine
10
21.8050909928
20
-120
11
21.8050909928
21
-113.091804826
0
LINE
5
278
100
AcDbEntity
8
0
6
ByLayer
62
256
370
-1
100
AcDbLine
10
22.8050909928
20
-120
11
22.8050909928
21
-113.669155095
0
LINE
5
279
100
AcDbEntity
8
0
6
ByLayer
62
256
370
-1
100
AcDbLine
10
27
20
-114.936386401
11
19.5
21
-110.606259382
0
LINE
5
27A
100
AcDbEntity
8
0
6
ByLayer
62
256
370
-1
100
AcDbLine
10
27
20
-116.091086939
11
18.5
21
-111.183609651
0
LINE
5
27B
100
AcDbEntity
8
0
6
ByLayer
62
256
370
-1
100
AcDbLine
10
18.5500720522
20
-110
11
15.1949090072
21
-111.937104287
0
LINE
5
27C
100
AcDbEntity
8
0
6
ByLayer
62
256
370
-1
100
AcDbLine
10
20.5500720522
20
-110
11
15.1949090072
21
-113.091804826
0
LINE
5
27D
100
AcDbEntity
8
0
6
ByLayer
62
3
370
-1
100
AcDbLine
10
21.8050909928
20
-118.062895713
11
21.3050909928
21
-117.196870309
0
LINE
5
27E
100
AcDbEntity
8
0
6
ByLayer
62
3
370
-1
100
AcDbLine
10
18.4874819869
20
-119.978318165
11
17.9874819869
21
-119.112292762
0
LINE
5
27F
100
AcDbEntity
8
0
6
ByLayer
62
3
370
-1
100
AcDbLine
10
22.8050909928
20
-113.669155095
11
21.8050909928
21
-113.669155095
0
LINE
5
280
100
AcDbEntity
8
0
6
ByLayer
62
3
370
-1
100
AcDbLine
10
27
20
-114.936386401
11
26.5
21
-115.802411805
0
LINE
5
281
100
AcDbEntity
8
0
6
ByLayer
62
3
370
-1
100
AcDbLine
10
19.5
20
-110.606259382
11
19
21
-111.472284786
0
DIMENSION
5
282
100
AcDbEntity
8
0
6
ByLayer
62
3
370
-1
100
AcDbDimension
2
*D26
10
27
20
-104.93141975
30
0
11
23.7750360261
21
-103.05641975
31
0
70
32
71
5
3
Standard
53
0
210
0
220
0
230
1
100
AcDbAlignedDimension
13
20.5500720522
23
-110
33
0
14
27
24
-110
34
0
100
AcDbRotatedDimension
0
DIMENSION
5
283
100
AcDbEntity
8
0
6
ByLayer
62
3
370
-1
100
AcDbDimension
2
*D27
10
18.5500720522
20
-99.90832128
30
0
11
16.8724905297
21
-98.03332128
31
0
70
32
71
5
3
Standard
53
0
210
0
220
0
230
1
100
AcDbAlignedDimension
13
15.1949090072
23
-110
33
0
14
18.5500720522
24
-110
34
0
100
AcDbRotatedDimension
0
DIMENSION
5
284
100
AcDbEntity
8
0
6
ByLayer
62
3
370
-1
100
AcDbDimension
2
*D28
10
33.554432
20
-114.936386401
30
0
11
31.679432
21
-112.4681932
31
0
70
32
71
5
3
Standard
53
0
210
0
220
0
230
1
100
AcDbAlignedDimension
13
27
23
-110
33
0
14
27
24
-114.936386401
34
0
50
90
100
AcDbRotatedDimension
0
DIMENSION
5
285
100
AcDbEntity
8
0
6
ByLayer
62
3
370
-1
100
AcDbDimension
2
*D29
10
39.2167424
20
-120
30
0
11
37.3417424
21
-118.045543469
31
0
70
32
71
5
3
Standard
53
0
210
0
220
0
230
1
100
AcDbAlignedDimension
13
27
23
-116.091086939
33
0
14
27
24
-120
34
0
50
90
100
AcDbRotatedDimension
0
DIMENSION
5
286
100
AcDbEntity
8
0
6
ByLayer
62
3
370
-1
100
AcDbDimension
2
*D30
10
14.1949090072
20
-104.93141975
30
0
11
6.45922816
21
-102.50878976
31
0
70
32
71
5
3
Standard
53
0
210
0
220
0
230
1
100
AcDbAlignedDimension
13
10
23
-110
33
0
14
14.1949090072
24
-110
34
0
100
AcDbRotatedDimension
0
LINE
5
287
100
AcDbEntity
8
0
6
ByLayer
62
256
370
-1
100
AcDbLine
10
106.447857899
20
-28.2486522544
11
106.447857899
21
-29.2486522544
0
LINE
5
288
100
AcDbEntity
8
0
6
ByLayer
62
256
370
-1
100
AcDbLine
10
151.702691895
20
-28.2486522544
11
151.702691895
21
-29.2486522544
0
LINE
5
289
100
AcDbEntity
8
0
6
ByLayer
62
256
370
-1
100
AcDbLine
10
106.447857899
20
-29.2486522544
11
151.702691895
21
-29.2486522544
0
LINE
5
28A
100
AcDbEntity
8
0
6
ByLayer
62
256
370
-1
100
AcDbLine
10
106.447857899
20
-28.2486522544
11
151.702691895
21
-28.2486522544
0
LINE
5
28B
100
AcDbEntity
8
0
6
ByLayer
62
256
370
-1
100
AcDbLine
10
106.447857899
20
-29.2486522544
11
110.655567475
21
-33.4563618302
0
LINE
5
28C
100
AcDbEntity
8
0
6
ByLayer
62
256
370
-1
100
AcDbLine
10
113.518925711
20
-33.4912929415
11
117.761566398
21
-29.2486522544
0
LINE
5
28D
100
AcDbEntity
8
0
6
ByLayer
62
256
370
-1
100
AcDbLine
10
107.862071461
20
-29.2486522544
11
112.104712148
21
-33.4912929415
0
LINE
5
28E
100
AcDbEntity
8
0
6
ByLayer
62
256
370
-1
100
AcDbLine
10
112.104712148
20
-33.4912929415
11
116.347352836
21
-29.2486522544
0
LINE
5
28F
100
AcDbEntity
8
0
6
ByLayer
62
256
370
-1
100
AcDbLine
10
124.83263421
20
-33.4912929415
11
129.075274897
21
-29.2486522544
0
LINE
5
290
100
AcDbEntity
8
0
6
ByLayer
62
256
370
-1
100
AcDbLine
10
123.418420647
20
-33.4912929415
11
127.661061335
21
-29.2486522544
0
LINE
5
291
100
AcDbEntity
8
0
6
ByLayer
62
256
370
-1
100
AcDbLine
10
119.17577996
20
-29.2486522544
11
123.418420647
21
-33.4912929415
0
LINE
5
292
100
AcDbEntity
8
0
6
ByLayer
62
256
370
-1
100
AcDbLine
10
117.761566398
20
-29.2486522544
11
122.004207085
21
-33.4912929415
0
LINE
5
293
100
AcDbEntity
8
0
6
ByLayer
62
256
370
-1
100
AcDbLine
10
136.146342709
20
-33.4912929415
11
140.388983396
21
-29.2486522544
0
LINE
5
294
100
AcDbEntity
8
0
6
ByLayer
62
256
370
-1
100
AcDbLine
10
134.732129146
20
-33.4912929415
11
138.974769834
21
-29.2486522544
0
LINE
5
295
100
AcDbEntity
8
0
6
ByLayer
62
256
370
-1
100
AcDbLine
10
130.489488459
20
-29.2486522544
11
134.732129146
21
-33.4912929415
0
LINE
5
296
100
AcDbEntity
8
0
6
ByLayer
62
256
370
-1
100
AcDbLine
10
129.075274897
20
-29.2486522544
11
133.317915584
21
-33.4912929415
0
LINE
5
297
100
AcDbEntity
8
0
6
ByLayer
62
256
370
-1
100
AcDbLine
10
140.388983396
20
-29.2486522544
11
144.631624083
21
-33.4912929415
0
LINE
5
298
100
AcDbEntity
8
0
6
ByLayer
62
256
370
-1
100
AcDbLine
10
141.803196958
20
-29.2486522544
11
146.045837645
21
-33.4912929415
0
LINE
5
299
100
AcDbEntity
8
0
6
ByLayer
62
256
370
-1
100
AcDbLine
10
146.045837645
20
-33.4912929415
11
150.288478333
21
-29.2486522544
0
LINE
5
29A
100
AcDbEntity
8
0
6
ByLayer
62
256
370
-1
100
AcDbLine
10
147.460051208
20
-33.4912929415
11
151.702691895
21
-29.2486522544
0
LINE
5
29B
100
AcDbEntity
8
0
6
ByLayer
62
256
370
-1
100
AcDbLine
10
147.460051208
20
-33.4912929415
11
147.460051208
21
-34.4912929415
0
LINE
5
29C
100
AcDbEntity
8
0
6
ByLayer
62
256
370
-1
100
AcDbLine
10
110.655567475
20
-34.4912929415
11
147.460051208
21
-34.4912929415
0
LINE
5
29D
100
AcDbEntity
8
0
6
ByLayer
62
256
370
-1
100
AcDbLine
10
110.655567475
20
-33.4912929415
11
147.460051208
21
-33.4912929415
0
LINE
5
29E
100
AcDbEntity
8
0
6
ByLayer
62
256
370
-1
100
AcDbLine
10
110.655567475
20
-33.4563618302
11
110.655567475
21
-34.4912929415
0
LINE
5
29F
100
AcDbEntity
8
0
6
ByLayer
62
256
370
-1
100
AcDbLine
10
109.371956415
20
-29.25
11
110.671956415
21
-29.25
0
LINE
5
2A0
100
AcDbEntity
8
0
6
ByLayer
62
256
370
-1
100
AcDbLine
10
110.671956415
20
-29.25
11
110.671956415
21
-30.75
0
LINE
5
2A1
100
AcDbEntity
8
0
6
ByLayer
62
256
370
-1
100
AcDbLine
10
109.371956415
20
-30.75
11
110.671956415
21
-30.75
0
LINE
5
2A2
100
AcDbEntity
8
0
6
ByLayer
62
256
370
-1
100
AcDbLine
10
109.371956415
20
-29.25
11
109.371956415
21
-30.75
0
LINE
5
2A3
100
AcDbEntity
8
0
6
ByLayer
62
256
370
-1
100
AcDbLine
10
109.021956415
20
-30
11
111.021956415
21
-30
0
ARC
5
2A4
100
AcDbEntity
8
0
6
ByLayer
62
256
370
-1
100
AcDbCircle
10
110
20
-30
40
0.978043585113
100
AcDbArc
50
129.951784233
51
230.048215767
0
ARC
5
2A5
100
AcDbEntity
8
0
6
ByLayer
62
256
370
-1
100
AcDbCircle
10
110.043384987
20
-30
40
0.978571428571
100
AcDbArc
50
309.966213044
51
50.0337869562
0
LINE
5
2A6
100
AcDbEntity
8
0
6
ByLayer
62
256
370
-1
100
AcDbLine
10
147.462155332
20
-29.2600897026
11
148.762155332
21
-29.2600897026
0
LINE
5
2A7
100
AcDbEntity
8
0
6
ByLayer
62
256
370
-1
100
AcDbLine
10
148.762155332
20
-29.2600897026
11
148.762155332
21
-30.7600897026
0
LINE
5
2A8
100
AcDbEntity
8
0
6
ByLayer
62
256
370
-1
100
AcDbLine
10
147.462155332
20
-30.7600897026
11
148.762155332
21
-30.7600897026
0
LINE
5
2A9
100
AcDbEntity
8
0
6
ByLayer
62
256
370
-1
100
AcDbLine
10
147.462155332
20
-29.2600897026
11
147.462155332
21
-30.7600897026
0
LINE
5
2AA
100
AcDbEntity
8
0
6
ByLayer
62
256
370
-1
100
AcDbLine
10
147.112155332
20
-30.0100897026
11
149.112155332
21
-30.0100897026
0
ARC
5
2AB
100
AcDbEntity
8
0
6
ByLayer
62
256
370
-1
100
AcDbCircle
10
148.090198917
20
-30.0100897026
40
0.978043585113
100
AcDbArc
50
129.951784233
51
230.048215767
0
ARC
5
2AC
100
AcDbEntity
8
0
6
ByLayer
62
256
370
-1
100
AcDbCircle
10
148.133583903
20
-30.0100897026
40
0.978571428571
100
AcDbArc
50
309.966213044
51
50.0337869562
0
LINE
5
2AD
100
AcDbEntity
8
0
6
ByLayer
62
256
370
-1
100
AcDbLine
10
109.371956415
20
-30.7497536326
11
110.671956415
21
-29.25
0
LINE
5
2AE
100
AcDbEntity
8
0
6
ByLayer
62
256
370
-1
100
AcDbLine
10
147.462155332
20
-30.7598433352
11
148.762155332
21
-29.2600897026
0
LINE
5
2AF
100
AcDbEntity
8
0
6
ByLayer
62
256
370
-1
100
AcDbLine
10
122.93035808
20
-23.6656470102
11
135.072493704
21
-23.6656470102
0
LINE
5
2B0
100
AcDbEntity
8
0
6
ByLayer
62
256
370
-1
100
AcDbLine
10
122.93035808
20
-22.6656470102
11
135.072493704
21
-22.6656470102
0
LINE
5
2B1
100
AcDbEntity
8
0
6
ByLayer
62
256
370
-1
100
AcDbLine
10
124.344571642
20
-22.6656470102
11
128.927576887
21
-18.0826417659
0
LINE
5
2B2
100
AcDbEntity
8
0
6
ByLayer
62
256
370
-1
100
AcDbLine
10
122.93035808
20
-22.6656470102
11
127.513363324
21
-18.0826417659
0
LINE
5
2B3
100
AcDbEntity
8
0
6
ByLayer
62
256
370
-1
100
AcDbLine
10
130.489488459
20
-18.0826417659
11
135.072493704
21
-22.6656470102
0
LINE
5
2B4
100
AcDbEntity
8
0
6
ByLayer
62
256
370
-1
100
AcDbLine
10
129.075274897
20
-18.0826417659
11
133.658280141
21
-22.6656470102
0
LINE
5
2B5
100
AcDbEntity
8
0
6
ByLayer
62
256
370
-1
100
AcDbLine
10
124.344571642
20
-23.6656470102
11
128.927576887
21
-28.2486522544
0
LINE
5
2B6
100
AcDbEntity
8
0
6
ByLayer
62
256
370
-1
100
AcDbLine
10
122.93035808
20
-23.6656470102
11
127.513363324
21
-28.2486522544
0
LINE
5
2B7
100
AcDbEntity
8
0
6
ByLayer
62
256
370
-1
100
AcDbLine
10
130.489488459
20
-28.2486522544
11
135.072493704
21
-23.6656470102
0
LINE
5
2B8
100
AcDbEntity
8
0
6
ByLayer
62
256
370
-1
100
AcDbLine
10
129.075274897
20
-28.2486522544
11
133.658280141
21
-23.6656470102
0
LINE
5
2B9
100
AcDbEntity
8
0
6
ByLayer
62
256
370
-1
100
AcDbLine
10
124.001425892
20
-18.0826417659
11
134.001425892
21
-18.0826417659
0
LINE
5
2BA
100
AcDbEntity
8
0
6
ByLayer
62
256
370
-1
100
AcDbLine
10
124.001425892
20
-17.0826417659
11
134.001425892
21
-17.0826417659
0
LINE
5
2BB
100
AcDbEntity
8
0
6
ByLayer
62
256
370
-1
100
AcDbLine
10
124.001425892
20
-17.0826417659
11
124.001425892
21
-18.0826417659
0
LINE
5
2BC
100
AcDbEntity
8
0
6
ByLayer
62
256
370
-1
100
AcDbLine
10
134.001425892
20
-18.0826417659
11
134.001425892
21
-17.0826417659
0
LINE
5
2BD
100
AcDbEntity
8
0
6
ByLayer
62
256
370
-1
100
AcDbLine
10
122.93035808
20
-22.6656470102
11
122.93035808
21
-23.6656470102
0
LINE
5
2BE
100
AcDbEntity
8
0
6
ByLayer
62
256
370
-1
100
AcDbLine
10
135.072493704
20
-22.6656470102
11
135.072493704
21
-23.6656470102
0
CIRCLE
5
2BF
100
AcDbEntity
8
0
6
ByLayer
62
256
370
-1
100
AcDbCircle
10
110.021849638
20
-30
40
12
0
CIRCLE
5
2C0
100
AcDbEntity
8
0
6
ByLayer
62
256
370
-1
100
AcDbCircle
10
148.112048555
20
-30.0100897026
40
12
0
LINE
5
2C1
100
AcDbEntity
8
0
6
ByLayer
62
256
370
-1
100
AcDbLine
10
124.001425892
20
-17.0826417659
11
124.001425892
21
-34.4912929415
0
LINE
5
2C2
100
AcDbEntity
8
0
6
ByLayer
62
256
370
-1
100
AcDbLine
10
125.001425892
20
-17.0826417659
11
125.001425892
21
-34.4912929415
0
LINE
5
2C3
100
AcDbEntity
8
0
6
ByLayer
62
256
370
-1
100
AcDbLine
10
133.001425892
20
-17.0826417659
11
133.001425892
21
-34.4912929415
0
LINE
5
2C4
100
AcDbEntity
8
0
6
ByLayer
62
256
370
-1
100
AcDbLine
10
134.001425892
20
-17.0826417659
11
134.001425892
21
-34.4912929415
0
LINE
5
2C5
100
AcDbEntity
8
0
6
ByLayer
62
256
370
-1
100
AcDbLine
10
106.792290424
20
-55.7573593129
11
106.792290424
21
-56.7573593129
0
LINE
5
2C6
100
AcDbEntity
8
0
6
ByLayer
62
256
370
-1
100
AcDbLine
10
152.04712442
20
-55.7573593129
11
152.04712442
21
-56.7573593129
0
LINE
5
2C7
100
AcDbEntity
8
0
6
ByLayer
62
256
370
-1
100
AcDbLine
10
106.792290424
20
-56.7573593129
11
152.04712442
21
-56.7573593129
0
LINE
5
2C8
100
AcDbEntity
8
0
6
ByLayer
62
256
370
-1
100
AcDbLine
10
106.792290424
20
-55.7573593129
11
152.04712442
21
-55.7573593129
0
LINE
5
2C9
100
AcDbEntity
8
0
6
ByLayer
62
256
370
-1
100
AcDbLine
10
106.792290424
20
-56.7573593129
11
111
21
-60.9650688886
0
LINE
5
2CA
100
AcDbEntity
8
0
6
ByLayer
62
256
370
-1
100
AcDbLine
10
113.863358236
20
-61
11
118.105998923
21
-56.7573593129
0
LINE
5
2CB
100
AcDbEntity
8
0
6
ByLayer
62
256
370
-1
100
AcDbLine
10
108.206503986
20
-56.7573593129
11
112.449144673
21
-61
0
LINE
5
2CC
100
AcDbEntity
8
0
6
ByLayer
62
256
370
-1
100
AcDbLine
10
112.449144673
20
-61
11
116.691785361
21
-56.7573593129
0
LINE
5
2CD
100
AcDbEntity
8
0
6
ByLayer
62
256
370
-1
100
AcDbLine
10
125.177066735
20
-61
11
129.419707422
21
-56.7573593129
0
LINE
5
2CE
100
AcDbEntity
8
0
6
ByLayer
62
256
370
-1
100
AcDbLine
10
123.762853172
20
-61
11
128.00549386
21
-56.7573593129
0
LINE
5
2CF
100
AcDbEntity
8
0
6
ByLayer
62
256
370
-1
100
AcDbLine
10
119.520212485
20
-56.7573593129
11
123.762853172
21
-61
0
LINE
5
2D0
100
AcDbEntity
8
0
6
ByLayer
62
256
370
-1
100
AcDbLine
10
118.105998923
20
-56.7573593129
11
122.34863961
21
-61
0
LINE
5
2D1
100
AcDbEntity
8
0
6
ByLayer
62
256
370
-1
100
AcDbLine
10
136.490775234
20
-61
11
140.733415921
21
-56.7573593129
0
LINE
5
2D2
100
AcDbEntity
8
0
6
ByLayer
62
256
370
-1
100
AcDbLine
10
135.076561671
20
-61
11
139.319202359
21
-56.7573593129
0
LINE
5
2D3
100
AcDbEntity
8
0
6
ByLayer
62
256
370
-1
100
AcDbLine
10
130.833920984
20
-56.7573593129
11
135.076561671
21
-61
0
LINE
5
2D4
100
AcDbEntity
8
0
6
ByLayer
62
256
370
-1
100
AcDbLine
10
129.419707422
20
-56.7573593129
11
133.662348109
21
-61
0
LINE
5
2D5
100
AcDbEntity
8
0
6
ByLayer
62
256
370
-1
100
AcDbLine
10
140.733415921
20
-56.7573593129
11
144.976056608
21
-61
0
LINE
5
2D6
100
AcDbEntity
8
0
6
ByLayer
62
256
370
-1
100
AcDbLine
10
142.147629483
20
-56.7573593129
11
146.39027017
21
-61
0
LINE
5
2D7
100
AcDbEntity
8
0
6
ByLayer
62
256
370
-1
100
AcDbLine
10
146.39027017
20
-61
11
150.632910858
21
-56.7573593129
0
LINE
5
2D8
100
AcDbEntity
8
0
6
ByLayer
62
256
370
-1
100
AcDbLine
10
147.804483733
20
-61
11
152.04712442
21
-56.7573593129
0
LINE
5
2D9
100
AcDbEntity
8
0
6
ByLayer
62
256
370
-1
100
AcDbLine
10
147.804483733
20
-61
11
147.804483733
21
-62
0
LINE
5
2DA
100
AcDbEntity
8
0
6
ByLayer
62
256
370
-1
100
AcDbLine
10
111
20
-62
11
147.804483733
21
-62
0
LINE
5
2DB
100
AcDbEntity
8
0
6
ByLayer
62
256
370
-1
100
AcDbLine
10
111
20
-61
11
147.804483733
21
-61
0
LINE
5
2DC
100
AcDbEntity
8
0
6
ByLayer
62
256
370
-1
100
AcDbLine
10
111
20
-60.9650688886
11
111
21
-62
0
DIMENSION
5
2DD
100
AcDbEntity
8
0
6
ByLayer
62
3
370
-1
100
AcDbDimension
2
*D31
10
116.691785361
20
-53
30
0
11
112.449144673
21
-51.125
31
0
70
32
71
5
3
Standard
53
0
210
0
220
0
230
1
100
AcDbAlignedDimension
13
108.206503986
23
-56.7573593129
33
0
14
116.691785361
24
-56.7573593129
34
0
100
AcDbRotatedDimension
0
DIMENSION
5
2DE
100
AcDbEntity
8
0
6
ByLayer
62
3
370
-1
100
AcDbDimension
2
*D32
10
128.00549386
20
-53
30
0
11
123.762853172
21
-51.125
31
0
70
32
71
5
3
Standard
53
0
210
0
220
0
230
1
100
AcDbAlignedDimension
13
119.520212485
23
-56.7573593129
33
0
14
128.00549386
24
-56.7573593129
34
0
100
AcDbRotatedDimension
0
DIMENSION
5
2DF
100
AcDbEntity
8
0
6
ByLayer
62
3
370
-1
100
AcDbDimension
2
*D33
10
139.319202359
20
-53
30
0
11
135.076561671
21
-51.125
31
0
70
32
71
5
3
Standard
53
0
210
0
220
0
230
1
100
AcDbAlignedDimension
13
130.833920984
23
-56.7573593129
33
0
14
139.319202359
24
-56.7573593129
34
0
100
AcDbRotatedDimension
0
DIMENSION
5
2E0
100
AcDbEntity
8
0
6
ByLayer
62
3
370
-1
100
AcDbDimension
2
*D34
10
150.632910858
20
-53
30
0
11
146.39027017
21
-51.125
31
0
70
32
71
5
3
Standard
53
0
210
0
220
0
230
1
100
AcDbAlignedDimension
13
142.147629483
23
-56.7573593129
33
0
14
150.632910858
24
-56.7573593129
34
0
100
AcDbRotatedDimension
0
DIMENSION
5
2E1
100
AcDbEntity
8
0
6
ByLayer
62
3
370
-1
100
AcDbDimension
2
*D35
10
152
20
-48
30
0
11
129.419707422
21
-46.125
31
0
70
32
71
5
3
Standard
53
0
210
0
220
0
230
1
100
AcDbAlignedDimension
13
106.792290424
23
-55.7573593129
33
0
14
152.04712442
24
-55.7573593129
34
0
100
AcDbRotatedDimension
0
DIMENSION
5
2E2
100
AcDbEntity
8
0
6
ByLayer
62
3
370
-1
100
AcDbDimension
2
*D36
10
146
20
-72
30
0
11
129.402241866
21
-70.125
31
0
70
32
71
5
3
Standard
53
0
210
0
220
0
230
1
100
AcDbAlignedDimension
13
111
23
-62
33
0
14
147.804483733
24
-62
34
0
100
AcDbRotatedDimension
0
DIMENSION
5
2E3
100
AcDbEntity
8
0
6
ByLayer
62
3
370
-1
100
AcDbDimension
2
*D37
10
133.662348109
20
-67
30
0
11
129.419707422
21
-65.125
31
0
70
32
71
5
3
Standard
53
0
210
0
220
0
230
1
100
AcDbAlignedDimension
13
125.177066735
23
-61
33
0
14
133.662348109
24
-61
34
0
100
AcDbRotatedDimension
0
DIMENSION
5
2E4
100
AcDbEntity
8
0
6
ByLayer
62
3
370
-1
100
AcDbDimension
2
*D38
10
144.976056608
20
-67
30
0
11
140.733415921
21
-65.125
31
0
70
32
71
5
3
Standard
53
0
210
0
220
0
230
1
100
AcDbAlignedDimension
13
136.490775234
23
-61
33
0
14
144.976056608
24
-61
34
0
100
AcDbRotatedDimension
0
DIMENSION
5
2E5
100
AcDbEntity
8
0
6
ByLayer
62
3
370
-1
100
AcDbDimension
2
*D39
10
122
20
-67
30
0
11
118.105998923
21
-65.125
31
0
70
32
71
5
3
Standard
53
0
210
0
220
0
230
1
100
AcDbAlignedDimension
13
113.863358236
23
-61
33
0
14
122.34863961
24
-61
34
0
100
AcDbRotatedDimension
0
DIMENSION
5
2E6
100
AcDbEntity
8
0
6
ByLayer
62
3
370
-1
100
AcDbDimension
2
*D40
10
161.144882554
20
-65.8551174463
30
0
11
157.697736995
21
-66.6506125752
31
0
70
33
71
5
3
Standard
53
0
210
0
220
0
230
1
100
AcDbAlignedDimension
13
147.804483733
23
-61
33
0
14
152.04712442
24
-56.7573593129
34
0
0
DIMENSION
5
2E7
100
AcDbEntity
8
0
6
ByLayer
62
3
370
-1
100
AcDbDimension
2
*D41
10
156.937775772
20
-63.0622242282
30
0
11
153.490630213
21
-63.8577193569
31
0
70
33
71
5
3
Standard
53
0
210
0
220
0
230
1
100
AcDbAlignedDimension
13
146.39027017
23
-61
33
0
14
150.632910858
24
-56.7573593129
34
0
0
LINE
5
2E8
100
AcDbEntity
8
0
6
ByLayer
62
1
370
-1
100
AcDbLine
10
101.135436174
20
-63.8284271249
11
115.277571798
21
-49.6862915008
0
DIMENSION
5
2E9
100
AcDbEntity
8
0
6
ByLayer
62
3
370
-1
100
AcDbDimension
2
*D42
10
102.98193165
20
-61.9819316496
30
0
11
103.954203474
21
-60.3025530443
31
0
70
33
71
5
3
Standard
53
0
210
0
220
0
230
1
100
AcDbAlignedDimension
13
106.792290424
23
-56.7573593129
33
0
14
107.499397205
24
-57.4644660939
34
0
0
DIMENSION
5
2EA
100
AcDbEntity
8
0
6
ByLayer
62
3
370
-1
100
AcDbDimension
2
*D43
10
170
20
-56.7573593129
30
0
11
168.125
21
-58.8786796564
31
0
70
32
71
5
3
Standard
53
0
210
0
220
0
230
1
100
AcDbAlignedDimension
13
147.804483733
23
-61
33
0
14
152.04712442
24
-56.7573593129
34
0
50
90
100
AcDbRotatedDimension
0
ENDSEC
0
SECTION
2
OBJECTS
0
DICTIONARY
5
C
330
0
100
AcDbDictionary
281
1
3
ACAD_GROUP
350
D
0
DICTIONARY
5
D
330
C
100
AcDbDictionary
281
1
0
ENDSEC
0
EOF
