999
dxfrw 0.5.11
0
SECTION
2
HEADER
9
$ACADVER
1
AC1021
9
$HANDSEED
5
20000
9
$DWGCODEPAGE
3
ANSI_1252
9
$INSBASE
10
0
20
0
30
0
9
$EXTMIN
10
-5.30014700365
20
-25.4575316267
30
0
9
$EXTMAX
10
33.9474420126
20
10.6825261796
30
0
9
$LIMMIN
10
0
20
0
9
$LIMMAX
10
420
20
297
9
$ORTHOMODE
70
0
9
$LTSCALE
40
1
9
$TEXTSTYLE
7
STANDARD
9
$CLAYER
8
0
9
$DIMASZ
40
2.5
9
$DIMLFAC
40
1
9
$DIMSCALE
40
1
9
$DIMEXO
40
0.625
9
$DIMEXE
40
1.25
9
$DIMTXT
40
2.5
9
$DIMTSZ
40
0
9
$DIMAUNIT
70
0
9
$DIMADEC
70
0
9
$DIMLUNIT
70
2
9
$DIMSTYLE
2
STANDARD
9
$DIMGAP
40
0.625
9
$DIMTIH
70
0
9
$LUNITS
70
2
9
$LUPREC
70
4
9
$AUNITS
70
0
9
$AUPREC
70
2
9
$SPLINESEGS
70
8
9
$GRIDMODE
70
1
9
$SNAPSTYLE
70
0
9
$PINSBASE
10
0
20
0
30
0
9
$PLIMMIN
10
0
20
0
9
$PLIMMAX
10
215.9
20
279.4
9
$INSUNITS
70
0
9
$PSVPSCALE
40
1
0
ENDSEC
0
SECTION
2
CLASSES
0
ENDSEC
0
SECTION
2
TABLES
0
TABLE
2
VPORT
5
8
330
0
100
AcDbSymbolTable
70
1
0
VPORT
5
31
330
2
100
AcDbSymbolTableRecord
100
AcDbViewportTableRecord
2
*ACTIVE
70
0
10
0
20
0
11
1
21
1
12
23.5184760947
22
3.99403991298
13
0
23
0
14
10
24
10
15
10
25
10
16
0
26
0
36
1
17
0
27
0
37
0
40
29.8483161354
41
1.86618876941
42
50
43
0
44
0
50
0
51
0
71
0
72
100
73
1
74
3
75
0
76
1
77
0
78
0
281
0
65
1
110
0
120
0
130
0
111
1
121
0
131
0
112
0
122
1
132
0
79
0
146
0
348
10020
60
7
61
5
292
1
282
1
141
0
142
0
63
250
421
3358443
0
ENDTAB
0
TABLE
2
LTYPE
5
5
330
0
100
AcDbSymbolTable
70
4
0
LTYPE
5
14
330
5
100
AcDbSymbolTableRecord
100
AcDbLinetypeTableRecord
2
ByBlock
70
0
3

72
65
73
0
40
0
0
LTYPE
5
15
330
5
100
AcDbSymbolTableRecord
100
AcDbLinetypeTableRecord
2
ByLayer
70
0
3

72
65
73
0
40
0
0
LTYPE
5
16
330
5
100
AcDbSymbolTableRecord
100
AcDbLinetypeTableRecord
2
Continuous
70
0
3
Solid line
72
65
73
0
40
0
0
LTYPE
5
32
330
5
100
AcDbSymbolTableRecord
100
AcDbLinetypeTableRecord
2
DOT
70
0
3
Dot . . . . . . . . . . . . . . . . . . . . . .
72
65
73
2
40
6.35
49
0
74
0
49
-6.35
74
0
0
LTYPE
5
33
330
5
100
AcDbSymbolTableRecord
100
AcDbLinetypeTableRecord
2
DOT2
70
0
3
Dot (.5x) .....................................
72
65
73
2
40
3.175
49
0
74
0
49
-3.175
74
0
0
LTYPE
5
34
330
5
100
AcDbSymbolTableRecord
100
AcDbLinetypeTableRecord
2
DOTX2
70
0
3
Dot (2x) .  .  .  .  .  .  .  .  .  .  .  .  .
72
65
73
2
40
12.7
49
0
74
0
49
-12.7
74
0
0
LTYPE
5
35
330
5
100
AcDbSymbolTableRecord
100
AcDbLinetypeTableRecord
2
DASHED
70
0
3
Dot . . . . . . . . . . . . . . . . . . . . . .
72
65
73
2
40
19.05
49
12.7
74
0
49
-6.35
74
0
0
LTYPE
5
36
330
5
100
AcDbSymbolTableRecord
100
AcDbLinetypeTableRecord
2
DASHED2
70
0
3
Dashed (.5x) _ _ _ _ _ _ _ _ _ _ _ _ _ _ _ _ _
72
65
73
2
40
9.525
49
6.35
74
0
49
-3.175
74
0
0
LTYPE
5
37
330
5
100
AcDbSymbolTableRecord
100
AcDbLinetypeTableRecord
2
DASHEDX2
70
0
3
Dashed (2x) ____  ____  ____  ____  ____  ___
72
65
73
2
40
38.1
49
25.4
74
0
49
-12.7
74
0
0
LTYPE
5
38
330
5
100
AcDbSymbolTableRecord
100
AcDbLinetypeTableRecord
2
DASHDOT
70
0
3
Dash dot __ . __ . __ . __ . __ . __ . __ . __
72
65
73
4
40
25.4
49
12.7
74
0
49
-6.35
74
0
49
0
74
0
49
-6.35
74
0
0
LTYPE
5
39
330
5
100
AcDbSymbolTableRecord
100
AcDbLinetypeTableRecord
2
DASHDOT2
70
0
3
Dash dot (.5x) _._._._._._._._._._._._._._._.
72
65
73
4
40
12.7
49
6.35
74
0
49
-3.175
74
0
49
0
74
0
49
-3.175
74
0
0
LTYPE
5
3A
330
5
100
AcDbSymbolTableRecord
100
AcDbLinetypeTableRecord
2
DASHDOTX2
70
0
3
Dash dot (2x) ____  .  ____  .  ____  .  ___
72
65
73
4
40
50.8
49
25.4
74
0
49
-12.7
74
0
49
0
74
0
49
-12.7
74
0
0
LTYPE
5
3B
330
5
100
AcDbSymbolTableRecord
100
AcDbLinetypeTableRecord
2
DIVIDE
70
0
3
Divide ____ . . ____ . . ____ . . ____ . . ____
72
65
73
6
40
31.75
49
12.7
74
0
49
-6.35
74
0
49
0
74
0
49
-6.35
74
0
49
0
74
0
49
-6.35
74
0
0
LTYPE
5
3C
330
5
100
AcDbSymbolTableRecord
100
AcDbLinetypeTableRecord
2
DIVIDE2
70
0
3
Divide (.5x) __..__..__..__..__..__..__..__.._
72
65
73
6
40
15.875
49
6.35
74
0
49
-3.175
74
0
49
0
74
0
49
-3.175
74
0
49
0
74
0
49
-3.175
74
0
0
LTYPE
5
3D
330
5
100
AcDbSymbolTableRecord
100
AcDbLinetypeTableRecord
2
DIVIDEX2
70
0
3
Divide (2x) ________  .  .  ________  .  .  _
72
65
73
6
40
63.5
49
25.4
74
0
49
-12.7
74
0
49
0
74
0
49
-12.7
74
0
49
0
74
0
49
-12.7
74
0
0
LTYPE
5
3E
330
5
100
AcDbSymbolTableRecord
100
AcDbLinetypeTableRecord
2
BORDER
70
0
3
Border __ __ . __ __ . __ __ . __ __ . __ __ .
72
65
73
6
40
44.45
49
12.7
74
0
49
-6.35
74
0
49
12.7
74
0
49
-6.35
74
0
49
0
74
0
49
-6.35
74
0
0
LTYPE
5
3F
330
5
100
AcDbSymbolTableRecord
100
AcDbLinetypeTableRecord
2
BORDER2
70
0
3
Border (.5x) __.__.__.__.__.__.__.__.__.__.__.
72
65
73
6
40
22.225
49
6.35
74
0
49
-3.175
74
0
49
6.35
74
0
49
-3.175
74
0
49
0
74
0
49
-3.175
74
0
0
LTYPE
5
40
330
5
100
AcDbSymbolTableRecord
100
AcDbLinetypeTableRecord
2
BORDERX2
70
0
3
Border (2x) ____  ____  .  ____  ____  .  ___
72
65
73
6
40
88.9
49
25.4
74
0
49
-12.7
74
0
49
25.4
74
0
49
-12.7
74
0
49
0
74
0
49
-12.7
74
0
0
LTYPE
5
41
330
5
100
AcDbSymbolTableRecord
100
AcDbLinetypeTableRecord
2
CENTER
70
0
3
Center ____ _ ____ _ ____ _ ____ _ ____ _ ____
72
65
73
4
40
50.8
49
31.75
74
0
49
-6.35
74
0
49
6.35
74
0
49
-6.35
74
0
0
LTYPE
5
42
330
5
100
AcDbSymbolTableRecord
100
AcDbLinetypeTableRecord
2
CENTER2
70
0
3
Center (.5x) ___ _ ___ _ ___ _ ___ _ ___ _ ___
72
65
73
4
40
28.575
49
19.05
74
0
49
-3.175
74
0
49
3.175
74
0
49
-3.175
74
0
0
LTYPE
5
43
330
5
100
AcDbSymbolTableRecord
100
AcDbLinetypeTableRecord
2
CENTERX2
70
0
3
Center (2x) ________  __  ________  __  _____
72
65
73
4
40
101.6
49
63.5
74
0
49
-12.7
74
0
49
12.7
74
0
49
-12.7
74
0
0
ENDTAB
0
TABLE
2
LAYER
5
2
330
0
100
AcDbSymbolTable
70
1
0
LAYER
5
10
330
2
100
AcDbSymbolTableRecord
100
AcDbLayerTableRecord
2
0
70
0
62
7
6
CONTINUOUS
370
0
390
F
0
ENDTAB
0
TABLE
2
STYLE
5
3
330
0
100
AcDbSymbolTable
70
3
0
STYLE
5
44
330
2
100
AcDbSymbolTableRecord
100
AcDbTextStyleTableRecord
2
Standard
70
0
40
0
41
1
50
0
71
0
42
1
3
txt
4

0
ENDTAB
0
TABLE
2
VIEW
5
6
330
0
100
AcDbSymbolTable
70
0
0
ENDTAB
0
TABLE
2
UCS
5
7
330
0
100
AcDbSymbolTable
70
0
0
ENDTAB
0
TABLE
2
APPID
5
9
330
0
100
AcDbSymbolTable
70
1
0
APPID
5
12
330
9
100
AcDbSymbolTableRecord
100
AcDbRegAppTableRecord
2
ACAD
70
0
0
ENDTAB
0
TABLE
2
DIMSTYLE
5
A
330
0
100
AcDbSymbolTable
70
1
100
AcDbDimStyleTable
71
1
0
DIMSTYLE
105
45
330
A
100
AcDbSymbolTableRecord
100
AcDbDimStyleTableRecord
2
Standard
70
0
40
1
41
2.5
42
0.625
43
0.38
44
1.25
45
0
46
0
47
0
48
0
140
2.5
141
0.09
142
0
143
25.4
144
1
145
0
146
1
147
0.625
148
0
71
0
72
0
73
0
74
1
75
0
76
0
77
0
78
0
79
0
170
0
171
2
172
0
173
0
174
0
175
0
176
0
177
0
178
0
179
0
271
4
272
4
273
2
274
2
275
0
276
0
277
2
278
46
279
0
280
0
281
0
282
0
283
1
284
0
285
0
286
0
288
0
289
3
340
Standard
341

371
-2
372
-2
0
ENDTAB
0
TABLE
2
BLOCK_RECORD
5
1
330
0
100
AcDbSymbolTable
70
2
0
BLOCK_RECORD
5
1F
330
1
100
AcDbSymbolTableRecord
100
AcDbBlockTableRecord
2
*Model_Space
70
0
280
1
281
0
0
BLOCK_RECORD
5
1E
330
1
100
AcDbSymbolTableRecord
100
AcDbBlockTableRecord
2
*Paper_Space
70
0
280
1
281
0
0
BLOCK_RECORD
5
46
330
1
100
AcDbSymbolTableRecord
100
AcDbBlockTableRecord
2
*D1
70
0
280
1
281
0
0
ENDTAB
0
ENDSEC
0
SECTION
2
BLOCKS
0
BLOCK
5
20
330
1F
100
AcDbEntity
8
0
100
AcDbBlockBegin
2
*Model_Space
70
0
10
0
20
0
30
0
3
*Model_Space
1

0
ENDBLK
5
21
330
1F
100
AcDbEntity
8
0
100
AcDbBlockEnd
0
BLOCK
5
1C
330
1B
100
AcDbEntity
8
0
100
AcDbBlockBegin
2
*Paper_Space
70
0
10
0
20
0
30
0
3
*Paper_Space
1

0
ENDBLK
5
1D
330
1F
100
AcDbEntity
8
0
100
AcDbBlockEnd
0
BLOCK
5
47
330
46
100
AcDbEntity
8
0
100
AcDbBlockBegin
2
*D1
70
1
10
0
20
0
3
*D1
1

0
LINE
5
49
100
AcDbEntity
8
0
6
CONTINUOUS
62
7
370
0
100
AcDbLine
10
15.8250984327
20
4.72499997892
11
15.8250984327
21
8.51049279282
0
LINE
5
4A
100
AcDbEntity
8
0
6
CONTINUOUS
62
7
370
0
100
AcDbLine
10
17.2219413195
20
4.07450197957
11
20.1193323936
21
6.51070410744
0
ARC
5
4B
100
AcDbEntity
8
0
6
CONTINUOUS
62
7
370
0
100
AcDbCircle
10
15.8250984327
20
2.89999997892
40
4.36049281389
100
AcDbArc
50
40.058
51
90
0
SOLID
5
4C
100
AcDbEntity
8
0
6
CONTINUOUS
62
7
370
0
100
AcDbTrace
10
15.8250984327
20
7.26049279282
30
0
11
13.3094113707
21
7.56808265372
31
0
12
13.544824299
22
8.36667667973
32
0
13
13.544824299
23
8.36667667973
33
0
0
SOLID
5
4D
100
AcDbEntity
8
0
6
CONTINUOUS
62
7
370
0
100
AcDbTrace
10
19.1625906903
20
5.70625068234
30
0
11
21.4767559648
21
4.67284272871
31
0
12
21.017020387
22
3.97871387632
32
0
13
21.017020387
23
3.97871387632
33
0
0
MTEXT
5
4E
100
AcDbEntity
8
0
6
CONTINUOUS
62
7
370
0
100
AcDbMText
10
17.9297715067
20
7.419456788
30
0
40
2.5
41
4.72222222222
71
8
72
1
1
50%%D
7
standard
210
0
220
0
230
1
50
335.029
73
2
44
1
0
ENDBLK
5
48
330
46
100
AcDbEntity
8
0
100
AcDbBlockEnd
0
ENDSEC
0
SECTION
2
ENTITIES
0
CIRCLE
5
4F
100
AcDbEntity
8
0
6
ByLayer
62
4
370
-1
100
AcDbCircle
10
0
20
0
40
5.3
0
CIRCLE
5
50
100
AcDbEntity
8
0
6
ByLayer
62
256
370
-1
100
AcDbCircle
10
0
20
0
40
3.8
0
CIRCLE
5
51
100
AcDbEntity
8
0
6
ByLayer
62
256
370
-1
100
AcDbCircle
10
0
20
0
40
4.8
0
ARC
5
52
100
AcDbEntity
8
0
6
ByLayer
62
0
370
-1
100
AcDbCircle
10
1.22124532709e-15
20
2.11525895502e-15
40
3.3
100
AcDbArc
50
15.8266205122
51
90
0
CIRCLE
5
53
100
AcDbEntity
8
0
6
ByLayer
62
4
370
-1
100
AcDbCircle
10
-0
20
0
40
3.3
0
CIRCLE
5
54
100
AcDbEntity
8
0
6
ByLayer
62
4
370
-1
100
AcDbCircle
10
0
20
-13
40
5.3
0
LINE
5
55
100
AcDbEntity
8
0
6
ByLayer
62
4
370
-1
100
AcDbLine
10
2.65
20
-17.5899346401
11
-2.65
21
-8.41006535994
0
LINE
5
56
100
AcDbEntity
8
0
6
ByLayer
62
4
370
-1
100
AcDbLine
10
2.11278805898e-15
20
-7.7
11
3.29702595192e-16
21
-18.3
0
LINE
5
57
100
AcDbEntity
8
0
6
ByLayer
62
4
370
-1
100
AcDbLine
10
-2.65
20
-17.5899346401
11
2.65
21
-8.41006535994
0
LINE
5
58
100
AcDbEntity
8
0
6
ByLayer
62
4
370
-1
100
AcDbLine
10
4.58993464006
20
-10.35
11
-4.58993464006
21
-15.65
0
LINE
5
59
100
AcDbEntity
8
0
6
ByLayer
62
4
370
-1
100
AcDbLine
10
-5.3
20
-13
11
5.3
21
-13
0
LINE
5
5A
100
AcDbEntity
8
0
6
ByLayer
62
4
370
-1
100
AcDbLine
10
-4.58993464006
20
-10.35
11
4.58993464006
21
-15.65
0
CIRCLE
5
5B
100
AcDbEntity
8
0
6
ByLayer
62
256
370
-1
100
AcDbCircle
10
0
20
-13
40
3.8
0
CIRCLE
5
5C
100
AcDbEntity
8
0
6
ByLayer
62
256
370
-1
100
AcDbCircle
10
0
20
-13
40
4.8
0
ARC
5
5D
100
AcDbEntity
8
0
6
ByLayer
62
0
370
-1
100
AcDbCircle
10
1.22124532709e-15
20
-13
40
3.3
100
AcDbArc
50
15.8266205122
51
90
0
CIRCLE
5
5E
100
AcDbEntity
8
0
6
ByLayer
62
4
370
-1
100
AcDbCircle
10
0
20
-13
40
3.3
0
CIRCLE
5
5F
100
AcDbEntity
8
0
6
ByLayer
62
256
370
-1
100
AcDbCircle
10
3.5527136788e-15
20
3.8
40
0.2
0
CIRCLE
5
60
100
AcDbEntity
8
0
6
ByLayer
62
256
370
-1
100
AcDbCircle
10
-0.00034526697528
20
4.7999999404
40
0.2
0
LINE
5
61
100
AcDbEntity
8
0
6
ByLayer
62
256
370
-1
100
AcDbLine
10
-0.5
20
4.8
11
-0.5
21
3.8
0
ARC
5
62
100
AcDbEntity
8
0
6
ByLayer
62
256
370
-1
100
AcDbCircle
10
3.5527136788e-15
20
4.8
40
0.5
100
AcDbArc
50
90
51
180
0
ARC
5
63
100
AcDbEntity
8
0
6
ByLayer
62
256
370
-1
100
AcDbCircle
10
3.5527136788e-15
20
3.8
40
0.5
100
AcDbArc
50
180
51
270
0
ARC
5
64
100
AcDbEntity
8
0
6
ByLayer
62
0
370
-1
100
AcDbCircle
10
3.5527136788e-15
20
2.10942374679e-15
40
3.3
100
AcDbArc
50
15.8266205122
51
90
0
ARC
5
65
100
AcDbEntity
8
0
6
ByLayer
62
0
370
-1
100
AcDbCircle
10
0.0312566585926
20
1.97709928546
40
3.3230477182
100
AcDbArc
50
341.087128868
51
90.5389332864
0
ARC
5
66
100
AcDbEntity
8
0
6
ByLayer
62
256
370
-1
100
AcDbCircle
10
3.5527136788e-15
20
3.8
40
0.801392532952
100
AcDbArc
50
40.0581695344
51
90
0
ARC
5
67
100
AcDbEntity
8
0
6
ByLayer
62
256
370
-1
100
AcDbCircle
10
3.5527136788e-15
20
3.8
40
1.19791480714
100
AcDbArc
50
40.0581778269
51
90
0
LINE
5
68
100
AcDbEntity
8
0
6
ByLayer
62
4
370
-1
100
AcDbLine
10
3.5527136788e-15
20
5
11
3.5527136788e-15
21
3.8
0
CIRCLE
5
69
100
AcDbEntity
8
0
6
ByLayer
62
256
370
-1
100
AcDbCircle
10
0.765171116063
20
4.44382696677
40
0.2
0
LINE
5
6A
100
AcDbEntity
8
0
6
ByLayer
62
4
370
-1
100
AcDbLine
10
0.918472035173
20
4.5722752881
11
3.5527136788e-15
21
3.8
0
CIRCLE
5
6B
100
AcDbEntity
8
0
6
ByLayer
62
256
370
-1
100
AcDbCircle
10
1.9
20
3.29089653438
40
0.2
0
CIRCLE
5
6C
100
AcDbEntity
8
0
6
ByLayer
62
256
370
-1
100
AcDbCircle
10
2.39970096023
20
4.15709452003
40
0.2
0
LINE
5
6D
100
AcDbEntity
8
0
6
ByLayer
62
256
370
-1
100
AcDbLine
10
1.96698729811
20
4.40692193817
11
1.46698729811
21
3.54089653438
0
ARC
5
6E
100
AcDbEntity
8
0
6
ByLayer
62
256
370
-1
100
AcDbCircle
10
2.4
20
4.15692193817
40
0.5
100
AcDbArc
50
60
51
150
0
ARC
5
6F
100
AcDbEntity
8
0
6
ByLayer
62
256
370
-1
100
AcDbCircle
10
1.9
20
3.29089653438
40
0.5
100
AcDbArc
50
150
51
240
0
ARC
5
70
100
AcDbEntity
8
0
6
ByLayer
62
0
370
-1
100
AcDbCircle
10
5.35269749869e-15
20
3.77689411817e-16
40
3.3
100
AcDbArc
50
345.826620512
51
60
0
ARC
5
71
100
AcDbEntity
8
0
6
ByLayer
62
0
370
-1
100
AcDbCircle
10
1.01561870311
20
1.69658987772
40
3.3230477182
100
AcDbArc
50
311.087128868
51
60.5389332864
0
ARC
5
72
100
AcDbEntity
8
0
6
ByLayer
62
256
370
-1
100
AcDbCircle
10
1.9
20
3.29089653438
40
0.801392532952
100
AcDbArc
50
10.0581695344
51
60
0
ARC
5
73
100
AcDbEntity
8
0
6
ByLayer
62
256
370
-1
100
AcDbCircle
10
1.9
20
3.29089653438
40
1.19791480714
100
AcDbArc
50
10.0581778269
51
60
0
LINE
5
74
100
AcDbEntity
8
0
6
ByLayer
62
4
370
-1
100
AcDbLine
10
2.5
20
4.33012701892
11
1.9
21
3.29089653438
0
CIRCLE
5
75
100
AcDbEntity
8
0
6
ByLayer
62
256
370
-1
100
AcDbCircle
10
2.88457110814
20
3.46588148522
40
0.2
0
LINE
5
76
100
AcDbEntity
8
0
6
ByLayer
62
4
370
-1
100
AcDbLine
10
3.08155775917
20
3.500470535
11
1.9
21
3.29089653438
0
CIRCLE
5
77
100
AcDbEntity
8
0
6
ByLayer
62
256
370
-1
100
AcDbCircle
10
3.29089653438
20
1.9
40
0.2
0
CIRCLE
5
78
100
AcDbEntity
8
0
6
ByLayer
62
256
370
-1
100
AcDbCircle
10
4.15674925306
20
2.40029898017
40
0.2
0
LINE
5
79
100
AcDbEntity
8
0
6
ByLayer
62
256
370
-1
100
AcDbLine
10
3.90692193817
20
2.83301270189
11
3.04089653438
21
2.33301270189
0
ARC
5
7A
100
AcDbEntity
8
0
6
ByLayer
62
256
370
-1
100
AcDbCircle
10
4.15692193817
20
2.4
40
0.5
100
AcDbArc
50
30
51
120
0
ARC
5
7B
100
AcDbEntity
8
0
6
ByLayer
62
256
370
-1
100
AcDbCircle
10
3.29089653438
20
1.9
40
0.5
100
AcDbArc
50
120
51
210
0
ARC
5
7C
100
AcDbEntity
8
0
6
ByLayer
62
0
370
-1
100
AcDbCircle
10
6.04566204564e-15
20
-2.02202842482e-15
40
3.3
100
AcDbArc
50
315.826620512
51
30
0
ARC
5
7D
100
AcDbEntity
8
0
6
ByLayer
62
0
370
-1
100
AcDbCircle
10
1.72784653631
20
0.961480582351
40
3.3230477182
100
AcDbArc
50
281.087128868
51
30.5389332864
0
ARC
5
7E
100
AcDbEntity
8
0
6
ByLayer
62
256
370
-1
100
AcDbCircle
10
3.29089653438
20
1.9
40
0.801392532952
100
AcDbArc
50
340.058169534
51
30
0
ARC
5
7F
100
AcDbEntity
8
0
6
ByLayer
62
256
370
-1
100
AcDbCircle
10
3.29089653438
20
1.9
40
1.19791480714
100
AcDbArc
50
340.058177827
51
30
0
LINE
5
80
100
AcDbEntity
8
0
6
ByLayer
62
4
370
-1
100
AcDbLine
10
4.33012701892
20
2.5
11
3.29089653438
21
1.9
0
CIRCLE
5
81
100
AcDbEntity
8
0
6
ByLayer
62
256
370
-1
100
AcDbCircle
10
4.23105260128
20
1.55925585863
40
0.2
0
LINE
5
82
100
AcDbEntity
8
0
6
ByLayer
62
4
370
-1
100
AcDbLine
10
4.41894257017
20
1.49071752892
11
3.29089653438
21
1.9
0
CIRCLE
5
83
100
AcDbEntity
8
0
6
ByLayer
62
256
370
-1
100
AcDbCircle
10
3.8
20
-1.37563951067e-14
40
0.2
0
CIRCLE
5
84
100
AcDbEntity
8
0
6
ByLayer
62
256
370
-1
100
AcDbCircle
10
4.7999999404
20
0.000345266975268
40
0.2
0
LINE
5
85
100
AcDbEntity
8
0
6
ByLayer
62
256
370
-1
100
AcDbLine
10
4.8
20
0.5
11
3.8
21
0.5
0
ARC
5
86
100
AcDbEntity
8
0
6
ByLayer
62
256
370
-1
100
AcDbCircle
10
4.8
20
-1.62063076856e-14
40
0.5
100
AcDbArc
50
360
51
90
0
ARC
5
87
100
AcDbEntity
8
0
6
ByLayer
62
256
370
-1
100
AcDbCircle
10
3.8
20
-1.37563951067e-14
40
0.5
100
AcDbArc
50
90
51
180
0
ARC
5
88
100
AcDbEntity
8
0
6
ByLayer
62
0
370
-1
100
AcDbCircle
10
5.44592802889e-15
20
-4.44672730673e-15
40
3.3
100
AcDbArc
50
285.826620512
51
360
0
ARC
5
89
100
AcDbEntity
8
0
6
ByLayer
62
0
370
-1
100
AcDbCircle
10
1.97709928546
20
-0.0312566585926
40
3.3230477182
100
AcDbArc
50
251.087128868
51
0.538933286361
0
ARC
5
8A
100
AcDbEntity
8
0
6
ByLayer
62
256
370
-1
100
AcDbCircle
10
3.8
20
-1.37563951067e-14
40
0.801392532952
100
AcDbArc
50
310.058169534
51
360
0
ARC
5
8B
100
AcDbEntity
8
0
6
ByLayer
62
256
370
-1
100
AcDbCircle
10
3.8
20
-1.37563951067e-14
40
1.19791480714
100
AcDbArc
50
310.058177827
51
360
0
LINE
5
8C
100
AcDbEntity
8
0
6
ByLayer
62
4
370
-1
100
AcDbLine
10
5
20
-1.66962902014e-14
11
3.8
21
-1.37563951067e-14
0
CIRCLE
5
8D
100
AcDbEntity
8
0
6
ByLayer
62
256
370
-1
100
AcDbCircle
10
4.44382696677
20
-0.765171116063
40
0.2
0
LINE
5
8E
100
AcDbEntity
8
0
6
ByLayer
62
4
370
-1
100
AcDbLine
10
4.5722752881
20
-0.918472035173
11
3.8
21
-1.37563951067e-14
0
CIRCLE
5
8F
100
AcDbEntity
8
0
6
ByLayer
62
256
370
-1
100
AcDbCircle
10
3.29089653438
20
-1.9
40
0.2
0
CIRCLE
5
90
100
AcDbEntity
8
0
6
ByLayer
62
256
370
-1
100
AcDbCircle
10
4.15709452003
20
-2.39970096023
40
0.2
0
LINE
5
91
100
AcDbEntity
8
0
6
ByLayer
62
256
370
-1
100
AcDbLine
10
4.40692193817
20
-1.96698729811
11
3.54089653438
21
-1.46698729811
0
ARC
5
92
100
AcDbEntity
8
0
6
ByLayer
62
256
370
-1
100
AcDbCircle
10
4.15692193817
20
-2.4
40
0.5
100
AcDbArc
50
330
51
60
0
ARC
5
93
100
AcDbEntity
8
0
6
ByLayer
62
256
370
-1
100
AcDbCircle
10
3.29089653438
20
-1.9
40
0.5
100
AcDbArc
50
60
51
150
0
ARC
5
94
100
AcDbEntity
8
0
6
ByLayer
62
0
370
-1
100
AcDbCircle
10
3.71419369392e-15
20
-6.24671112663e-15
40
3.3
100
AcDbArc
50
255.826620512
51
330
0
ARC
5
95
100
AcDbEntity
8
0
6
ByLayer
62
0
370
-1
100
AcDbCircle
10
1.69658987772
20
-1.01561870311
40
3.3230477182
100
AcDbArc
50
221.087128868
51
330.538933286
0
ARC
5
96
100
AcDbEntity
8
0
6
ByLayer
62
256
370
-1
100
AcDbCircle
10
3.29089653438
20
-1.9
40
0.801392532952
100
AcDbArc
50
280.058169534
51
330
0
ARC
5
97
100
AcDbEntity
8
0
6
ByLayer
62
256
370
-1
100
AcDbCircle
10
3.29089653438
20
-1.9
40
1.19791480714
100
AcDbArc
50
280.058177827
51
330
0
LINE
5
98
100
AcDbEntity
8
0
6
ByLayer
62
4
370
-1
100
AcDbLine
10
4.33012701892
20
-2.5
11
3.29089653438
21
-1.9
0
CIRCLE
5
99
100
AcDbEntity
8
0
6
ByLayer
62
256
370
-1
100
AcDbCircle
10
3.46588148522
20
-2.88457110814
40
0.2
0
LINE
5
9A
100
AcDbEntity
8
0
6
ByLayer
62
4
370
-1
100
AcDbLine
10
3.500470535
20
-3.08155775917
11
3.29089653438
21
-1.9
0
CIRCLE
5
9B
100
AcDbEntity
8
0
6
ByLayer
62
256
370
-1
100
AcDbCircle
10
1.9
20
-3.29089653438
40
0.2
0
CIRCLE
5
9C
100
AcDbEntity
8
0
6
ByLayer
62
256
370
-1
100
AcDbCircle
10
2.40029898017
20
-4.15674925306
40
0.2
0
LINE
5
9D
100
AcDbEntity
8
0
6
ByLayer
62
256
370
-1
100
AcDbLine
10
2.83301270189
20
-3.90692193817
11
2.33301270189
21
-3.04089653438
0
ARC
5
9E
100
AcDbEntity
8
0
6
ByLayer
62
256
370
-1
100
AcDbCircle
10
2.4
20
-4.15692193817
40
0.5
100
AcDbArc
50
300
51
30
0
ARC
5
9F
100
AcDbEntity
8
0
6
ByLayer
62
256
370
-1
100
AcDbCircle
10
1.9
20
-3.29089653438
40
0.5
100
AcDbArc
50
30
51
120
0
ARC
5
A0
100
AcDbEntity
8
0
6
ByLayer
62
0
370
-1
100
AcDbCircle
10
1.31447585729e-15
20
-6.93967567357e-15
40
3.3
100
AcDbArc
50
225.826620512
51
300
0
ARC
5
A1
100
AcDbEntity
8
0
6
ByLayer
62
0
370
-1
100
AcDbCircle
10
0.961480582351
20
-1.72784653631
40
3.3230477182
100
AcDbArc
50
191.087128868
51
300.538933286
0
ARC
5
A2
100
AcDbEntity
8
0
6
ByLayer
62
256
370
-1
100
AcDbCircle
10
1.9
20
-3.29089653438
40
0.801392532952
100
AcDbArc
50
250.058169534
51
300
0
ARC
5
A3
100
AcDbEntity
8
0
6
ByLayer
62
256
370
-1
100
AcDbCircle
10
1.9
20
-3.29089653438
40
1.19791480714
100
AcDbArc
50
250.058177827
51
300
0
LINE
5
A4
100
AcDbEntity
8
0
6
ByLayer
62
4
370
-1
100
AcDbLine
10
2.5
20
-4.33012701892
11
1.9
21
-3.29089653438
0
CIRCLE
5
A5
100
AcDbEntity
8
0
6
ByLayer
62
256
370
-1
100
AcDbCircle
10
1.55925585863
20
-4.23105260128
40
0.2
0
LINE
5
A6
100
AcDbEntity
8
0
6
ByLayer
62
4
370
-1
100
AcDbLine
10
1.49071752892
20
-4.41894257017
11
1.9
21
-3.29089653438
0
CIRCLE
5
A7
100
AcDbEntity
8
0
6
ByLayer
62
256
370
-1
100
AcDbCircle
10
-1.97295586245e-14
20
-3.8
40
0.2
0
CIRCLE
5
A8
100
AcDbEntity
8
0
6
ByLayer
62
256
370
-1
100
AcDbCircle
10
0.000345266975259
20
-4.7999999404
40
0.2
0
LINE
5
A9
100
AcDbEntity
8
0
6
ByLayer
62
256
370
-1
100
AcDbLine
10
0.5
20
-4.8
11
0.5
21
-3.8
0
ARC
5
AA
100
AcDbEntity
8
0
6
ByLayer
62
256
370
-1
100
AcDbCircle
10
-2.46293837824e-14
20
-4.8
40
0.5
100
AcDbArc
50
270
51
360
0
ARC
5
AB
100
AcDbEntity
8
0
6
ByLayer
62
256
370
-1
100
AcDbCircle
10
-1.97295586245e-14
20
-3.8
40
0.5
100
AcDbArc
50
360
51
90
0
ARC
5
AC
100
AcDbEntity
8
0
6
ByLayer
62
0
370
-1
100
AcDbCircle
10
-1.11022302463e-15
20
-6.33994165683e-15
40
3.3
100
AcDbArc
50
195.826620512
51
270
0
ARC
5
AD
100
AcDbEntity
8
0
6
ByLayer
62
0
370
-1
100
AcDbCircle
10
-0.0312566585926
20
-1.97709928546
40
3.3230477182
100
AcDbArc
50
161.087128868
51
270.538933286
0
ARC
5
AE
100
AcDbEntity
8
0
6
ByLayer
62
256
370
-1
100
AcDbCircle
10
-1.97295586245e-14
20
-3.8
40
0.801392532952
100
AcDbArc
50
220.058169534
51
270
0
ARC
5
AF
100
AcDbEntity
8
0
6
ByLayer
62
256
370
-1
100
AcDbCircle
10
-1.97295586245e-14
20
-3.8
40
1.19791480714
100
AcDbArc
50
220.058177827
51
270
0
LINE
5
B0
100
AcDbEntity
8
0
6
ByLayer
62
4
370
-1
100
AcDbLine
10
-2.56093488139e-14
20
-5
11
-1.97295586245e-14
21
-3.8
0
CIRCLE
5
B1
100
AcDbEntity
8
0
6
ByLayer
62
256
370
-1
100
AcDbCircle
10
-0.765171116063
20
-4.44382696677
40
0.2
0
LINE
5
B2
100
AcDbEntity
8
0
6
ByLayer
62
4
370
-1
100
AcDbLine
10
-0.918472035173
20
-4.5722752881
11
-1.97295586245e-14
21
-3.8
0
CIRCLE
5
B3
100
AcDbEntity
8
0
6
ByLayer
62
256
370
-1
100
AcDbCircle
10
-1.9
20
-3.29089653438
40
0.2
0
CIRCLE
5
B4
100
AcDbEntity
8
0
6
ByLayer
62
256
370
-1
100
AcDbCircle
10
-2.39970096023
20
-4.15709452003
40
0.2
0
LINE
5
B5
100
AcDbEntity
8
0
6
ByLayer
62
256
370
-1
100
AcDbLine
10
-1.96698729811
20
-4.40692193817
11
-1.46698729811
21
-3.54089653438
0
ARC
5
B6
100
AcDbEntity
8
0
6
ByLayer
62
256
370
-1
100
AcDbCircle
10
-2.4
20
-4.15692193817
40
0.5
100
AcDbArc
50
240
51
330
0
ARC
5
B7
100
AcDbEntity
8
0
6
ByLayer
62
256
370
-1
100
AcDbCircle
10
-1.9
20
-3.29089653438
40
0.5
100
AcDbArc
50
330
51
60
0
ARC
5
B8
100
AcDbEntity
8
0
6
ByLayer
62
0
370
-1
100
AcDbCircle
10
-2.91020684452e-15
20
-4.60820732186e-15
40
3.3
100
AcDbArc
50
165.826620512
51
240
0
ARC
5
B9
100
AcDbEntity
8
0
6
ByLayer
62
0
370
-1
100
AcDbCircle
10
-1.01561870311
20
-1.69658987772
40
3.3230477182
100
AcDbArc
50
131.087128868
51
240.538933286
0
ARC
5
BA
100
AcDbEntity
8
0
6
ByLayer
62
256
370
-1
100
AcDbCircle
10
-1.9
20
-3.29089653438
40
0.801392532952
100
AcDbArc
50
190.058169534
51
240
0
ARC
5
BB
100
AcDbEntity
8
0
6
ByLayer
62
256
370
-1
100
AcDbCircle
10
-1.9
20
-3.29089653438
40
1.19791480714
100
AcDbArc
50
190.058177827
51
240
0
LINE
5
BC
100
AcDbEntity
8
0
6
ByLayer
62
4
370
-1
100
AcDbLine
10
-2.5
20
-4.33012701892
11
-1.9
21
-3.29089653438
0
CIRCLE
5
BD
100
AcDbEntity
8
0
6
ByLayer
62
256
370
-1
100
AcDbCircle
10
-2.88457110814
20
-3.46588148522
40
0.2
0
LINE
5
BE
100
AcDbEntity
8
0
6
ByLayer
62
4
370
-1
100
AcDbLine
10
-3.08155775917
20
-3.500470535
11
-1.9
21
-3.29089653438
0
CIRCLE
5
BF
100
AcDbEntity
8
0
6
ByLayer
62
256
370
-1
100
AcDbCircle
10
-3.29089653438
20
-1.9
40
0.2
0
CIRCLE
5
C0
100
AcDbEntity
8
0
6
ByLayer
62
256
370
-1
100
AcDbCircle
10
-4.15674925306
20
-2.40029898017
40
0.2
0
LINE
5
C1
100
AcDbEntity
8
0
6
ByLayer
62
256
370
-1
100
AcDbLine
10
-3.90692193817
20
-2.83301270189
11
-3.04089653438
21
-2.33301270189
0
ARC
5
C2
100
AcDbEntity
8
0
6
ByLayer
62
256
370
-1
100
AcDbCircle
10
-4.15692193817
20
-2.4
40
0.5
100
AcDbArc
50
210
51
300
0
ARC
5
C3
100
AcDbEntity
8
0
6
ByLayer
62
256
370
-1
100
AcDbCircle
10
-3.29089653438
20
-1.9
40
0.5
100
AcDbArc
50
300
51
30
0
ARC
5
C4
100
AcDbEntity
8
0
6
ByLayer
62
0
370
-1
100
AcDbCircle
10
-3.60317139147e-15
20
-2.20848948522e-15
40
3.3
100
AcDbArc
50
135.826620512
51
210
0
ARC
5
C5
100
AcDbEntity
8
0
6
ByLayer
62
0
370
-1
100
AcDbCircle
10
-1.72784653631
20
-0.961480582351
40
3.3230477182
100
AcDbArc
50
101.087128868
51
210.538933286
0
ARC
5
C6
100
AcDbEntity
8
0
6
ByLayer
62
256
370
-1
100
AcDbCircle
10
-3.29089653438
20
-1.9
40
0.801392532952
100
AcDbArc
50
160.058169534
51
210
0
ARC
5
C7
100
AcDbEntity
8
0
6
ByLayer
62
256
370
-1
100
AcDbCircle
10
-3.29089653438
20
-1.9
40
1.19791480714
100
AcDbArc
50
160.058177827
51
210
0
LINE
5
C8
100
AcDbEntity
8
0
6
ByLayer
62
4
370
-1
100
AcDbLine
10
-4.33012701892
20
-2.5
11
-3.29089653438
21
-1.9
0
CIRCLE
5
C9
100
AcDbEntity
8
0
6
ByLayer
62
256
370
-1
100
AcDbCircle
10
-4.23105260128
20
-1.55925585863
40
0.2
0
LINE
5
CA
100
AcDbEntity
8
0
6
ByLayer
62
4
370
-1
100
AcDbLine
10
-4.41894257017
20
-1.49071752892
11
-3.29089653438
21
-1.9
0
CIRCLE
5
CB
100
AcDbEntity
8
0
6
ByLayer
62
256
370
-1
100
AcDbCircle
10
-3.8
20
2.81452127965e-14
40
0.2
0
CIRCLE
5
CC
100
AcDbEntity
8
0
6
ByLayer
62
256
370
-1
100
AcDbCircle
10
-4.7999999404
20
-0.000345266975248
40
0.2
0
LINE
5
CD
100
AcDbEntity
8
0
6
ByLayer
62
256
370
-1
100
AcDbLine
10
-4.8
20
-0.5
11
-3.8
21
-0.5
0
ARC
5
CE
100
AcDbEntity
8
0
6
ByLayer
62
256
370
-1
100
AcDbCircle
10
-4.8
20
3.54949505333e-14
40
0.5
100
AcDbArc
50
180
51
270
0
ARC
5
CF
100
AcDbEntity
8
0
6
ByLayer
62
256
370
-1
100
AcDbCircle
10
-3.8
20
2.81452127965e-14
40
0.5
100
AcDbArc
50
270
51
360
0
ARC
5
D0
100
AcDbEntity
8
0
6
ByLayer
62
0
370
-1
100
AcDbCircle
10
-3.00343737472e-15
20
2.16209396694e-16
40
3.3
100
AcDbArc
50
105.826620512
51
180
0
ARC
5
D1
100
AcDbEntity
8
0
6
ByLayer
62
0
370
-1
100
AcDbCircle
10
-1.97709928546
20
0.0312566585926
40
3.3230477182
100
AcDbArc
50
71.0871288684
51
180.538933286
0
ARC
5
D2
100
AcDbEntity
8
0
6
ByLayer
62
256
370
-1
100
AcDbCircle
10
-3.8
20
2.81452127965e-14
40
0.801392532952
100
AcDbArc
50
130.058169534
51
180
0
ARC
5
D3
100
AcDbEntity
8
0
6
ByLayer
62
256
370
-1
100
AcDbCircle
10
-3.8
20
2.81452127965e-14
40
1.19791480714
100
AcDbArc
50
130.058177827
51
180
0
LINE
5
D4
100
AcDbEntity
8
0
6
ByLayer
62
4
370
-1
100
AcDbLine
10
-5
20
3.69648980807e-14
11
-3.8
21
2.81452127965e-14
0
CIRCLE
5
D5
100
AcDbEntity
8
0
6
ByLayer
62
256
370
-1
100
AcDbCircle
10
-4.44382696677
20
0.765171116063
40
0.2
0
LINE
5
D6
100
AcDbEntity
8
0
6
ByLayer
62
4
370
-1
100
AcDbLine
10
-4.5722752881
20
0.918472035173
11
-3.8
21
2.81452127965e-14
0
CIRCLE
5
D7
100
AcDbEntity
8
0
6
ByLayer
62
256
370
-1
100
AcDbCircle
10
-3.29089653438
20
1.9
40
0.2
0
CIRCLE
5
D8
100
AcDbEntity
8
0
6
ByLayer
62
256
370
-1
100
AcDbCircle
10
-4.15709452003
20
2.39970096023
40
0.2
0
LINE
5
D9
100
AcDbEntity
8
0
6
ByLayer
62
256
370
-1
100
AcDbLine
10
-4.40692193817
20
1.96698729811
11
-3.54089653438
21
1.46698729811
0
ARC
5
DA
100
AcDbEntity
8
0
6
ByLayer
62
256
370
-1
100
AcDbCircle
10
-4.15692193817
20
2.4
40
0.5
100
AcDbArc
50
150
51
240
0
ARC
5
DB
100
AcDbEntity
8
0
6
ByLayer
62
256
370
-1
100
AcDbCircle
10
-3.29089653438
20
1.9
40
0.5
100
AcDbArc
50
240
51
330
0
ARC
5
DC
100
AcDbEntity
8
0
6
ByLayer
62
0
370
-1
100
AcDbCircle
10
-1.27170303975e-15
20
2.01619321659e-15
40
3.3
100
AcDbArc
50
75.8266205122
51
150
0
ARC
5
DD
100
AcDbEntity
8
0
6
ByLayer
62
0
370
-1
100
AcDbCircle
10
-1.69658987772
20
1.01561870311
40
3.3230477182
100
AcDbArc
50
41.0871288684
51
150.538933286
0
ARC
5
DE
100
AcDbEntity
8
0
6
ByLayer
62
256
370
-1
100
AcDbCircle
10
-3.29089653438
20
1.9
40
0.801392532952
100
AcDbArc
50
100.058169534
51
150
0
ARC
5
DF
100
AcDbEntity
8
0
6
ByLayer
62
256
370
-1
100
AcDbCircle
10
-3.29089653438
20
1.9
40
1.19791480714
100
AcDbArc
50
100.058177827
51
150
0
LINE
5
E0
100
AcDbEntity
8
0
6
ByLayer
62
4
370
-1
100
AcDbLine
10
-4.33012701892
20
2.5
11
-3.29089653438
21
1.9
0
CIRCLE
5
E1
100
AcDbEntity
8
0
6
ByLayer
62
256
370
-1
100
AcDbCircle
10
-3.46588148522
20
2.88457110814
40
0.2
0
LINE
5
E2
100
AcDbEntity
8
0
6
ByLayer
62
4
370
-1
100
AcDbLine
10
-3.500470535
20
3.08155775917
11
-3.29089653438
21
1.9
0
CIRCLE
5
E3
100
AcDbEntity
8
0
6
ByLayer
62
256
370
-1
100
AcDbCircle
10
-1.9
20
3.29089653438
40
0.2
0
CIRCLE
5
E4
100
AcDbEntity
8
0
6
ByLayer
62
256
370
-1
100
AcDbCircle
10
-2.40029898017
20
4.15674925306
40
0.2
0
LINE
5
E5
100
AcDbEntity
8
0
6
ByLayer
62
256
370
-1
100
AcDbLine
10
-2.83301270189
20
3.90692193817
11
-2.33301270189
21
3.04089653438
0
ARC
5
E6
100
AcDbEntity
8
0
6
ByLayer
62
256
370
-1
100
AcDbCircle
10
-2.4
20
4.15692193817
40
0.5
100
AcDbArc
50
120
51
210
0
ARC
5
E7
100
AcDbEntity
8
0
6
ByLayer
62
256
370
-1
100
AcDbCircle
10
-1.9
20
3.29089653438
40
0.5
100
AcDbArc
50
210
51
300
0
ARC
5
E8
100
AcDbEntity
8
0
6
ByLayer
62
0
370
-1
100
AcDbCircle
10
1.12801479689e-15
20
2.70915776353e-15
40
3.3
100
AcDbArc
50
45.8266205122
51
120
0
ARC
5
E9
100
AcDbEntity
8
0
6
ByLayer
62
0
370
-1
100
AcDbCircle
10
-0.961480582351
20
1.72784653631
40
3.3230477182
100
AcDbArc
50
11.0871288684
51
120.538933286
0
ARC
5
EA
100
AcDbEntity
8
0
6
ByLayer
62
256
370
-1
100
AcDbCircle
10
-1.9
20
3.29089653438
40
0.801392532952
100
AcDbArc
50
70.0581695344
51
120
0
ARC
5
EB
100
AcDbEntity
8
0
6
ByLayer
62
256
370
-1
100
AcDbCircle
10
-1.9
20
3.29089653438
40
1.19791480714
100
AcDbArc
50
70.0581778269
51
120
0
LINE
5
EC
100
AcDbEntity
8
0
6
ByLayer
62
4
370
-1
100
AcDbLine
10
-2.5
20
4.33012701892
11
-1.9
21
3.29089653438
0
CIRCLE
5
ED
100
AcDbEntity
8
0
6
ByLayer
62
256
370
-1
100
AcDbCircle
10
-1.55925585863
20
4.23105260128
40
0.2
0
LINE
5
EE
100
AcDbEntity
8
0
6
ByLayer
62
4
370
-1
100
AcDbLine
10
-1.49071752892
20
4.41894257017
11
-1.9
21
3.29089653438
0
CIRCLE
5
EF
100
AcDbEntity
8
0
6
ByLayer
62
256
370
-1
100
AcDbCircle
10
2.47814901935e-15
20
-9.2
40
0.2
0
CIRCLE
5
F0
100
AcDbEntity
8
0
6
ByLayer
62
256
370
-1
100
AcDbCircle
10
0.75234842954
20
-8.54123460886
40
0.2
0
LINE
5
F1
100
AcDbEntity
8
0
6
ByLayer
62
256
370
-1
100
AcDbLine
10
0.423323039224
20
-8.16520649187
11
-0.329252795406
21
-8.82371208268
0
ARC
5
F2
100
AcDbEntity
8
0
6
ByLayer
62
256
370
-1
100
AcDbCircle
10
0.75257583463
20
-8.54149440919
40
0.5
100
AcDbArc
50
41.186
51
131.186
0
ARC
5
F3
100
AcDbEntity
8
0
6
ByLayer
62
256
370
-1
100
AcDbCircle
10
2.47814901935e-15
20
-9.2
40
0.5
100
AcDbArc
50
131.186
51
221.186
0
ARC
5
F4
100
AcDbEntity
8
0
6
ByLayer
62
0
370
-1
100
AcDbCircle
10
-2.85978817159
20
-11.7023212451
40
3.3
100
AcDbArc
50
327.012620512
51
41.186
0
ARC
5
F5
100
AcDbEntity
8
0
6
ByLayer
62
0
370
-1
100
AcDbCircle
10
-1.35128834226
20
-10.4239133179
40
3.3230477182
100
AcDbArc
50
292.273128868
51
41.7249332864
0
ARC
5
F6
100
AcDbEntity
8
0
6
ByLayer
62
256
370
-1
100
AcDbCircle
10
2.47814901935e-15
20
-9.2
40
0.801392532952
100
AcDbArc
50
351.244169534
51
41.186
0
ARC
5
F7
100
AcDbEntity
8
0
6
ByLayer
62
256
370
-1
100
AcDbCircle
10
2.47814901935e-15
20
-9.2
40
1.19791480714
100
AcDbArc
50
351.244177827
51
41.186
0
LINE
5
F8
100
AcDbEntity
8
0
6
ByLayer
62
4
370
-1
100
AcDbLine
10
0.903091001556
20
-8.40979329103
11
2.47814901935e-15
21
-9.2
0
CIRCLE
5
F9
100
AcDbEntity
8
0
6
ByLayer
62
256
370
-1
100
AcDbCircle
10
0.988398074731
20
-9.35188563417
40
0.2
0
LINE
5
FA
100
AcDbEntity
8
0
6
ByLayer
62
4
370
-1
100
AcDbLine
10
1.18601468967
20
-9.3826722636
11
2.47814901935e-15
21
-9.2
0
CIRCLE
5
FB
100
AcDbEntity
8
0
6
ByLayer
62
256
370
-1
100
AcDbCircle
10
1.9
20
-9.70910346562
40
0.2
0
CIRCLE
5
FC
100
AcDbEntity
8
0
6
ByLayer
62
256
370
-1
100
AcDbCircle
10
2.88093554805
20
-9.51477011652
40
0.2
0
LINE
5
FD
100
AcDbEntity
8
0
6
ByLayer
62
256
370
-1
100
AcDbLine
10
2.78400526004
20
-9.02460751952
11
1.80300267357
21
-9.21860217238
0
ARC
5
FE
100
AcDbEntity
8
0
6
ByLayer
62
256
370
-1
100
AcDbCircle
10
2.88100258647
20
-9.51510881276
40
0.5
100
AcDbArc
50
11.186
51
101.186
0
ARC
5
FF
100
AcDbEntity
8
0
6
ByLayer
62
256
370
-1
100
AcDbCircle
10
1.9
20
-9.70910346562
40
0.5
100
AcDbArc
50
101.186
51
191.186
0
ARC
5
100
100
AcDbEntity
8
0
6
ByLayer
62
0
370
-1
100
AcDbCircle
10
-1.82780982859
20
-10.4462831465
40
3.3
100
AcDbArc
50
297.012620512
51
11.186
0
ARC
5
101
100
AcDbEntity
8
0
6
ByLayer
62
0
370
-1
100
AcDbCircle
10
0.11779330879
20
-10.0933993199
40
3.3230477182
100
AcDbArc
50
262.273128868
51
11.7249332864
0
ARC
5
102
100
AcDbEntity
8
0
6
ByLayer
62
256
370
-1
100
AcDbCircle
10
1.9
20
-9.70910346562
40
0.801392532952
100
AcDbArc
50
321.244169534
51
11.186
0
ARC
5
103
100
AcDbEntity
8
0
6
ByLayer
62
256
370
-1
100
AcDbCircle
10
1.9
20
-9.70910346562
40
1.19791480714
100
AcDbArc
50
321.244177827
51
11.186
0
LINE
5
104
100
AcDbEntity
8
0
6
ByLayer
62
4
370
-1
100
AcDbLine
10
3.07720310376
20
-9.47630988218
11
1.9
21
-9.70910346562
0
CIRCLE
5
105
100
AcDbEntity
8
0
6
ByLayer
62
256
370
-1
100
AcDbCircle
10
2.68003502468
20
-10.3348393206
40
0.2
0
LINE
5
106
100
AcDbEntity
8
0
6
ByLayer
62
4
370
-1
100
AcDbLine
10
2.83578271872
20
-10.4603096313
11
1.9
21
-9.70910346562
0
CIRCLE
5
107
100
AcDbEntity
8
0
6
ByLayer
62
256
370
-1
100
AcDbCircle
10
3.29089653438
20
-11.1
40
0.2
0
CIRCLE
5
108
100
AcDbEntity
8
0
6
ByLayer
62
256
370
-1
100
AcDbCircle
10
4.23757831302
20
-11.4221701569
40
0.2
0
LINE
5
109
100
AcDbEntity
8
0
6
ByLayer
62
256
370
-1
100
AcDbLine
10
4.3987155197
20
-10.9492117519
11
3.45214503221
21
-10.6267147563
0
ARC
5
10A
100
AcDbEntity
8
0
6
ByLayer
62
256
370
-1
100
AcDbCircle
10
4.23746702187
20
-11.4224969957
40
0.5
100
AcDbArc
50
341.186
51
71.186
0
ARC
5
10B
100
AcDbEntity
8
0
6
ByLayer
62
256
370
-1
100
AcDbCircle
10
3.29089653438
20
-11.1
40
0.5
100
AcDbArc
50
71.186
51
161.186
0
ARC
5
10C
100
AcDbEntity
8
0
6
ByLayer
62
0
370
-1
100
AcDbCircle
10
-0.30607131809
20
-9.8745114165
40
3.3
100
AcDbArc
50
267.012620512
51
341.186
0
ARC
5
10D
100
AcDbEntity
8
0
6
ByLayer
62
0
370
-1
100
AcDbCircle
10
1.55531233788
20
-10.5417066267
40
3.3230477182
100
AcDbArc
50
232.273128868
51
341.724933286
0
ARC
5
10E
100
AcDbEntity
8
0
6
ByLayer
62
256
370
-1
100
AcDbCircle
10
3.29089653438
20
-11.1
40
0.801392532952
100
AcDbArc
50
291.244169534
51
341.186
0
ARC
5
10F
100
AcDbEntity
8
0
6
ByLayer
62
256
370
-1
100
AcDbCircle
10
3.29089653438
20
-11.1
40
1.19791480714
100
AcDbArc
50
291.244177827
51
341.186
0
LINE
5
110
100
AcDbEntity
8
0
6
ByLayer
62
4
370
-1
100
AcDbLine
10
4.42678111937
20
-11.4869963948
11
3.29089653438
21
-11.1
0
CIRCLE
5
111
100
AcDbEntity
8
0
6
ByLayer
62
256
370
-1
100
AcDbCircle
10
3.65355875409
20
-12.0319206589
40
0.2
0
LINE
5
112
100
AcDbEntity
8
0
6
ByLayer
62
4
370
-1
100
AcDbLine
10
3.72570505837
20
-12.2184549823
11
3.29089653438
21
-11.1
0
CIRCLE
5
113
100
AcDbEntity
8
0
6
ByLayer
62
256
370
-1
100
AcDbCircle
10
3.8
20
-13
40
0.2
0
CIRCLE
5
114
100
AcDbEntity
8
0
6
ByLayer
62
256
370
-1
100
AcDbCircle
10
4.45876539114
20
-13.7523484295
40
0.2
0
LINE
5
115
100
AcDbEntity
8
0
6
ByLayer
62
256
370
-1
100
AcDbLine
10
4.83479350813
20
-13.4233230392
11
4.17628791732
21
-12.6707472046
0
ARC
5
116
100
AcDbEntity
8
0
6
ByLayer
62
256
370
-1
100
AcDbCircle
10
4.45850559081
20
-13.7525758346
40
0.5
100
AcDbArc
50
311.186
51
41.186
0
ARC
5
117
100
AcDbEntity
8
0
6
ByLayer
62
256
370
-1
100
AcDbCircle
10
3.8
20
-13
40
0.5
100
AcDbArc
50
41.186
51
131.186
0
ARC
5
118
100
AcDbEntity
8
0
6
ByLayer
62
0
370
-1
100
AcDbCircle
10
1.29767875491
20
-10.1402118284
40
3.3
100
AcDbArc
50
237.012620512
51
311.186
0
ARC
5
119
100
AcDbEntity
8
0
6
ByLayer
62
0
370
-1
100
AcDbCircle
10
2.57608668205
20
-11.6487116577
40
3.3230477182
100
AcDbArc
50
202.273128868
51
311.724933286
0
ARC
5
11A
100
AcDbEntity
8
0
6
ByLayer
62
256
370
-1
100
AcDbCircle
10
3.8
20
-13
40
0.801392532952
100
AcDbArc
50
261.244169534
51
311.186
0
ARC
5
11B
100
AcDbEntity
8
0
6
ByLayer
62
256
370
-1
100
AcDbCircle
10
3.8
20
-13
40
1.19791480714
100
AcDbArc
50
261.244177827
51
311.186
0
LINE
5
11C
100
AcDbEntity
8
0
6
ByLayer
62
4
370
-1
100
AcDbLine
10
4.59020670897
20
-13.9030910016
11
3.8
21
-13
0
CIRCLE
5
11D
100
AcDbEntity
8
0
6
ByLayer
62
256
370
-1
100
AcDbCircle
10
3.64811436583
20
-13.9883980747
40
0.2
0
LINE
5
11E
100
AcDbEntity
8
0
6
ByLayer
62
4
370
-1
100
AcDbLine
10
3.6173277364
20
-14.1860146897
11
3.8
21
-13
0
CIRCLE
5
11F
100
AcDbEntity
8
0
6
ByLayer
62
256
370
-1
100
AcDbCircle
10
3.29089653438
20
-14.9
40
0.2
0
CIRCLE
5
120
100
AcDbEntity
8
0
6
ByLayer
62
256
370
-1
100
AcDbCircle
10
3.48522988348
20
-15.8809355481
40
0.2
0
LINE
5
121
100
AcDbEntity
8
0
6
ByLayer
62
256
370
-1
100
AcDbLine
10
3.97539248048
20
-15.78400526
11
3.78139782762
21
-14.8030026736
0
ARC
5
122
100
AcDbEntity
8
0
6
ByLayer
62
256
370
-1
100
AcDbCircle
10
3.48489118724
20
-15.8810025865
40
0.5
100
AcDbArc
50
281.186
51
11.186
0
ARC
5
123
100
AcDbEntity
8
0
6
ByLayer
62
256
370
-1
100
AcDbCircle
10
3.29089653438
20
-14.9
40
0.5
100
AcDbArc
50
11.186
51
101.186
0
ARC
5
124
100
AcDbEntity
8
0
6
ByLayer
62
0
370
-1
100
AcDbCircle
10
2.5537168535
20
-11.1721901714
40
3.3
100
AcDbArc
50
207.012620512
51
281.186
0
ARC
5
125
100
AcDbEntity
8
0
6
ByLayer
62
0
370
-1
100
AcDbCircle
10
2.90660068014
20
-13.1177933088
40
3.3230477182
100
AcDbArc
50
172.273128868
51
281.724933286
0
ARC
5
126
100
AcDbEntity
8
0
6
ByLayer
62
256
370
-1
100
AcDbCircle
10
3.29089653438
20
-14.9
40
0.801392532952
100
AcDbArc
50
231.244169534
51
281.186
0
ARC
5
127
100
AcDbEntity
8
0
6
ByLayer
62
256
370
-1
100
AcDbCircle
10
3.29089653438
20
-14.9
40
1.19791480714
100
AcDbArc
50
231.244177827
51
281.186
0
LINE
5
128
100
AcDbEntity
8
0
6
ByLayer
62
4
370
-1
100
AcDbLine
10
3.52369011782
20
-16.0772031038
11
3.29089653438
21
-14.9
0
CIRCLE
5
129
100
AcDbEntity
8
0
6
ByLayer
62
256
370
-1
100
AcDbCircle
10
2.66516067935
20
-15.6800350247
40
0.2
0
LINE
5
12A
100
AcDbEntity
8
0
6
ByLayer
62
4
370
-1
100
AcDbLine
10
2.5396903687
20
-15.8357827187
11
3.29089653438
21
-14.9
0
CIRCLE
5
12B
100
AcDbEntity
8
0
6
ByLayer
62
256
370
-1
100
AcDbCircle
10
1.9
20
-16.2908965344
40
0.2
0
CIRCLE
5
12C
100
AcDbEntity
8
0
6
ByLayer
62
256
370
-1
100
AcDbCircle
10
1.57782984309
20
-17.237578313
40
0.2
0
LINE
5
12D
100
AcDbEntity
8
0
6
ByLayer
62
256
370
-1
100
AcDbLine
10
2.05078824809
20
-17.3987155197
11
2.37328524375
21
-16.4521450322
0
ARC
5
12E
100
AcDbEntity
8
0
6
ByLayer
62
256
370
-1
100
AcDbCircle
10
1.57750300434
20
-17.2374670219
40
0.5
100
AcDbArc
50
251.186
51
341.186
0
ARC
5
12F
100
AcDbEntity
8
0
6
ByLayer
62
256
370
-1
100
AcDbCircle
10
1.9
20
-16.2908965344
40
0.5
100
AcDbArc
50
341.186
51
71.186
0
ARC
5
130
100
AcDbEntity
8
0
6
ByLayer
62
0
370
-1
100
AcDbCircle
10
3.1254885835
20
-12.6939286819
40
3.3
100
AcDbArc
50
177.012620512
51
251.186
0
ARC
5
131
100
AcDbEntity
8
0
6
ByLayer
62
0
370
-1
100
AcDbCircle
10
2.45829337326
20
-14.5553123379
40
3.3230477182
100
AcDbArc
50
142.273128868
51
251.724933286
0
ARC
5
132
100
AcDbEntity
8
0
6
ByLayer
62
256
370
-1
100
AcDbCircle
10
1.9
20
-16.2908965344
40
0.801392532952
100
AcDbArc
50
201.244169534
51
251.186
0
ARC
5
133
100
AcDbEntity
8
0
6
ByLayer
62
256
370
-1
100
AcDbCircle
10
1.9
20
-16.2908965344
40
1.19791480714
100
AcDbArc
50
201.244177827
51
251.186
0
LINE
5
134
100
AcDbEntity
8
0
6
ByLayer
62
4
370
-1
100
AcDbLine
10
1.51300360521
20
-17.4267811194
11
1.9
21
-16.2908965344
0
CIRCLE
5
135
100
AcDbEntity
8
0
6
ByLayer
62
256
370
-1
100
AcDbCircle
10
0.968079341146
20
-16.6535587541
40
0.2
0
LINE
5
136
100
AcDbEntity
8
0
6
ByLayer
62
4
370
-1
100
AcDbLine
10
0.781545017686
20
-16.7257050584
11
1.9
21
-16.2908965344
0
CIRCLE
5
137
100
AcDbEntity
8
0
6
ByLayer
62
256
370
-1
100
AcDbCircle
10
-1.93211277798e-14
20
-16.8
40
0.2
0
CIRCLE
5
138
100
AcDbEntity
8
0
6
ByLayer
62
256
370
-1
100
AcDbCircle
10
-0.75234842954
20
-17.4587653911
40
0.2
0
LINE
5
139
100
AcDbEntity
8
0
6
ByLayer
62
256
370
-1
100
AcDbLine
10
-0.423323039224
20
-17.8347935081
11
0.329252795406
21
-17.1762879173
0
ARC
5
13A
100
AcDbEntity
8
0
6
ByLayer
62
256
370
-1
100
AcDbCircle
10
-0.75257583463
20
-17.4585055908
40
0.5
100
AcDbArc
50
221.186
51
311.186
0
ARC
5
13B
100
AcDbEntity
8
0
6
ByLayer
62
256
370
-1
100
AcDbCircle
10
-1.93211277798e-14
20
-16.8
40
0.5
100
AcDbArc
50
311.186
51
41.186
0
ARC
5
13C
100
AcDbEntity
8
0
6
ByLayer
62
0
370
-1
100
AcDbCircle
10
2.85978817159
20
-14.2976787549
40
3.3
100
AcDbArc
50
147.012620512
51
221.186
0
ARC
5
13D
100
AcDbEntity
8
0
6
ByLayer
62
0
370
-1
100
AcDbCircle
10
1.35128834226
20
-15.5760866821
40
3.3230477182
100
AcDbArc
50
112.273128868
51
221.724933286
0
ARC
5
13E
100
AcDbEntity
8
0
6
ByLayer
62
256
370
-1
100
AcDbCircle
10
-1.93211277798e-14
20
-16.8
40
0.801392532952
100
AcDbArc
50
171.244169534
51
221.186
0
ARC
5
13F
100
AcDbEntity
8
0
6
ByLayer
62
256
370
-1
100
AcDbCircle
10
-1.93211277798e-14
20
-16.8
40
1.19791480714
100
AcDbArc
50
171.244177827
51
221.186
0
LINE
5
140
100
AcDbEntity
8
0
6
ByLayer
62
4
370
-1
100
AcDbLine
10
-0.903091001556
20
-17.590206709
11
-1.93211277798e-14
21
-16.8
0
CIRCLE
5
141
100
AcDbEntity
8
0
6
ByLayer
62
256
370
-1
100
AcDbCircle
10
-0.988398074731
20
-16.6481143658
40
0.2
0
LINE
5
142
100
AcDbEntity
8
0
6
ByLayer
62
4
370
-1
100
AcDbLine
10
-1.18601468967
20
-16.6173277364
11
-1.93211277798e-14
21
-16.8
0
CIRCLE
5
143
100
AcDbEntity
8
0
6
ByLayer
62
256
370
-1
100
AcDbCircle
10
-1.9
20
-16.2908965344
40
0.2
0
CIRCLE
5
144
100
AcDbEntity
8
0
6
ByLayer
62
256
370
-1
100
AcDbCircle
10
-2.88093554805
20
-16.4852298835
40
0.2
0
LINE
5
145
100
AcDbEntity
8
0
6
ByLayer
62
256
370
-1
100
AcDbLine
10
-2.78400526004
20
-16.9753924805
11
-1.80300267357
21
-16.7813978276
0
ARC
5
146
100
AcDbEntity
8
0
6
ByLayer
62
256
370
-1
100
AcDbCircle
10
-2.88100258647
20
-16.4848911872
40
0.5
100
AcDbArc
50
191.186
51
281.186
0
ARC
5
147
100
AcDbEntity
8
0
6
ByLayer
62
256
370
-1
100
AcDbCircle
10
-1.9
20
-16.2908965344
40
0.5
100
AcDbArc
50
281.186
51
11.186
0
ARC
5
148
100
AcDbEntity
8
0
6
ByLayer
62
0
370
-1
100
AcDbCircle
10
1.82780982859
20
-15.5537168535
40
3.3
100
AcDbArc
50
117.012620512
51
191.186
0
ARC
5
149
100
AcDbEntity
8
0
6
ByLayer
62
0
370
-1
100
AcDbCircle
10
-0.11779330879
20
-15.9066006801
40
3.3230477182
100
AcDbArc
50
82.2731288684
51
191.724933286
0
ARC
5
14A
100
AcDbEntity
8
0
6
ByLayer
62
256
370
-1
100
AcDbCircle
10
-1.9
20
-16.2908965344
40
0.801392532952
100
AcDbArc
50
141.244169534
51
191.186
0
ARC
5
14B
100
AcDbEntity
8
0
6
ByLayer
62
256
370
-1
100
AcDbCircle
10
-1.9
20
-16.2908965344
40
1.19791480714
100
AcDbArc
50
141.244177827
51
191.186
0
LINE
5
14C
100
AcDbEntity
8
0
6
ByLayer
62
4
370
-1
100
AcDbLine
10
-3.07720310376
20
-16.5236901178
11
-1.9
21
-16.2908965344
0
CIRCLE
5
14D
100
AcDbEntity
8
0
6
ByLayer
62
256
370
-1
100
AcDbCircle
10
-2.68003502468
20
-15.6651606794
40
0.2
0
LINE
5
14E
100
AcDbEntity
8
0
6
ByLayer
62
4
370
-1
100
AcDbLine
10
-2.83578271872
20
-15.5396903687
11
-1.9
21
-16.2908965344
0
CIRCLE
5
14F
100
AcDbEntity
8
0
6
ByLayer
62
256
370
-1
100
AcDbCircle
10
-3.29089653438
20
-14.9
40
0.2
0
CIRCLE
5
150
100
AcDbEntity
8
0
6
ByLayer
62
256
370
-1
100
AcDbCircle
10
-4.23757831302
20
-14.5778298431
40
0.2
0
LINE
5
151
100
AcDbEntity
8
0
6
ByLayer
62
256
370
-1
100
AcDbLine
10
-4.3987155197
20
-15.0507882481
11
-3.45214503221
21
-15.3732852437
0
ARC
5
152
100
AcDbEntity
8
0
6
ByLayer
62
256
370
-1
100
AcDbCircle
10
-4.23746702187
20
-14.5775030043
40
0.5
100
AcDbArc
50
161.186
51
251.186
0
ARC
5
153
100
AcDbEntity
8
0
6
ByLayer
62
256
370
-1
100
AcDbCircle
10
-3.29089653438
20
-14.9
40
0.5
100
AcDbArc
50
251.186
51
341.186
0
ARC
5
154
100
AcDbEntity
8
0
6
ByLayer
62
0
370
-1
100
AcDbCircle
10
0.30607131809
20
-16.1254885835
40
3.3
100
AcDbArc
50
87.0126205122
51
161.186
0
ARC
5
155
100
AcDbEntity
8
0
6
ByLayer
62
0
370
-1
100
AcDbCircle
10
-1.55531233788
20
-15.4582933733
40
3.3230477182
100
AcDbArc
50
52.2731288684
51
161.724933286
0
ARC
5
156
100
AcDbEntity
8
0
6
ByLayer
62
256
370
-1
100
AcDbCircle
10
-3.29089653438
20
-14.9
40
0.801392532952
100
AcDbArc
50
111.244169534
51
161.186
0
ARC
5
157
100
AcDbEntity
8
0
6
ByLayer
62
256
370
-1
100
AcDbCircle
10
-3.29089653438
20
-14.9
40
1.19791480714
100
AcDbArc
50
111.244177827
51
161.186
0
LINE
5
158
100
AcDbEntity
8
0
6
ByLayer
62
4
370
-1
100
AcDbLine
10
-4.42678111937
20
-14.5130036052
11
-3.29089653438
21
-14.9
0
CIRCLE
5
159
100
AcDbEntity
8
0
6
ByLayer
62
256
370
-1
100
AcDbCircle
10
-3.65355875409
20
-13.9680793411
40
0.2
0
LINE
5
15A
100
AcDbEntity
8
0
6
ByLayer
62
4
370
-1
100
AcDbLine
10
-3.72570505837
20
-13.7815450177
11
-3.29089653438
21
-14.9
0
CIRCLE
5
15B
100
AcDbEntity
8
0
6
ByLayer
62
256
370
-1
100
AcDbCircle
10
-3.8
20
-13
40
0.2
0
CIRCLE
5
15C
100
AcDbEntity
8
0
6
ByLayer
62
256
370
-1
100
AcDbCircle
10
-4.45876539114
20
-12.2476515705
40
0.2
0
LINE
5
15D
100
AcDbEntity
8
0
6
ByLayer
62
256
370
-1
100
AcDbLine
10
-4.83479350813
20
-12.5766769608
11
-4.17628791732
21
-13.3292527954
0
ARC
5
15E
100
AcDbEntity
8
0
6
ByLayer
62
256
370
-1
100
AcDbCircle
10
-4.45850559081
20
-12.2474241654
40
0.5
100
AcDbArc
50
131.186
51
221.186
0
ARC
5
15F
100
AcDbEntity
8
0
6
ByLayer
62
256
370
-1
100
AcDbCircle
10
-3.8
20
-13
40
0.5
100
AcDbArc
50
221.186
51
311.186
0
ARC
5
160
100
AcDbEntity
8
0
6
ByLayer
62
0
370
-1
100
AcDbCircle
10
-1.29767875491
20
-15.8597881716
40
3.3
100
AcDbArc
50
57.0126205122
51
131.186
0
ARC
5
161
100
AcDbEntity
8
0
6
ByLayer
62
0
370
-1
100
AcDbCircle
10
-2.57608668205
20
-14.3512883423
40
3.3230477182
100
AcDbArc
50
22.2731288684
51
131.724933286
0
ARC
5
162
100
AcDbEntity
8
0
6
ByLayer
62
256
370
-1
100
AcDbCircle
10
-3.8
20
-13
40
0.801392532952
100
AcDbArc
50
81.2441695344
51
131.186
0
ARC
5
163
100
AcDbEntity
8
0
6
ByLayer
62
256
370
-1
100
AcDbCircle
10
-3.8
20
-13
40
1.19791480714
100
AcDbArc
50
81.2441778269
51
131.186
0
LINE
5
164
100
AcDbEntity
8
0
6
ByLayer
62
4
370
-1
100
AcDbLine
10
-4.59020670897
20
-12.0969089984
11
-3.8
21
-13
0
CIRCLE
5
165
100
AcDbEntity
8
0
6
ByLayer
62
256
370
-1
100
AcDbCircle
10
-3.64811436583
20
-12.0116019253
40
0.2
0
LINE
5
166
100
AcDbEntity
8
0
6
ByLayer
62
4
370
-1
100
AcDbLine
10
-3.6173277364
20
-11.8139853103
11
-3.8
21
-13
0
CIRCLE
5
167
100
AcDbEntity
8
0
6
ByLayer
62
256
370
-1
100
AcDbCircle
10
-3.29089653438
20
-11.1
40
0.2
0
CIRCLE
5
168
100
AcDbEntity
8
0
6
ByLayer
62
256
370
-1
100
AcDbCircle
10
-3.48522988348
20
-10.1190644519
40
0.2
0
LINE
5
169
100
AcDbEntity
8
0
6
ByLayer
62
256
370
-1
100
AcDbLine
10
-3.97539248048
20
-10.21599474
11
-3.78139782762
21
-11.1969973264
0
ARC
5
16A
100
AcDbEntity
8
0
6
ByLayer
62
256
370
-1
100
AcDbCircle
10
-3.48489118724
20
-10.1189974135
40
0.5
100
AcDbArc
50
101.186
51
191.186
0
ARC
5
16B
100
AcDbEntity
8
0
6
ByLayer
62
256
370
-1
100
AcDbCircle
10
-3.29089653438
20
-11.1
40
0.5
100
AcDbArc
50
191.186
51
281.186
0
ARC
5
16C
100
AcDbEntity
8
0
6
ByLayer
62
0
370
-1
100
AcDbCircle
10
-2.5537168535
20
-14.8278098286
40
3.3
100
AcDbArc
50
27.0126205122
51
101.186
0
ARC
5
16D
100
AcDbEntity
8
0
6
ByLayer
62
0
370
-1
100
AcDbCircle
10
-2.90660068014
20
-12.8822066912
40
3.3230477182
100
AcDbArc
50
352.273128868
51
101.724933286
0
ARC
5
16E
100
AcDbEntity
8
0
6
ByLayer
62
256
370
-1
100
AcDbCircle
10
-3.29089653438
20
-11.1
40
0.801392532952
100
AcDbArc
50
51.2441695344
51
101.186
0
ARC
5
16F
100
AcDbEntity
8
0
6
ByLayer
62
256
370
-1
100
AcDbCircle
10
-3.29089653438
20
-11.1
40
1.19791480714
100
AcDbArc
50
51.2441778269
51
101.186
0
LINE
5
170
100
AcDbEntity
8
0
6
ByLayer
62
4
370
-1
100
AcDbLine
10
-3.52369011782
20
-9.92279689624
11
-3.29089653438
21
-11.1
0
CIRCLE
5
171
100
AcDbEntity
8
0
6
ByLayer
62
256
370
-1
100
AcDbCircle
10
-2.66516067935
20
-10.3199649753
40
0.2
0
LINE
5
172
100
AcDbEntity
8
0
6
ByLayer
62
4
370
-1
100
AcDbLine
10
-2.5396903687
20
-10.1642172813
11
-3.29089653438
21
-11.1
0
CIRCLE
5
173
100
AcDbEntity
8
0
6
ByLayer
62
256
370
-1
100
AcDbCircle
10
-1.9
20
-9.70910346562
40
0.2
0
CIRCLE
5
174
100
AcDbEntity
8
0
6
ByLayer
62
256
370
-1
100
AcDbCircle
10
-1.57782984309
20
-8.76242168698
40
0.2
0
LINE
5
175
100
AcDbEntity
8
0
6
ByLayer
62
256
370
-1
100
AcDbLine
10
-2.05078824809
20
-8.6012844803
11
-2.37328524375
21
-9.54785496779
0
ARC
5
176
100
AcDbEntity
8
0
6
ByLayer
62
256
370
-1
100
AcDbCircle
10
-1.57750300434
20
-8.76253297813
40
0.5
100
AcDbArc
50
71.186
51
161.186
0
ARC
5
177
100
AcDbEntity
8
0
6
ByLayer
62
256
370
-1
100
AcDbCircle
10
-1.9
20
-9.70910346562
40
0.5
100
AcDbArc
50
161.186
51
251.186
0
ARC
5
178
100
AcDbEntity
8
0
6
ByLayer
62
0
370
-1
100
AcDbCircle
10
-3.1254885835
20
-13.3060713181
40
3.3
100
AcDbArc
50
357.012620512
51
71.186
0
ARC
5
179
100
AcDbEntity
8
0
6
ByLayer
62
0
370
-1
100
AcDbCircle
10
-2.45829337326
20
-11.4446876621
40
3.3230477182
100
AcDbArc
50
322.273128868
51
71.7249332864
0
ARC
5
17A
100
AcDbEntity
8
0
6
ByLayer
62
256
370
-1
100
AcDbCircle
10
-1.9
20
-9.70910346562
40
0.801392532952
100
AcDbArc
50
21.2441695344
51
71.186
0
ARC
5
17B
100
AcDbEntity
8
0
6
ByLayer
62
256
370
-1
100
AcDbCircle
10
-1.9
20
-9.70910346562
40
1.19791480714
100
AcDbArc
50
21.2441778269
51
71.186
0
LINE
5
17C
100
AcDbEntity
8
0
6
ByLayer
62
4
370
-1
100
AcDbLine
10
-1.51300360521
20
-8.57321888063
11
-1.9
21
-9.70910346562
0
CIRCLE
5
17D
100
AcDbEntity
8
0
6
ByLayer
62
256
370
-1
100
AcDbCircle
10
-0.968079341146
20
-9.34644124591
40
0.2
0
LINE
5
17E
100
AcDbEntity
8
0
6
ByLayer
62
4
370
-1
100
AcDbLine
10
-0.781545017686
20
-9.27429494163
11
-1.9
21
-9.70910346562
0
CIRCLE
5
17F
100
AcDbEntity
8
0
6
ByLayer
62
256
370
-1
100
AcDbCircle
10
15.8250984327
20
2.89999997892
40
0.2
0
CIRCLE
5
180
100
AcDbEntity
8
0
6
ByLayer
62
256
370
-1
100
AcDbCircle
10
15.8247531657
20
3.89999991932
40
0.2
0
LINE
5
181
100
AcDbEntity
8
0
6
ByLayer
62
256
370
-1
100
AcDbLine
10
15.3250984327
20
3.89999997892
11
15.3250984327
21
2.89999997892
0
ARC
5
182
100
AcDbEntity
8
0
6
ByLayer
62
256
370
-1
100
AcDbCircle
10
15.8250984327
20
3.89999997892
40
0.5
100
AcDbArc
50
90
51
180
0
ARC
5
183
100
AcDbEntity
8
0
6
ByLayer
62
256
370
-1
100
AcDbCircle
10
15.8250984327
20
2.89999997892
40
0.5
100
AcDbArc
50
180
51
270
0
ARC
5
184
100
AcDbEntity
8
0
6
ByLayer
62
0
370
-1
100
AcDbCircle
10
15.8250984327
20
-0.900000021076
40
3.3
100
AcDbArc
50
15.8266205122
51
90
0
ARC
5
185
100
AcDbEntity
8
0
6
ByLayer
62
0
370
-1
100
AcDbCircle
10
15.8563550913
20
1.07709926438
40
3.3230477182
100
AcDbArc
50
341.087128868
51
90.5389332864
0
ARC
5
186
100
AcDbEntity
8
0
6
ByLayer
62
256
370
-1
100
AcDbCircle
10
15.8250984327
20
2.89999997892
40
0.801392532952
100
AcDbArc
50
40.0581695344
51
90
0
ARC
5
187
100
AcDbEntity
8
0
6
ByLayer
62
256
370
-1
100
AcDbCircle
10
15.8250984327
20
2.89999997892
40
1.19791480714
100
AcDbArc
50
40.0581778269
51
90
0
LINE
5
188
100
AcDbEntity
8
0
6
ByLayer
62
4
370
-1
100
AcDbLine
10
15.8250984327
20
4.09999997892
11
15.8250984327
21
2.89999997892
0
CIRCLE
5
189
100
AcDbEntity
8
0
6
ByLayer
62
4
370
-1
100
AcDbCircle
10
15.8260383121
20
2.89219492937
40
1.00780548782
0
CIRCLE
5
18A
100
AcDbEntity
8
0
6
ByLayer
62
256
370
-1
100
AcDbCircle
10
16.5902695488
20
3.5438269457
40
0.2
0
LINE
5
18B
100
AcDbEntity
8
0
6
ByLayer
62
4
370
-1
100
AcDbLine
10
16.7435704679
20
3.67227526702
11
15.8250984327
21
2.89999997892
0
DIMENSION
5
18C
100
AcDbEntity
8
0
6
ByLayer
62
4
370
-1
100
AcDbDimension
2
*D1
10
16.7435704679
20
3.67227526702
30
0
11
5.8250984327
21
-0.100000021076
31
0
70
34
71
5
3
Standard
53
0
210
0
220
0
230
1
100
AcDb2LineAngularDimension
13
15.8250984327
23
2.89999997892
33
0
14
15.8250984327
24
4.09999997892
34
0
15
15.8250984327
25
2.89999997892
35
0
16
19.1266777858
26
5.74841556579
36
0
0
CIRCLE
5
18D
100
AcDbEntity
8
0
6
ByLayer
62
256
370
-1
100
AcDbCircle
10
15.8045300511
20
-4.07529009635
40
0.2
0
CIRCLE
5
18E
100
AcDbEntity
8
0
6
ByLayer
62
256
370
-1
100
AcDbCircle
10
15.8041847841
20
-3.07529015596
40
0.2
0
LINE
5
18F
100
AcDbEntity
8
0
6
ByLayer
62
256
370
-1
100
AcDbLine
10
15.3045300511
20
-3.07529009635
11
15.3045300511
21
-4.07529009635
0
ARC
5
190
100
AcDbEntity
8
0
6
ByLayer
62
256
370
-1
100
AcDbCircle
10
15.8045300511
20
-3.07529009635
40
0.5
100
AcDbArc
50
90
51
180
0
ARC
5
191
100
AcDbEntity
8
0
6
ByLayer
62
256
370
-1
100
AcDbCircle
10
15.8045300511
20
-4.07529009635
40
0.5
100
AcDbArc
50
180
51
270
0
ARC
5
192
100
AcDbEntity
8
0
6
ByLayer
62
0
370
-1
100
AcDbCircle
10
15.8045300511
20
-7.87529009635
40
3.3
100
AcDbArc
50
15.8266205122
51
90
0
ARC
5
193
100
AcDbEntity
8
0
6
ByLayer
62
0
370
-1
100
AcDbCircle
10
15.8357867097
20
-5.8981908109
40
3.3230477182
100
AcDbArc
50
341.087128868
51
90.5389332864
0
CIRCLE
5
194
100
AcDbEntity
8
0
6
ByLayer
62
256
370
-1
100
AcDbCircle
10
28.6474420126
20
-3.13251213468
40
0.2
0
ARC
5
195
100
AcDbEntity
8
0
6
ByLayer
62
256
370
-1
100
AcDbCircle
10
28.6474420126
20
-3.13251213468
40
0.801392532952
100
AcDbArc
50
40.0581695344
51
90
0
CIRCLE
5
196
100
AcDbEntity
8
0
6
ByLayer
62
256
370
-1
100
AcDbCircle
10
30.5474420126
20
-3.64161560029
40
0.2
0
CIRCLE
5
197
100
AcDbEntity
8
0
6
ByLayer
62
256
370
-1
100
AcDbCircle
10
31.0471429729
20
-2.77541761464
40
0.2
0
ARC
5
198
100
AcDbEntity
8
0
6
ByLayer
62
256
370
-1
100
AcDbCircle
10
30.5474420126
20
-3.64161560029
40
0.801392532952
100
AcDbArc
50
10.0581695344
51
60
0
ARC
5
199
100
AcDbEntity
8
0
6
ByLayer
62
256
370
-1
100
AcDbCircle
10
30.5474420126
20
-3.64161560029
40
1.19791480714
100
AcDbArc
50
10.0581778269
51
60
0
CIRCLE
5
19A
100
AcDbEntity
8
0
6
ByLayer
62
256
370
-1
100
AcDbCircle
10
31.5320131208
20
-3.46663064946
40
0.2
0
CIRCLE
5
19B
100
AcDbEntity
8
0
6
ByLayer
62
256
370
-1
100
AcDbCircle
10
31.938338547
20
-5.03251213468
40
0.2
0
CIRCLE
5
19C
100
AcDbEntity
8
0
6
ByLayer
62
256
370
-1
100
AcDbCircle
10
32.8041912657
20
-4.53221315451
40
0.2
0
ARC
5
19D
100
AcDbEntity
8
0
6
ByLayer
62
256
370
-1
100
AcDbCircle
10
31.938338547
20
-5.03251213468
40
0.801392532952
100
AcDbArc
50
340.058169534
51
30
0
ARC
5
19E
100
AcDbEntity
8
0
6
ByLayer
62
256
370
-1
100
AcDbCircle
10
31.938338547
20
-5.03251213468
40
1.19791480714
100
AcDbArc
50
340.058177827
51
30
0
CIRCLE
5
19F
100
AcDbEntity
8
0
6
ByLayer
62
256
370
-1
100
AcDbCircle
10
32.8784946139
20
-5.37325627604
40
0.2
0
CIRCLE
5
1A0
100
AcDbEntity
8
0
6
ByLayer
62
256
370
-1
100
AcDbCircle
10
32.4474420126
20
-6.93251213468
40
0.2
0
CIRCLE
5
1A1
100
AcDbEntity
8
0
6
ByLayer
62
256
370
-1
100
AcDbCircle
10
33.447441953
20
-6.9321668677
40
0.2
0
ARC
5
1A2
100
AcDbEntity
8
0
6
ByLayer
62
256
370
-1
100
AcDbCircle
10
32.4474420126
20
-6.93251213468
40
0.801392532952
100
AcDbArc
50
310.058169534
51
360
0
ARC
5
1A3
100
AcDbEntity
8
0
6
ByLayer
62
256
370
-1
100
AcDbCircle
10
32.4474420126
20
-6.93251213468
40
1.19791480714
100
AcDbArc
50
310.058177827
51
360
0
CIRCLE
5
1A4
100
AcDbEntity
8
0
6
ByLayer
62
256
370
-1
100
AcDbCircle
10
33.0912689794
20
-7.69768325074
40
0.2
0
CIRCLE
5
1A5
100
AcDbEntity
8
0
6
ByLayer
62
256
370
-1
100
AcDbCircle
10
31.938338547
20
-8.83251213468
40
0.2
0
CIRCLE
5
1A6
100
AcDbEntity
8
0
6
ByLayer
62
256
370
-1
100
AcDbCircle
10
32.8045365327
20
-9.3322130949
40
0.2
0
ARC
5
1A7
100
AcDbEntity
8
0
6
ByLayer
62
256
370
-1
100
AcDbCircle
10
31.938338547
20
-8.83251213468
40
0.801392532952
100
AcDbArc
50
280.058169534
51
330
0
ARC
5
1A8
100
AcDbEntity
8
0
6
ByLayer
62
256
370
-1
100
AcDbCircle
10
31.938338547
20
-8.83251213468
40
1.19791480714
100
AcDbArc
50
280.058177827
51
330
0
CIRCLE
5
1A9
100
AcDbEntity
8
0
6
ByLayer
62
256
370
-1
100
AcDbCircle
10
32.1133234979
20
-9.81708324281
40
0.2
0
CIRCLE
5
1AA
100
AcDbEntity
8
0
6
ByLayer
62
256
370
-1
100
AcDbCircle
10
30.5474420126
20
-10.2234086691
40
0.2
0
CIRCLE
5
1AB
100
AcDbEntity
8
0
6
ByLayer
62
256
370
-1
100
AcDbCircle
10
31.0477409928
20
-11.0892613877
40
0.2
0
ARC
5
1AC
100
AcDbEntity
8
0
6
ByLayer
62
256
370
-1
100
AcDbCircle
10
30.5474420126
20
-10.2234086691
40
0.801392532952
100
AcDbArc
50
250.058169534
51
300
0
ARC
5
1AD
100
AcDbEntity
8
0
6
ByLayer
62
256
370
-1
100
AcDbCircle
10
30.5474420126
20
-10.2234086691
40
1.19791480714
100
AcDbArc
50
250.058177827
51
300
0
CIRCLE
5
1AE
100
AcDbEntity
8
0
6
ByLayer
62
256
370
-1
100
AcDbCircle
10
30.2066978713
20
-11.163564736
40
0.2
0
CIRCLE
5
1AF
100
AcDbEntity
8
0
6
ByLayer
62
256
370
-1
100
AcDbCircle
10
28.6474420126
20
-10.7325121347
40
0.2
0
CIRCLE
5
1B0
100
AcDbEntity
8
0
6
ByLayer
62
256
370
-1
100
AcDbCircle
10
28.6477872796
20
-11.7325120751
40
0.2
0
ARC
5
1B1
100
AcDbEntity
8
0
6
ByLayer
62
256
370
-1
100
AcDbCircle
10
28.6474420126
20
-10.7325121347
40
0.801392532952
100
AcDbArc
50
220.058169534
51
270
0
ARC
5
1B2
100
AcDbEntity
8
0
6
ByLayer
62
256
370
-1
100
AcDbCircle
10
28.6474420126
20
-10.7325121347
40
1.19791480714
100
AcDbArc
50
220.058177827
51
270
0
CIRCLE
5
1B3
100
AcDbEntity
8
0
6
ByLayer
62
256
370
-1
100
AcDbCircle
10
27.8822708966
20
-11.3763391014
40
0.2
0
CIRCLE
5
1B4
100
AcDbEntity
8
0
6
ByLayer
62
256
370
-1
100
AcDbCircle
10
26.7474420126
20
-10.2234086691
40
0.2
0
CIRCLE
5
1B5
100
AcDbEntity
8
0
6
ByLayer
62
256
370
-1
100
AcDbCircle
10
26.2477410524
20
-11.0896066547
40
0.2
0
ARC
5
1B6
100
AcDbEntity
8
0
6
ByLayer
62
256
370
-1
100
AcDbCircle
10
26.7474420126
20
-10.2234086691
40
0.801392532952
100
AcDbArc
50
190.058169534
51
240
0
ARC
5
1B7
100
AcDbEntity
8
0
6
ByLayer
62
256
370
-1
100
AcDbCircle
10
26.7474420126
20
-10.2234086691
40
1.19791480714
100
AcDbArc
50
190.058177827
51
240
0
CIRCLE
5
1B8
100
AcDbEntity
8
0
6
ByLayer
62
256
370
-1
100
AcDbCircle
10
25.7628709045
20
-10.3983936199
40
0.2
0
CIRCLE
5
1B9
100
AcDbEntity
8
0
6
ByLayer
62
256
370
-1
100
AcDbCircle
10
25.3565454783
20
-8.83251213468
40
0.2
0
CIRCLE
5
1BA
100
AcDbEntity
8
0
6
ByLayer
62
256
370
-1
100
AcDbCircle
10
24.4906927596
20
-9.33281111484
40
0.2
0
ARC
5
1BB
100
AcDbEntity
8
0
6
ByLayer
62
256
370
-1
100
AcDbCircle
10
25.3565454783
20
-8.83251213468
40
0.801392532952
100
AcDbArc
50
160.058169534
51
210
0
ARC
5
1BC
100
AcDbEntity
8
0
6
ByLayer
62
256
370
-1
100
AcDbCircle
10
25.3565454783
20
-8.83251213468
40
1.19791480714
100
AcDbArc
50
160.058177827
51
210
0
CIRCLE
5
1BD
100
AcDbEntity
8
0
6
ByLayer
62
256
370
-1
100
AcDbCircle
10
24.4163894114
20
-8.49176799331
40
0.2
0
CIRCLE
5
1BE
100
AcDbEntity
8
0
6
ByLayer
62
256
370
-1
100
AcDbCircle
10
24.8474420126
20
-6.93251213468
40
0.2
0
CIRCLE
5
1BF
100
AcDbEntity
8
0
6
ByLayer
62
256
370
-1
100
AcDbCircle
10
23.8474420723
20
-6.93285740165
40
0.2
0
ARC
5
1C0
100
AcDbEntity
8
0
6
ByLayer
62
256
370
-1
100
AcDbCircle
10
24.8474420126
20
-6.93251213468
40
0.801392532952
100
AcDbArc
50
130.058169534
51
180
0
ARC
5
1C1
100
AcDbEntity
8
0
6
ByLayer
62
256
370
-1
100
AcDbCircle
10
24.8474420126
20
-6.93251213468
40
1.19791480714
100
AcDbArc
50
130.058177827
51
180
0
CIRCLE
5
1C2
100
AcDbEntity
8
0
6
ByLayer
62
256
370
-1
100
AcDbCircle
10
24.2036150459
20
-6.16734101861
40
0.2
0
CIRCLE
5
1C3
100
AcDbEntity
8
0
6
ByLayer
62
256
370
-1
100
AcDbCircle
10
25.3565454783
20
-5.03251213468
40
0.2
0
CIRCLE
5
1C4
100
AcDbEntity
8
0
6
ByLayer
62
256
370
-1
100
AcDbCircle
10
24.4903474926
20
-4.53281117445
40
0.2
0
ARC
5
1C5
100
AcDbEntity
8
0
6
ByLayer
62
256
370
-1
100
AcDbCircle
10
25.3565454783
20
-5.03251213468
40
0.801392532952
100
AcDbArc
50
100.058169534
51
150
0
ARC
5
1C6
100
AcDbEntity
8
0
6
ByLayer
62
256
370
-1
100
AcDbCircle
10
25.3565454783
20
-5.03251213468
40
1.19791480714
100
AcDbArc
50
100.058177827
51
150
0
CIRCLE
5
1C7
100
AcDbEntity
8
0
6
ByLayer
62
256
370
-1
100
AcDbCircle
10
25.1815605274
20
-4.04794102654
40
0.2
0
CIRCLE
5
1C8
100
AcDbEntity
8
0
6
ByLayer
62
256
370
-1
100
AcDbCircle
10
26.7474420126
20
-3.64161560029
40
0.2
0
CIRCLE
5
1C9
100
AcDbEntity
8
0
6
ByLayer
62
256
370
-1
100
AcDbCircle
10
26.2471430325
20
-2.77576288162
40
0.2
0
ARC
5
1CA
100
AcDbEntity
8
0
6
ByLayer
62
256
370
-1
100
AcDbCircle
10
26.7474420126
20
-3.64161560029
40
0.801392532952
100
AcDbArc
50
70.0581695344
51
120
0
ARC
5
1CB
100
AcDbEntity
8
0
6
ByLayer
62
256
370
-1
100
AcDbCircle
10
26.7474420126
20
-3.64161560029
40
1.19791480714
100
AcDbArc
50
70.0581778269
51
120
0
CIRCLE
5
1CC
100
AcDbEntity
8
0
6
ByLayer
62
256
370
-1
100
AcDbCircle
10
27.088186154
20
-2.7014595334
40
0.2
0
CIRCLE
5
1CD
100
AcDbEntity
8
0
6
ByLayer
62
0
370
-1
100
AcDbCircle
10
28.6474420126
20
-6.93251213468
40
3.3
0
CIRCLE
5
1CE
100
AcDbEntity
8
0
6
ByLayer
62
0
370
-1
100
AcDbCircle
10
28.6474420126
20
-6.93251213468
40
5.3
0
CIRCLE
5
1CF
100
AcDbEntity
8
0
6
ByLayer
62
256
370
-1
100
AcDbCircle
10
29.4126131287
20
-2.4886851679
40
0.2
0
ARC
5
1D0
100
AcDbEntity
8
0
6
ByLayer
62
0
370
-1
100
AcDbCircle
10
28.6470967457
20
-2.13251219428
40
0.2
100
AcDbArc
50
99.0853273564
51
99.0853273564
0
ARC
5
1D1
100
AcDbEntity
8
0
6
ByLayer
62
256
370
-1
100
AcDbCircle
10
28.6474420126
20
-3.13251213468
40
1.19791480714
100
AcDbArc
50
41.5857442843
51
88.5058154661
0
ENDSEC
0
SECTION
2
OBJECTS
0
DICTIONARY
5
C
330
0
100
AcDbDictionary
281
1
3
ACAD_GROUP
350
D
0
DICTIONARY
5
D
330
C
100
AcDbDictionary
281
1
0
ENDSEC
0
EOF
